<?xml version="1.0" encoding="UTF-8" standalone="no"?><!DOCTYPE svg PUBLIC "-//W3C//DTD SVG 1.1//EN" "http://www.w3.org/Graphics/SVG/1.1/DTD/svg11.dtd"><svg width="100%" height="100%" viewBox="0 0 760 258" version="1.1" xmlns="http://www.w3.org/2000/svg" xmlns:xlink="http://www.w3.org/1999/xlink" xml:space="preserve" xmlns:serif="http://www.serif.com/" style="fill-rule:evenodd;clip-rule:evenodd;stroke-linejoin:round;stroke-miterlimit:2;"><path d="M30.87,0l698.11,0c17.03,0 30.86,13.839 30.86,30.867l0,195.492c0,17.028 -13.83,30.867 -30.86,30.867l-698.11,0c-17.03,0 -30.87,-13.839 -30.87,-30.867l-0,-195.492c-0,-17.028 13.84,-30.867 30.87,-30.867Z" style="fill:#2e2c2f;fill-rule:nonzero;"/><path d="M125.4,80.726c-1.03,-8.288 3.09,-17.082 7.67,-22.484c5.19,-6.12 14.25,-10.806 21.45,-11.113c0.93,8.643 -2.47,17.13 -7.46,23.358c-5.19,6.119 -13.53,10.853 -21.66,10.239Z" style="fill:#fff;fill-rule:nonzero;"/><path d="M184.87,154.034c-0.1,0.512 -2.98,10.546 -10.13,20.677c-6.02,8.957 -12.25,17.702 -22.23,17.853c-9.67,0.205 -12.91,-5.71 -24.02,-5.71c-11.16,0 -14.66,5.559 -23.93,5.915c-9.51,0.361 -16.71,-9.565 -22.94,-18.413c-12.39,-18.112 -22.02,-51.034 -9.11,-73.416c6.23,-11.005 17.7,-18.058 29.9,-18.263c9.46,-0.15 18.31,6.433 24.13,6.433c5.71,-0 16.61,-7.926 27.82,-6.74c4.69,0.157 18.06,1.904 26.7,14.456c-0.66,0.409 -15.89,9.366 -15.73,27.779c0.2,22.02 19.29,29.326 19.54,29.429Z" style="fill:#fff;fill-rule:nonzero;"/><path d="M250.19,159.792l6.33,-19.804c1.65,-6.276 2.83,-11.059 3.61,-14.299l0.25,0c1.85,7.511 3.14,12.239 3.81,14.299l6.43,19.804l-20.43,-0Zm18.06,-44.294l-15.12,0l-24.44,75.988l12.61,0l6.73,-22.328l24.7,0l7.1,22.328l12.96,0l-24.54,-75.988Z" style="fill:#fff;fill-rule:nonzero;"/><path d="M339.35,177.849c-2.57,3.5 -6.12,5.301 -10.7,5.301c-3.91,0 -7.1,-1.386 -9.52,-4.114c-2.42,-2.728 -3.65,-6.126 -3.65,-10.083l-0,-9.161c-0,-0.976 0.2,-2.211 0.57,-3.698c0.71,-3.247 2.36,-5.819 4.78,-7.824c2.47,-1.952 5.2,-2.982 8.18,-2.982c4.42,0 7.97,1.801 10.6,5.403c2.41,3.445 3.6,7.818 3.6,13.167c0,5.812 -1.29,10.444 -3.86,13.991Zm9.67,-34.621c-4.32,-5.089 -9.67,-7.661 -16.15,-7.661c-8.24,0 -14.41,3.288 -18.47,9.824l-0.21,-0l-0.67,-8.698l-10.7,-0c0.31,6.174 0.47,12.143 0.47,18.009l0,59.009l12.19,0l-0,-28.76c3.19,5.198 8.38,7.77 15.64,7.77c6.69,0 12.34,-2.368 16.87,-7.204c5.1,-5.403 7.62,-12.757 7.62,-22.069c-0,-8.384 -2.17,-15.076 -6.59,-20.22Z" style="fill:#fff;fill-rule:nonzero;"/><path d="M402.32,177.849c-2.52,3.5 -6.12,5.301 -10.7,5.301c-3.91,0 -7.1,-1.386 -9.52,-4.114c-2.42,-2.728 -3.65,-6.126 -3.65,-10.083l0,-9.161c0,-0.976 0.21,-2.211 0.56,-3.698c0.77,-3.247 2.37,-5.819 4.79,-7.824c2.47,-1.952 5.19,-2.982 8.18,-2.982c4.42,0 7.97,1.801 10.59,5.403c2.43,3.445 3.61,7.818 3.61,13.167c0,5.812 -1.24,10.444 -3.86,13.991Zm9.67,-34.621c-4.32,-5.089 -9.67,-7.661 -16.16,-7.661c-8.22,0 -14.4,3.288 -18.46,9.824l-0.21,-0l-0.67,-8.698l-10.7,-0c0.31,6.174 0.46,12.143 0.46,18.009l-0,59.009l12.2,0l0,-28.76c3.19,5.198 8.39,7.77 15.64,7.77c6.68,0 12.34,-2.368 16.87,-7.204c5.09,-5.403 7.62,-12.757 7.62,-22.069c0,-8.384 -2.16,-15.076 -6.59,-20.22Z" style="fill:#fff;fill-rule:nonzero;"/><path d="M484.37,156.967c3.14,3.548 4.68,7.975 4.68,13.221c0,6.481 -2.26,11.727 -6.74,15.793c-4.93,4.421 -11.82,6.637 -20.67,6.637c-8.19,0 -14.72,-1.596 -19.66,-4.734l2.83,-10.137c5.35,3.138 11.22,4.734 17.6,4.734c4.58,0 8.18,-1.03 10.7,-3.084c2.57,-2.06 3.86,-4.836 3.86,-8.282c-0,-3.089 -1.09,-5.661 -3.14,-7.769c-2.11,-2.108 -5.61,-4.066 -10.5,-5.867c-13.43,-4.987 -20.06,-12.245 -20.06,-21.762c0,-6.222 2.36,-11.317 7.04,-15.328c4.69,-3.964 10.91,-5.969 18.68,-5.969c6.89,0 12.66,1.186 17.23,3.601l-3.08,9.878c-4.32,-2.313 -9.16,-3.499 -14.61,-3.499c-4.27,0 -7.67,1.078 -10.09,3.138c-2,1.903 -3.03,4.168 -3.03,6.896c0,2.982 1.19,5.506 3.5,7.409c2,1.801 5.71,3.752 11.06,5.861c6.53,2.626 11.31,5.709 14.4,9.263Z" style="fill:#fff;fill-rule:nonzero;"/><path d="M515.96,136.693l13.43,-0l0,9.161l-13.43,0l0,26.599c0,6.739 2.37,10.131 7.1,10.131c2.16,0 3.96,-0.205 5.4,-0.567l0.36,9.264c-2.42,0.873 -5.55,1.337 -9.46,1.337c-4.84,0 -8.54,-1.494 -11.27,-4.427c-2.72,-2.933 -4.07,-7.872 -4.07,-14.763l0,-27.628l-7.97,0l0,-9.107l7.97,-0l0,-10.028l11.94,-3.602l0,13.63Z" style="fill:#fff;fill-rule:nonzero;"/><path d="M573.84,176.976c-2.68,4.427 -6.33,6.638 -10.96,6.638c-4.73,0 -8.44,-2.163 -11.06,-6.536c-2.16,-3.547 -3.24,-7.866 -3.24,-12.913c0,-5.192 1.03,-9.565 3.24,-13.167c2.52,-4.373 6.27,-6.535 11.16,-6.535c4.74,0 8.39,2.162 10.96,6.535c2.16,3.602 3.24,7.872 3.24,12.914c0,5.041 -1.13,9.36 -3.34,13.064Zm8.95,-33.332c-4.89,-5.355 -11.37,-8.029 -19.4,-8.029c-8.33,-0 -14.97,2.728 -19.9,8.131c-4.9,5.397 -7.36,12.348 -7.36,20.834c0,8.125 2.36,14.866 7.14,20.166c4.79,5.3 11.22,7.975 19.25,7.975c8.33,0 15.02,-2.777 20.06,-8.336c4.78,-5.403 7.21,-12.294 7.21,-20.732c0,-8.18 -2.32,-14.865 -7,-20.009Z" style="fill:#fff;fill-rule:nonzero;"/><path d="M629.35,135.772l0.04,11.624c-1.18,-0.204 -2.47,-0.307 -3.85,-0.307c-4.27,-0 -7.61,1.596 -9.93,4.837c-2.01,2.825 -3.04,6.481 -3.04,10.799l0,28.761l-12.19,0l0,-37.555c0,-6.33 -0.1,-12.088 -0.36,-17.238l10.6,-0l0.46,10.499l0.37,0c1.28,-3.602 3.28,-6.536 6.06,-8.698c2.73,-1.951 5.66,-2.927 8.8,-2.927c1.13,0 2.16,0.102 3.04,0.205Z" style="fill:#fff;fill-rule:nonzero;"/><path d="M646.89,158.304c0.36,-3.656 1.59,-6.842 3.6,-9.468c2.47,-3.289 5.71,-4.939 9.67,-4.939c4.32,0 7.57,1.698 9.67,5.096c1.65,2.62 2.47,5.758 2.37,9.359l-25.31,-0.048Zm36.94,3.186c0,-6.842 -1.65,-12.552 -4.89,-17.286c-4.02,-5.861 -10.03,-8.794 -17.91,-8.794c-8.02,0 -14.4,2.933 -19.13,8.794c-4.53,5.505 -6.79,12.402 -6.79,20.635c-0,8.385 2.42,15.124 7.25,20.112c4.84,4.993 11.52,7.511 20.01,7.511c7.05,0 13.17,-1.133 18.37,-3.398l-1.9,-8.432c-4.43,1.699 -9.37,2.572 -14.77,2.572c-4.89,0 -8.85,-1.289 -11.93,-3.807c-3.4,-2.83 -5.15,-6.999 -5.3,-12.401l36.52,0c0.31,-1.488 0.47,-3.343 0.47,-5.506Z" style="fill:#fff;fill-rule:nonzero;"/><path d="M246.84,88.08l7.77,0c9,0 13.97,-5.499 13.97,-15.528c0,-9.999 -5,-15.528 -13.97,-15.528l-7.77,0l0,31.056Zm8.39,-36.733c12.61,0 20.08,7.765 20.08,21.146c0,13.411 -7.44,21.293 -20.08,21.293l-14.97,0l0,-42.439l14.97,0Z" style="fill:#fff;fill-rule:nonzero;"/><path d="M302.31,78.316c0,-6.852 -3.23,-10.793 -8.2,-10.793c-4.97,0 -8.21,3.941 -8.21,10.793c0,6.882 3.24,10.823 8.21,10.823c5,0 8.2,-3.941 8.2,-10.823Zm-22.88,0c0,-9.94 5.85,-16.028 14.68,-16.028c8.82,0 14.67,6.088 14.67,16.028c0,9.97 -5.82,16.058 -14.67,16.058c-8.86,0 -14.68,-6.088 -14.68,-16.058Z" style="fill:#fff;fill-rule:nonzero;"/><path d="M345.93,93.786l-6.62,0l-6.5,-23.175l-0.15,0l-6.44,23.175l-6.56,0l-8.5,-30.939l6.36,0l5.64,24.351l0.12,-0l6.44,-24.351l6.12,0l6.47,24.351l0.15,-0l5.64,-24.351l6.3,0l-8.47,30.939Z" style="fill:#fff;fill-rule:nonzero;"/><path d="M358.28,62.847l6.06,0l0,5.176l0.14,0c1.68,-3.529 4.98,-5.706 9.74,-5.706c6.82,0 10.73,4.353 10.73,11.441l0,20.028l-6.38,0l0,-18.793c0,-4.647 -2.17,-7.205 -6.59,-7.205c-4.47,0 -7.35,3.176 -7.35,7.97l0,18.028l-6.35,0l0,-30.939Z" style="fill:#fff;fill-rule:nonzero;"/><rect x="391.31" y="51.347" width="6.35" height="42.439" style="fill:#fff;fill-rule:nonzero;"/><path d="M425.69,78.316c0,-6.852 -3.24,-10.793 -8.21,-10.793c-4.97,0 -8.2,3.941 -8.2,10.793c0,6.882 3.23,10.823 8.2,10.823c5,0 8.21,-3.941 8.21,-10.823Zm-22.88,0c0,-9.94 5.85,-16.028 14.67,-16.028c8.82,0 14.68,6.088 14.68,16.028c0,9.97 -5.83,16.058 -14.68,16.058c-8.85,0 -14.67,-6.088 -14.67,-16.058Z" style="fill:#fff;fill-rule:nonzero;"/><path d="M455.8,82.199l0,-2.442l-7.61,0.471c-3.8,0.265 -5.95,1.941 -5.95,4.588c-0,2.706 2.24,4.47 5.65,4.47c4.44,0 7.91,-3.058 7.91,-7.087Zm-19.97,2.793c0,-5.411 4.15,-8.734 11.5,-9.146l8.47,-0.5l0,-2.382c0,-3.441 -2.32,-5.5 -6.2,-5.5c-3.68,-0 -5.97,1.765 -6.53,4.529l-6,0c0.35,-5.588 5.12,-9.705 12.76,-9.705c7.5,0 12.3,3.97 12.3,10.176l0,21.322l-6.09,0l0,-5.088l-0.15,-0c-1.79,3.441 -5.7,5.617 -9.76,5.617c-6.06,0 -10.3,-3.764 -10.3,-9.323Z" style="fill:#fff;fill-rule:nonzero;"/><path d="M473.39,78.316c0,6.529 3.15,10.617 8.18,10.617c4.88,0 8.14,-4.146 8.14,-10.617c0,-6.411 -3.26,-10.617 -8.14,-10.617c-5.03,0 -8.18,4.118 -8.18,10.617Zm-6.5,0c0,-9.764 5.18,-15.969 12.94,-15.969c4.44,0 7.97,2.235 9.71,5.647l0.11,0l0,-16.647l6.39,0l0,42.439l-6.18,0l-0,-5.264l-0.12,0c-1.82,3.529 -5.35,5.793 -9.85,5.793c-7.82,0 -13,-6.235 -13,-15.999Z" style="fill:#fff;fill-rule:nonzero;"/><path d="M536.24,78.316c-0,-6.852 -3.24,-10.793 -8.21,-10.793c-4.97,0 -8.2,3.941 -8.2,10.793c0,6.882 3.23,10.823 8.2,10.823c5,0 8.21,-3.941 8.21,-10.823Zm-22.88,0c-0,-9.94 5.85,-16.028 14.67,-16.028c8.83,0 14.68,6.088 14.68,16.028c0,9.97 -5.82,16.058 -14.68,16.058c-8.85,0 -14.67,-6.088 -14.67,-16.058Z" style="fill:#fff;fill-rule:nonzero;"/><path d="M547.62,62.847l6.06,0l0,5.176l0.15,0c1.67,-3.529 4.97,-5.706 9.73,-5.706c6.82,0 10.74,4.353 10.74,11.441l0,20.028l-6.39,0l0,-18.793c0,-4.647 -2.17,-7.205 -6.58,-7.205c-4.47,0 -7.36,3.176 -7.36,7.97l-0,18.028l-6.35,0l-0,-30.939Z" style="fill:#fff;fill-rule:nonzero;"/><path d="M600.85,55.524l-0,7.323l5.88,0l-0,5.029l-5.88,0l-0,17.058c-0,2.676 1.18,3.882 3.77,3.882c0.64,0 1.67,-0.059 2.09,-0.147l0,5.029c-0.71,0.176 -2.12,0.294 -3.53,0.294c-6.27,0 -8.71,-2.382 -8.71,-8.352l-0,-17.764l-4.5,0l-0,-5.029l4.5,0l-0,-7.323l6.38,0Z" style="fill:#fff;fill-rule:nonzero;"/><path d="M612.18,51.347l6.29,0l-0,16.676l0.15,0c1.7,-3.617 5.08,-5.706 9.79,-5.706c6.79,0 10.85,4.53 10.85,11.529l0,19.94l-6.38,0l0,-18.705c0,-4.558 -2.29,-7.293 -6.76,-7.293c-4.71,0 -7.59,3.235 -7.59,8.117l0,17.881l-6.35,0l0,-42.439Z" style="fill:#fff;fill-rule:nonzero;"/><path d="M650.44,75.464l15.47,-0c-0.15,-4.735 -3.15,-8.059 -7.59,-8.059c-4.44,0 -7.56,3.382 -7.88,8.059Zm21.47,9.234c-0.89,5.647 -6.24,9.676 -13.33,9.676c-9.08,0 -14.58,-6.147 -14.58,-15.911c0,-9.705 5.58,-16.175 14.32,-16.175c8.59,0 13.94,6.058 13.94,15.44l0,2.176l-21.85,0l0,0.383c0,5.382 3.23,8.94 8.32,8.94c3.62,0 6.29,-1.823 7.15,-4.529l6.03,-0Z" style="fill:#fff;fill-rule:nonzero;"/></svg>