<svg width="100%" height="100%" viewBox="0 0 1112 537" version="1.1" xmlns="http://www.w3.org/2000/svg" xmlns:xlink="http://www.w3.org/1999/xlink" xml:space="preserve" xmlns:serif="http://www.serif.com/" style="fill-rule:evenodd;clip-rule:evenodd;stroke-linecap:round;stroke-linejoin:round;stroke-miterlimit:10;"><path d="M311.653,290.416c0,0 -104.253,63.855 -136.181,80.145c-31.927,16.289 -150.515,89.918 -173.972,120.542c0,0 145.954,13.032 239.131,12.38c93.176,-0.651 230.66,-6.515 337.519,-2.606c106.86,3.91 291.258,26.063 291.258,26.063c0,0 87.312,-80.796 132.271,-123.8c44.959,-43.005 108.814,-97.086 108.814,-97.086c0,0 -314.063,-11.077 -381.176,-15.638c-67.113,-4.561 -417.664,0 -417.664,0Z" style="fill:#facc39;fill-rule:nonzero;stroke:#d7aa29;stroke-width:3px;"/><path d="M468.501,456.825l12.164,8.578l-86.271,33.67l-101.106,-2.948c0,-0 -24.168,8.89 -26.263,5.425c-6.81,-11.259 -11.793,-24.411 -15.604,-35.342c-10.596,-30.392 -17.828,-52.806 -17.828,-52.806l11.044,-3.264" style="fill:#d7aa29;fill-rule:nonzero;"/><path d="M702.133,298.066c-0,0 -44.471,-5.213 -59.457,-8.633c-14.986,-3.421 -51.856,-9.114 -63.801,-16.367c-0,0 -17.223,24.684 -36.412,31.521c-19.189,6.836 -58.936,8.126 -79.461,0.158c-0,0 -11.402,15.511 -15.475,23.393c-4.072,7.883 -14.498,22.869 -14.498,22.869c-0,0 21.503,26.878 26.39,36.815c-0,0 19.71,-6.353 34.533,-20.688c-0,0 48.543,24.76 94.969,29.484c46.425,4.724 121.194,4.398 131.131,4.235c-0,0 3.42,-29.158 -3.096,-57.828c-6.515,-28.669 -10.914,-29.81 -14.823,-44.959" style="fill:#d7aa29;fill-rule:nonzero;"/><path d="M720.281,401.486c0,-0 93.815,-5.45 122.919,-7.622c29.104,-2.172 35.837,-2.823 41.702,-7.602c5.864,-4.778 17.375,-27.366 17.375,-63.42c0,-36.054 -1.303,-82.317 -1.303,-82.317c0,-0 -10.534,1.412 -21.719,-2.389c-11.186,-3.801 -15.856,-6.733 -15.856,-6.733c0,-0 -4.669,44.199 -5.755,57.774c-1.086,13.574 -6.842,24.76 -6.842,24.76c0,-0 -117.719,-3.367 -148.669,-12.869c0,-0 14.112,32.495 16.308,52.451c2.196,19.957 1.84,47.967 1.84,47.967" style="fill:#d7aa29;fill-rule:nonzero;"/><path d="M482.794,402.262c-2.769,0.28 -9.896,3.751 -15.597,4.973c-5.702,1.222 -12.828,1.67 -13.643,3.787c-0.121,0.316 -0.186,0.645 -0.198,0.978c-0.066,1.903 1.627,3.909 4.678,3.909c3.584,0 5.837,-0.977 20.389,-3.366c14.552,-2.389 29.864,-1.955 37.032,-1.846c7.167,0.108 17.375,-5.43 26.28,-6.082c8.905,-0.651 2.715,1.412 39.095,1.846c36.38,0.435 64.615,-7.493 74.823,-12.705c10.209,-5.213 7.602,-12.815 4.67,-17.81c-2.932,-4.996 -16.948,-23.384 -16.948,-23.384c-0,0 -7.503,1.823 -18.861,5.761c-11.357,3.937 -28.939,7.726 -28.939,7.726c-0,0 2.63,6.123 3.608,7.345c-0,0 -28.588,2.199 -42.923,4.968c-14.335,2.769 -27.529,5.864 -41.294,3.665c-13.765,-2.199 -22.958,-3.527 -27.529,-3.258c-4.571,0.269 -16.116,5.995 -21.049,9.31c-4.933,3.315 -13.811,7.143 -15.359,8.69c-1.547,1.548 -3.14,2.734 -0.796,7.924l0.061,0.099l3.237,5.29" style="fill:#d7aa29;fill-rule:nonzero;"/><path d="M466.207,454.045l11.781,8.308l-186.19,72.665c0,0 -25.574,-42.45 -35.836,-71.885c-10.262,-29.436 -17.267,-51.144 -17.267,-51.144l10.697,-3.161" style="fill:#aa373a;fill-rule:nonzero;stroke:#000;stroke-width:3px;"/><path d="M275.543,455.331l120.968,-44.091c0,-0 18.372,-1.131 30.243,8.479c11.87,9.609 15.311,18.936 24.331,21.763c9.02,2.826 15.121,3.957 15.121,3.957l0,12.718l-170.596,65.855c0,-0 -22.893,-25.155 -22.893,-43.526c0,-18.372 2.826,-25.155 2.826,-25.155Z" style="fill:#fff;fill-rule:nonzero;stroke:#000;stroke-width:3px;"/><path d="M249.392,408.829l-6.465,1.91c-0,-0 8.379,44.832 32.617,44.592c-0,-0 -0.762,45.827 19.871,58.642l170.792,-68.534" style="fill:#fff;fill-rule:nonzero;stroke:#000;stroke-width:3px;"/><path d="M249.392,408.829l112.072,-37.574c-0,-0 13.683,7.453 20.199,17.952c6.516,10.5 8.196,19.014 14.849,22.033l-120.968,44.091c-0,-0 -15.509,-13.488 -19.419,-25.434c-3.909,-11.946 -6.733,-21.068 -6.733,-21.068Z" style="fill:#fff;fill-rule:nonzero;stroke:#000;stroke-width:3px;"/><path d="M295.415,513.972l0.195,10.039" style="fill:none;fill-rule:nonzero;stroke:#000;stroke-width:3px;"/><path d="M288.974,479.206c0.08,1.674 0.21,3.46 1.115,4.922c0.457,0.739 1.077,1.257 1.707,1.835c0.589,0.541 0.739,1.014 0.784,1.81c0.048,0.848 0.074,1.718 0.376,2.521c0.303,0.806 0.803,1.477 1.386,2.103c0.453,0.486 0.988,0.926 1.359,1.481c0.517,0.77 0.613,1.75 0.739,2.646c0.114,0.802 1.136,1.242 1.845,1.047c0.864,-0.237 1.162,-1.04 1.048,-1.845c-0.253,-1.79 -0.776,-3.256 -2.031,-4.588c-0.451,-0.478 -0.99,-0.916 -1.338,-1.479c-0.403,-0.654 -0.346,-1.418 -0.401,-2.159c-0.064,-0.879 -0.204,-1.771 -0.681,-2.532c-0.429,-0.684 -1.035,-1.164 -1.62,-1.7c-1.151,-1.055 -1.218,-2.593 -1.288,-4.062c-0.092,-1.922 -3.092,-1.933 -3,0" style="fill-rule:nonzero;"/><path d="M294.255,461.28c0.965,1.038 1.929,2.086 2.594,3.35c0.71,1.348 0.557,2.681 0.558,4.151c0.002,1.674 0.488,3.064 1.546,4.356c0.831,1.013 2.233,1.978 2.064,3.437c-0.094,0.806 0.756,1.5 1.5,1.5c0.888,-0 1.406,-0.691 1.5,-1.5c0.208,-1.794 -0.896,-3.312 -2.046,-4.561c-0.5,-0.542 -1.106,-1.094 -1.38,-1.799c-0.277,-0.713 -0.185,-1.549 -0.162,-2.295c0.054,-1.715 -0.183,-3.272 -0.989,-4.804c-0.778,-1.477 -1.935,-2.742 -3.064,-3.956c-1.317,-1.417 -3.435,0.708 -2.121,2.121" style="fill-rule:nonzero;"/><path d="M302.777,461.778c0.5,2.983 1.523,5.866 3.016,8.499c1.482,2.61 3.506,4.605 5.467,6.831c1.027,1.164 1.469,2.316 1.496,3.865c0.027,1.531 -0.03,3.048 0.606,4.479c0.608,1.366 1.692,2.441 2.278,3.829c0.59,1.399 0.88,2.929 1.187,4.408c0.393,1.889 3.286,1.09 2.893,-0.797c-0.31,-1.492 -0.629,-2.986 -1.187,-4.408c-0.563,-1.434 -1.461,-2.528 -2.219,-3.84c-0.765,-1.324 -0.493,-2.843 -0.579,-4.304c-0.088,-1.503 -0.497,-2.885 -1.373,-4.122c-1.699,-2.398 -4,-4.212 -5.558,-6.744c-1.605,-2.609 -2.628,-5.477 -3.134,-8.494c-0.319,-1.899 -3.21,-1.094 -2.893,0.798" style="fill-rule:nonzero;"/><path d="M323.176,472.268c1.012,2.81 2.107,5.588 3.275,8.338c0.516,1.216 0.956,2.614 1.69,3.718c0.383,0.575 0.886,0.988 1.451,1.376c0.376,0.257 0.68,0.425 0.847,0.765c0.358,0.726 1.389,0.926 2.052,0.538c0.741,-0.433 0.898,-1.323 0.538,-2.052c-0.281,-0.571 -0.724,-0.986 -1.226,-1.36c-0.344,-0.256 -0.786,-0.468 -1.052,-0.773c-0.35,-0.402 -0.536,-1.03 -0.751,-1.515c-0.289,-0.653 -0.574,-1.308 -0.854,-1.965c-1.104,-2.591 -2.123,-5.218 -3.077,-7.867c-0.275,-0.762 -1.021,-1.275 -1.845,-1.048c-0.736,0.202 -1.324,1.079 -1.048,1.845" style="fill-rule:nonzero;"/><path d="M305.431,452.496c0.762,0.807 1.529,1.616 2.088,2.582c0.258,0.448 0.45,0.904 0.553,1.413c0.114,0.563 0.086,1.156 0.154,1.729c0.086,0.72 0.235,1.414 0.623,2.041c0.331,0.535 0.786,0.974 1.229,1.413c0.785,0.775 1.317,1.678 1.606,2.743c0.506,1.861 3.401,1.071 2.893,-0.797c-0.358,-1.321 -1,-2.514 -1.889,-3.551c-0.384,-0.447 -0.931,-0.813 -1.251,-1.306c-0.26,-0.399 -0.252,-0.943 -0.279,-1.402c-0.08,-1.398 -0.379,-2.671 -1.101,-3.884c-0.68,-1.144 -1.595,-2.14 -2.505,-3.102c-1.328,-1.407 -3.447,0.717 -2.121,2.121" style="fill-rule:nonzero;"/><path d="M318.195,451.012c0.151,0.161 0.296,0.325 0.436,0.495c0.169,0.205 -0.189,-0.274 0.079,0.103c0.057,0.08 0.113,0.159 0.168,0.24c0.246,0.365 0.466,0.748 0.656,1.145c0.042,0.088 0.083,0.177 0.122,0.267c-0.083,-0.192 0.012,0.038 0.041,0.117c0.077,0.206 0.146,0.415 0.207,0.627c0.132,0.46 0.218,0.93 0.314,1.398c0.4,1.942 1.388,3.636 3.165,4.614c0.687,0.379 1.667,0.191 2.052,-0.538c0.372,-0.703 0.196,-1.648 -0.538,-2.052c-0.175,-0.096 -0.338,-0.206 -0.505,-0.314c-0.18,-0.116 0.14,0.143 -0.009,-0.011c-0.061,-0.062 -0.133,-0.117 -0.196,-0.178c-0.143,-0.137 -0.279,-0.283 -0.403,-0.438c0.093,0.116 0.067,0.09 -0,-0.017c-0.059,-0.093 -0.119,-0.185 -0.174,-0.281c-0.044,-0.077 -0.085,-0.155 -0.125,-0.234c-0.022,-0.045 -0.119,-0.311 -0.043,-0.095c-0.071,-0.204 -0.135,-0.41 -0.189,-0.619c-0.121,-0.473 -0.2,-0.956 -0.305,-1.433c-0.411,-1.847 -1.342,-3.539 -2.632,-4.917c-0.537,-0.575 -1.585,-0.584 -2.121,-0c-0.565,0.615 -0.573,1.508 -0,2.121" style="fill-rule:nonzero;"/><path d="M341.188,460.692c1.946,2.616 3.892,5.231 5.837,7.847c0.409,0.551 0.826,1.101 1.151,1.707c0.326,0.607 0.401,1.286 0.538,1.951c0.311,1.513 1.097,2.827 2.622,3.334c1.837,0.611 2.624,-2.286 0.798,-2.893c-0.247,-0.082 -0.361,-0.542 -0.42,-0.761c-0.169,-0.63 -0.219,-1.287 -0.419,-1.91c-0.437,-1.366 -1.33,-2.472 -2.173,-3.605c-1.781,-2.395 -3.562,-4.789 -5.344,-7.184c-0.482,-0.649 -1.298,-0.979 -2.052,-0.538c-0.64,0.374 -1.024,1.398 -0.538,2.052" style="fill-rule:nonzero;"/><path d="M345.975,442.573c0.558,0.498 1.08,1.033 1.558,1.608c0.068,0.082 0.135,0.165 0.202,0.248c0.088,0.11 0.084,0.114 0.001,0.001c0.113,0.155 0.229,0.309 0.338,0.466c0.22,0.316 0.427,0.64 0.622,0.971c0.184,0.313 0.357,0.632 0.518,0.957c0.085,0.173 0.167,0.347 0.246,0.522c0.012,0.028 0.12,0.277 0.051,0.115c-0.078,-0.185 0.057,0.141 0.07,0.176c0.281,0.716 0.503,1.453 0.672,2.203c0.172,0.766 1.1,1.289 1.845,1.048c0.804,-0.26 1.232,-1.024 1.048,-1.845c-0.74,-3.287 -2.536,-6.348 -5.05,-8.591c-0.585,-0.523 -1.552,-0.62 -2.121,0c-0.524,0.57 -0.625,1.563 0,2.121" style="fill-rule:nonzero;"/><path d="M355.266,456.755c1.114,0.865 2.031,1.957 2.549,3.281c0.585,1.492 0.604,3.122 1.295,4.585c0.614,1.299 1.758,2.163 2.939,2.915c0.24,0.154 0.483,0.303 0.722,0.457c0.142,0.092 0.283,0.184 0.422,0.28c-0.009,-0.006 0.358,0.265 0.227,0.16c0.207,0.166 0.409,0.349 0.582,0.551c0.272,0.315 -0.069,-0.157 0.141,0.203c0.022,0.038 0.189,0.409 0.12,0.225c0.282,0.759 1.016,1.275 1.846,1.047c0.73,-0.2 1.331,-1.081 1.047,-1.845c-0.541,-1.457 -1.592,-2.385 -2.871,-3.211c-1.043,-0.674 -2.085,-1.168 -2.549,-2.215c-0.305,-0.689 -0.408,-1.475 -0.557,-2.21c-0.174,-0.862 -0.423,-1.677 -0.777,-2.483c-0.662,-1.505 -1.717,-2.854 -3.015,-3.861c-0.639,-0.497 -1.498,-0.623 -2.121,-0c-0.517,0.517 -0.644,1.621 0,2.121" style="fill-rule:nonzero;"/><path d="M369.479,455.106c0.833,0.945 1.665,1.89 2.498,2.834c0.379,0.43 0.76,0.857 1.134,1.29c0.174,0.201 0.345,0.405 0.513,0.611c0.318,0.394 -0.141,-0.208 0.153,0.202c0.078,0.107 0.154,0.215 0.228,0.325c0.516,0.769 0.794,1.642 1.256,2.437c0.612,1.053 1.484,1.697 2.702,1.828c0.783,0.085 1.534,-0.75 1.5,-1.5c-0.039,-0.885 -0.661,-1.409 -1.5,-1.5c0.06,0.007 0.12,0.014 0.18,0.021c-0.13,-0.041 -0.137,-0.038 -0.021,0.008c0.188,0.04 -0.035,-0.039 -0.096,-0.07c0.095,0.048 0.177,0.171 0.06,0.03c-0.01,-0.012 -0.223,-0.276 -0.097,-0.099c0.128,0.18 -0.054,-0.094 -0.077,-0.131c-0.052,-0.084 -0.1,-0.171 -0.147,-0.257c-0.086,-0.16 -0.164,-0.324 -0.24,-0.489c-0.417,-0.906 -0.853,-1.731 -1.465,-2.524c-1.383,-1.79 -2.965,-3.441 -4.46,-5.137c-0.52,-0.591 -1.597,-0.572 -2.121,-0c-0.578,0.63 -0.555,1.491 0,2.121" style="fill-rule:nonzero;"/><path d="M368.192,434.247c0.18,0.17 0.355,0.344 0.523,0.526c0.089,0.097 0.176,0.195 0.261,0.295c0.037,0.044 0.075,0.088 0.112,0.134c0.022,0.026 0.203,0.26 0.046,0.053c-0.143,-0.188 -0.015,-0.018 0.015,0.021c0.043,0.059 0.086,0.118 0.128,0.177c0.068,0.095 0.134,0.191 0.198,0.288c0.144,0.219 0.28,0.443 0.407,0.673c0.12,0.216 0.231,0.437 0.335,0.662c0.024,0.053 0.047,0.106 0.072,0.159c0.078,0.165 -0.145,-0.364 -0.032,-0.077c0.042,0.109 0.085,0.217 0.125,0.326c0.18,0.493 0.319,0.999 0.42,1.513c0.153,0.771 1.114,1.284 1.845,1.048c0.82,-0.266 1.211,-1.019 1.048,-1.845c-0.454,-2.301 -1.675,-4.47 -3.382,-6.074c-0.572,-0.538 -1.561,-0.61 -2.121,0c-0.536,0.583 -0.611,1.547 0,2.121" style="fill-rule:nonzero;"/><path d="M380.732,427.973c2.157,1.744 4.109,3.728 5.818,5.912c0.22,0.281 0.723,0.44 1.061,0.44c0.368,-0 0.807,-0.164 1.06,-0.44c0.263,-0.286 0.458,-0.661 0.44,-1.06c-0.019,-0.425 -0.18,-0.73 -0.44,-1.061c-1.709,-2.184 -3.661,-4.168 -5.818,-5.912c-0.319,-0.259 -0.633,-0.44 -1.06,-0.44c-0.368,-0 -0.808,0.164 -1.061,0.44c-0.502,0.547 -0.651,1.594 -0,2.121" style="fill-rule:nonzero;"/><path d="M391.074,425.222l1.157,2.766c0.193,0.46 0.386,0.921 0.579,1.382c0.2,0.479 0.364,1.003 0.665,1.43c0.626,0.888 1.535,1.236 2.537,1.542c0.157,0.048 -0.199,-0.133 0.024,0.021c0.034,0.023 0.324,0.188 0.147,0.078c-0.163,-0.102 0.105,0.094 0.123,0.112c0.057,0.055 0.108,0.117 0.164,0.173c-0.137,-0.139 -0.073,-0.105 0.014,0.032c0.053,0.084 0.093,0.176 0.146,0.26c-0.064,-0.1 -0.065,-0.195 -0.016,-0.028c0.034,0.116 0.064,0.228 0.089,0.347c0.159,0.769 1.109,1.286 1.845,1.047c0.814,-0.263 1.219,-1.02 1.048,-1.845c-0.187,-0.903 -0.718,-1.768 -1.441,-2.339c-0.454,-0.358 -0.91,-0.603 -1.46,-0.791c-0.173,-0.059 -0.349,-0.109 -0.523,-0.167c-0.047,-0.016 -0.334,-0.158 -0.156,-0.054c0.186,0.109 -0.129,-0.09 -0.133,-0.092c0.227,0.143 0.006,0.022 0.029,-0.01c0.089,0.112 0.104,0.123 0.047,0.033c-0.023,-0.038 -0.044,-0.076 -0.063,-0.116c-0.027,-0.051 -0.164,-0.332 -0.041,-0.066c-0.044,-0.096 -0.082,-0.195 -0.122,-0.291c-0.193,-0.461 -0.386,-0.922 -0.579,-1.383l-1.187,-2.838c-0.302,-0.721 -1.006,-1.32 -1.845,-1.048c-0.693,0.224 -1.372,1.07 -1.048,1.845" style="fill-rule:nonzero;"/><path d="M410.811,439.798c-0.008,-0.003 0.362,0.149 0.219,0.084c-0.154,-0.068 0.181,0.089 0.211,0.104c0.213,0.106 0.422,0.221 0.626,0.345c0.204,0.124 0.401,0.258 0.594,0.398c-0.168,-0.122 0.024,0.018 0.091,0.074c0.091,0.076 0.181,0.154 0.27,0.235c0.176,0.16 0.345,0.328 0.507,0.503c0.081,0.088 0.16,0.177 0.237,0.268c0.029,0.036 0.226,0.286 0.076,0.089c0.337,0.443 0.644,0.907 0.992,1.343c0.674,0.844 1.547,1.344 2.52,1.773c0.228,0.101 0.457,0.202 0.678,0.319c0.095,0.051 0.19,0.104 0.281,0.161c-0.002,-0.001 0.312,0.221 0.169,0.108c-0.148,-0.117 0.116,0.11 0.142,0.136c0.032,0.033 0.229,0.299 0.129,0.138c-0.103,-0.167 0.065,0.133 0.08,0.166c-0.11,-0.235 -0.026,-0.004 -0.002,0.119c0.149,0.772 1.116,1.284 1.845,1.048c0.823,-0.266 1.208,-1.018 1.048,-1.845c-0.229,-1.186 -1.198,-2.115 -2.235,-2.651c-0.496,-0.257 -1.025,-0.444 -1.518,-0.706c-0.111,-0.06 -0.22,-0.122 -0.326,-0.19c-0.064,-0.04 -0.126,-0.082 -0.187,-0.127c0.091,0.068 0.098,0.069 0.022,0.004c-0.19,-0.178 -0.365,-0.369 -0.525,-0.574c0.128,0.164 -0.013,-0.026 -0.064,-0.097c-0.07,-0.097 -0.138,-0.195 -0.207,-0.292c-0.213,-0.298 -0.431,-0.592 -0.66,-0.877c-0.33,-0.409 -0.695,-0.787 -1.096,-1.127c-0.943,-0.799 -1.965,-1.385 -3.12,-1.822c-0.735,-0.278 -1.676,0.308 -1.845,1.048c-0.194,0.854 0.261,1.547 1.048,1.845" style="fill-rule:nonzero;"/><path d="M392.894,444.173c0.05,2.822 2.607,4.393 5.04,5.066c0.593,0.164 1.193,0.302 1.782,0.481c0.279,0.084 0.562,0.173 0.83,0.287c-0.201,-0.085 0.162,0.083 0.202,0.104c0.122,0.064 0.242,0.134 0.358,0.208c0.053,0.034 0.34,0.257 0.147,0.095c0.107,0.09 0.211,0.183 0.31,0.282c0.098,0.097 0.193,0.2 0.28,0.307c-0.184,-0.226 0.065,0.117 0.08,0.142c0.036,0.06 0.201,0.412 0.083,0.119c0.049,0.122 0.077,0.249 0.115,0.374c0.079,0.259 0.027,-0.098 0.005,0.052c0.004,0.065 0.003,0.131 -0.001,0.196c0.034,-0.179 0.033,-0.18 -0.002,-0.003c-0.155,0.767 0.22,1.657 1.047,1.845c0.748,0.17 1.679,-0.225 1.846,-1.047c0.296,-1.466 -0.169,-2.797 -1.142,-3.904c-0.896,-1.02 -2.16,-1.593 -3.437,-1.973c-0.616,-0.184 -1.243,-0.325 -1.86,-0.502c-0.309,-0.088 -0.611,-0.191 -0.915,-0.295c-0.323,-0.111 0.128,0.085 -0.157,-0.067c-0.119,-0.064 -0.241,-0.121 -0.358,-0.188c-0.118,-0.068 -0.229,-0.146 -0.346,-0.215c-0.262,-0.156 0.119,0.129 -0.127,-0.091c-0.184,-0.165 -0.351,-0.334 -0.515,-0.517c-0.069,-0.082 -0.057,-0.067 0.037,0.045c-0.037,-0.053 -0.072,-0.107 -0.105,-0.162c-0.025,-0.042 -0.192,-0.392 -0.125,-0.219c0.07,0.177 -0.046,-0.205 -0.062,-0.243c-0.023,-0.11 -0.022,-0.082 0.001,0.084c-0.008,-0.087 -0.012,-0.174 -0.011,-0.261c-0.014,-0.784 -0.68,-1.537 -1.5,-1.5c-0.801,0.036 -1.515,0.66 -1.5,1.5" style="fill-rule:nonzero;"/><path d="M280.2,447.108c-0.5,-0.103 -0.999,-0.214 -1.485,-0.371c-0.126,-0.041 -0.25,-0.092 -0.376,-0.133c-0.163,-0.052 0.182,0.101 -0.064,-0.029c-0.229,-0.12 -0.449,-0.239 -0.661,-0.387c0.266,0.185 -0.038,-0.048 -0.078,-0.088c-0.058,-0.057 -0.262,-0.344 -0.087,-0.077c-0.175,-0.265 -0.18,-0.277 -0.242,-0.509c-0.016,-0.06 -0.08,-0.36 -0.049,-0.166c-0.026,-0.164 -0.028,-0.334 -0.034,-0.499c-0.01,-0.334 0.001,-0.669 0.004,-1.003c0.018,-2.31 -0.549,-4.831 -2.653,-6.119c-0.67,-0.41 -1.679,-0.168 -2.052,0.538c-0.386,0.731 -0.177,1.615 0.538,2.052c0.094,0.058 0.311,0.227 0.113,0.058c0.095,0.081 0.186,0.166 0.271,0.257c0.062,0.065 0.221,0.34 0.077,0.082c0.061,0.109 0.137,0.21 0.198,0.319c0.061,0.111 0.118,0.224 0.169,0.34c-0.108,-0.243 -0,0.021 0.033,0.122c0.076,0.229 0.136,0.463 0.184,0.699c0.027,0.131 0.048,0.263 0.07,0.394c0.017,0.111 0.014,0.088 -0.01,-0.067c0.008,0.067 0.015,0.134 0.02,0.201c0.022,0.243 0.035,0.487 0.04,0.731c0.013,0.632 -0.033,1.264 0.032,1.895c0.152,1.48 0.806,2.668 2.045,3.503c0.941,0.634 2.102,0.925 3.199,1.15c0.767,0.157 1.658,-0.222 1.846,-1.048c0.17,-0.749 -0.226,-1.677 -1.048,-1.845" style="fill-rule:nonzero;"/><path d="M275.651,423.065c-0.793,-1.134 -1.687,-2.194 -2.721,-3.115c-0.527,-0.47 -1.086,-0.907 -1.661,-1.316c-0.507,-0.361 -0.79,-0.521 -1.205,-0.938c-0.221,-0.223 -0.312,-0.312 -0.226,-0.72c0.133,-0.627 0.528,-1.202 0.755,-1.798c0.489,-1.286 0.434,-2.896 -0.64,-3.875c-0.599,-0.546 -1.53,-0.592 -2.122,-0c-0.553,0.553 -0.601,1.573 0,2.121c0.339,0.309 0,-0.031 0.04,-0.02c-0.029,-0.095 -0.021,-0.064 0.026,0.092c-0.002,-0.035 -0.005,-0.07 -0.007,-0.105c0,-0.003 0.004,0.39 0.014,0.265c0.011,-0.138 -0.046,0.232 -0.056,0.271c-0.147,0.571 -0.464,1.072 -0.71,1.692c-0.574,1.448 -0.338,2.915 0.696,4.08c0.758,0.853 1.82,1.386 2.684,2.119c0.957,0.811 1.823,1.733 2.543,2.761c0.463,0.663 1.312,0.971 2.052,0.538c0.656,-0.384 1.005,-1.385 0.538,-2.052" style="fill-rule:nonzero;"/><path d="M289.517,442.676c0.894,-2.187 -0.825,-4.11 -2.239,-5.54c-0.152,-0.154 -0.302,-0.31 -0.445,-0.473c-0.021,-0.025 -0.182,-0.22 -0.137,-0.161c0.056,0.076 -0.138,-0.208 -0.159,-0.244c-0.136,-0.224 -0.143,-0.22 -0.2,-0.385c-0.082,-0.232 -0.143,-0.472 -0.184,-0.714c-0.045,-0.264 0.011,0.175 -0.01,-0.094c-0.009,-0.11 -0.015,-0.221 -0.019,-0.332c-0.008,-0.253 -0.002,-0.506 0.014,-0.758c0.035,-0.56 0.071,-0.73 0.17,-1.281c0.138,-0.77 -0.209,-1.654 -1.048,-1.845c-0.733,-0.167 -1.697,0.221 -1.845,1.047c-0.374,2.082 -0.57,4.4 0.758,6.209c0.594,0.811 1.35,1.45 2.008,2.202c0.184,0.209 0.092,0.09 0.24,0.327c0.07,0.113 0.136,0.227 0.194,0.346c-0.067,-0.137 0.013,0.018 0.032,0.076c0.031,0.098 0.06,0.196 0.084,0.296c0.024,0.098 0.025,0.213 0.007,0.05c0.041,0.37 0.049,-0.074 0.006,0.118c-0.028,0.125 -0.071,0.24 -0.12,0.358c-0.297,0.729 0.323,1.68 1.048,1.846c0.871,0.198 1.526,-0.268 1.845,-1.048" style="fill-rule:nonzero;"/><path d="M290.519,419.634c0.265,-1.449 0.197,-2.916 -0.358,-4.293c-0.557,-1.381 -1.549,-2.288 -2.41,-3.457c-0.726,-0.985 -0.646,-2.123 -0.593,-3.289c0.066,-1.482 0.018,-2.865 -0.616,-4.232c-0.341,-0.735 -1.401,-0.92 -2.053,-0.538c-0.753,0.441 -0.88,1.314 -0.538,2.052c0.441,0.95 0.223,2.165 0.187,3.172c-0.048,1.337 0.066,2.681 0.723,3.874c0.567,1.031 1.521,1.767 2.136,2.757c0.58,0.933 0.828,2.069 0.629,3.156c-0.145,0.797 0.218,1.618 1.048,1.846c0.728,0.2 1.699,-0.247 1.845,-1.048" style="fill-rule:nonzero;"/><path d="M298.143,440.054c0.204,-1.169 0.124,-2.301 -0.342,-3.399c-0.46,-1.086 -1.237,-1.807 -2.082,-2.591c-0.359,-0.333 -0.512,-0.487 -0.715,-0.936c0.079,0.176 -0.028,-0.095 -0.047,-0.155c-0.031,-0.101 -0.058,-0.203 -0.082,-0.305c-0.006,-0.027 -0.064,-0.303 -0.046,-0.193c0.023,0.133 -0.024,-0.244 -0.026,-0.281c-0.069,-1.063 0.064,-1.75 0.252,-2.741c0.152,-0.795 -0.222,-1.618 -1.047,-1.845c-0.733,-0.202 -1.693,0.248 -1.845,1.047c-0.395,2.077 -0.731,4.43 0.439,6.335c0.287,0.467 0.656,0.884 1.059,1.253c0.372,0.342 0.81,0.657 1.114,1.066c-0.085,-0.115 0.043,0.077 0.054,0.098c0.068,0.119 0.14,0.235 0.201,0.359c0.118,0.234 -0.048,-0.15 0.043,0.096c0.039,0.103 0.071,0.208 0.1,0.315c0.036,0.131 0.071,0.266 0.09,0.402c-0.023,-0.16 0.001,0.042 0.002,0.092c0.001,0.138 0.007,0.274 -0,0.412c-0.002,0.039 -0.048,0.364 -0.015,0.174c-0.139,0.797 0.214,1.616 1.048,1.845c0.723,0.199 1.705,-0.246 1.845,-1.048" style="fill-rule:nonzero;"/><path d="M302.611,412.09c-0.127,-2.482 -1.826,-4.078 -2.968,-6.125c-0.478,-0.857 -0.602,-1.781 -0.713,-2.805c-0.144,-1.324 -0.329,-2.655 -1.096,-3.783c-0.455,-0.669 -1.319,-0.967 -2.052,-0.538c-0.663,0.388 -0.996,1.38 -0.538,2.053c0.567,0.833 0.626,1.738 0.736,2.734c0.137,1.254 0.341,2.415 0.912,3.551c0.455,0.906 1.09,1.705 1.659,2.538c0.287,0.42 0.56,0.85 0.782,1.308c0.126,0.261 -0.098,-0.302 0.075,0.173c0.037,0.102 0.071,0.207 0.101,0.311c0.03,0.106 0.057,0.212 0.079,0.32c0.091,0.458 -0.001,-0.213 0.023,0.263c0.041,0.809 0.66,1.5 1.5,1.5c0.78,-0 1.542,-0.687 1.5,-1.5" style="fill-rule:nonzero;"/><path d="M307.71,432.272c0.057,-1.799 -1.084,-3.174 -2.232,-4.423c-0.254,-0.276 -0.509,-0.552 -0.75,-0.841c-0.017,-0.019 -0.148,-0.152 -0.141,-0.172c0.109,0.144 0.131,0.172 0.065,0.084c-0.033,-0.044 -0.065,-0.088 -0.097,-0.133c-0.097,-0.137 -0.189,-0.279 -0.274,-0.425c-0.06,-0.102 -0.113,-0.207 -0.168,-0.311c-0.202,-0.383 0.038,0.136 -0.048,-0.095c-0.082,-0.222 -0.16,-0.444 -0.226,-0.672c-0.139,-0.48 -0.236,-0.969 -0.327,-1.46c-0.142,-0.773 -1.12,-1.282 -1.845,-1.048c-0.828,0.268 -1.2,1.017 -1.047,1.845c0.183,0.999 0.433,1.96 0.872,2.88c0.364,0.762 0.923,1.428 1.484,2.053c0.239,0.265 0.483,0.525 0.722,0.79c0.123,0.137 0.245,0.276 0.363,0.418c0.037,0.043 0.128,0.195 0.172,0.211c-0.064,-0.024 -0.158,-0.221 -0.041,-0.046c0.098,0.146 0.198,0.288 0.285,0.44c0.043,0.074 0.081,0.151 0.121,0.227c0.13,0.245 0.017,-0.029 -0.01,-0.033c0.061,0.009 0.098,0.382 0.125,0.437c0.071,0.144 -0.005,-0.312 -0.005,-0.043c-0.001,0.106 0.005,0.211 0.002,0.317c-0.025,0.785 0.708,1.535 1.5,1.5c0.834,-0.037 1.473,-0.659 1.5,-1.5" style="fill-rule:nonzero;"/><path d="M319.035,428.629c-0.487,-1.866 -1.773,-3.529 -3.466,-4.455c-0.348,-0.19 -0.77,-0.258 -1.156,-0.151c-0.348,0.096 -0.725,0.365 -0.897,0.689c-0.184,0.348 -0.276,0.77 -0.151,1.156c0.119,0.366 0.343,0.707 0.689,0.896c0.253,0.139 0.494,0.295 0.724,0.469l-0.303,-0.234c0.399,0.309 0.755,0.667 1.064,1.067c-0.078,-0.102 -0.156,-0.203 -0.234,-0.304c0.294,0.388 0.539,0.808 0.73,1.256c-0.05,-0.119 -0.1,-0.239 -0.151,-0.358c0.104,0.25 0.19,0.505 0.258,0.766c0.095,0.362 0.368,0.709 0.69,0.897c0.321,0.188 0.795,0.268 1.155,0.151c0.782,-0.253 1.26,-1.031 1.048,-1.845" style="fill-rule:nonzero;"/><path d="M325.588,425.817c-0.844,-0.673 -1.688,-1.346 -2.532,-2.02c-0.353,-0.282 -0.709,-0.562 -1.022,-0.89c-0.053,-0.056 -0.222,-0.253 -0.098,-0.091c-0.06,-0.079 -0.109,-0.164 -0.162,-0.246c-0.224,-0.344 0.012,0.093 -0.074,-0.125c-0.047,-0.119 -0.082,-0.245 -0.115,-0.368c-0.12,-0.452 -0.173,-0.918 -0.269,-1.376c-0.11,-0.523 -0.292,-1.012 -0.502,-1.503c-0.403,-0.939 -1.013,-1.791 -1.75,-2.498c-0.566,-0.544 -1.565,-0.605 -2.121,-0c-0.54,0.589 -0.605,1.541 0,2.122c0.162,0.155 0.318,0.315 0.464,0.485c0.048,0.056 0.206,0.268 0.089,0.105c0.058,0.081 0.115,0.163 0.17,0.246c0.136,0.208 0.26,0.424 0.371,0.647c0.045,0.088 0.088,0.178 0.127,0.27c-0.081,-0.19 0.014,0.053 0.04,0.127c0.312,0.9 0.324,1.872 0.689,2.755c0.418,1.011 1.132,1.734 1.974,2.407c0.865,0.693 1.733,1.383 2.6,2.074c0.612,0.489 1.531,0.643 2.121,-0c0.499,-0.543 0.655,-1.599 0,-2.121" style="fill-rule:nonzero;"/><path d="M317.15,404.266c-0.124,-2.027 -1.164,-3.705 -2.231,-5.369c-1.029,-1.605 -2.128,-3.21 -3.564,-4.482c-0.587,-0.52 -1.55,-0.621 -2.121,0c-0.522,0.569 -0.627,1.566 -0,2.122c0.583,0.516 1.247,1.24 1.643,1.751c0.398,0.515 0.947,1.338 1.369,1.994c0.437,0.679 0.884,1.357 1.267,2.069c0.095,0.177 0.183,0.357 0.27,0.538c0.111,0.229 -0,-0.019 0.053,0.122c0.035,0.092 0.069,0.185 0.1,0.279c0.063,0.186 0.116,0.376 0.159,0.568c0.006,0.026 0.061,0.31 0.038,0.164c-0.026,-0.158 0.017,0.251 0.017,0.244c0.048,0.782 0.656,1.538 1.5,1.5c0.772,-0.035 1.551,-0.661 1.5,-1.5" style="fill-rule:nonzero;"/><path d="M326.707,404.052c-0.357,-0.324 -0.713,-0.651 -1.039,-1.008c-0.289,-0.317 -0.508,-0.602 -0.654,-0.945c0.044,0.104 -0.08,-0.263 -0.079,-0.259c-0.012,-0.035 -0.059,-0.236 -0.034,-0.089c-0.044,-0.262 -0.019,-0.551 0.009,-0.814c0.046,-0.429 0.206,-1.175 0.268,-1.724c0.257,-2.266 -0.918,-4.502 -2.868,-5.657c-1.665,-0.986 -3.176,1.606 -1.515,2.59c0.11,0.066 0.219,0.132 0.324,0.206c0.202,0.143 -0.126,-0.118 0.057,0.049c0.17,0.155 0.336,0.315 0.479,0.495c-0.097,-0.123 0.008,0.015 0.039,0.066c0.068,0.11 0.136,0.216 0.198,0.329c0.012,0.023 0.138,0.268 0.091,0.166c-0.056,-0.124 0.079,0.215 0.09,0.25c0.031,0.097 0.059,0.195 0.083,0.294c0.009,0.035 0.075,0.41 0.055,0.253c-0.017,-0.132 0.006,0.155 0.007,0.182c0.005,0.138 -0.001,0.274 -0.005,0.412c-0.011,0.379 -0.148,0.942 -0.217,1.419c-0.181,1.24 -0.095,2.398 0.519,3.516c0.51,0.928 1.294,1.686 2.071,2.39c0.599,0.545 1.529,0.593 2.121,0c0.553,-0.552 0.602,-1.574 -0,-2.121" style="fill-rule:nonzero;"/><path d="M338.231,399.391c-0.306,-0.204 0.077,0.12 -0.051,-0.031c-0.064,-0.076 -0.15,-0.146 -0.223,-0.215c-0.265,-0.252 0.127,0.226 -0.073,-0.081c-0.045,-0.069 -0.091,-0.137 -0.133,-0.209c-0.064,-0.108 -0.119,-0.219 -0.176,-0.331c-0.126,-0.25 0.026,0.117 -0.02,-0.051c-0.056,-0.209 -0.137,-0.41 -0.191,-0.62c-0.054,-0.214 -0.099,-0.43 -0.138,-0.648c-0.019,-0.109 -0.035,-0.219 -0.053,-0.329c0.051,0.31 0.002,0.001 -0.006,-0.064c-0.051,-0.457 -0.078,-0.915 -0.125,-1.371c-0.214,-2.088 -0.765,-4.281 -2.698,-5.428c-0.675,-0.401 -1.675,-0.175 -2.052,0.538c-0.382,0.723 -0.183,1.624 0.538,2.052c-0.003,-0.002 0.328,0.206 0.164,0.093c-0.16,-0.111 0.102,0.094 0.132,0.123c0.088,0.085 0.172,0.177 0.248,0.273c-0.085,-0.107 -0.092,-0.133 -0.019,-0.003c0.062,0.108 0.129,0.212 0.187,0.323c0.018,0.035 0.158,0.351 0.083,0.167c-0.074,-0.185 0.063,0.185 0.062,0.181c0.034,0.104 0.066,0.208 0.095,0.313c0.06,0.213 0.11,0.428 0.152,0.645c0.021,0.109 0.039,0.219 0.059,0.329c0.074,0.419 -0.016,-0.18 0.011,0.064c0.052,0.456 0.085,0.914 0.129,1.371c0.203,2.121 0.704,4.245 2.584,5.499c0.654,0.437 1.689,0.15 2.052,-0.538c0.399,-0.754 0.16,-1.586 -0.538,-2.052" style="fill-rule:nonzero;"/><path d="M342.994,419.179c0.228,0.016 -0.071,-0.019 -0.127,-0.034c-0.1,-0.033 -0.097,-0.029 0.009,0.012c-0.045,-0.024 -0.089,-0.048 -0.133,-0.072l-0.129,-0.081c0.079,0.067 0.08,0.067 0.002,-0.002c-0.097,-0.085 -0.189,-0.179 -0.275,-0.277c0.12,0.138 -0.065,-0.093 -0.097,-0.143c-0.072,-0.113 -0.135,-0.23 -0.198,-0.349c-0.081,-0.152 -0.112,-0.267 -0.189,-0.572c-0.306,-1.221 -0.228,-2.521 -0.534,-3.766c-0.572,-2.332 -2.187,-4.382 -4.284,-5.537c-0.709,-0.391 -1.636,-0.173 -2.052,0.538c-0.402,0.688 -0.174,1.66 0.538,2.053c1.926,1.061 2.894,2.804 3.103,5.058c0.128,1.385 0.245,2.803 0.983,4.022c0.751,1.24 1.927,2.048 3.383,2.15c0.809,0.056 1.5,-0.73 1.5,-1.5c-0,-0.859 -0.689,-1.444 -1.5,-1.5" style="fill-rule:nonzero;"/><path d="M350.555,408.96c0.186,0.135 0.371,0.271 0.554,0.41c-0.168,-0.128 0.004,0.002 0.079,0.063c0.09,0.072 0.179,0.146 0.267,0.221c0.344,0.293 0.685,0.61 0.96,0.97c-0.092,-0.121 -0.058,-0.077 0.004,0.023c0.06,0.096 0.121,0.189 0.176,0.287c0.056,0.099 0.109,0.198 0.154,0.302c-0.087,-0.2 -0.001,0.019 0.028,0.11c0.148,0.468 0.223,0.954 0.313,1.435c0.204,1.096 0.595,2.058 1.305,2.924c0.626,0.763 1.459,1.339 2.259,1.903c0.643,0.454 1.696,0.137 2.052,-0.538c0.407,-0.77 0.149,-1.568 -0.538,-2.052c-0.185,-0.131 -0.368,-0.265 -0.553,-0.397c-0.222,-0.157 0.049,0.048 -0.077,-0.056c-0.088,-0.072 -0.177,-0.142 -0.264,-0.217c-0.171,-0.146 -0.336,-0.3 -0.492,-0.463c-0.061,-0.065 -0.12,-0.132 -0.18,-0.199c-0.268,-0.303 0.125,0.223 -0.088,-0.121c-0.047,-0.076 -0.096,-0.15 -0.139,-0.228c0.002,0.005 -0.161,-0.329 -0.105,-0.194c0.063,0.146 -0.065,-0.2 -0.073,-0.232c-0.036,-0.116 -0.067,-0.234 -0.096,-0.352c-0.113,-0.477 -0.178,-0.964 -0.284,-1.443c-0.473,-2.166 -2.038,-3.5 -3.748,-4.746c-0.636,-0.464 -1.7,-0.129 -2.052,0.538c-0.411,0.779 -0.14,1.557 0.538,2.052" style="fill-rule:nonzero;"/><path d="M364.51,399.306c0.684,0.039 1.43,0.614 1.915,1.283c0.755,1.045 1.142,2.319 1.642,3.494c0.498,1.177 1.164,2.203 1.871,3.262c0.598,0.896 1.163,1.796 1.153,2.793c-0.024,1.931 2.976,1.933 3,-0c0.017,-1.491 -0.603,-2.836 -1.401,-4.062c-0.786,-1.207 -1.563,-2.345 -2.103,-3.69c-0.587,-1.469 -1.154,-2.91 -2.202,-4.12c-0.995,-1.149 -2.353,-1.874 -3.875,-1.96c-0.81,-0.046 -1.5,0.722 -1.5,1.5c-0,0.85 0.688,1.454 1.5,1.5" style="fill-rule:nonzero;"/><path d="M346.208,385.099c1.092,0.837 1.962,2.079 2.412,3.375c0.517,1.49 0.298,3.19 1.156,4.555c0.698,1.109 1.776,1.845 2.831,2.579c0.546,0.378 0.719,0.481 1.124,0.876c0.101,0.1 0.202,0.204 0.293,0.313c-0.176,-0.211 0.078,0.125 0.093,0.149c0.034,0.058 0.183,0.414 0.087,0.146c0.049,0.136 0.081,0.277 0.11,0.418c0.163,0.794 1.101,1.252 1.845,1.048c0.825,-0.227 1.212,-1.049 1.048,-1.845c-0.294,-1.429 -1.335,-2.416 -2.458,-3.25c-0.496,-0.369 -1.021,-0.698 -1.513,-1.073c0.186,0.142 -0.14,-0.115 -0.174,-0.144c-0.114,-0.097 -0.225,-0.198 -0.331,-0.303c-0.104,-0.103 -0.207,-0.209 -0.299,-0.323c0.161,0.198 -0.109,-0.181 -0.139,-0.229c-0.108,-0.171 -0.167,-0.366 -0.233,-0.797c-0.073,-0.471 -0.097,-0.949 -0.172,-1.421c-0.14,-0.88 -0.429,-1.713 -0.79,-2.525c-0.744,-1.674 -1.934,-3.033 -3.376,-4.14c-0.643,-0.493 -1.679,-0.099 -2.052,0.539c-0.452,0.772 -0.107,1.557 0.538,2.052" style="fill-rule:nonzero;"/><path d="M383.846,405.082c0.285,0.024 -0.112,-0.035 -0.159,-0.049c0.198,0.058 0.022,0.011 -0.079,-0.048c-0.089,-0.052 -0.241,-0.186 -0.088,-0.05c-0.106,-0.094 -0.205,-0.195 -0.297,-0.303c0.134,0.157 -0.023,-0.035 -0.068,-0.107c-0.065,-0.106 -0.129,-0.213 -0.187,-0.323c-0.004,-0.007 -0.18,-0.421 -0.096,-0.198c-0.045,-0.12 -0.085,-0.241 -0.122,-0.364c-0.036,-0.123 -0.069,-0.246 -0.097,-0.371c-0.002,-0.01 -0.091,-0.484 -0.049,-0.196c-0.044,-0.304 -0.051,-0.616 -0.063,-0.921c-0.029,-0.713 -0.025,-1.428 -0.1,-2.139c-0.158,-1.498 -0.631,-2.888 -1.719,-3.973c-0.94,-0.937 -2.135,-1.537 -3.327,-2.083c-0.736,-0.338 -1.615,-0.21 -2.052,0.538c-0.378,0.645 -0.202,1.713 0.538,2.052c0.596,0.273 1.191,0.551 1.754,0.888c0.491,0.295 0.857,0.556 1.178,0.946c0.757,0.919 0.68,2.344 0.721,3.576c0.045,1.359 0.234,2.69 0.915,3.891c0.733,1.293 1.913,2.109 3.397,2.234c0.808,0.068 1.5,-0.738 1.5,-1.5c0,-0.868 -0.689,-1.431 -1.5,-1.5" style="fill-rule:nonzero;"/><path d="M359.889,379.38c0.954,0.804 2.185,1.776 2.564,2.961c0.231,0.723 0.049,1.461 -0.047,2.257c-0.106,0.885 -0.025,1.731 0.347,2.546c0.516,1.132 1.526,1.888 2.491,2.616c0.326,0.245 0.259,0.184 0.529,0.405c0.186,0.153 0.369,0.312 0.54,0.483c0.098,0.099 0.196,0.201 0.283,0.31c-0.182,-0.228 0.064,0.12 0.078,0.143c0.159,0.258 -0.025,-0.183 0.069,0.135c0.039,0.135 0.069,0.269 0.091,0.408c0.131,0.8 1.124,1.246 1.845,1.048c0.85,-0.234 1.18,-1.043 1.048,-1.845c-0.211,-1.288 -1.138,-2.261 -2.125,-3.034c-0.552,-0.433 -0.979,-0.727 -1.362,-1.059c-0.218,-0.188 -0.43,-0.387 -0.615,-0.608c0.181,0.216 -0.284,-0.575 -0.181,-0.287c-0.258,-0.719 0.038,-1.587 0.107,-2.316c0.079,-0.83 -0.056,-1.663 -0.37,-2.433c-0.647,-1.582 -1.887,-2.77 -3.171,-3.851c-0.619,-0.522 -1.514,-0.607 -2.121,0c-0.536,0.536 -0.622,1.597 0,2.121" style="fill-rule:nonzero;"/><path d="M461.939,398.012c0,-0 -0.566,3.602 -3.173,4.335c-2.606,0.733 -4.063,1.381 -5.208,1.22c-1.145,-0.161 -0.72,-3.256 3.416,-4.317c4.136,-1.061 4.965,-1.238 4.965,-1.238Z" style="fill:none;fill-rule:nonzero;stroke:#000;stroke-width:2px;"/><path d="M599.521,214.379c0,-0 23.92,-5.761 11.591,21.738c-10.739,23.954 -21.07,10.738 -21.07,10.738" style="fill:#ecbba3;fill-rule:nonzero;stroke:#000;stroke-width:3px;"/><path d="M597.464,223.377c0,-0 7.371,-5.878 11.434,-1.986c4.063,3.892 3.352,12.022 3.352,12.022" style="fill:none;fill-rule:nonzero;stroke:#000;stroke-width:3px;"/><path d="M814.334,184.829c-0,0 3.516,17.698 6.924,24.866c-0,0 6.072,-5.082 16.839,-6.516c10.766,-1.433 18.17,2.679 18.17,2.679c-0,0 35.284,-8.773 44.887,-15.352c7.853,-5.381 7.58,-8.478 5.931,-19.212c-0.494,-3.22 -4.808,-12.857 -4.808,-12.857c-0,0 -16.084,-1.688 -49.303,8.797c-33.219,10.484 -38.64,17.595 -38.64,17.595Z" style="fill:#2d7249;fill-rule:nonzero;stroke:#000;stroke-width:3px;"/><path d="M815.162,188.74c0,0 23.042,0.004 42.156,-4.724c19.113,-4.728 36.814,-12.004 47.457,-18.194l-2.498,-7.385c0,0 -16.617,-0.651 -44.689,7.385c-28.071,8.036 -43.255,19.007 -43.255,19.007l0.829,3.911Z" style="fill:#fff;fill-rule:nonzero;stroke:#000;stroke-width:3px;"/><path d="M814.334,184.829c-0,0 34.731,-1.632 50.695,-7.604c15.963,-5.973 37.248,-18.788 37.248,-18.788c-0,0 -20.929,0.722 -44.688,7.385c-35.239,9.882 -43.255,19.007 -43.255,19.007Z" style="fill:none;fill-rule:nonzero;stroke:#000;stroke-width:3px;"/><path d="M429.634,283.087c1.709,11.6 -3.555,13.92 -3.555,13.92c0.543,3.258 1.412,15.638 1.629,35.728c0.217,20.091 -1.738,24.109 -1.738,24.109c0,0 0.543,-1.955 2.824,-3.041c2.281,-1.086 6.299,-7.601 6.299,-7.601c7.167,6.515 22.588,33.013 22.588,33.013c0,0 -23.892,12.163 -36.489,13.249c-12.597,1.086 -18.027,-3.91 -20.633,-16.29c-2.607,-12.38 0.434,-54.515 1.955,-77.104c1.52,-22.588 -6.516,-28.235 -12.839,-37.574c-6.323,-9.339 -6.95,-40.907 -6.95,-40.907l10.28,-13.175l35.476,45.611l1.153,30.062" style="fill:#ecbba3;fill-rule:nonzero;stroke:#000;stroke-width:3px;"/><path d="M393.005,183.985c-0,0 -7.849,-4.377 -12.054,-3.095c-6.941,2.116 -7.575,12.054 -6.576,28.118c1,16.063 14.883,10.733 14.883,10.733" style="fill:#ecbba3;fill-rule:nonzero;stroke:#000;stroke-width:3px;"/><path d="M405.989,132.266c-0,-0 -21.828,65.484 -14.986,101.321c6.841,35.837 46.588,57.014 71.999,64.507c25.412,7.493 72.326,13.357 100.018,-13.358c27.693,-26.714 35.837,-55.71 36.489,-82.425c0.652,-26.715 -0,-41.049 -0,-41.049l7.167,-59.946l-94.153,-33.231l-61.575,-11.728l-53.43,41.701l8.471,34.208Z" style="fill:#ecbba3;fill-rule:nonzero;stroke:#000;stroke-width:3px;"/><path d="M702.133,291.415c-0,-0 -44.471,-5.213 -59.457,-8.634c-14.986,-3.42 -51.856,-9.113 -63.801,-16.366c-0,-0 -17.223,24.684 -36.412,31.521c-19.189,6.836 -58.936,8.126 -79.461,0.158c-0,-0 -11.402,15.51 -15.475,23.393c-4.072,7.883 -14.498,22.869 -14.498,22.869c-0,-0 21.503,26.878 26.39,36.814c-0,-0 19.71,-6.352 34.533,-20.687c-0,-0 48.543,24.76 94.969,29.484c46.425,4.724 121.194,4.398 131.131,4.235c-0,-0 3.42,-29.158 -3.096,-57.828c-6.515,-28.669 -10.914,-29.81 -14.823,-44.959Z" style="fill:#568a47;fill-rule:nonzero;stroke:#000;stroke-width:3px;"/><path d="M720.281,391.833c0,-0 93.815,-5.45 122.919,-7.622c29.104,-2.172 35.837,-2.823 41.702,-7.602c5.864,-4.778 17.375,-27.366 17.375,-63.42c0,-36.054 -1.303,-82.317 -1.303,-82.317c0,-0 -10.534,1.412 -21.719,-2.389c-11.186,-3.801 -15.856,-6.733 -15.856,-6.733c0,-0 -4.669,44.199 -5.755,57.774c-1.086,13.574 -6.842,24.76 -6.842,24.76c0,-0 -117.719,-3.367 -148.669,-12.869c0,-0 14.112,32.494 16.308,52.451c2.196,19.957 1.84,47.967 1.84,47.967Z" style="fill:#96b9d7;fill-rule:nonzero;stroke:#000;stroke-width:3px;"/><path d="M491,303.606c0,-0 4.364,18.922 25.54,17.836c21.177,-1.086 21.946,-22.018 21.946,-22.018c0,-0 -7.73,3.696 -23.743,4.658c-16.013,0.962 -23.743,-0.476 -23.743,-0.476Z" style="fill:#ecbba3;fill-rule:nonzero;stroke:#000;stroke-width:3px;"/><path d="M509.427,175.84c0,0 10.344,-5.213 20.118,-1.629c9.773,3.584 16.126,9.448 16.126,9.448c0,0 1.059,-13.302 -11.81,-17.537c-12.868,-4.235 -24.434,9.718 -24.434,9.718" style="fill:#ddac8f;fill-rule:nonzero;"/><path d="M446.387,168.184c-0,-0 -7.33,-11.673 -18.407,-10.37c-11.077,1.304 -14.661,12.162 -14.661,12.162c-0,-0 8.145,-2.269 14.661,-3.177c6.516,-0.907 18.407,1.385 18.407,1.385" style="fill:#ddac8f;fill-rule:nonzero;"/><path d="M509.753,174.619c0,-0 11.24,-9.937 21.013,-6.353c9.774,3.584 14.335,14.172 14.335,14.172c0,-0 1.629,-15.149 -11.239,-19.385c-12.869,-4.235 -24.109,11.566 -24.109,11.566Z" style="fill:#715030;fill-rule:nonzero;stroke:#000;stroke-width:3px;"/><path d="M445.735,166.962c0,0 -6.679,-13.52 -17.756,-12.217c-11.077,1.303 -14.66,13.846 -14.66,13.846c0,0 8.145,-5.352 14.66,-6.26c6.516,-0.907 17.756,4.631 17.756,4.631Z" style="fill:#715030;fill-rule:nonzero;stroke:#000;stroke-width:3px;"/><path d="M391.448,194.204c-0,0 -4.681,-8.183 -9.893,-6.066c-5.213,2.118 -7.553,9.937 -7.553,9.937" style="fill:none;fill-rule:nonzero;stroke:#000;stroke-width:3px;"/><path d="M515.127,204.966c0,0 -0.002,-12.592 5.375,-12.592c3.071,0 5.682,5.528 5.221,11.21c-0.461,5.682 -2.711,10.135 -5.272,10.289c-2.56,0.153 -5.64,-4.674 -5.324,-8.907Z" style="fill-rule:nonzero;stroke:#000;stroke-width:3px;"/><path d="M823.327,217.189c0,-0 6.516,3.475 16.181,2.715c9.665,-0.76 14.335,-4.236 14.335,-4.236l8.332,17.785c0,-0 -2.761,27.217 -4.189,42.073c-1.428,14.857 -5.229,26.26 -7.184,28.758l-44.205,-1.834c0,-0 32.151,-3.162 37.581,-5.985c0,-0 -3.367,-22.588 -7.711,-36.489c-4.344,-13.9 -13.14,-42.787 -13.14,-42.787Z" style="fill:#96b9d7;fill-rule:nonzero;stroke:#000;stroke-width:3px;"/><path d="M423.204,200.273c-0,-0 -0.417,-12.585 4.957,-12.762c3.069,-0.102 5.861,5.338 5.588,11.032c-0.274,5.694 -2.376,10.219 -4.93,10.457c-2.554,0.237 -5.792,-4.486 -5.615,-8.727Z" style="fill-rule:nonzero;stroke:#000;stroke-width:3px;"/><path d="M474.73,202.474c0,-0 1.955,14.158 0,17.586c-1.955,3.428 -14.493,6.168 -14.498,13.353c-0.006,9.134 10.751,10.925 10.751,10.925" style="fill:none;fill-rule:nonzero;stroke:#000;stroke-width:3px;"/><path d="M862.911,182.546l-0.756,-5.266c0,0 44.091,-13.574 67.982,-13.357c23.891,0.217 29.213,3.258 29.213,3.258l1.111,5.591" style="fill:#fff;fill-rule:nonzero;stroke:#000;stroke-width:3px;"/><path d="M452.414,258.021c-0,0 11.077,10.262 22.154,9.937c11.077,-0.326 23.607,-8.634 23.607,-8.634c-0,0 -2.322,20.199 -22.576,18.733c-20.253,-1.466 -23.185,-20.036 -23.185,-20.036Z" style="fill:#b24f4b;fill-rule:nonzero;stroke:#000;stroke-width:3px;"/><path d="M862.911,182.546c0,0 0.79,18.027 3.07,25.629c0,0 8.471,-6.081 19.33,-5.864c10.86,0.217 15.856,7.384 15.856,7.384c0,0 36.207,-3.316 46.696,-8.362c8.579,-4.126 13.249,-7.927 13.249,-18.787c0,-3.258 -0.651,-9.774 -0.651,-9.774c-0,0 -15.204,-7.276 -49.629,-1.955c-34.426,5.322 -47.921,11.729 -47.921,11.729Z" style="fill:#2d7249;fill-rule:nonzero;stroke:#000;stroke-width:3px;"/><path d="M932.876,168.882c-0,-0 4.66,25.039 15.905,32.003c-0,-0 17.001,-3.569 11.68,-28.112c-0,-0 -13.068,-4.823 -27.585,-3.891Z" style="fill:#fff;fill-rule:nonzero;stroke:#000;stroke-width:3px;"/><path d="M921.951,207.103c0,0 -6.208,-4.792 -7.403,-12.937" style="fill:none;fill-rule:nonzero;stroke:#000;stroke-width:3px;"/><path d="M908.565,208.839c-0,0 -4.007,-3.488 -5.202,-12.61" style="fill:none;fill-rule:nonzero;stroke:#000;stroke-width:3px;"/><path d="M862.155,203.709c0,0 -3.018,-0.549 -4.213,-5.959" style="fill:none;fill-rule:nonzero;stroke:#000;stroke-width:3px;"/><path d="M895.653,231.127c0,-0 0.506,-15.316 3.565,-22.826c0,-0 -6.348,-7.12 -16.685,-5.958c-10.338,1.162 -15.579,4.76 -15.579,4.76l0,16.503c0,-0 15.451,8.645 28.699,7.521Z" style="fill:#ecbba3;fill-rule:nonzero;stroke:#000;stroke-width:3px;"/><path d="M936.934,204.438c-0,0 -6.639,-4.082 -8.268,-11.25" style="fill:none;fill-rule:nonzero;stroke:#000;stroke-width:3px;"/><path d="M822.434,208.839l2.032,8.868c0,0 7.515,3.641 18.011,1.86c10.497,-1.781 11.365,-3.899 11.365,-3.899l0,-10.862c0,0 -7.43,-3.159 -16.733,-1.483c-9.303,1.675 -14.675,5.516 -14.675,5.516Z" style="fill:#ecbba3;fill-rule:nonzero;stroke:#000;stroke-width:3px;"/><path d="M850.802,304.283c0,0 6.516,4.778 7.71,9.774" style="fill:none;fill-rule:nonzero;stroke:#000;stroke-width:3px;"/><path d="M844.178,296.465c-0,-0 1.52,0.543 2.823,2.932" style="fill:none;fill-rule:nonzero;stroke:#000;stroke-width:3px;"/><path d="M592.558,356.953c0,0 18.679,-3.149 34.208,-9.122c15.529,-5.973 23.131,-5.647 23.131,-5.647c0,0 -25.303,-32.362 -45.719,-38.226c-20.416,-5.865 -28.453,-2.824 -33.122,3.366c-4.67,6.19 -2.361,22.588 5.933,31.167c8.293,8.58 15.569,18.462 15.569,18.462Z" style="fill:#568a47;fill-rule:nonzero;stroke:#000;stroke-width:3px;"/><path d="M482.794,392.609c-2.769,0.28 -9.896,3.751 -15.597,4.973c-5.702,1.222 -12.828,1.67 -13.643,3.787c-0.121,0.315 -0.186,0.645 -0.198,0.978c-0.066,1.903 1.627,3.909 4.678,3.909c3.584,-0 5.837,-0.977 20.389,-3.366c14.552,-2.389 29.864,-1.955 37.032,-1.846c7.167,0.108 17.375,-5.43 26.28,-6.082c8.905,-0.651 2.715,1.412 39.095,1.846c36.38,0.435 64.615,-7.493 74.823,-12.706c10.209,-5.212 7.602,-12.814 4.67,-17.809c-2.932,-4.996 -16.948,-23.384 -16.948,-23.384c-0,-0 -7.503,1.823 -18.861,5.761c-11.357,3.937 -28.939,7.726 -28.939,7.726c-0,-0 2.63,6.123 3.608,7.345c-0,-0 -28.588,2.199 -42.923,4.968c-14.335,2.769 -27.529,5.864 -41.294,3.665c-13.765,-2.199 -22.958,-3.527 -27.529,-3.258c-4.571,0.269 -16.116,5.995 -21.049,9.31c-4.933,3.314 -13.811,7.142 -15.359,8.69c-1.547,1.547 -3.14,2.734 -0.796,7.923l0.061,0.1l3.237,5.29" style="fill:#ecbba3;fill-rule:nonzero;stroke:#000;stroke-width:3px;"/><path d="M483.445,386.464c0,0 -14.009,3.177 -19.629,4.887c-5.62,1.71 -6.76,2.443 -10.995,3.339c-4.236,0.896 -6.679,-0.244 -8.064,1.466c-1.384,1.711 0.163,6.353 4.48,5.783l4.317,-0.57" style="fill:#ecbba3;fill-rule:nonzero;stroke:#000;stroke-width:3px;"/><path d="M481.328,377.668c-0,-0 -22.154,10.425 -24.76,11.403c-2.606,0.977 -6.122,1.831 -5.382,5.884" style="fill:none;fill-rule:nonzero;stroke:#000;stroke-width:3px;"/><path d="M589.866,148.004l15.182,-42.779l-96.273,-44.797l-86.822,-1.629l-35.511,79.819l7.873,46.941c-0,0 14.258,-38.92 15.509,-47.677c1.251,-8.758 2.029,-9.418 2.029,-9.418c-0,0 -0.134,-0.463 0.435,4.996c-0,0 13.573,-7.179 21.534,-13.093c7.962,-5.915 15.334,-19.052 18.592,-35.667c-0,0 6.657,20.085 31.793,27.023c25.135,6.937 43.446,8.302 52.545,17.629c-0,0 0.308,-8.941 -8.265,-20.869c-0,0 11.933,12.451 26.389,25.085c6.06,5.297 24.868,13.754 34.99,14.436c-0,0 18.994,18.766 20.586,25.818" style="fill:#ddac8f;fill-rule:nonzero;"/><path d="M392.857,185.082c-0,0 -2.488,-3.256 -9.003,-4.356c-6.515,-1.1 -9.304,7.657 -9.304,7.657c0.914,-4.281 0.163,-15.999 0.163,-15.999c-1.521,6.02 -6.516,10.053 -6.516,10.053c-0,0 2.389,-3.475 2.606,-42.353c0.217,-38.877 27.15,-75.149 27.15,-75.149c-2.39,-1.086 -5.865,0 -5.865,0c5.647,-13.249 36.706,-31.059 36.706,-31.059c-1.737,-2.606 -8.688,-5.212 -8.688,-5.212c19.982,-9.34 38.227,-6.299 38.227,-6.299c-0,0 10.642,-12.163 29.972,-17.81c19.331,-5.647 38.226,-1.737 38.226,-1.737c-11.945,1.303 -18.027,9.122 -18.027,9.122c31.928,-7.819 57.774,13.248 57.774,13.248c-4.995,-0.868 -11.077,1.086 -11.077,1.086c16.941,6.734 20.851,10.643 49.303,35.838c28.453,25.194 23.023,115.981 23.023,115.981c-2.715,-2.28 -4.887,-7.385 -4.887,-7.385c-0,6.625 -2.498,15.204 -4.344,23.132c-1.846,7.927 -0,16.181 -0,16.181c-2.498,-2.715 -4.235,-6.95 -4.235,-6.95c-0.869,5.755 -0.533,15.089 -0.533,15.089c-4.333,-7.391 -14.873,-3.577 -14.873,-3.577c0.627,-4.599 2.374,-46.589 0.854,-53.322c-1.521,-6.733 -19.656,-24.652 -19.656,-24.652c-9.665,-0.652 -26.715,-15.638 -32.362,-20.85c-16.44,-15.176 -37.14,-17.593 -37.14,-17.593c11.619,5.973 18.787,20.633 18.787,20.633c-8.688,-8.905 -26.172,-10.208 -50.172,-16.832c-24,-6.625 -27.367,-34.969 -27.367,-34.969c2.498,17.484 -13.14,37.575 -20.742,43.222c-7.601,5.647 -16.832,16.289 -16.832,16.289c-0.543,-5.212 1.194,-16.289 1.194,-16.289c-0,0 -6.081,8.362 -7.276,16.724c-1.194,8.362 -15.086,58.138 -15.086,58.138" style="fill:#715030;fill-rule:nonzero;stroke:#000;stroke-width:3px;"/><path d="M452.821,394.69c0,0 0.977,2.896 -3.258,3.321c-4.235,0.426 -5.298,0 -5.298,0c0,0 0.094,-2.701 2.369,-2.809c2.276,-0.108 6.187,-0.512 6.187,-0.512Z" style="fill:none;fill-rule:nonzero;stroke:#000;stroke-width:2px;"/><path d="M455.45,384.465c0,-0 1.443,1.266 0.466,2.732c-0.978,1.466 -6.851,3.997 -6.851,3.997c0,-0 0.482,-3.379 2.82,-4.729c2.339,-1.351 3.565,-2 3.565,-2Z" style="fill:none;fill-rule:nonzero;stroke:#000;stroke-width:2px;"/><path d="M460.9,240.115c-0,-0 2.7,4.372 10.281,5.725c-0,-0 0.271,2.786 -5.708,1.545c-3.048,-0.633 -4.573,-7.27 -4.573,-7.27" style="fill:#ddac8f;fill-rule:nonzero;"/><path d="M388.966,231.143c0,0 1.629,22.724 26.362,43.547c8.297,6.986 12.909,9.244 12.909,9.244c0,0 0.575,1.774 0.231,4.005c0,0 -25.412,-15.475 -30.941,-24.668c-5.861,-9.743 -11.928,-26.448 -11.307,-41.332c0,0 0.411,0 2.013,-0.325c0,0 0.216,6.483 0.733,9.529" style="fill:#ddac8f;fill-rule:nonzero;"/><path d="M463.654,300.012c-0,-0 -3.036,3.803 -4.339,5.649c-0,-0 7.864,4.507 14.764,5.179c7.798,0.76 18.268,-0.194 18.268,-0.194c-0,-0 -1.218,-1.999 -2.738,-6.244c-0,-0 -14.118,-0 -25.955,-4.39" style="fill:#327d3d;fill-rule:nonzero;"/><path d="M579.31,268.446c-0.001,0 -14.77,17.81 -21.177,22.262c-6.408,4.453 -9.123,6.733 -18.245,9.557c0,0 -0.34,2.59 -1.146,5.399c0,0 17.246,-4.028 27.78,-14.453c10.534,-10.426 17.864,-20.566 17.864,-20.566c0,0 -2.335,-1.032 -5.077,-2.199" style="fill:#327d3d;fill-rule:nonzero;"/><path d="M493.219,305.573c0,-0 13.276,0.556 20.362,-0c7.086,-0.556 17.585,-1.877 23.131,-3.977c0,-0 -0.733,3.577 -0.977,4.069c0,-0 -10.426,3.668 -40.235,4.239c0,-0 -0.652,-0.679 -2.281,-4.331" style="fill:#ddac8f;fill-rule:nonzero;"/><path d="M577.029,122.18c0,-0 5.864,9.271 17.593,11.878c0,-0 -6.19,3.283 -14.77,2.552" style="fill:none;fill-rule:nonzero;stroke:#000;stroke-width:3px;"/><path d="M596.995,156.285c0,-0 4.712,5.384 6.748,13.691" style="fill:#715030;fill-rule:nonzero;stroke:#000;stroke-width:3px;"/><path d="M405.31,138.881c-0,0 -1.358,7.231 -4.591,17.404c-3.981,12.525 -15.255,14.994 -15.255,14.994c-0,0 6.841,-8.226 8.56,-16.622" style="fill:none;fill-rule:nonzero;stroke:#000;stroke-width:3px;"/><path d="M656.604,358.12c-0,0 12.652,18.231 3.99,24.353c-8.837,6.248 -21.76,9.109 -21.76,9.109c0,0 9.203,0.312 11.24,0.393c2.036,0.082 10.712,-0.996 15.029,-6.616c4.317,-5.62 2.077,-11.767 0.053,-15.999c-1.842,-3.853 -8.553,-11.24 -8.553,-11.24" style="fill:#327d3d;fill-rule:nonzero;"/><path d="M704.902,293.858c0,0 13.195,32.742 14.661,47.565c1.466,14.824 2.28,43.005 2.28,48.543l4.398,0c0,0 -1.303,-43.004 -3.095,-50.986c-1.792,-7.982 -9.448,-34.045 -14.335,-44.308l-3.909,-0.814Z" style="fill:#76a0c8;fill-rule:nonzero;"/><path d="M860.64,233.705l-1.947,-4.155c-0,0 -3.167,41.665 -4.85,52.09c-1.683,10.426 -5.206,19.382 -6.19,21.014l2.362,0.109c-0,0 5.176,-7.21 7.195,-35.131c0.196,-2.718 3.43,-33.927 3.43,-33.927" style="fill:#76a0c8;fill-rule:nonzero;"/><path d="M868.449,207.903c0,0 7.765,-4.045 15.91,-4.194c8.144,-0.15 13.14,4.9 13.14,4.9c0,0 -0.76,2.088 -0.923,2.836c0,0 -6.896,-4.307 -12.326,-3.87c-5.43,0.437 -12.163,1.685 -15.801,3.043l0,-2.715Z" style="fill:#ddac8f;fill-rule:nonzero;"/><path d="M824.142,209.539c-0,0 6.043,-4.021 14.442,-4.948c8.851,-0.977 13.739,1.303 13.739,1.303l-0,3.041c-0,0 -6.897,-1.629 -13.25,-0.543c-6.353,1.086 -11.063,2.26 -14.321,3.835l-0.611,-2.688Z" style="fill:#ddac8f;fill-rule:nonzero;"/></svg>