<svg width="100%" height="100%" viewBox="0 0 477 255" version="1.1" style="fill-rule:evenodd;clip-rule:evenodd;stroke-linecap:round;stroke-linejoin:round;stroke-miterlimit:10;"><path d="M202.001,249.298c72.975,0.88 183.095,4.561 215.022,0c31.928,-4.561 72.326,-46.262 50.824,-74.281c-27.772,-36.187 -50.824,0 -50.824,0c0,0 23.457,-32.579 -0.651,-46.913c-27.277,-16.219 -44.96,22.805 -44.96,22.805c0,0 8.471,-57.339 -39.095,-59.294c-47.565,-1.955 -53.429,48.217 -53.429,48.217c0,0 12.38,-136.832 -74.281,-136.832c-86.66,0 -87.312,110.769 -65.158,145.303c0,0 -12.38,-67.113 -74.932,-50.172c-62.552,16.941 -81.448,103.602 -37.792,130.968c43.656,27.366 154.438,19.948 175.276,20.199" style="fill:#fffffe;fill-rule:nonzero;"/><path d="M202.001,249.298c72.975,0.88 183.095,4.561 215.022,0c31.928,-4.561 72.326,-46.262 50.824,-74.281c-27.772,-36.187 -50.824,0 -50.824,0c0,0 23.457,-32.579 -0.651,-46.913c-27.277,-16.219 -44.96,22.805 -44.96,22.805c0,0 8.471,-57.339 -39.095,-59.294c-47.565,-1.955 -53.429,48.217 -53.429,48.217c0,0 12.38,-136.832 -74.281,-136.832c-86.66,0 -87.312,110.769 -65.158,145.303c0,0 -12.38,-67.113 -74.932,-50.172c-62.552,16.941 -81.448,103.602 -37.792,130.968c43.656,27.366 154.438,19.948 175.276,20.199Z" style="fill:none;fill-rule:nonzero;stroke:#eef2f7;stroke-width:6px;"/></svg>