<svg id="ewDTOzIStns1" xmlns="http://www.w3.org/2000/svg" xmlns:xlink="http://www.w3.org/1999/xlink" viewBox="0 0 413 615" shape-rendering="geometricPrecision" text-rendering="geometricPrecision">
<style><![CDATA[
#ewDTOzIStns24_to {animation: ewDTOzIStns24_to__to 1000ms linear infinite normal forwards}@keyframes ewDTOzIStns24_to__to { 0% {transform: translate(65.035326px,126.136654px)} 50% {transform: translate(67.89101px,113.064px)} 100% {transform: translate(65.035326px,126.136654px)}} #ewDTOzIStns24_tr {animation: ewDTOzIStns24_tr__tr 1000ms linear infinite normal forwards}@keyframes ewDTOzIStns24_tr__tr { 0% {transform: rotate(0deg)} 50% {transform: rotate(7.054953deg)} 100% {transform: rotate(0deg)}}
]]></style>
<path d="M151.703,319.534c0,0,23.457,14.009,43.004,16.615c19.548,2.607,45.611,4.236,56.362,2.281c0,0-33.23,92.524-43.33,114.353-10.099,21.827-34.534,47.565-47.24,60.922-12.705,13.358-29.647,33.231-29.647,33.231s-14.334.652-28.018-18.896c0,0,34.86-49.846,43.656-67.113c8.797-17.267,28.74-79.128,29.391-81.083l5.795-5.251c0,0-27.367,25.411-47.891,38.769-20.525,13.357-43.005,29.973-51.15,8.796-8.144-21.176-2.932-35.837,10.1-48.869c13.031-13.031,56.036-48.217,58.968-53.755Z" clip-rule="evenodd" fill="#96b9d7" stroke="#000" stroke-width="3" stroke-linecap="round" stroke-linejoin="round" stroke-miterlimit="10"/><path d="M78.831,406.036c-.269-13.85,2.501-51.479,2.501-51.479s5.701-5.701,13.683-6.679c7.982-.977,14.823-.814,14.823-.814l.625,10.091c0,0-17.724,16.078-21.898,20.695-11.632,12.87-9.734,28.186-9.734,28.186Z" clip-rule="evenodd" fill="#96b9d7" stroke="#000" stroke-width="3" stroke-linecap="round" stroke-linejoin="round" stroke-miterlimit="10"/><path d="M83.071,353.07c0,0-.273-4.703-.762-9.59c0,0,3.036-4.62,9.257-6.621c5.241-1.687,14.526-.221,17.132,2.549v7.646c0,0-11.179-.065-16.87,1.479s-8.757,4.537-8.757,4.537Z" clip-rule="evenodd" fill="#f3c7af" stroke="#000" stroke-width="3" stroke-linecap="round" stroke-linejoin="round" stroke-miterlimit="10"/><path d="M110.115,320.826l.499-5.54c0,0-33.4-7.915-50.802-6.837-17.401,1.078-20.565,4.894-20.565,4.894l-.594,4.117" clip-rule="evenodd" fill="#fff" stroke="#000" stroke-width="3" stroke-linecap="round" stroke-linejoin="round" stroke-miterlimit="10"/><path d="M110.115,320.826c0,0,.119,13.167-1.25,18.794c0,0-6.407-4.105-14.312-3.529-7.906.577-12.244,7.389-12.244,7.389s-25.538-2.419-33.376-5.692c-6.411-2.677-9.96-5.267-10.379-13.181-.125-2.374.099-7.147.099-7.147s10.799-5.887,36.09-3.335s35.372,6.701,35.372,6.701Z" clip-rule="evenodd" fill="#2d367a" stroke="#000" stroke-width="3" stroke-linecap="round" stroke-linejoin="round" stroke-miterlimit="10"/><path d="M58.604,313.563c0,0-2.432,18.426-10.358,23.934c0,0-12.526-1.947-9.594-20.036c0,0,9.337-4.018,19.952-3.898Z" clip-rule="evenodd" fill="#fff" stroke="#000" stroke-width="3" stroke-linecap="round" stroke-linejoin="round" stroke-miterlimit="10"/><path d="M68.037,340.995c0,0,4.339-3.731,4.896-9.713" clip-rule="evenodd" fill="none" stroke="#000" stroke-width="3" stroke-linecap="round" stroke-linejoin="round" stroke-miterlimit="10"/><path d="M77.859,341.744c0,0,2.786-2.696,3.305-9.389" clip-rule="evenodd" fill="none" stroke="#000" stroke-width="3" stroke-linecap="round" stroke-linejoin="round" stroke-miterlimit="10"/><path d="M57.016,339.63c0,0,4.68-3.23,5.592-8.516" clip-rule="evenodd" fill="none" stroke="#000" stroke-width="3" stroke-linecap="round" stroke-linejoin="round" stroke-miterlimit="10"/><path d="M79.514,558.127l-3.969,3.97c0,0,21.516,29.571,36.694,40.722c15.177,11.151,20.866,10.568,20.866,10.568l3.343-3.003" clip-rule="evenodd" fill="#fff" stroke="#000" stroke-width="3" stroke-linecap="round" stroke-linejoin="round" stroke-miterlimit="10"/><path d="M79.514,558.127c0,0,9.016-11.002,14.046-14.721c0,0,2.472,7.839,9.427,12.834c6.955,4.993,13.493,2.831,13.493,2.831s21.279,19.2,25.514,27.34c3.464,6.657,4.614,11.262-.517,18.114-1.539,2.056-5.029,5.859-5.029,5.859s-13.031-2.592-32.238-22.215c-19.208-19.623-24.696-30.042-24.696-30.042Z" clip-rule="evenodd" fill="#2d367a" stroke="#000" stroke-width="3" stroke-linecap="round" stroke-linejoin="round" stroke-miterlimit="10"/><path d="M117.204,599.806c0,0,14.771-13.598,25.157-12.679c0,0,9.041,10.285-5.913,23.257c0,0-10.524-3.131-19.244-10.578Z" clip-rule="evenodd" fill="#fff" stroke="#000" stroke-width="3" stroke-linecap="round" stroke-linejoin="round" stroke-miterlimit="10"/><path d="M128.37,570.527c0,0-6.182.091-10.784,4.666" clip-rule="evenodd" fill="none" stroke="#000" stroke-width="3" stroke-linecap="round" stroke-linejoin="round" stroke-miterlimit="10"/><path d="M120.744,563.107c0,0-4.176.307-9.24,5.499" clip-rule="evenodd" fill="none" stroke="#000" stroke-width="3" stroke-linecap="round" stroke-linejoin="round" stroke-miterlimit="10"/><path d="M136.565,579.288c0,0-6.118-.561-10.532,3.192" clip-rule="evenodd" fill="none" stroke="#000" stroke-width="3" stroke-linecap="round" stroke-linejoin="round" stroke-miterlimit="10"/><path d="M104.018,529.679L93.56,543.406c0,0,3.715,9.267,9.426,12.833c5.712,3.566,13.494,2.832,13.494,2.832l11.243-12.456c0,0-17.145-2.428-23.705-16.936Z" clip-rule="evenodd" fill="#f3c7af" stroke="#000" stroke-width="3" stroke-linecap="round" stroke-linejoin="round" stroke-miterlimit="10"/><path d="M210.216,203.666c7.492-1.68,19.697-3.971,25.116-7.255c0,0-2.398,26.422-24.227,26.393-21.828-.029-23.023-11.324-23.24-16.753c0,0,9.581.479,22.351-2.385" clip-rule="evenodd" fill="#f3c7af" stroke-linecap="round" stroke-linejoin="round" stroke-miterlimit="10"/><path d="M154.417,259.046c0,0-2.932,49.629-5.321,59.837c0,0,19.965,17.605,46.153,20.161c26.189,2.555,42.571.798,55.819-.613c0,0,11.729-23.566,12.598-54.842.868-31.276,0-24.543,0-24.543s6.081,12.163,18.027,18.896c0,0,13.683-13.9,15.638-40.181c0,0-10.643-11.945-27.15-23.891-16.506-11.946-35.837-15.638-35.837-15.638s-1.748,23.9-21.502,24.543c-26.715.868-24.977-16.724-24.977-16.724s-36.489-1.955-59.294-29.321c0,0-16.29,17.158-24.977,22.805c0,0,28.669,45.394,50.823,59.511Z" clip-rule="evenodd" fill="#8e679e" stroke="#000" stroke-width="3" stroke-linecap="round" stroke-linejoin="round" stroke-miterlimit="10"/><path d="M318.833,294.774c7.335-.188,15.964-6.842,24.271-21.665c8.308-14.824,13.521-24.434,20.2-30.299c6.678-5.864,10.751-5.375,16.778-13.683s6.678-10.751,13.194-15.475s13.358-8.308,15.964-10.588c2.606-2.281,1.955-3.421,1.14-4.724-.814-1.303-11.728-1.629-21.502,5.701c0,0,15.964-13.357,17.919-15.638c1.954-2.28,2.28-3.421.651-5.375-1.629-1.955-6.027-.163-8.145,1.303-2.117,1.466-16.615,12.869-16.615,12.869s14.009-14.335,16.29-19.222c2.28-4.887,1.954-6.027.325-7.168-1.629-1.14-5.538-.651-10.751,4.724-5.212,5.376-11.565,14.335-11.565,14.335s9.936-17.267,10.588-21.339-2.118-4.887-2.769-5.05c-.652-.163-5.05-1.629-12.706,9.937-7.656,11.565-15.638,22.642-18.896,26.063c0,0-3.095-22.642-8.471-21.665-5.375.977-4.235,15.475-1.791,23.946c2.443,8.47,5.701,14.009,5.212,20.036-.488,6.027-5.05,9.448-9.936,13.031-4.887,3.584-18.082,13.521-21.177,19.222c0,0-.46,4.146-.814,7.33c0,0,1.629-7.819-1.955-10.751s-16.941-12.868-16.941-12.868.698,14.257-11.38,34.658c0,0,20.176,22.681,32.882,22.355" clip-rule="evenodd" fill="#f3c7af" stroke-linecap="round" stroke-linejoin="round" stroke-miterlimit="10"/><path d="M318.833,294.774c7.335-.188,15.964-6.842,24.271-21.665c8.308-14.824,13.521-24.434,20.2-30.299c6.678-5.864,10.751-5.375,16.778-13.683s6.678-10.751,13.194-15.475s13.358-8.308,15.964-10.588c2.606-2.281,1.955-3.421,1.14-4.724-.814-1.303-11.728-1.629-21.502,5.701c0,0,15.964-13.357,17.919-15.638c1.954-2.28,2.28-3.421.651-5.375-1.629-1.955-6.027-.163-8.145,1.303-2.117,1.466-16.615,12.869-16.615,12.869s14.009-14.335,16.29-19.222c2.28-4.887,1.954-6.027.325-7.168-1.629-1.14-5.538-.651-10.751,4.724-5.212,5.376-11.565,14.335-11.565,14.335s9.936-17.267,10.588-21.339-2.118-4.887-2.769-5.05c-.652-.163-5.05-1.629-12.706,9.937-7.656,11.565-15.638,22.642-18.896,26.063c0,0-3.095-22.642-8.471-21.665-5.375.977-4.235,15.475-1.791,23.946c2.443,8.47,5.701,14.009,5.212,20.036-.488,6.027-5.05,9.448-9.936,13.031-4.887,3.584-18.082,13.521-21.177,19.222c0,0-.46,4.146-.814,7.33c0,0,1.629-7.819-1.955-10.751s-16.941-12.868-16.941-12.868.698,14.257-11.38,34.658c0,0,20.176,22.681,32.882,22.355Z" clip-rule="evenodd" fill="none" stroke="#000" stroke-width="3" stroke-linecap="round" stroke-linejoin="round" stroke-miterlimit="10"/><path d="M390.426,215.889c0,0-2.199-15.594-20.769-26.02" clip-rule="evenodd" fill="#ecbba3" stroke="#000" stroke-width="3" stroke-linecap="round" stroke-linejoin="round" stroke-miterlimit="10"/><path d="M353.204,199.48c0,0,2.118,5.375,3.747,11.566" clip-rule="evenodd" fill="#ecbba3" stroke="#000" stroke-width="3" stroke-linecap="round" stroke-linejoin="round" stroke-miterlimit="10"/><g id="ewDTOzIStns24_to" transform="translate(65.035326,126.136654)"><g id="ewDTOzIStns24_tr" transform="rotate(0)"><g transform="translate(-65.035325,-126.136654)"><path d="M80.191,162.014c-9.627-13.14-24.923-35.023-28.181-37.466h5.05c0,0-14.009,1.303-19.711-3.095-5.701-4.398-13.752-14.167-19.384-15.638-3.84-1.003-12.959-6.247-14.897-7.729s-1.824-3.647-1.026-5.471s2.85-2.166,6.383-1.368c3.534.798,13.566,3.533,15.618,4.445c0,0-15.846-12.083-17.897-15.161-2.052-3.078-2.052-3.534-.912-5.244s6.383-2.508,22.913,10.83c0,0-14.934-14.706-16.188-18.696s-2.508-4.446-.684-6.269c1.824-1.824,4.446-.114,7.182,2.393c2.736,2.508,15.96,14.136,15.96,14.136s-10.602-14.933-11.058-18.125-.57-3.534.798-4.902s4.788-.114,7.524,3.306c2.736,3.419,19.265,27.131,23.483,30.323c0,0-.684,3.419.114,6.156.032-.061-1.193-7.744,4.446-15.504c5.359-7.375,2.71-11.095,6.839-15.846c3.854-4.432,6.384,5.016,4.446,11.97s-5.585,21.773-4.56,27.815c1.026,6.042,4.348,12.823,12.819,22.163c8.471,9.339,49.303,51.692,49.303,51.692s-13.458,15.067-23.018,21.434c0,0-17.032-24.78-25.362-36.149" clip-rule="evenodd" fill="#f3c7af" stroke-linecap="round" stroke-linejoin="round" stroke-miterlimit="10"/><path d="M80.191,162.014c-9.627-13.14-24.923-35.023-28.181-37.466h5.05c0,0-14.009,1.303-19.711-3.095-5.701-4.398-13.752-14.167-19.384-15.638-3.84-1.003-12.959-6.247-14.897-7.729s-1.824-3.647-1.026-5.471s2.85-2.166,6.383-1.368c3.534.798,13.566,3.533,15.618,4.445c0,0-15.846-12.083-17.897-15.161-2.052-3.078-2.052-3.534-.912-5.244s6.383-2.508,22.913,10.83c0,0-14.934-14.706-16.188-18.696s-2.508-4.446-.684-6.269c1.824-1.824,4.446-.114,7.182,2.393c2.736,2.508,15.96,14.136,15.96,14.136s-10.602-14.933-11.058-18.125-.57-3.534.798-4.902s4.788-.114,7.524,3.306c2.736,3.419,19.265,27.131,23.483,30.323c0,0-.684,3.419.114,6.156.032-.061-1.193-7.744,4.446-15.504c5.359-7.375,2.71-11.095,6.839-15.846c3.854-4.432,6.384,5.016,4.446,11.97s-5.585,21.773-4.56,27.815c1.026,6.042,4.348,12.823,12.819,22.163c8.471,9.339,49.303,51.692,49.303,51.692s-13.458,15.067-23.018,21.434c0,0-17.032-24.78-25.362-36.149Z" clip-rule="evenodd" fill="none" stroke="#000" stroke-width="3" stroke-linecap="round" stroke-linejoin="round" stroke-miterlimit="10"/><path d="M25.262,110.416c0,0,2.314-13.152,6.224-18.854c3.909-5.701,8.959-9.773,8.959-9.773" clip-rule="evenodd" fill="#e5b9a1" stroke="#000" stroke-width="3" stroke-linecap="round" stroke-linejoin="round" stroke-miterlimit="10"/></g></g></g><path d="M211.322,152.736c-8.633,2.6-14.715,2.124-23.566,0c8.851,2.124,14.933,2.6,23.566,0s11.302-5.366,18.143-10.742c-6.841,5.376-9.51,8.142-18.143,10.742m70.697-22.812c-.652-10.751-1.955-25.086-4.236-39.421-2.28-14.335-23.457-58.642-23.457-58.642L200.462,13.617L96.969,79.426l3.584,37.466c0,0,18.027,99.53,99.909,88.371c81.882-11.158,82.208-64.588,81.557-75.339" clip-rule="evenodd" fill="#f3c7af" stroke-linecap="round" stroke-linejoin="round" stroke-miterlimit="10"/><path d="M211.322,152.736c-8.633,2.6-14.715,2.124-23.566,0c8.851,2.124,14.933,2.6,23.566,0s11.302-5.366,18.143-10.742c-6.841,5.376-9.51,8.142-18.143,10.742Zm70.697-22.812c-.652-10.751-1.955-25.086-4.236-39.421-2.28-14.335-23.457-58.642-23.457-58.642L200.462,13.617L96.969,79.426l3.584,37.466c0,0,18.027,99.53,99.909,88.371c81.882-11.158,82.208-64.588,81.557-75.339Z" clip-rule="evenodd" fill="none" stroke="#000" stroke-width="3" stroke-linecap="round" stroke-linejoin="round" stroke-miterlimit="10"/><path d="M151.7,198.557c0,0-1.528,44.718-2.278,50.498l-7.316-.148c0,0,7.984,5.166,9.271,6.12c0,0,1.846-.76,4.126-2.714c2.281-1.955,3.327-44.745,3.401-50.244c0,0-3.948-1.635-7.204-3.512" clip-rule="evenodd" fill="#7b5a8e" stroke-linecap="round" stroke-linejoin="round" stroke-miterlimit="10"/><path d="M252.549,205.711c0,0,1.845,12.778,4.581,17.092c2.735,4.315,16.093.08,19.894-1.658c0,0-18.895-13.552-24.475-15.434" clip-rule="evenodd" fill="#7b5a8e" stroke-linecap="round" stroke-linejoin="round" stroke-miterlimit="10"/><path d="M233.66,33.04c0,0-10.218,20.993-24.618,27.165-5.701,2.443-33.231,14.823-49.032,19.547s-22.479,12.802-24.108,14.139c-1.629,1.336-5.05-.13-3.91-4.202c1.141-4.073,4.398-10.914,4.398-10.914s-32.332,28.974-34.736,41.69L89.965,109.052l25.738-47.544L179.395,33.04l38.443-15.514L233.66,33.04Z" clip-rule="evenodd" fill="#e5b9a1" stroke-linecap="round" stroke-linejoin="round" stroke-miterlimit="10"/><path d="M223.92,9.49l.161,19.004c2.022-10.52-.161-19.004-.161-19.004Z" clip-rule="evenodd" fill="#eec684" stroke="#000" stroke-width="3" stroke-linecap="round" stroke-linejoin="round" stroke-miterlimit="10"/><path d="M217.838,24.91c-1.832,6.922-5.382,12.19-10.047,16.394c9.463-8.183,10.047-16.394,10.047-16.394Z" clip-rule="evenodd" fill="#eec684" stroke="#000" stroke-width="3" stroke-linecap="round" stroke-linejoin="round" stroke-miterlimit="10"/><path d="M312.752,185.851c-4.778-12.814-2.606-72.108-5.647-94.045s-7.385-34.968-35.837-67.33C242.815,-7.886,210.671,3.408,210.671,3.408c-19.33-2.389-31.059-4.561-75.149,11.511C91.431,30.992,86.001,71.173,83.395,98.105s3.448,73.186,7.819,88.18s12.38,60.815,12.38,60.815c21.068,2.172,45.828,1.955,45.828,1.955c2.606-10.643,2.278-52.096,2.278-52.096s-7.469-4.529-17.325-13.219c-27.104-23.899-34.188-70.676-34.188-70.676c5.064-20.009,43.208-50.579,79.696-58.954c13.578-3.116,22.3-7.956,27.908-12.806c4.665-4.203,8.215-9.472,10.047-16.394c0,0-.583,8.211-10.047,16.394-10.264,9.251-25.925,13.348-40.559,18.574-21.285,7.602-30.624,28.453-30.624,28.453c8.47-11.511,23.891-11.729,60.162-27.584c18.518-8.094,25.201-21.282,27.31-32.254l-.16-19.004c0,0,2.182,8.484.16,19.004v.006c8.093,3.036,13.523,6.619,20.907,12.918c7.385,6.299,11.729,13.249,23.24,33.448c11.512,20.199,12.28,36.639,13.886,58.645c1.607,22.006-10.411,34.687-18.948,45.108-8.536,10.421-28.82,19.613-28.82,19.613c13.014,2.828,23.634,8.335,23.634,8.335c1.045,8.117,4.818,13.602,4.818,13.602s13.466-3.91,19.318-4.279c5.853-.37,14.565-1.151,21.732-2.454s15.638-9.123,15.638-9.123-1.955-5.647-6.733-18.461" clip-rule="evenodd" fill="#eec684" stroke-linecap="round" stroke-linejoin="round" stroke-miterlimit="10"/><path d="M312.752,185.851c-4.778-12.814-2.606-72.108-5.647-94.045s-7.385-34.968-35.837-67.33C242.815,-7.886,210.671,3.408,210.671,3.408c-19.33-2.389-31.059-4.561-75.149,11.511C91.431,30.992,86.001,71.173,83.395,98.105s3.448,73.186,7.819,88.18s12.38,60.815,12.38,60.815c21.068,2.172,45.828,1.955,45.828,1.955c2.606-10.643,2.278-52.096,2.278-52.096s-7.469-4.529-17.325-13.219c-27.104-23.899-34.188-70.676-34.188-70.676c5.064-20.009,43.208-50.579,79.696-58.954c13.578-3.116,22.3-7.956,27.908-12.806c4.665-4.203,8.215-9.472,10.047-16.394c0,0-.583,8.211-10.047,16.394-10.264,9.251-25.925,13.348-40.559,18.574-21.285,7.602-30.624,28.453-30.624,28.453c8.47-11.511,23.891-11.729,60.162-27.584c18.518-8.094,25.201-21.282,27.31-32.254l-.16-19.004c0,0,2.182,8.484.16,19.004v.006c8.093,3.036,13.523,6.619,20.907,12.918c7.385,6.299,11.729,13.249,23.24,33.448c11.512,20.199,12.28,36.639,13.886,58.645c1.607,22.006-10.411,34.687-18.948,45.108-8.536,10.421-28.82,19.613-28.82,19.613c13.014,2.828,23.634,8.335,23.634,8.335c1.045,8.117,4.818,13.602,4.818,13.602s13.466-3.91,19.318-4.279c5.853-.37,14.565-1.151,21.732-2.454s15.638-9.123,15.638-9.123-1.955-5.647-6.733-18.461Z" clip-rule="evenodd" fill="none" stroke="#000" stroke-width="3" stroke-linecap="round" stroke-linejoin="round" stroke-miterlimit="10"/><path d="M306.562,211.278c0,0-14.932-12.367-14.769-62.702c0,0-8.921,39.591,11.258,63.455l3.511-.753Z" clip-rule="evenodd" fill="#e3b071" stroke-linecap="round" stroke-linejoin="round" stroke-miterlimit="10"/><path d="M308.838,211.687c0,0-13.678-12.37-14.982-31.483-1.303-19.113,0-42.353,0-42.353" clip-rule="evenodd" fill="none" stroke="#000" stroke-width="3" stroke-linecap="round" stroke-linejoin="round" stroke-miterlimit="10"/><path d="M277.04,215.101c0,0-5.384-7.986-7.012-30.987c0,0-2.429,2.517,3.946,31.631l3.066-.644Z" clip-rule="evenodd" fill="#e3b071" stroke-linecap="round" stroke-linejoin="round" stroke-miterlimit="10"/><path d="M290.272,213.652c0,0-7.06-17.885-8.688-40.887c0,0-4.995,12.978,5.202,41.198l3.486-.311Z" clip-rule="evenodd" fill="#e3b071" stroke-linecap="round" stroke-linejoin="round" stroke-miterlimit="10"/><path d="M293.277,214.926c0,0-5.032-3.88-8.76-18.649-2.289-9.065-1.303-19.547-1.303-28.018" clip-rule="evenodd" fill="none" stroke="#000" stroke-width="3" stroke-linecap="round" stroke-linejoin="round" stroke-miterlimit="10"/><path d="M279.521,216.192c0,0-8.471-11.228-8.036-32.079" clip-rule="evenodd" fill="none" stroke="#000" stroke-width="3" stroke-linecap="round" stroke-linejoin="round" stroke-miterlimit="10"/><path d="M115.007,246.642c0,0,1.437-17.58-.987-40.506c0,0,5.104,10.856,4.018,40.639l-3.031-.133Z" clip-rule="evenodd" fill="#e3b071" stroke-linecap="round" stroke-linejoin="round" stroke-miterlimit="10"/><path d="M136.59,247.272c0,0,3.744-12.659,1.32-35.585c0,0,2.797,5.935,1.711,35.718l-3.031-.133Z" clip-rule="evenodd" fill="#e3b071" stroke-linecap="round" stroke-linejoin="round" stroke-miterlimit="10"/><path d="M135.081,248.907c0,0,3.916-21.81,2.83-37.22" clip-rule="evenodd" fill="none" stroke="#000" stroke-width="3" stroke-linecap="round" stroke-linejoin="round" stroke-miterlimit="10"/><path d="M114.869,248.036c0,0,1.956-16.397-.85-41.9" clip-rule="evenodd" fill="none" stroke="#000" stroke-width="3" stroke-linecap="round" stroke-linejoin="round" stroke-miterlimit="10"/><path d="M100.187,113.064c0,0-6.584,16.1-3.218,35.213" clip-rule="evenodd" fill="none" stroke="#000" stroke-width="3" stroke-linecap="round" stroke-linejoin="round" stroke-miterlimit="10"/><path d="M207.413,11.227c0,0-9.991,11.294-56.036,19.547C105.332,39.028,96.97,71.39,96.97,71.39s14.009-18.353,30.624-25.846c16.616-7.494,67.439-12.598,79.819-34.317" clip-rule="evenodd" fill="#e3b071" stroke-linecap="round" stroke-linejoin="round" stroke-miterlimit="10"/><path d="M213.277,20.784c0,0-10.86,18.461-51.475,29.104-40.615,10.642-60.342,41.05-65.791,57.122c0,0,26.696-35.674,45.103-43.113s64.67-20.471,72.163-43.113" clip-rule="evenodd" fill="#e3b071" stroke-linecap="round" stroke-linejoin="round" stroke-miterlimit="10"/><path d="M213.277,20.784c0,0-10.86,18.461-51.475,29.104-40.615,10.642-60.342,41.05-65.791,57.122" clip-rule="evenodd" fill="none" stroke="#000" stroke-width="3" stroke-linecap="round" stroke-linejoin="round" stroke-miterlimit="10"/><path d="M226.037,25.399c0,0,22.067,5.925,35.538,18.353c21.219,19.574,23.973,31.113,26.797,49.194c0,0-1.466.163-2.199.489c0,0-9.041-30.217-20.77-41.131-11.728-10.914-28.561-23.376-39.366-25.901v-1.004Z" clip-rule="evenodd" fill="#e3b071" stroke-linecap="round" stroke-linejoin="round" stroke-miterlimit="10"/><path d="M207.413,11.227c0,0-9.991,11.294-56.036,19.547C105.332,39.028,96.97,71.39,96.97,71.39" clip-rule="evenodd" fill="none" stroke="#000" stroke-width="3" stroke-linecap="round" stroke-linejoin="round" stroke-miterlimit="10"/><path d="M224.774,23.408c0,0,58.518,14.898,65.32,70.969" clip-rule="evenodd" fill="none" stroke="#000" stroke-width="3" stroke-linecap="round" stroke-linejoin="round" stroke-miterlimit="10"/><path d="M224.774,15.224c0,0,31.29,2.302,50.62,29.234c19.331,26.932,29.973,42.622,30.407,80.822.435,38.2-4.343,59.441,4.779,77.599" clip-rule="evenodd" fill="none" stroke="#000" stroke-width="3" stroke-linecap="round" stroke-linejoin="round" stroke-miterlimit="10"/><path d="M257.978,206.566c-1.045-6.597-1.537-15.234-1.698-21.423" clip-rule="evenodd" fill="none" stroke="#000" stroke-width="3" stroke-linecap="round" stroke-linejoin="round" stroke-miterlimit="10"/><path d="M282.115,125.688c13.78,5.864,19.288-9.611,18.474-17.593-.241-2.362-.81-4.681-1.695-6.721-2.104-4.853-5.995-8.127-11.5-6.636-7.819,2.117-7.873,8.091-7.873,8.091" clip-rule="evenodd" fill="#f3c7af" stroke="#000" stroke-width="3" stroke-linecap="round" stroke-linejoin="round" stroke-miterlimit="10"/><path d="M298.895,101.375c0,0-6.131-1.46-10.36,1.183-3.909,2.443-5.131,3.797-8.028,8.947" clip-rule="evenodd" fill="none" stroke="#000" stroke-width="3" stroke-linecap="round" stroke-linejoin="round" stroke-miterlimit="10"/><path d="M125.428,175.599c-6.962,13.259-20.384,3.642-24.803-3.055-1.307-1.982-2.334-4.138-2.939-6.277-1.441-5.091.257-8.849,4.708-12.415c4.756-3.811,10.551.66,10.551.66" clip-rule="evenodd" fill="#f3c7af" stroke="#000" stroke-width="3" stroke-linecap="round" stroke-linejoin="round" stroke-miterlimit="10"/><path d="M97.686,166.267c0,0,3.825-5.01,8.771-5.638c4.574-.581,5.543-.628,11.045,1.528" clip-rule="evenodd" fill="none" stroke="#000" stroke-width="3" stroke-linecap="round" stroke-linejoin="round" stroke-miterlimit="10"/><path d="M225.575,107.476c0,0,2.243-13.324,13.817-14.721c11.575-1.397,13.686,4.047,20.447,2.042c6.301-1.869,6.522-6.083,6.522-6.083" clip-rule="evenodd" fill="none" stroke="#000" stroke-width="3" stroke-linecap="round" stroke-linejoin="round" stroke-miterlimit="10"/><path d="M251.436,93.89c0,0,6.759-.406,9.88-5.568" clip-rule="evenodd" fill="none" stroke="#000" stroke-width="3" stroke-linecap="round" stroke-linejoin="round" stroke-miterlimit="10"/><path d="M214.58,128.186c0,0-1.303,4.67-7.385,4.996c0,0,5.43,3.8,7.385-4.996" clip-rule="evenodd" fill="#e5b9a1" stroke-linecap="round" stroke-linejoin="round" stroke-miterlimit="10"/><path d="M169.812,124.668c0,0-11.872-6.451-20.109,1.8s-5.253,13.269-11.002,17.356c-5.356,3.808-8.81,1.383-8.81,1.383" clip-rule="evenodd" fill="none" stroke="#000" stroke-width="3" stroke-linecap="round" stroke-linejoin="round" stroke-miterlimit="10"/><path d="M143.17,136.65c0,0-4.487,5.071-10.476,4.345" clip-rule="evenodd" fill="none" stroke="#000" stroke-width="3" stroke-linecap="round" stroke-linejoin="round" stroke-miterlimit="10"/><path d="M198.291,109.052c1.955,8.166,4.887,10.121,9.122,11.098c4.235.978,5.864,2.919,5.864,6.835s-5.864,4.894-5.864,4.894" clip-rule="evenodd" fill="none" stroke="#000" stroke-width="3" stroke-linecap="round" stroke-linejoin="round" stroke-miterlimit="10"/><path d="M215.883,69.87c0,0,18.762-4.995,35.553,0c0,0-10.751-10.154-17.776-9.828-7.026.326-17.777,9.828-17.777,9.828" clip-rule="evenodd" fill="#e5b9a1" stroke-linecap="round" stroke-linejoin="round" stroke-miterlimit="10"/><path d="M215.883,69.87c0,0,4.776-12.595,17.376-12.597c13.683-.003,18.177,12.597,18.177,12.597s-8.471-8.905-17.776-7.385c-9.306,1.521-9.741,1.086-17.777,7.385Z" clip-rule="evenodd" fill="#eec684" stroke="#000" stroke-width="3" stroke-linecap="round" stroke-linejoin="round" stroke-miterlimit="10"/><path d="M121.187,114.395c0,0,2.498-11.023,6.407-14.606c3.91-3.584,13.195-5.017,20.525-1.694c0,0-8.195,2.878-14.498,7.214-4.219,2.902-12.325,6.751-12.434,9.086" clip-rule="evenodd" fill="#e5b9a1" stroke-linecap="round" stroke-linejoin="round" stroke-miterlimit="10"/><path d="M126.062,98.094c-5.44,4.52-4.876,16.3-4.876,16.3s1.373-5.837,7.385-10.86c9.361-7.818,19.548-5.44,19.548-5.44s-11.849-8.481-22.057,0" clip-rule="evenodd" fill="#eec684" stroke-linecap="round" stroke-linejoin="round" stroke-miterlimit="10"/><path d="M126.062,98.094c-5.44,4.52-4.876,16.3-4.876,16.3s1.373-5.837,7.385-10.86c9.361-7.818,19.548-5.44,19.548-5.44s-11.849-8.481-22.057,0Z" clip-rule="evenodd" fill="none" stroke="#000" stroke-width="3" stroke-linecap="round" stroke-linejoin="round" stroke-miterlimit="10"/><path d="M211.322,152.736c8.633-2.6,11.302-5.366,18.143-10.741-.724-4.598-1.853-7.877-1.853-7.877s-8.96,5.58-19.222,9.978c-10.263,4.398-22.48,1.872-22.48,1.872.525,2.263,1.128,4.546,1.847,6.768c8.85,2.124,14.932,2.6,23.565,0" clip-rule="evenodd" fill="#fff" stroke-linecap="round" stroke-linejoin="round" stroke-miterlimit="10"/><path d="M211.322,152.736c8.633-2.6,11.302-5.366,18.143-10.741-.724-4.598-1.853-7.877-1.853-7.877s-8.96,5.58-19.222,9.978c-10.263,4.398-22.48,1.872-22.48,1.872.525,2.263,1.128,4.546,1.847,6.768c8.85,2.124,14.932,2.6,23.565,0Z" clip-rule="evenodd" fill="none" stroke="#000" stroke-width="3" stroke-linecap="round" stroke-linejoin="round" stroke-miterlimit="10"/><path d="M229.465,141.995c-6.841,5.375-9.51,8.141-18.143,10.741s-14.715,2.124-23.565,0c3.96,12.252,11.454,22.613,29.104,17.097c13.871-4.334,14.042-18.701,12.604-27.838Z" clip-rule="evenodd" fill="#b24f4b" stroke="#000" stroke-width="3" stroke-linecap="round" stroke-linejoin="round" stroke-miterlimit="10"/><path d="M195.376,166.392c0,0,.96-3.237,6.661-5.355c5.702-2.117,8.797-.163,8.96,1.466c0,0-.242-3.561,6.678-5.538c4.561-1.303,8.259-.181,10.971,1.538c0,0-3.477,10.59-15.369,12.264-11.891,1.673-14.3-2.115-17.901-4.375Z" clip-rule="evenodd" fill="#792829" stroke="#000" stroke-width="3" stroke-linecap="round" stroke-linejoin="round" stroke-miterlimit="10"/><path d="M151.322,322.467c0,0,21.121,15.327,45.339,17.878c3.475.366,25.195,3.218,52.018,0l-1.412,3.733c0,0-38.986,3.04-54.841,0-15.855-3.041-36.923-13.838-43.547-19.051l2.443-2.56Z" clip-rule="evenodd" fill="#76a0c8" stroke-linecap="round" stroke-linejoin="round" stroke-miterlimit="10"/><path d="M189.399,207.612c0,0,7.589.095,21.109-2.43c13.521-2.525,22.236-6.19,22.236-6.19s-.156,2.017-.563,3.239-18.448,5.557-21.038,5.965c-2.589.407-19.911,2.226-21.241,2.145c0,0-.509-1.306-.503-2.729" clip-rule="evenodd" fill="#e5b9a1" stroke-linecap="round" stroke-linejoin="round" stroke-miterlimit="10"/><path d="M217.838,30.441c0,0-9.145,17.6-33.746,24.793-24.097,7.045-31.901,15.437-31.901,15.437s27.204-10.274,42.353-16.56s20.199-16.177,23.294-23.67" clip-rule="evenodd" fill="#e3b071" stroke-linecap="round" stroke-linejoin="round" stroke-miterlimit="10"/><path d="M99.793,119.173c0,0-2.552,10.358-2.281,17.478.272,7.119.869,10.866.869,10.866s1.141-20.525,2.444-24.109l-1.032-4.235Z" clip-rule="evenodd" fill="#e3b071" stroke-linecap="round" stroke-linejoin="round" stroke-miterlimit="10"/><path d="M83.829,343.914c0,0,4.208-5.085,10.317-6.081c7.229-1.179,13.086,2.511,13.086,2.511l-.038,1.762c0,0-6.894-3.025-12.605-2.156-5.71.869-10.054,4.996-10.543,5.485l-.217-1.521Z" clip-rule="evenodd" fill="#e5b9a1" stroke-linecap="round" stroke-linejoin="round" stroke-miterlimit="10"/><path d="M103.773,532.483c0,0,2.93,5.291,7.694,8.753c4.765,3.461,11.05,5.938,13.412,6.304l-1.731,1.9c0,0-8.871-2.34-13.839-7.145-4.968-4.806-6.646-8.364-6.646-8.364l1.11-1.448Z" clip-rule="evenodd" fill="#e5b9a1" stroke-linecap="round" stroke-linejoin="round" stroke-miterlimit="10"/><path d="M298.717,240.673c0,0,.056,6.641-4.473,17.864-4.53,11.222-6.492,13.693-6.492,13.693l1.997,2.045c0,0,9.898-19.9,11.497-31.713l-2.529-1.889Z" clip-rule="evenodd" fill="#e5b9a1" stroke-linecap="round" stroke-linejoin="round" stroke-miterlimit="10"/></svg>
