
<svg width="100%" height="100%" viewBox="0 0 2000 2000" version="1.1" xmlns="http://www.w3.org/2000/svg" xmlns:xlink="http://www.w3.org/1999/xlink" xml:space="preserve" xmlns:serif="http://www.serif.com/" style="fill-rule:evenodd;clip-rule:evenodd;stroke-linejoin:round;stroke-miterlimit:2;"><path d="M2000,683.094l0,1316.91l-2000,0l0,-2000c0,0 770.56,49.325 1225.94,381.578c334.229,243.858 486.652,299.788 774.058,301.516" style="fill:#6e9d33;fill-rule:nonzero;"/><path d="M1627.56,889.421c2.105,4.1 4.923,7.871 8.24,11.07c1.13,1.09 3.133,1.209 4.242,0c1.083,-1.18 1.207,-3.079 0,-4.243c-0.763,-0.736 -1.5,-1.5 -2.203,-2.295c-0.361,-0.409 -0.714,-0.825 -1.058,-1.248c-0.169,-0.208 -0.322,-0.452 -0.51,-0.64c0.089,0.089 0.375,0.495 0.137,0.174c-0.091,-0.121 -0.182,-0.242 -0.273,-0.364c-1.279,-1.731 -2.411,-3.567 -3.394,-5.482c-0.718,-1.399 -2.794,-1.921 -4.105,-1.077c-1.427,0.92 -1.844,2.609 -1.076,4.105" style="fill:#6e9d33;fill-rule:nonzero;"/><path d="M1673.7,865.855c0.071,0.086 0.74,0.947 0.354,0.432c0.212,0.283 0.42,0.568 0.622,0.858c0.403,0.581 0.784,1.177 1.142,1.786c0.313,0.534 0.608,1.078 0.885,1.631c0.159,0.316 0.311,0.635 0.458,0.956c0.073,0.161 0.145,0.323 0.215,0.485c-0.13,-0.31 -0.129,-0.304 0.003,0.018c0.472,1.242 0.896,2.492 1.21,3.784c0.168,0.687 0.309,1.38 0.423,2.077c0.029,0.175 0.055,0.349 0.081,0.524c-0.047,-0.36 -0.049,-0.363 -0.006,-0.009c0.035,0.352 0.072,0.703 0.101,1.056c0.124,1.56 1.29,3.076 3,3c1.518,-0.068 3.134,-1.325 3,-3c-0.529,-6.611 -3.028,-12.728 -7.245,-17.841c-1.003,-1.215 -3.219,-1.116 -4.243,0c-1.186,1.292 -1.07,2.946 0,4.243" style="fill:#6e9d33;fill-rule:nonzero;"/><path d="M1701.22,854.505c-2.371,5.202 -3.695,10.745 -3.797,16.472c-0.028,1.57 1.4,3.072 3,3c1.65,-0.074 2.97,-1.318 3,-3c0.023,-1.29 0.12,-2.569 0.257,-3.852c0.071,-0.665 -0.078,0.427 0.04,-0.296c0.044,-0.272 0.085,-0.545 0.132,-0.817c0.109,-0.634 0.235,-1.265 0.377,-1.893c0.265,-1.166 0.585,-2.319 0.959,-3.454c0.202,-0.611 0.42,-1.217 0.653,-1.817c0.101,-0.257 0.203,-0.513 0.309,-0.768c-0.239,0.574 0.206,-0.449 0.251,-0.547c0.649,-1.424 0.454,-3.295 -1.077,-4.104c-1.316,-0.696 -3.409,-0.449 -4.104,1.076" style="fill:#6e9d33;fill-rule:nonzero;"/><path d="M1749.96,817.199c-7.423,4.07 -13.754,9.855 -18.608,16.776c-0.904,1.289 -0.276,3.391 1.076,4.105c1.537,0.812 3.14,0.299 4.105,-1.076c0.277,-0.395 0.557,-0.788 0.844,-1.176c0.144,-0.194 0.289,-0.387 0.436,-0.578c0.187,-0.245 -0.173,0.208 0.153,-0.193c0.61,-0.749 1.222,-1.493 1.865,-2.215c1.285,-1.44 2.651,-2.809 4.089,-4.097c0.719,-0.644 1.456,-1.267 2.21,-1.87c0.151,-0.121 0.302,-0.241 0.455,-0.359c-0.426,0.331 0.302,-0.226 0.313,-0.234c0.348,-0.259 0.7,-0.514 1.055,-0.765c1.617,-1.143 3.299,-2.185 5.035,-3.137c1.378,-0.755 1.938,-2.769 1.077,-4.105c-0.901,-1.396 -2.631,-1.884 -4.105,-1.076" style="fill:#6e9d33;fill-rule:nonzero;"/><path d="M1684.73,812.448c1.514,7.386 3.028,14.772 4.542,22.158c0.325,1.588 2.202,2.504 3.69,2.095c1.65,-0.453 2.422,-2.098 2.095,-3.69c-1.514,-7.386 -3.028,-14.772 -4.541,-22.158c-0.326,-1.588 -2.203,-2.504 -3.691,-2.095c-1.65,0.453 -2.421,2.097 -2.095,3.69" style="fill:#6e9d33;fill-rule:nonzero;"/><path d="M1649.62,826.429c-3.021,6.462 -3.845,13.633 -2.248,20.599c0.351,1.532 2.195,2.58 3.69,2.096c1.602,-0.519 2.472,-2.05 2.095,-3.691c-0.601,-2.622 -0.784,-5.311 -0.478,-8.352c0.004,-0.043 0.119,-0.96 0.049,-0.463c0.059,-0.42 0.132,-0.837 0.212,-1.253c0.14,-0.728 0.308,-1.45 0.506,-2.164c0.198,-0.715 0.423,-1.421 0.677,-2.117c0.109,-0.298 0.222,-0.596 0.342,-0.889c-0.142,0.345 0.287,-0.633 0.336,-0.738c0.663,-1.418 0.445,-3.3 -1.076,-4.104c-1.329,-0.702 -3.395,-0.442 -4.105,1.076" style="fill:#6e9d33;fill-rule:nonzero;"/><path d="M1723.12,875.358c-5.829,4.539 -8.326,12.745 -6.404,19.813c0.412,1.514 2.152,2.593 3.69,2.095c1.551,-0.502 2.537,-2.067 2.096,-3.69c-0.097,-0.355 -0.185,-0.712 -0.258,-1.073c-0.04,-0.199 -0.066,-0.403 -0.108,-0.602c0.051,0.241 0.043,0.424 0.01,0.071c-0.07,-0.732 -0.107,-1.463 -0.083,-2.198c0.012,-0.367 0.037,-0.734 0.074,-1.099c0.034,-0.336 0.074,-0.461 0.001,-0.053c0.029,-0.161 0.052,-0.322 0.082,-0.483c0.141,-0.764 0.336,-1.517 0.582,-2.254c0.116,-0.349 0.248,-0.692 0.382,-1.035c-0.095,0.241 -0.149,0.33 -0.009,0.042c0.089,-0.184 0.175,-0.369 0.267,-0.552c0.332,-0.655 0.707,-1.289 1.124,-1.894c0.092,-0.134 0.192,-0.263 0.283,-0.398c0.198,-0.293 -0.31,0.36 0.057,-0.069c0.238,-0.279 0.476,-0.557 0.729,-0.824c0.536,-0.563 1.115,-1.077 1.728,-1.554c1.244,-0.969 1.093,-3.24 -0,-4.243c-1.32,-1.211 -2.915,-1.034 -4.243,-0" style="fill:#6e9d33;fill-rule:nonzero;"/><path d="M1761.74,839.051c9.307,4.875 0,14.335 0,14.335c0,0 9.846,5.647 4.054,12.163c-5.792,6.515 -11.873,2.172 -11.873,2.172c0,0 -6.516,7.817 -14.335,3.257c-7.819,-4.561 0,-14.958 0,-14.958c0,0 -7.819,-10.888 0,-16.969c7.819,-6.081 12.279,7.18 12.279,7.18c0,0 0.753,-11.958 9.875,-7.18" style="fill:#ffdc00;fill-rule:nonzero;"/><path d="M1636.55,849.91c9.307,4.875 0,14.335 0,14.335c0,0 9.846,5.647 4.054,12.163c-5.792,6.516 -11.873,2.172 -11.873,2.172c0,0 -3.384,3.459 -11.203,-1.101c-7.819,-4.56 -3.132,-10.6 -3.132,-10.6c0,0 -7.293,-5.868 0.526,-11.949c7.819,-6.082 11.753,2.16 11.753,2.16c0,0 0.753,-11.958 9.875,-7.18" style="fill:#5364b5;fill-rule:nonzero;"/><path d="M1777.1,1247.09c1.97,5.207 3.939,10.414 5.909,15.621c0.553,1.464 2.049,2.627 3.69,2.096c1.429,-0.463 2.69,-2.119 2.095,-3.691c-1.969,-5.207 -3.939,-10.414 -5.908,-15.621c-0.554,-1.463 -2.049,-2.626 -3.691,-2.095c-1.429,0.462 -2.689,2.118 -2.095,3.69" style="fill:#6e9d33;fill-rule:nonzero;"/><path d="M1814.22,1238.15c-4.569,4.147 -6.457,10.754 -5.027,16.715c0.366,1.527 2.184,2.583 3.691,2.096c1.589,-0.515 2.487,-2.055 2.095,-3.691c-0.073,-0.303 -0.139,-0.607 -0.192,-0.914c-0.016,-0.091 -0.087,-0.572 -0.024,-0.114c0.063,0.458 0.003,-0.023 -0.006,-0.115c-0.055,-0.585 -0.072,-1.173 -0.053,-1.76c0.011,-0.311 0.032,-0.621 0.063,-0.931c0.009,-0.092 0.067,-0.574 0.008,-0.116c-0.058,0.458 0.009,-0.023 0.024,-0.114c0.107,-0.614 0.253,-1.221 0.436,-1.816c0.082,-0.265 0.171,-0.527 0.267,-0.787c0.049,-0.129 0.101,-0.257 0.151,-0.387c0.133,-0.349 -0.261,0.554 -0.014,0.05c0.259,-0.529 0.525,-1.049 0.838,-1.55c0.146,-0.234 0.299,-0.465 0.458,-0.69c0.255,-0.358 0.204,-0.152 -0.034,0.027c0.099,-0.075 0.182,-0.226 0.262,-0.322c0.402,-0.476 0.838,-0.92 1.3,-1.338c1.165,-1.058 1.154,-3.183 0,-4.243c-1.246,-1.143 -3,-1.128 -4.243,0" style="fill:#6e9d33;fill-rule:nonzero;"/><path d="M1836.82,1252.63c-0.327,2.208 -0.931,4.317 -1.718,6.401c-0.125,0.306 -0.106,0.265 0.057,-0.122c-0.056,0.131 -0.113,0.262 -0.171,0.393c-0.116,0.261 -0.236,0.52 -0.361,0.778c-0.217,0.45 -0.445,0.895 -0.686,1.333c-0.55,1.003 -1.164,1.967 -1.83,2.897c-0.917,1.28 -0.266,3.395 1.076,4.104c1.549,0.819 3.126,0.29 4.104,-1.076c2.76,-3.853 4.621,-8.424 5.315,-13.113c0.122,-0.83 0.138,-1.558 -0.303,-2.312c-0.364,-0.622 -1.077,-1.215 -1.793,-1.378c-1.424,-0.325 -3.445,0.435 -3.69,2.095" style="fill:#6e9d33;fill-rule:nonzero;"/><path d="M1788.89,1278.74c-1.812,6.444 -1.213,13.166 1.398,19.29c0.618,1.449 2.861,1.878 4.105,1.076c1.506,-0.971 1.737,-2.554 1.076,-4.104c0.195,0.457 -0.215,-0.577 -0.25,-0.674c-0.102,-0.281 -0.199,-0.564 -0.291,-0.848c-0.214,-0.664 -0.4,-1.338 -0.558,-2.018c-0.158,-0.679 -0.289,-1.366 -0.39,-2.056c0.076,0.523 -0.029,-0.287 -0.039,-0.39c-0.035,-0.348 -0.062,-0.696 -0.082,-1.044c-0.079,-1.344 -0.053,-2.694 0.081,-4.034c0.01,-0.104 0.117,-0.913 0.04,-0.39c0.058,-0.394 0.126,-0.787 0.203,-1.178c0.136,-0.686 0.304,-1.363 0.493,-2.035c0.424,-1.51 -0.522,-3.332 -2.096,-3.69c-1.592,-0.363 -3.235,0.478 -3.69,2.095" style="fill:#6e9d33;fill-rule:nonzero;"/><path d="M1810.46,1288.67c1.142,-7.338 11.78,-6.684 11.78,-6.684c0,0 2.624,-8.581 10.462,-4.027c7.837,4.555 2.204,13.285 2.204,13.285c0,0 7.736,0.348 6.407,8.133c-1.329,7.784 -10.99,1.173 -10.99,1.173c0,0 -7.452,7.711 -16.263,0.205c-8.811,-7.506 -3.6,-12.085 -3.6,-12.085" style="fill:#5364b5;fill-rule:nonzero;"/><path d="M1211.61,1086.95c2.339,2.496 4.055,4.842 5.791,8.006c0.397,0.724 0.772,1.459 1.126,2.204c0.42,0.884 0.616,1.344 0.866,1.981c0.64,1.633 1.171,3.306 1.607,5.005c0.389,1.521 2.167,2.588 3.69,2.096c1.57,-0.508 2.513,-2.061 2.095,-3.691c-1.901,-7.418 -5.7,-14.259 -10.932,-19.844c-1.076,-1.148 -3.171,-1.167 -4.243,0c-1.129,1.23 -1.147,3.018 -0,4.243" style="fill:#6e9d33;fill-rule:nonzero;"/><path d="M1284.38,1153.06c-0.176,5.215 -0.104,10.434 0.216,15.642c0.097,1.563 1.311,3.075 3,3c1.543,-0.069 3.104,-1.323 3,-3c-0.32,-5.208 -0.392,-10.427 -0.216,-15.642c0.053,-1.57 -1.418,-3.071 -3,-3c-1.671,0.075 -2.943,1.318 -3,3" style="fill:#6e9d33;fill-rule:nonzero;"/><path d="M1233.34,1066.75c0.632,0.992 1.217,2.012 1.743,3.065c0.277,0.555 0.579,1.122 0.793,1.706c-0.177,-0.483 -0.05,-0.117 0.057,0.152c0.116,0.291 0.228,0.584 0.335,0.879c0.807,2.212 1.369,4.503 1.697,6.834c0.097,0.689 0.809,1.459 1.379,1.793c0.643,0.376 1.59,0.535 2.311,0.302c0.726,-0.235 1.426,-0.685 1.793,-1.379c0.403,-0.763 0.422,-1.465 0.303,-2.311c-0.7,-4.982 -2.527,-9.829 -5.23,-14.069c-0.843,-1.322 -2.707,-1.978 -4.105,-1.077c-1.322,0.853 -1.978,2.689 -1.076,4.105" style="fill:#6e9d33;fill-rule:nonzero;"/><path d="M1262.07,1087.14c-1.611,1.731 -2.801,3.786 -3.491,6.05c-0.701,2.305 -0.753,4.673 -0.376,7.034c0.111,0.696 0.798,1.453 1.379,1.793c0.643,0.377 1.591,0.536 2.312,0.303c0.726,-0.235 1.426,-0.685 1.793,-1.379c0.399,-0.757 0.436,-1.471 0.302,-2.312c-0.018,-0.105 -0.034,-0.21 -0.048,-0.315c0.036,0.266 0.071,0.532 0.107,0.797c-0.139,-1.058 -0.136,-2.119 0,-3.178c-0.036,0.266 -0.072,0.532 -0.108,0.798c0.082,-0.58 0.198,-1.153 0.357,-1.717c0.087,-0.307 0.186,-0.61 0.297,-0.909c0.046,-0.125 0.096,-0.248 0.144,-0.372c0.113,-0.292 -0.326,0.728 -0.047,0.132c0.248,-0.529 0.534,-1.041 0.856,-1.529c0.146,-0.22 0.787,-0.968 0.139,-0.231c0.211,-0.24 0.409,-0.488 0.627,-0.722c1.069,-1.149 1.223,-3.12 0,-4.243c-1.163,-1.067 -3.101,-1.227 -4.243,0" style="fill:#6e9d33;fill-rule:nonzero;"/><path d="M1312.75,1086.78c-2.42,5.635 -3.582,11.706 -3.083,17.844c0.127,1.56 1.289,3.076 3,3c1.516,-0.068 3.136,-1.325 3,-3c-0.113,-1.39 -0.151,-2.782 -0.096,-4.175c0.024,-0.597 0.063,-1.193 0.118,-1.787c0.036,-0.397 0.078,-0.793 0.13,-1.187c-0.07,0.525 0.048,-0.28 0.066,-0.384c0.209,-1.277 0.491,-2.541 0.843,-3.786c0.19,-0.67 0.401,-1.334 0.632,-1.991c0.1,-0.282 0.203,-0.562 0.309,-0.841c0.037,-0.095 0.46,-1.126 0.262,-0.665c0.617,-1.437 0.476,-3.284 -1.076,-4.104c-1.291,-0.682 -3.444,-0.464 -4.105,1.076" style="fill:#6e9d33;fill-rule:nonzero;"/><path d="M1250.2,1043.49c0.125,0.151 0.249,0.304 0.371,0.458c-0.168,-0.219 -0.146,-0.187 0.067,0.096c0.23,0.319 0.46,0.637 0.68,0.963c0.439,0.652 0.85,1.322 1.232,2.009c0.334,0.601 0.646,1.215 0.935,1.839c0.082,0.178 0.163,0.357 0.242,0.537c-0.109,-0.265 -0.096,-0.232 0.039,0.099c0.143,0.366 0.285,0.733 0.416,1.103c0.491,1.39 0.873,2.818 1.139,4.268c0.072,0.386 0.138,0.774 0.189,1.163c-0.078,-0.592 0.049,0.56 0.058,0.667c0.068,0.783 0.097,1.568 0.1,2.355c0.006,1.569 1.375,3.072 3,3c1.62,-0.073 3.006,-1.319 3,-3c-0.028,-7.269 -2.64,-14.194 -7.225,-19.8c-0.998,-1.22 -3.222,-1.112 -4.243,0c-1.19,1.296 -1.064,2.942 0,4.243" style="fill:#6e9d33;fill-rule:nonzero;"/><path d="M1298.39,1175.4c0.37,0.359 0.728,0.731 1.066,1.121c0.16,0.183 0.31,0.373 0.466,0.559c0.249,0.294 -0.358,-0.49 -0.135,-0.176c0.071,0.099 0.145,0.195 0.216,0.294c0.601,0.838 1.129,1.729 1.577,2.658c0.053,0.109 0.105,0.219 0.155,0.33c0.041,0.09 0.211,0.494 0.033,0.058c-0.179,-0.437 -0.014,-0.029 0.023,0.062c0.045,0.113 0.088,0.226 0.131,0.34c0.181,0.483 0.341,0.973 0.479,1.47c0.131,0.468 0.242,0.941 0.333,1.418c0.028,0.149 0.055,0.298 0.079,0.448c0.017,0.103 0.077,0.543 0.014,0.051c-0.064,-0.493 -0.009,-0.051 0.002,0.053c0.017,0.151 0.031,0.302 0.044,0.453c0.138,1.559 1.282,3.077 3,3c1.507,-0.068 3.148,-1.326 3,-3c-0.447,-5.057 -2.576,-9.828 -6.24,-13.382c-1.128,-1.093 -3.135,-1.206 -4.243,0c-1.085,1.183 -1.203,3.076 0,4.243" style="fill:#6e9d33;fill-rule:nonzero;"/><path d="M1343.98,1166.53c-2.348,5.273 -2.92,11.115 -1.355,16.705c0.422,1.511 2.144,2.596 3.69,2.096c1.541,-0.499 2.548,-2.072 2.095,-3.691c-0.157,-0.561 -0.296,-1.126 -0.408,-1.698c-0.063,-0.322 -0.145,-0.658 -0.168,-0.985c0.037,0.537 0.013,0.083 -0.014,-0.193c-0.113,-1.16 -0.13,-2.329 -0.052,-3.491c0.017,-0.249 0.038,-0.498 0.064,-0.747c0.017,-0.165 0.036,-0.331 0.056,-0.496c-0.052,0.385 -0.052,0.404 0,0.056c0.103,-0.574 0.21,-1.145 0.351,-1.711c0.141,-0.565 0.304,-1.125 0.491,-1.676c0.081,-0.237 0.165,-0.472 0.254,-0.705c0.059,-0.155 0.12,-0.31 0.183,-0.464c-0.142,0.332 -0.144,0.342 -0.006,0.028c0.637,-1.43 0.463,-3.291 -1.076,-4.104c-1.307,-0.69 -3.423,-0.455 -4.105,1.076" style="fill:#6e9d33;fill-rule:nonzero;"/><path d="M1399.24,1120.1c-2.864,4.542 -4.853,9.677 -5.742,14.974c-0.259,1.541 0.405,3.305 2.095,3.69c1.45,0.33 3.412,-0.441 3.69,-2.095c0.418,-2.486 1.067,-4.927 1.958,-7.285c0.119,-0.314 0.243,-0.626 0.368,-0.938c0.313,-0.779 -0.254,0.555 0.091,-0.211c0.275,-0.612 0.556,-1.222 0.858,-1.822c0.566,-1.126 1.191,-2.219 1.863,-3.285c0.838,-1.329 0.323,-3.365 -1.076,-4.104c-1.479,-0.781 -3.21,-0.343 -4.105,1.076" style="fill:#6e9d33;fill-rule:nonzero;"/><path d="M1363.62,1059.85c-4.063,5.413 -6.396,11.888 -7.062,18.597c-0.155,1.567 1.491,3.069 3,3c1.758,-0.078 2.834,-1.321 3,-3c0.011,-0.107 0.143,-1.257 0.062,-0.642c0.051,-0.383 0.113,-0.765 0.18,-1.147c0.133,-0.762 0.294,-1.519 0.48,-2.27c0.348,-1.408 0.788,-2.793 1.314,-4.145c0.071,-0.179 0.142,-0.36 0.216,-0.539c-0.117,0.27 -0.104,0.242 0.037,-0.085c0.159,-0.352 0.317,-0.705 0.485,-1.053c0.294,-0.611 0.605,-1.211 0.935,-1.803c0.754,-1.352 1.604,-2.645 2.534,-3.884c0.946,-1.26 0.244,-3.407 -1.076,-4.104c-1.576,-0.833 -3.095,-0.269 -4.105,1.076" style="fill:#6e9d33;fill-rule:nonzero;"/><path d="M1336.62,1135.5c-1.589,2.054 -2.794,4.352 -3.259,6.932c-0.464,2.574 -0.409,5.208 0.373,7.719c0.466,1.497 2.113,2.606 3.691,2.095c1.504,-0.487 2.594,-2.085 2.095,-3.69c-0.147,-0.471 -0.271,-0.948 -0.363,-1.433c-0.023,-0.122 -0.044,-0.243 -0.064,-0.365c-0.048,-0.326 -0.037,-0.243 0.033,0.248c0.039,-0.21 -0.05,-0.519 -0.062,-0.736c-0.027,-0.493 -0.026,-0.987 0.003,-1.479c0.013,-0.221 0.099,-0.522 0.064,-0.738c-0.069,0.492 -0.08,0.574 -0.032,0.248c0.015,-0.092 0.03,-0.183 0.047,-0.274c0.082,-0.455 0.188,-0.906 0.317,-1.351c0.069,-0.236 0.145,-0.471 0.227,-0.704c0.041,-0.116 0.084,-0.232 0.129,-0.347c0.119,-0.298 0.088,-0.23 -0.092,0.204c0.14,-0.156 0.219,-0.479 0.316,-0.669c0.111,-0.22 0.229,-0.436 0.353,-0.649c0.125,-0.213 0.256,-0.422 0.393,-0.627c0.106,-0.158 0.633,-0.864 0.074,-0.141c0.51,-0.66 0.878,-1.25 0.878,-2.122c-0,-0.735 -0.327,-1.614 -0.878,-2.121c-1.073,-0.984 -3.217,-1.326 -4.243,0" style="fill:#6e9d33;fill-rule:nonzero;"/><path d="M1368.82,1123.38c-4.273,5.161 -7.361,11.201 -8.826,17.756c-0.342,1.528 0.462,3.319 2.095,3.69c1.521,0.347 3.324,-0.457 3.69,-2.095c0.326,-1.458 0.727,-2.896 1.216,-4.308c0.244,-0.705 0.509,-1.403 0.793,-2.094c-0.229,0.557 0.211,-0.471 0.254,-0.567c0.155,-0.34 0.314,-0.678 0.479,-1.013c0.657,-1.34 1.391,-2.643 2.198,-3.899c0.403,-0.628 0.825,-1.244 1.264,-1.848c0.06,-0.083 0.73,-0.962 0.375,-0.509c0.231,-0.294 0.467,-0.583 0.705,-0.87c0.999,-1.207 1.27,-3.077 0,-4.243c-1.105,-1.014 -3.174,-1.291 -4.243,0" style="fill:#6e9d33;fill-rule:nonzero;"/><path d="M1304.46,1022.34c-8.733,7.199 -13.805,18.501 -13.548,29.797c0.088,3.855 6.088,3.869 6,0c-0.224,-9.828 4.179,-19.279 11.791,-25.554c1.251,-1.032 1.068,-3.175 0,-4.243c-1.238,-1.238 -2.989,-1.034 -4.243,0" style="fill:#6e9d33;fill-rule:nonzero;"/><path d="M1293.92,1208.71c0.288,0.515 0.563,1.036 0.817,1.568c0.145,0.304 0.284,0.611 0.416,0.921c-0.263,-0.619 0.025,0.083 0.078,0.22c0.436,1.14 0.791,2.312 1.062,3.503c0.131,0.575 0.242,1.154 0.333,1.737c0.02,0.125 0.039,0.25 0.056,0.375c-0.051,-0.38 -0.055,-0.396 -0.012,-0.046c0.026,0.294 0.06,0.587 0.083,0.881c0.093,1.219 0.094,2.44 0.017,3.66c-0.1,1.569 1.451,3.069 3,3c1.71,-0.077 2.893,-1.319 3,-3c0.348,-5.497 -0.983,-11.049 -3.669,-15.847c-0.767,-1.371 -2.76,-1.943 -4.105,-1.077c-1.386,0.894 -1.897,2.639 -1.076,4.105" style="fill:#6e9d33;fill-rule:nonzero;"/><path d="M1382.81,1200.43c-6.284,3.822 -9.449,12.218 -6.822,19.184c0.552,1.464 2.05,2.626 3.69,2.095c1.431,-0.462 2.689,-2.119 2.096,-3.69c-0.254,-0.672 -0.455,-1.361 -0.589,-2.067c-0.019,-0.101 -0.119,-0.721 -0.047,-0.236c0.072,0.495 -0.015,-0.197 -0.018,-0.241c-0.03,-0.357 -0.044,-0.715 -0.044,-1.072c0,-0.323 0.013,-0.645 0.037,-0.967c0.01,-0.133 -0.023,-0.416 0.05,-0.535c-0.138,0.225 -0.085,0.545 -0.001,0.051c0.121,-0.708 0.298,-1.407 0.527,-2.089c0.057,-0.171 0.121,-0.338 0.181,-0.508c0.135,-0.378 0.056,-0.008 -0.059,0.117c0.203,-0.22 0.326,-0.705 0.467,-0.972c0.168,-0.317 0.348,-0.628 0.54,-0.931c0.12,-0.188 0.59,-0.665 0.613,-0.883c-0.023,0.227 -0.329,0.409 0.001,0.021c0.115,-0.136 0.234,-0.271 0.355,-0.402c0.243,-0.262 0.497,-0.515 0.761,-0.755c0.106,-0.096 0.216,-0.188 0.323,-0.283c0.522,-0.466 -0.35,0.236 -0.018,0.002c0.324,-0.229 0.646,-0.452 0.985,-0.658c1.341,-0.815 1.965,-2.726 1.076,-4.105c-0.867,-1.346 -2.669,-1.949 -4.104,-1.076" style="fill:#6e9d33;fill-rule:nonzero;"/><path d="M1417.58,1087.66c-2.652,4.466 -4.154,9.477 -4.52,14.65c-0.111,1.569 1.459,3.069 3,3c1.72,-0.077 2.882,-1.32 3,-3c0.022,-0.308 0.046,-0.616 0.077,-0.923c0.008,-0.083 0.104,-0.993 0.053,-0.521c-0.052,0.47 0.066,-0.433 0.08,-0.518c0.05,-0.304 0.105,-0.608 0.164,-0.911c0.208,-1.061 0.474,-2.109 0.797,-3.141c0.161,-0.515 0.337,-1.027 0.526,-1.533c0.106,-0.283 0.198,-0.593 0.338,-0.862c-0.233,0.449 -0.062,0.145 0.063,-0.134c0.473,-1.058 1.011,-2.083 1.603,-3.079c0.802,-1.35 0.349,-3.351 -1.077,-4.104c-1.446,-0.764 -3.248,-0.366 -4.104,1.076" style="fill:#6e9d33;fill-rule:nonzero;"/><path d="M1209.2,1020.31c6.95,0.315 7.385,9.437 7.385,9.437c0,-0 8.253,1.466 4.778,8.552c-3.475,7.086 -12.163,3.07 -12.163,3.07c0,-0 0.434,6.623 -6.95,6.188c-7.385,-0.434 -2.172,-9.258 -2.172,-9.258c0,-0 -7.916,-5.657 -1.786,-13.837c6.13,-8.181 10.908,-4.152 10.908,-4.152" style="fill:#ffdc00;fill-rule:nonzero;"/><path d="M1392.51,1165.28c9.317,-7.385 9.305,4.302 9.305,4.302c0,0 8.253,1.466 4.778,8.552c-3.475,7.086 -12.163,3.069 -12.163,3.069c0,0 0.435,6.623 -6.95,6.189c-7.385,-0.435 -2.172,-9.258 -2.172,-9.258c0,0 -7.916,-5.658 -1.786,-13.838c6.13,-8.18 8.988,0.984 8.988,0.984" style="fill:#5364b5;fill-rule:nonzero;"/></svg>