
<svg width="100%" height="100%" viewBox="0 0 1141 1022" version="1.1" xmlns="http://www.w3.org/2000/svg" xmlns:xlink="http://www.w3.org/1999/xlink" xml:space="preserve" xmlns:serif="http://www.serif.com/" style="fill-rule:evenodd;clip-rule:evenodd;stroke-miterlimit:10;"><path d="M15.075,628.256l694.45,-0l360.015,378.19l55.695,-0l-0,-981.321l-1110.16,-0l-0,603.131Z" style="fill:#bbb19b;fill-rule:nonzero;stroke:#643a16;stroke-width:3px;"/><path d="M709.525,628.256l-0,-603.131" style="fill:none;fill-rule:nonzero;stroke:#ceac8f;stroke-width:5px;"/><path d="M1125.24,1006.45l-415.71,-378.183l-694.45,-0l-0,378.183l1110.16,-0Z" style="fill:#1b5196;fill-rule:nonzero;stroke:#1942a1;stroke-width:1px;"/><path d="M291.901,530.355l56.414,75.809l3.124,47.465l-38.545,12.74l-42.74,-64.345l-2.699,-53.516l24.446,-18.153Z" style="fill:#de6131;fill-rule:nonzero;stroke:#000;stroke-width:2.72px;stroke-linecap:round;stroke-linejoin:round;"/><path d="M330.554,591.015c0,0 5.329,29.193 2.741,38.063c0,0 15.624,-3.278 19.081,-1.897c3.458,1.379 18.038,10.618 22.431,7.957c4.391,-2.661 5.603,-4.99 1.42,-10.225c-4.184,-5.236 -5.475,-8.429 -8.754,-9.264c-3.28,-0.837 -6.235,-7.608 -5.719,-15.755c0.517,-8.146 -31.2,-8.879 -31.2,-8.879Z" style="fill:#f7b980;fill-rule:nonzero;stroke:#000;stroke-width:2.72px;stroke-linecap:round;stroke-linejoin:round;"/><path d="M290.319,461.181c0,0 -12.018,-6.499 -19.311,6.117c-7.294,12.615 -1.752,17.479 2.376,19.58" style="fill:none;fill-rule:nonzero;stroke:#000;stroke-width:2.72px;stroke-linecap:round;stroke-linejoin:round;"/><path d="M323.48,578.545c-3.983,7.217 -10.684,6.428 -16.401,1.697c-5.716,-4.73 -8.673,-18.134 -2.365,-21.485c6.307,-3.351 12.906,7.579 12.906,7.579c0,0 10.501,22.998 13.901,25.734c9.067,7.293 24.639,11.235 56.572,4.139c31.932,-7.096 34.495,-35.284 26.61,-50.658c-7.885,-15.375 -7.111,-31.774 -7.111,-31.774l-3.139,-19.674l-53.013,-23.85l-38.841,11.039l-6.309,57.754l11.33,27.29" style="fill:#f7b980;fill-rule:nonzero;stroke:#000;stroke-width:2.72px;stroke-linecap:round;stroke-linejoin:round;"/><path d="M318.535,568.317c-0,0 -13.804,-6.86 -16.474,3.62" style="fill:none;fill-rule:nonzero;stroke:#000;stroke-width:2.72px;stroke-linecap:round;stroke-linejoin:round;"/><path d="M383.559,537.279c-0,0 1.577,11.629 5.717,12.813c4.139,1.182 7.49,1.773 8.278,5.519c0.789,3.745 -3.745,7.553 -5.52,8.211" style="fill:none;fill-rule:nonzero;stroke:#000;stroke-width:2.72px;stroke-linecap:round;stroke-linejoin:round;"/><path d="M403.271,571.938c-0,0 -9.856,15.21 -29.567,2.003c-0,0 9.055,15.392 20.303,11.63c9.428,-3.154 9.264,-13.633 9.264,-13.633Z" style="fill:#b24f4b;fill-rule:nonzero;stroke:#000;stroke-width:2.72px;stroke-linecap:round;stroke-linejoin:round;"/><path d="M370.155,574.725c0,-0 2.365,0.393 5.322,-3.746" style="fill:none;fill-rule:nonzero;stroke:#000;stroke-width:2.72px;stroke-linecap:round;stroke-linejoin:round;"/><path d="M401.103,570.976c-0,0 2.365,1.665 4.139,0.97" style="fill:none;fill-rule:nonzero;stroke:#000;stroke-width:2.72px;stroke-linecap:round;stroke-linejoin:round;"/><path d="M360.649,534.302c-1.295,0.461 -2.376,1.967 -0.692,6.608c1.306,3.598 2.536,3.534 3.611,3.381c1.076,-0.154 1.691,-1.627 0.922,-4.886c-0.768,-3.258 -2.546,-5.564 -3.841,-5.103" style="fill-rule:nonzero;"/><path d="M360.649,534.302c-1.295,0.461 -2.376,1.967 -0.692,6.608c1.306,3.598 2.536,3.534 3.611,3.381c1.076,-0.154 1.691,-1.627 0.922,-4.886c-0.768,-3.258 -2.546,-5.564 -3.841,-5.103Z" style="fill:none;fill-rule:nonzero;stroke:#000;stroke-width:2.72px;stroke-linecap:round;stroke-linejoin:round;"/><path d="M322.651,538.196c-0,-0 17.962,-8.687 21.805,-19.201c3.844,-10.514 4.731,-21.159 2.292,-33.502c-0,-0 12.048,17.444 19.958,21.657c7.909,4.213 22.689,6.354 26.165,5.691c3.475,-0.665 9.944,-2.538 9.944,-2.538l1.309,-0.492l2.127,2.033c0,0 -0.147,2.698 0,4.325c0,-0 -12.195,2.734 -21.14,1.256c-8.944,-1.479 -26.754,-6.098 -32.967,-17.506c0,0 3.4,24.528 -12.048,33.989c-15.45,9.462 -17.741,8.131 -17.741,8.131l0.296,-3.843Z" style="fill:#dfa774;fill-rule:nonzero;"/><path d="M395.203,526.67c-0.832,0.34 -1.527,1.451 -0.445,4.875c0.84,2.655 1.629,2.609 2.321,2.495c0.69,-0.113 1.086,-1.201 0.592,-3.605c-0.493,-2.405 -1.636,-4.105 -2.468,-3.765" style="fill-rule:nonzero;"/><path d="M395.203,526.67c-0.832,0.34 -1.527,1.451 -0.445,4.875c0.84,2.655 1.629,2.609 2.321,2.495c0.69,-0.113 1.086,-1.201 0.592,-3.605c-0.493,-2.405 -1.636,-4.105 -2.468,-3.765Z" style="fill:none;fill-rule:nonzero;stroke:#000;stroke-width:2.72px;stroke-linecap:round;stroke-linejoin:round;"/><path d="M356.555,515.988c1.322,0.909 -2.365,5.618 -3.844,7.195c-1.478,1.576 -4.632,3.647 -6.209,2.365c-1.576,-1.281 1.182,-4.041 4.139,-6.406c2.957,-2.365 4.337,-4.238 5.914,-3.154" style="fill-rule:nonzero;"/><path d="M356.555,515.988c1.322,0.909 -2.365,5.618 -3.844,7.195c-1.478,1.576 -4.632,3.647 -6.209,2.365c-1.576,-1.281 1.182,-4.041 4.139,-6.406c2.957,-2.365 4.337,-4.238 5.914,-3.154Z" style="fill:none;fill-rule:nonzero;stroke:#000;stroke-width:2.72px;stroke-linecap:round;stroke-linejoin:round;"/><path d="M419.253,683.785c-3.677,-1.183 -7.707,-5.766 -14.065,-9.905c-6.356,-4.14 -29.271,-28.977 -45.385,-34.594c-16.114,-5.618 -28.972,13.156 -28.972,13.156l2.066,8.528l34.866,44.645l59.453,-10.232l6.801,-4.946l11.087,-30.898c0,0 -21.288,-11.383 -30.278,-16.409c-8.991,-5.027 -40.141,-32.82 -42.802,-34.298c-2.661,-1.479 -7.293,0.296 -7.687,1.971c-0.395,1.676 1.773,4.336 1.773,4.336c4.239,-0.196 8.773,7.588 11.828,10.842c3.055,3.253 1.774,7.687 -2.347,9.165c-4.122,1.479 -17.364,-6.208 -21.8,-7.786c-4.435,-1.576 -19.712,1.726 -19.712,1.726c-2.463,2.266 -11.449,9.956 -14.286,14.289c-2.837,4.335 1.675,0.987 1.675,0.987l2.809,9.511" style="fill:#568a47;fill-rule:nonzero;stroke:#000;stroke-width:2.72px;stroke-linecap:round;stroke-linejoin:round;"/><path d="M413.939,678.757c0,-0 0.217,-3.08 1.365,-4.509c1.148,-1.429 4.425,-1.577 4.425,-1.577l2.44,-8.057l5.749,-0.246l7.506,-7.959l-0.492,-0.788l-1.207,-0.641c-0,-0 -4.066,-1.01 -6.136,1.207c-2.07,2.218 -2.316,3.474 -2.316,3.474c0,0 -2.981,0.543 -4.583,1.405c-1.602,0.862 -3.376,2.365 -4.016,4.853c-0.64,2.489 0.69,5.2 0.69,5.2c0,-0 -3.056,1.01 -3.77,2.438c-0.714,1.43 -0.592,4.436 -0.592,4.436l0.937,0.764Z" style="fill:#327d3d;fill-rule:nonzero;"/><path d="M419.335,684.792c0,-0 -4.731,-1.577 -3.942,-6.899c0.789,-5.322 5.125,-5.519 5.125,-5.519c-0,-0 -3.844,-6.406 1.38,-8.378c5.223,-1.971 7.589,3.056 7.589,3.056c0,0 -1.774,-10.546 6.505,-10.053c2.539,0.151 4.252,1.433 5.153,3.096c-0,-0 4.899,-3.688 9.039,-0.731c-0,0 -1.697,-9.683 5.604,-8.475c1.788,0.295 2.871,2.78 1.886,3.903c-0,0 3.942,-0.06 3.745,3.094c-0.197,3.154 1.873,2.858 1.873,2.858c-0,-0 2.562,-9.363 11.926,-4.435c-0,-0 2.463,-6.209 7.49,-3.548c5.026,2.661 1.872,6.702 0.788,7.096c0,0 3.548,1.675 2.858,4.04c-0.69,2.366 -2.76,2.957 -2.76,2.957c0,0 5.717,1.774 4.534,5.421c-1.182,3.647 -2.563,4.632 -2.563,4.632l0.296,5.618l-34.987,8.082l-25.034,-2.07l-6.505,-3.745Z" style="fill:#fee4ae;fill-rule:nonzero;stroke:#000;stroke-width:2.72px;stroke-linecap:round;stroke-linejoin:round;"/><path d="M490.888,695.383l0,-17.365c0,-0 -1.774,-2.464 -3.843,-1.478c-2.07,0.985 -3.253,1.971 -3.45,3.153c-0.197,1.183 0,15.69 0,15.69l7.293,-0Z" style="fill:#de3d39;fill-rule:nonzero;stroke:#000;stroke-width:2.72px;stroke-linecap:round;stroke-linejoin:round;"/><path d="M468.614,695.383l0,-10.072c0,0 3.989,-6.91 9.659,-6.702c5.67,0.209 5.322,1.084 5.322,1.084l0,15.69l-14.981,-0Z" style="fill:#fff;fill-rule:nonzero;stroke:#000;stroke-width:2.72px;stroke-linecap:round;stroke-linejoin:round;"/><path d="M455.112,695.383l-0,-8.389c-0,-0 2.464,-3.161 7.096,-3.26c4.632,-0.098 6.406,2.661 6.406,2.661l0,8.988l-13.502,-0Z" style="fill:#de3d39;fill-rule:nonzero;stroke:#000;stroke-width:2.72px;stroke-linecap:round;stroke-linejoin:round;"/><path d="M442.398,695.383l-0,-6.918c-0,-0 2.267,-2.579 5.914,-2.62c3.646,-0.041 6.8,1.149 6.8,1.149l-0,8.389l-12.714,-0Z" style="fill:#fff;fill-rule:nonzero;stroke:#000;stroke-width:2.72px;stroke-linecap:round;stroke-linejoin:round;"/><path d="M430.177,695.383l12.221,-0l-0,-6.918c-1.183,-1.774 -4.336,-3.253 -7.195,-3.253c-2.858,0 -5.026,2.366 -5.026,2.366l-0,7.805Z" style="fill:#de3d39;fill-rule:nonzero;stroke:#000;stroke-width:2.72px;stroke-linecap:round;stroke-linejoin:round;"/><path d="M418.547,695.383l-0,-10.959c-0,0 3.407,-1.158 5.518,-0.692c4.042,0.889 6.111,3.846 6.111,3.846l-0,7.805l-11.629,-0Z" style="fill:#fff;fill-rule:nonzero;stroke:#000;stroke-width:2.72px;stroke-linecap:round;stroke-linejoin:round;"/><path d="M466.84,671.505c0,0 -2.957,-3.055 -4.977,-0.393c-2.02,2.66 0,5.187 0,5.187c0,0 -1.527,2.598 0,4.077c1.527,1.478 3.794,-0 3.794,-0" style="fill:none;fill-rule:nonzero;stroke:#000;stroke-width:2.72px;stroke-linecap:round;stroke-linejoin:round;"/><path d="M440.427,677.423c-0,-0 -0.592,-4.731 3.449,-3.844c4.041,0.887 1.479,3.844 1.479,3.844c-0,-0 4.829,-0.197 4.435,3.054c-0.395,3.253 -3.549,2.169 -3.549,2.169" style="fill:none;fill-rule:nonzero;stroke:#000;stroke-width:2.72px;stroke-linecap:round;stroke-linejoin:round;"/><path d="M426.628,674.664c0,-0 0.789,-3.647 3.548,-3.055c2.76,0.591 0.888,4.695 0.888,4.695c-0,-0 0.985,5.127 -3.45,4.733c-4.435,-0.394 -4.435,-5.289 -0.986,-6.373Z" style="fill:none;fill-rule:nonzero;stroke:#000;stroke-width:2.72px;stroke-linecap:round;stroke-linejoin:round;"/><path d="M441.146,660.098c-0,-0 2.197,2.935 -0,5.891c-2.198,2.957 -6.337,1.282 -6.337,1.282" style="fill:none;fill-rule:nonzero;stroke:#000;stroke-width:2.72px;stroke-linecap:round;stroke-linejoin:round;"/><path d="M450.184,659.372c-0,-0 2.07,1.598 0.788,4.554c-1.281,2.955 -4.534,3.251 -5.321,2.955" style="fill:none;fill-rule:nonzero;stroke:#000;stroke-width:2.72px;stroke-linecap:round;stroke-linejoin:round;"/><path d="M468.614,665.497c0,0 4.041,2.366 6.801,-0.689c2.759,-3.056 2.267,-6.446 -0.197,-8.496" style="fill:none;fill-rule:nonzero;stroke:#000;stroke-width:2.72px;stroke-linecap:round;stroke-linejoin:round;"/><path d="M480.145,673.466c-0,-0 3.223,4.311 6.539,2.063" style="fill:none;fill-rule:nonzero;stroke:#000;stroke-width:2.72px;stroke-linecap:round;stroke-linejoin:round;"/><path d="M455.112,662.248c-0,0 5.451,0.947 6.421,-2.877" style="fill:none;fill-rule:nonzero;stroke:#000;stroke-width:2.72px;stroke-linecap:round;stroke-linejoin:round;"/><path d="M543.813,772.434c-0,-0 24.245,35.48 41.788,44.153c-0,-0 -8.121,15.883 -19.829,19.275l-32.603,-35.635l10.644,-27.793Z" style="fill:#c9be9d;fill-rule:nonzero;stroke:#000;stroke-width:2.72px;stroke-linecap:round;stroke-linejoin:round;"/><path d="M560.863,867.999l2.661,3.976c-0,0 9.264,-0.788 13.206,-5.124c3.943,-4.337 5.52,-9.856 5.52,-9.856c0,-0 -2.244,-0.192 -5.41,-4.285c-3.164,-4.093 -14.918,8.03 -14.918,8.03l-1.059,7.259Z" style="fill:#f7b980;fill-rule:nonzero;stroke:#000;stroke-width:2.72px;stroke-linecap:round;stroke-linejoin:round;"/><path d="M543.813,853.051l13.798,16.361c0,-0 15.966,-5.519 20.303,-19.514l-34.101,-39.423l-0,42.576Z" style="fill:#c9be9d;fill-rule:nonzero;stroke:#000;stroke-width:2.72px;stroke-linecap:round;stroke-linejoin:round;"/><path d="M284.269,892.965l-133.864,-257.939l0,-165.758l42.939,0l139.951,184.362" style="fill:#aa373a;fill-rule:nonzero;stroke:#8d3032;stroke-width:2.72px;stroke-linecap:round;stroke-linejoin:round;"/><path d="M284.269,653.636l-133.864,-184.362" style="fill:none;fill-rule:nonzero;stroke:#8d3032;stroke-width:2.72px;stroke-linecap:round;stroke-linejoin:round;"/><path d="M284.269,653.636l-0,239.335l259.544,-0l-0,-184.499l-19.044,-13.089l-157.006,-0l-34.468,-41.747l-49.026,-0Z" style="fill:#aa373a;fill-rule:nonzero;stroke:#8d3032;stroke-width:2.72px;stroke-linecap:round;stroke-linejoin:round;"/><path d="M367.763,695.383l9.883,13.089l166.167,-0" style="fill:#aa373a;fill-rule:nonzero;stroke:#8d3032;stroke-width:2.72px;stroke-linecap:round;stroke-linejoin:round;"/><path d="M578.542,852.924l2.267,3.326c-0,0 22.767,-7.54 32.893,-15.153c10.127,-7.613 14.636,-11.087 18.332,-14.931l-2.095,-4.587" style="fill:#fff;fill-rule:nonzero;stroke:#000;stroke-width:2.72px;stroke-linecap:round;stroke-linejoin:round;"/><path d="M570.509,841.689c0,-0 4.189,7.613 8.033,11.235c-0,0 19.932,-7.392 31.316,-15.818c11.383,-8.427 20.081,-15.527 20.081,-15.527c0,0 -4.911,-9.136 -14.003,-7.805c-9.091,1.331 -21.231,9.189 -26.701,12.934c-0,-0 -3.202,8.171 -6.75,10.979c-3.548,2.809 -11.976,4.002 -11.976,4.002Z" style="fill:#de3d39;fill-rule:nonzero;stroke:#000;stroke-width:2.72px;stroke-linecap:round;stroke-linejoin:round;"/><path d="M592.949,824.246c0,-0 -1.275,5.696 1.165,8.653" style="fill:none;fill-rule:nonzero;stroke:#000;stroke-width:2.72px;stroke-linecap:round;stroke-linejoin:round;"/><path d="M599.44,820.316c-0,0 -1.605,6.219 0.784,10.062" style="fill:none;fill-rule:nonzero;stroke:#000;stroke-width:2.72px;stroke-linecap:round;stroke-linejoin:round;"/><path d="M607.567,816.296c0,-0 -2.513,7.363 0,10.985" style="fill:none;fill-rule:nonzero;stroke:#000;stroke-width:2.72px;stroke-linecap:round;stroke-linejoin:round;"/><path d="M613.88,814.172c-0,-0 -3.083,12.339 2.878,17.747l13.181,-10.34c0,0 -5.532,-10.531 -16.059,-7.407Z" style="fill:#fff;fill-rule:nonzero;stroke:#000;stroke-width:2.72px;stroke-linecap:round;stroke-linejoin:round;"/><path d="M571.556,883.209l2.268,3.326c-0,0 22.766,-7.54 32.893,-15.153c10.126,-7.614 14.636,-11.088 18.331,-14.931l-2.094,-4.587" style="fill:#fff;fill-rule:nonzero;stroke:#000;stroke-width:2.72px;stroke-linecap:round;stroke-linejoin:round;"/><path d="M563.525,871.974c-0,-0 4.188,7.613 8.032,11.235c0,0 19.933,-7.392 31.316,-15.818c11.384,-8.427 20.082,-15.527 20.082,-15.527c-0,0 -4.911,-9.136 -14.003,-7.805c-9.092,1.331 -21.231,9.189 -26.702,12.934c0,-0 -3.202,8.17 -6.749,10.979c-3.549,2.809 -11.976,4.002 -11.976,4.002Z" style="fill:#de3d39;fill-rule:nonzero;stroke:#000;stroke-width:2.72px;stroke-linecap:round;stroke-linejoin:round;"/><path d="M585.965,854.521c-0,0 -1.275,5.697 1.164,8.654" style="fill:none;fill-rule:nonzero;stroke:#000;stroke-width:2.72px;stroke-linecap:round;stroke-linejoin:round;"/><path d="M592.455,850.601c-0,-0 -1.606,6.218 0.784,10.062" style="fill:none;fill-rule:nonzero;stroke:#000;stroke-width:2.72px;stroke-linecap:round;stroke-linejoin:round;"/><path d="M600.582,846.571c-0,0 -2.513,7.363 -0,10.985" style="fill:none;fill-rule:nonzero;stroke:#000;stroke-width:2.72px;stroke-linecap:round;stroke-linejoin:round;"/><path d="M606.895,844.457c0,-0 -3.082,12.339 2.878,17.747l13.182,-10.34c-0,0 -5.533,-10.531 -16.06,-7.407Z" style="fill:#fff;fill-rule:nonzero;stroke:#000;stroke-width:2.72px;stroke-linecap:round;stroke-linejoin:round;"/><path d="M571.556,883.209l2.268,3.326c-0,0 22.766,-7.54 32.893,-15.153c10.126,-7.614 14.636,-11.088 18.331,-14.931l-2.094,-4.587" style="fill:#fff;fill-rule:nonzero;stroke:#000;stroke-width:2.72px;stroke-linecap:round;stroke-linejoin:round;"/><path d="M563.525,871.974c-0,-0 4.188,7.613 8.032,11.235c0,0 19.933,-7.392 31.316,-15.818c11.384,-8.427 20.082,-15.527 20.082,-15.527c-0,0 -4.911,-9.136 -14.003,-7.805c-9.092,1.331 -21.231,9.189 -26.702,12.934c0,-0 -3.202,8.17 -6.749,10.979c-3.549,2.809 -11.976,4.002 -11.976,4.002Z" style="fill:#de3d39;fill-rule:nonzero;stroke:#000;stroke-width:2.72px;stroke-linecap:round;stroke-linejoin:round;"/><path d="M585.965,854.521c-0,0 -1.275,5.697 1.164,8.654" style="fill:none;fill-rule:nonzero;stroke:#000;stroke-width:2.72px;stroke-linecap:round;stroke-linejoin:round;"/><path d="M592.455,850.601c-0,-0 -1.606,6.218 0.784,10.062" style="fill:none;fill-rule:nonzero;stroke:#000;stroke-width:2.72px;stroke-linecap:round;stroke-linejoin:round;"/><path d="M600.582,846.571c-0,0 -2.513,7.363 -0,10.985" style="fill:none;fill-rule:nonzero;stroke:#000;stroke-width:2.72px;stroke-linecap:round;stroke-linejoin:round;"/><path d="M606.895,844.457c0,-0 -3.082,12.339 2.878,17.747l13.182,-10.34c-0,0 -5.533,-10.531 -16.06,-7.407Z" style="fill:#fff;fill-rule:nonzero;stroke:#000;stroke-width:2.72px;stroke-linecap:round;stroke-linejoin:round;"/><path d="M331.811,446.134c-0,0 -3.543,-5.842 -3.247,-17.077c0.296,-11.236 -2.661,-26.61 -12.122,-30.75c-9.462,-4.139 -19.515,-8.87 -19.515,-8.87l-58.247,7.688l-5.618,41.985l6.801,30.158l5.593,3.925l63.594,-3.925l22.761,-23.134Z" style="fill:#795946;fill-rule:nonzero;stroke:#000;stroke-width:2.72px;stroke-linecap:round;stroke-linejoin:round;"/><path d="M260.21,556.864c-0.577,2.685 -1.113,5.783 -2.606,8.993c-9.536,20.5 -28.582,15.572 -28.582,15.572c13.601,18.134 33.968,12.583 45.533,3.943c8.575,-6.406 10.329,-27.541 8.122,-34.32l1.592,-26.047l3.479,-61.557c0,0 -4.716,-2.062 -8.072,-3.461c-0,-0 -38.235,-11.412 -38.63,35.304c-0.394,46.716 0.788,60.97 -3.154,68.528c-3.942,7.558 -11.235,12.091 -13.207,12.288c0,-0 2.169,4.214 8.179,4.635c2.358,0.166 26.366,0.367 28.774,-32.67" style="fill:#facc39;fill-rule:nonzero;stroke:#000;stroke-width:2.72px;stroke-linecap:round;stroke-linejoin:round;"/><path d="M261.644,426.794c5.605,-2.687 11.63,-5.125 13.306,-2.661c1.675,2.464 -3.745,6.012 -10.842,8.082c-7.096,2.069 -7.49,3.647 -9.264,2.76c-1.774,-0.888 3.297,-6.501 6.8,-8.181" style="fill-rule:nonzero;"/><path d="M261.644,426.794c5.605,-2.687 11.63,-5.125 13.306,-2.661c1.675,2.464 -3.745,6.012 -10.842,8.082c-7.096,2.069 -7.49,3.647 -9.264,2.76c-1.774,-0.888 3.297,-6.501 6.8,-8.181Z" style="fill:none;fill-rule:nonzero;stroke:#000;stroke-width:2.72px;stroke-linecap:round;stroke-linejoin:round;"/><path d="M315.358,415.16c4.275,0.934 7.687,2.66 7.49,3.843c-0.197,1.183 -5.519,1.516 -8.18,1.004c-2.661,-0.511 -7.491,0.331 -7.589,-2.307c-0.099,-2.639 5.513,-3.145 8.279,-2.54" style="fill-rule:nonzero;"/><path d="M315.358,415.16c4.275,0.934 7.687,2.66 7.49,3.843c-0.197,1.183 -5.519,1.516 -8.18,1.004c-2.661,-0.511 -7.491,0.331 -7.589,-2.307c-0.099,-2.639 5.513,-3.145 8.279,-2.54Z" style="fill:none;fill-rule:nonzero;stroke:#000;stroke-width:2.72px;stroke-linecap:round;stroke-linejoin:round;"/><path d="M279.357,451.725c-0.437,-3.533 0.096,-6.328 2.389,-6.603c2.292,-0.275 3.209,2.293 3.667,4.493c0.458,2.201 0.458,5.41 -1.742,6.053c-2.2,0.642 -4.064,-1.92 -4.314,-3.943" style="fill-rule:nonzero;"/><path d="M279.357,451.725c-0.437,-3.533 0.096,-6.328 2.389,-6.603c2.292,-0.275 3.209,2.293 3.667,4.493c0.458,2.201 0.458,5.41 -1.742,6.053c-2.2,0.642 -4.064,-1.92 -4.314,-3.943Z" style="fill:none;fill-rule:nonzero;stroke:#000;stroke-width:2.72px;stroke-linecap:round;stroke-linejoin:round;"/><path d="M290.319,467.498c0,-0 -3.064,-3.548 -10.944,-6.161c0,0 -15.03,29.638 -14.508,47.555c0.683,23.456 9.233,38.889 17.318,49.533l0.846,-17.601l7.288,-73.326Z" style="fill:#dbb232;fill-rule:nonzero;"/><path d="M317.724,446.506c-2.12,0.606 -3.45,-1.577 -3.943,-4.435c-0.493,-2.858 0.296,-5.125 2.563,-5.322c2.266,-0.197 2.957,3.154 2.957,4.435c-0,1.282 0.493,4.73 -1.577,5.322" style="fill-rule:nonzero;"/><path d="M317.724,446.506c-2.12,0.606 -3.45,-1.577 -3.943,-4.435c-0.493,-2.858 0.296,-5.125 2.563,-5.322c2.266,-0.197 2.957,3.154 2.957,4.435c-0,1.282 0.493,4.73 -1.577,5.322Z" style="fill:none;fill-rule:nonzero;stroke:#000;stroke-width:2.72px;stroke-linecap:round;stroke-linejoin:round;"/><path d="M405.31,510.969l-7.665,-4.742l-0,8.087c-6.906,0.842 -17.043,0.636 -29.531,-6.207c-12.489,-6.844 -24.964,-29.18 -24.964,-29.18l2.065,7.951c2.064,7.951 2.715,24.228 -2.416,34.452c-5.132,10.223 -21.331,17.717 -21.331,17.717c-2.513,13.896 6.899,34.89 6.899,34.89c-7.688,-1.578 -14.389,-12.487 -14.389,-12.487c0,-0 -5.155,-5.559 -9.265,-2.691c-8.476,5.914 -3.647,15.178 -3.647,15.178c-7.276,-5.337 -13.508,-14.006 -18.39,-22.888c-7.019,-12.769 -11.245,-25.974 -11.767,-30.334c-0.592,-4.927 -4.994,-36.66 16.839,-57.269c10.918,-10.307 28.396,-17.831 56.191,-17.831c83.379,-0 68.3,68.3 68.3,68.3c0,0 -3.916,0.687 -6.929,-2.946Z" style="fill:#facc39;fill-rule:nonzero;stroke:#000;stroke-width:2.72px;stroke-linecap:round;stroke-linejoin:round;"/><path d="M388.093,490.758c0,0 10.25,13.01 20.894,13.207c0,-0 0.205,4.457 -3.677,7.008c-2.328,1.531 -6.127,2.376 -12.323,1.161c-0,-0 -14.355,-1.467 -24.014,-16.843" style="fill:#facc39;fill-rule:nonzero;stroke:#000;stroke-width:2.72px;stroke-linecap:round;stroke-linejoin:round;"/><path d="M321.468,539.049c0,-0 10.053,-17.888 8.575,-35.629" style="fill:#facc39;fill-rule:nonzero;stroke:#000;stroke-width:2.72px;stroke-linecap:round;stroke-linejoin:round;"/><path d="M589.236,826.714c-0,0 -3.515,-1.77 -5.841,-6.391c-0,0 -4.907,7.203 -8.053,9.766c-3.148,2.564 -9.57,5.775 -9.57,5.775l4.738,5.831c0,0 8.367,-0.835 11.976,-4.002c3.608,-3.168 6.75,-10.979 6.75,-10.979Z" style="fill:#f7b980;fill-rule:nonzero;stroke:#000;stroke-width:2.72px;stroke-linecap:round;stroke-linejoin:round;"/><path d="M328.564,429.063c0,0 10.053,1.479 11.532,-7.392c1.478,-8.87 -0,-10.348 -0,-10.348c-0,0 3.547,-1.38 3.646,-4.14c0.099,-2.759 -3.745,-3.843 -3.745,-3.843c-0,-0 7.785,-0.394 8.278,-7.392c0.493,-6.998 -3.646,-12.418 -8.968,-13.601c-0,0 1.675,-6.603 -2.267,-10.841c-3.943,-4.238 -9.658,-3.943 -9.658,-3.943c-0,0 2.661,-12.319 -4.928,-14.882c-7.589,-2.562 -12.418,0.296 -14.389,3.45c-0,-0 1.971,-11.532 -5.224,-13.01c-7.194,-1.478 -10.349,6.702 -10.349,6.702c-0,0 -4.434,-7.749 -12.516,-6.881c-8.082,0.87 -10.349,6.782 -10.349,6.782c0,0 -2.168,-5.419 -7.293,-5.026c-5.125,0.394 -10.841,9.659 -10.841,9.659c-0,-0 -5.717,-4.238 -11.63,-3.647c-5.913,0.592 -9.757,7.195 -9.757,7.195c0,0 -3.449,-2.267 -6.899,-1.675c-3.45,0.591 -7.195,6.11 -7.885,12.319c0,-0 -12.418,-2.464 -14.685,4.041c-2.267,6.504 -2.661,12.122 3.253,19.218c-0,0 -13.405,-2.661 -16.558,7.491c-3.154,10.151 3.745,17.839 3.745,17.839c0,-0 -8.377,1.576 -8.082,7.392c0.296,5.815 4.829,8.476 7.589,8.476c0,-0 -9.279,3.745 -7.596,10.841c1.683,7.096 10.159,6.603 10.159,6.603c0,0 -9.56,4.829 -7.787,10.94c1.775,6.111 7.885,6.307 7.885,6.307c0,0 -1.872,6.998 1.971,10.94c3.844,3.942 10.25,3.745 10.25,3.745c0,0 1.775,8.674 7.984,8.772c6.209,0.099 9.264,-5.519 9.264,-5.519c0,0 1.577,10.644 8.377,11.432c6.801,0.789 8.822,-3.958 10.374,-9.173c0,0 -8.008,-5.413 -5.939,-13.396c2.07,-7.983 10.558,-2.502 10.558,-2.502c-0,0 8.365,-10.409 8.464,-17.209c0.098,-6.801 -2.366,-13.404 -9.659,-13.01c0,-0 2.464,-3.647 1.873,-6.406c-0.591,-2.76 -2.531,-5.026 -4.912,-4.928c-0,-0 5.7,-2.365 5.799,-5.913c0.098,-3.549 -1.182,-6.899 -5.815,-7.787c0,0 4.83,0.099 6.899,-3.154c2.07,-3.251 0.788,-6.208 0.788,-6.208c0,-0 3.844,6.208 10.053,4.434c6.21,-1.773 7.195,-9.264 7.195,-9.264c0,-0 2.168,5.717 6.899,5.52c4.731,-0.197 5.913,-6.111 5.913,-6.111c0,0 3.253,5.322 7.096,5.125c3.845,-0.197 6.111,-6.11 6.111,-6.11c-0,-0 1.675,12.024 9.56,10.249c7.885,-1.774 7.392,-9.56 4.238,-13.206c0,-0 3.307,3.897 7.885,1.379c1.971,-1.083 3.646,-3.154 2.759,-8.376c-0,-0 2.939,8.918 5.953,13.477c3.016,4.558 5.874,14.414 5.381,24.565Z" style="fill:#523d30;fill-rule:nonzero;stroke:#000;stroke-width:2.72px;stroke-linecap:round;stroke-linejoin:round;"/><path d="M246.084,471.99c-0,0 -7.511,-4.725 -9.921,0.663c-2.41,5.386 0.301,12.368 5.302,15.234c0,-0 0.021,-9.804 4.619,-15.897Z" style="fill:#795946;fill-rule:nonzero;stroke:#000;stroke-width:2.72px;stroke-linecap:round;stroke-linejoin:round;"/><rect x="909.561" y="756.446" width="121.194" height="178.702" style="fill:#643a16;stroke:#45280f;stroke-width:3px;stroke-linecap:round;stroke-linejoin:round;"/><path d="M682.159,695.288l-0,-124.13l227.402,185.288l-0,178.702l-227.402,-239.86Z" style="fill:#643a16;fill-rule:nonzero;stroke:#45280f;stroke-width:3px;stroke-linecap:round;stroke-linejoin:round;"/><circle cx="845.669" cy="728.045" r="1.314" style="fill:#643a16;stroke:#45280f;stroke-width:5px;stroke-linecap:round;stroke-linejoin:round;stroke-miterlimit:1.5;"/><circle cx="844.354" cy="773.537" r="1.314" style="fill:#643a16;stroke:#45280f;stroke-width:5px;stroke-linecap:round;stroke-linejoin:round;stroke-miterlimit:1.5;"/><circle cx="735.987" cy="638.417" r="1.314" style="fill:#643a16;stroke:#45280f;stroke-width:5px;stroke-linecap:round;stroke-linejoin:round;stroke-miterlimit:1.5;"/><circle cx="733.359" cy="675.95" r="1.314" style="fill:#643a16;stroke:#45280f;stroke-width:5px;stroke-linecap:round;stroke-linejoin:round;stroke-miterlimit:1.5;"/><path d="M1030.76,756.446l-263.536,-185.288l-85.061,-0l227.403,185.288l121.194,-0Z" style="fill:#643a16;fill-rule:nonzero;stroke:#45280f;stroke-width:3px;stroke-linecap:round;stroke-linejoin:round;"/><path d="M747.968,542.486l267.106,185.701l-0,-294.515l-267.106,-106.86l-0,215.674Z" style="fill:#2a2a2a;fill-rule:nonzero;stroke:#000;stroke-width:3px;stroke-linecap:round;stroke-linejoin:round;"/><path d="M843.751,448.655l-0,89.268l59.946,-26.715l-59.946,-62.553Z" style="fill:#fff;fill-rule:nonzero;stroke:#000;stroke-width:3px;stroke-linecap:round;stroke-linejoin:round;"/><path d="M919.117,698.426l-108.997,-83.979c0,-0 -4.761,-5.59 -12.797,-3.635c-8.037,1.955 -11.094,8.205 -8.705,11.053c2.389,2.848 112.037,87.855 112.037,87.855c-0,-0 12.163,9.991 20.417,5.647c8.253,-4.344 2.888,-12.968 -1.955,-16.941Z" style="fill:#2a2a2a;fill-rule:nonzero;stroke:#000;stroke-width:3px;stroke-linecap:round;stroke-linejoin:round;"/><path d="M859.774,662.156l-0,-41.943l-12.271,-8.532l-0,39.398" style="fill:#2a2a2a;fill-rule:nonzero;stroke:#000;stroke-width:3px;stroke-linecap:round;stroke-linejoin:round;"/><path d="M360.379,601.17c0,0 -15.391,1.569 -27.843,-6.636l0.84,5.408c0,-0 0.962,0.322 2.636,0.774c4.533,1.224 14.289,3.406 24.367,2.771l0,-2.317Z" style="fill:#dfa774;fill-rule:nonzero;"/><path d="M335.02,627.308c-0,-0 2.267,-0.394 2.808,-0.542c0,0 -1.09,-21.5 -1.816,-26.047l-2.772,-1.649c-0,0 2.124,25.823 1.78,28.238" style="fill:#dfa774;fill-rule:nonzero;"/><path d="M377.646,635.621c0,-0 -2.661,2.626 -11.753,-1.291c-9.091,-3.918 -11.235,-5.766 -14.118,-6.062c-2.883,-0.296 -15.227,1.035 -17.297,2.144c-2.069,1.109 -8.664,7.085 -9.921,9.45l1.679,2.192c0,-0 7.096,-7.614 9.72,-8.538c2.625,-0.924 12.455,-2.514 15.32,-1.885c2.865,0.628 7.447,2.768 9.296,3.509c1.847,0.741 11.235,5.58 17.074,0.481" style="fill:#327d3d;fill-rule:nonzero;"/><path d="M417.167,694.004l0,-8.796c0,-0 -1.7,-1.257 -2.07,-2.144l-2.537,-1.898c-0,0 0.714,11.606 1.158,12.838l3.449,-0Z" style="fill:#327d3d;fill-rule:nonzero;"/><path d="M262.889,549.504c-0,-0 -4.925,24.216 -13.994,28.996c-12.039,6.345 -16.693,4.632 -16.693,4.632c-0,0 2.146,2.147 3.021,2.862c0.874,0.716 26.393,-2.464 27.666,-36.49" style="fill:#dbb232;fill-rule:nonzero;"/><path d="M391.673,513.284c0,-0 -13.026,-1.589 -23.492,-16.675c0,0 2.926,15.943 23.492,16.675" style="fill:#dbb232;fill-rule:nonzero;"/><path d="M320.138,538.532c-0,-0 10.053,-17.723 8.574,-33.585c0,-0 -7.688,31.81 -8.574,33.585" style="fill:#dbb232;fill-rule:nonzero;"/><path d="M204.247,420.242c-0,-0 -8.715,-5.08 -4.864,-13.186c3.851,-8.106 13.375,-6.08 13.375,-6.08c-0,0 -5.269,-11.145 -0,-15.806c5.269,-4.662 14.185,-0 14.185,-0c0,-0 -1.824,-8.107 4.662,-10.336c6.484,-2.228 10.246,3.445 10.246,3.445" style="fill:none;fill-rule:nonzero;stroke:#3e2b1f;stroke-width:6.35px;stroke-linecap:round;stroke-linejoin:round;"/><path d="M273.756,366.125c-0,-0 2.569,-9.323 8.681,-9.727c6.113,-0.406 9.354,7.7 9.354,7.7c0,0 5.878,-8.106 10.335,-6.08c4.459,2.027 4.054,9.525 4.054,9.525c-0,0 3.775,-3.242 7.461,-1.216c3.684,2.027 1.326,6.89 1.326,6.89" style="fill:none;fill-rule:nonzero;stroke:#3e2b1f;stroke-width:6.35px;stroke-linecap:round;stroke-linejoin:round;"/><path d="M229.81,463.949c0,0 6.389,-4.533 5.461,-10.841c-0.927,-6.308 -6.446,-7.49 -6.446,-7.49c-0,-0 2.563,-3.943 2.168,-8.082c-0.394,-4.139 -6.308,-3.942 -6.308,-3.942" style="fill:none;fill-rule:nonzero;stroke:#3e2b1f;stroke-width:6.35px;stroke-linecap:round;stroke-linejoin:round;"/><path d="M690.577,591.705l0.057,17.52l93.184,79.68l-0,-20.779l-93.241,-76.421Z" style="fill:none;stroke:#45280f;stroke-width:3px;stroke-linecap:round;stroke-linejoin:round;stroke-miterlimit:1.5;"/><path d="M795.86,675.137l-0,20.587l102.745,87.858l-0.039,-22.903l-102.706,-85.542Z" style="fill:none;stroke:#45280f;stroke-width:3px;stroke-linecap:round;stroke-linejoin:round;stroke-miterlimit:1.5;"/><path d="M690.461,623.204l-0,65.701l93.357,98.552l-0,-81.437l-93.357,-82.816Z" style="fill:none;stroke:#45280f;stroke-width:3px;stroke-linecap:round;stroke-linejoin:round;stroke-miterlimit:1.5;"/><path d="M793.105,713.736l-0.001,81.369l105.501,109.841l-0,-102.469l-105.5,-88.741Z" style="fill:none;stroke:#45280f;stroke-width:3px;stroke-linecap:round;stroke-linejoin:round;stroke-miterlimit:1.5;"/><rect x="15.075" y="25.125" width="1110.16" height="981.321" style="fill:url(#_Radial1);"/><defs><radialGradient id="_Radial1" cx="0" cy="0" r="1" gradientUnits="userSpaceOnUse" gradientTransform="matrix(-763.25,-360.094,341.088,-756.597,864.764,479.001)"><stop offset="0" style="stop-color:#fff;stop-opacity:0.24"/><stop offset="1" style="stop-color:#000;stop-opacity:0.28"/></radialGradient></defs></svg>