
<svg width="100%" height="100%" viewBox="0 0 1154 1738" version="1.1" xmlns="http://www.w3.org/2000/svg" xmlns:xlink="http://www.w3.org/1999/xlink" xml:space="preserve" xmlns:serif="http://www.serif.com/" style="fill-rule:evenodd;clip-rule:evenodd;stroke-linecap:round;stroke-linejoin:round;stroke-miterlimit:1.5;"><g><path d="M1112.66,753.425l0,981.32l-1110.16,0l0,-981.321l1110.16,0Zm-119.958,154.514l-780.924,0l-0,707.862l780.924,0l-0,-707.862Z" style="fill:#fee4ae;stroke:#fee4ae;stroke-width:5px;"/><path d="M992.702,1615.8l-780.924,0l-0,-707.862l780.924,0l-0,707.862Zm-763.557,-689.896l0,671.93l746.19,0l-0,-671.93l-746.19,0Z" style="fill:#fff;stroke:#e2e2e2;stroke-width:5px;"/><path d="M1112.66,759.246l0,975.5l-1110.16,-0.001" style="fill:none;stroke:#ceac8f;stroke-width:5px;"/></g><g id="Dach"><path d="M2.5,2.5l1148.25,712.198l-0.169,38.73l-1148.09,-0l0,-750.928Z" style="fill:#c85d51;fill-rule:nonzero;stroke:#b44b4b;stroke-width:5px;stroke-miterlimit:10;"/><path d="M1150.75,730.94l-232.915,-0.245l-5.864,-34.933l-5.864,34.933l-177.882,-0l-0,-53.502l-17.593,53.501l-171.04,0l-0,-15.385l-8.797,15.385l-10.751,-16.361l-5.864,16.361l-191.565,0l-12.706,-40.796l-9.774,40.797l-171.04,-0l-0,-37.865l-13.683,37.865l-112.913,-0" style="fill:none;fill-rule:nonzero;stroke:#b44b4b;stroke-width:5px;stroke-miterlimit:10;"/><path d="M968.392,605.189l-145.361,-0l-9.774,-44.304l-5.864,44.303l-146.606,0l-5.864,-26.711l-7.819,26.712l-209.158,-0l-7.819,-74.602l-9.774,74.601l-186.678,0l-8.797,-31.597l-8.796,31.597l-167.131,0l-12.706,-37.301l-10.751,37.302l-22.994,-0" style="fill:none;fill-rule:nonzero;stroke:#b44b4b;stroke-width:5px;stroke-miterlimit:10;"/><path d="M720.407,447.504l-60.404,-0l-8.134,-30.293l-7.23,30.293l-171.713,-0l-6.326,-23.452l-5.422,23.452l-160.869,-0l-6.325,-37.135l-6.327,37.135l-178.039,-0l-0,-48.862l-8.134,48.862l-98.985,-0" style="fill:none;fill-rule:nonzero;stroke:#b44b4b;stroke-width:4.82px;stroke-miterlimit:10;"/><path d="M493.112,306.227l-139.267,-0l-7.781,-19.984l-5.447,19.983l-160.294,0l-6.225,-46.373l-7.004,46.373l-136.95,0l-6.225,-23.187l-7.003,23.188l-14.416,-0" style="fill:none;fill-rule:nonzero;stroke:#b44b4b;stroke-width:4.52px;stroke-miterlimit:10;"/><path d="M257.388,161.191l-85.472,-0l-3.712,-30.35l-6.005,30.35l-96.629,-0l-5.46,-15.175l-3.822,15.175l-53.788,-0" style="fill:none;fill-rule:nonzero;stroke:#b44b4b;stroke-width:4.05px;stroke-miterlimit:10;"/><path d="M82.913,54.093l-56.442,0l-5.864,-30.667l-6.841,30.667l-11.266,0" style="fill:none;fill-rule:nonzero;stroke:#b44b4b;stroke-width:5px;stroke-miterlimit:10;"/></g></svg>