<?xml version="1.0" encoding="UTF-8" standalone="no"?><!DOCTYPE svg PUBLIC "-//W3C//DTD SVG 1.1//EN" "http://www.w3.org/Graphics/SVG/1.1/DTD/svg11.dtd"><svg width="100%" height="100%" viewBox="0 0 1199 801" version="1.1" xmlns="http://www.w3.org/2000/svg" xmlns:xlink="http://www.w3.org/1999/xlink" xml:space="preserve" xmlns:serif="http://www.serif.com/" style="fill-rule:evenodd;clip-rule:evenodd;stroke-linecap:round;stroke-linejoin:round;stroke-miterlimit:10;"><path d="M851.466,237.57l-20.746,-31.497l-24.744,-21.31c-1.997,7.646 -6.011,21.752 -11.745,35.866c-8.471,20.85 -20.851,16.941 -26.715,13.683c-5.864,-3.258 -31.276,-16.289 -41.701,-21.502c-10.426,-5.213 -14.335,-5.864 -18.245,1.303c-3.909,7.167 -28.669,73.629 -41.701,100.344c-13.032,26.715 -29.973,15.638 -38.443,9.122c-8.471,-6.516 -48.217,-43.004 -65.158,-61.249c-16.942,-18.244 -26.064,-13.031 -41.702,-2.908c-15.638,10.124 -21.502,4.863 -26.715,-2.956c-5.212,-7.819 -19.547,-38.443 -29.972,-52.778c-10.426,-14.335 -24.761,-8.471 -32.58,-3.988c-7.818,4.483 -54.081,36.567 -66.461,43.734c-12.38,7.168 -22.154,-2.606 -24.108,-13.683c-1.503,-8.513 -0.007,-48.77 0.766,-66.954l-338.496,246.348l155.288,195.917l908.027,192.86l129.291,-258.018l-344.14,-302.334Z" style="fill:#a3a2a2;fill-rule:nonzero;stroke:#969696;stroke-width:6px;"/><path d="M324.285,253.108c2.102,11.909 12.609,22.416 25.919,14.711c13.31,-7.706 63.046,-42.2 71.453,-47.019c8.406,-4.819 23.817,-11.124 35.025,4.287c11.209,15.412 26.62,48.336 32.224,56.742c5.604,8.406 11.909,14.062 28.721,3.178c16.813,-10.884 26.62,-16.488 44.833,3.127c18.214,19.614 60.945,58.843 70.052,65.848c9.106,7.005 27.32,18.914 41.33,-9.807c14.011,-28.721 40.63,-100.174 44.833,-107.879c4.203,-7.706 8.406,-7.006 19.615,-1.401c11.208,5.604 38.528,19.614 44.833,23.117c6.304,3.502 19.614,7.705 28.721,-14.711c6.164,-15.175 11.217,-31.881 13.364,-40.102l-227.629,-193.871l-192.034,148.51l-49.151,-3.182l-31.765,24.027c-0.83,19.549 -1.959,65.273 -0.344,74.425" style="fill:#969696;fill-rule:nonzero;"/><path d="M340.73,229.751c1.955,11.077 11.729,20.851 24.109,13.683c12.38,-7.167 58.642,-39.252 66.461,-43.734c7.819,-4.483 22.154,-10.347 32.579,3.988c10.425,14.334 24.76,44.959 29.973,52.778c5.212,7.819 11.077,13.08 26.715,2.956c15.638,-10.124 24.76,-15.336 41.701,2.908c16.941,18.244 56.688,54.733 65.158,61.249c8.471,6.516 25.412,17.593 38.444,-9.122c13.031,-26.715 37.791,-93.177 41.701,-100.344c3.909,-7.167 7.819,-6.516 18.244,-1.303c10.425,5.212 35.837,18.244 41.701,21.502c5.865,3.258 18.245,7.167 26.715,-13.683c5.733,-14.115 9.749,-28.22 11.746,-35.867l-211.044,-181.762l-178.621,138.136l-45.053,-0l-29.763,21.661c-0.774,18.184 -2.269,58.441 -0.767,66.954" style="fill:#fffffe;fill-rule:nonzero;"/><path d="M340.73,229.751c1.955,11.077 11.729,20.851 24.109,13.683c12.38,-7.167 58.642,-39.252 66.461,-43.734c7.819,-4.483 22.154,-10.347 32.579,3.988c10.425,14.334 24.76,44.959 29.973,52.778c5.212,7.819 11.077,13.08 26.715,2.956c15.638,-10.124 24.76,-15.336 41.701,2.908c16.941,18.244 56.688,54.733 65.158,61.249c8.471,6.516 25.412,17.593 38.444,-9.122c13.031,-26.715 37.791,-93.177 41.701,-100.344c3.909,-7.167 7.819,-6.516 18.244,-1.303c10.425,5.212 35.837,18.244 41.701,21.502c5.865,3.258 18.245,7.167 26.715,-13.683c5.733,-14.115 9.749,-28.22 11.746,-35.867l-211.044,-181.762l-178.621,138.136l-45.053,-0l-29.763,21.661c-0.774,18.184 -2.269,58.441 -0.767,66.954Z" style="fill:none;fill-rule:nonzero;stroke:#dee0e2;stroke-width:6px;"/><path d="M800.216,339.868c8.19,-10.01 34.534,26.715 69.719,44.959c35.186,18.244 43.656,18.896 59.946,43.656c16.289,24.76 7.167,42.353 35.837,87.964c28.67,45.61 51.475,59.945 54.081,82.099c2.607,22.154 -13.031,34.534 -50.172,-12.38c-37.14,-46.914 -61.248,-89.918 -67.764,-125.104c-6.516,-35.185 -40.398,-43.511 -67.765,-68.995c-27.366,-25.484 -45.61,-37.864 -33.882,-52.199" style="fill:#969696;fill-rule:nonzero;"/><path d="M382.971,191.982c-0,3.354 -2.719,6.074 -6.074,6.074c-3.354,0 -6.073,-2.72 -6.073,-6.074c-0,-3.354 2.719,-6.074 6.073,-6.074c3.355,0 6.074,2.72 6.074,6.074" style="fill:#dee0e2;fill-rule:nonzero;"/><path d="M400.19,161.358c0,3.251 -2.636,5.887 -5.887,5.887c-3.252,-0 -5.888,-2.636 -5.888,-5.887c0,-3.251 2.636,-5.887 5.888,-5.887c3.251,-0 5.887,2.636 5.887,5.887" style="fill:#dee0e2;fill-rule:nonzero;"/><path d="M519.058,218.511c0,3.509 -2.844,6.353 -6.353,6.353c-3.509,0 -6.353,-2.844 -6.353,-6.353c0,-3.509 2.844,-6.353 6.353,-6.353c3.509,0 6.353,2.844 6.353,6.353" style="fill:#dee0e2;fill-rule:nonzero;"/><path d="M648.071,278.783c0,2.969 -2.407,5.375 -5.376,5.375c-2.968,-0 -5.375,-2.406 -5.375,-5.375c0,-2.969 2.407,-5.375 5.375,-5.375c2.969,-0 5.376,2.406 5.376,5.375" style="fill:#dee0e2;fill-rule:nonzero;"/><path d="M756.234,182.022c-0,3.509 -2.844,6.353 -6.353,6.353c-3.508,0 -6.353,-2.844 -6.353,-6.353c-0,-3.509 2.845,-6.353 6.353,-6.353c3.509,0 6.353,2.844 6.353,6.353" style="fill:#dee0e2;fill-rule:nonzero;"/><path d="M620.705,218.511c-0,3.509 -2.844,6.353 -6.353,6.353c-3.509,0 -6.353,-2.844 -6.353,-6.353c-0,-3.509 2.844,-6.353 6.353,-6.353c3.509,0 6.353,2.844 6.353,6.353" style="fill:#dee0e2;fill-rule:nonzero;"/><path d="M532.253,136.656c-0,3.644 -2.954,6.597 -6.597,6.597c-3.644,0 -6.597,-2.953 -6.597,-6.597c-0,-3.644 2.952,-6.597 6.596,-6.597c3.644,0 6.597,2.953 6.597,6.597" style="fill:#dee0e2;fill-rule:nonzero;"/><path d="M676.961,142.793c0,3.389 -2.748,6.137 -6.137,6.137c-3.39,0 -6.138,-2.748 -6.138,-6.137c0,-3.39 2.748,-6.137 6.138,-6.137c3.389,0 6.137,2.747 6.137,6.137" style="fill:#dee0e2;fill-rule:nonzero;"/></svg>