<?xml version="1.0" encoding="UTF-8" standalone="no"?><!DOCTYPE svg PUBLIC "-//W3C//DTD SVG 1.1//EN" "http://www.w3.org/Graphics/SVG/1.1/DTD/svg11.dtd"><svg width="100%" height="100%" viewBox="0 0 1989 912" version="1.1" xmlns="http://www.w3.org/2000/svg" xmlns:xlink="http://www.w3.org/1999/xlink" xml:space="preserve" xmlns:serif="http://www.serif.com/" style="fill-rule:evenodd;clip-rule:evenodd;stroke-linecap:round;stroke-linejoin:round;stroke-miterlimit:10;"><path d="M1641.79,237.57l-20.746,-31.497l-24.744,-21.31c-1.997,7.646 -6.011,21.752 -11.745,35.866c-8.471,20.85 -20.851,16.941 -26.715,13.683c-5.864,-3.258 -31.276,-16.289 -41.701,-21.502c-10.426,-5.213 -14.335,-5.864 -18.245,1.303c-3.909,7.167 -28.669,73.629 -41.701,100.344c-13.032,26.715 -29.973,15.638 -38.443,9.122c-8.471,-6.516 -48.217,-43.004 -65.158,-61.249c-16.942,-18.244 -26.064,-13.031 -41.702,-2.908c-15.638,10.124 -21.502,4.863 -26.715,-2.956c-5.212,-7.819 -19.547,-38.443 -29.972,-52.778c-10.426,-14.335 -24.761,-8.471 -32.58,-3.988c-7.818,4.483 -54.081,36.567 -66.461,43.734c-12.38,7.168 -22.154,-2.606 -24.108,-13.683c-1.503,-8.513 -0.007,-48.77 0.766,-66.954l-338.496,246.348l155.288,195.917l908.027,192.86l129.291,-258.018l-344.14,-302.334Z" style="fill:#a3a2a2;fill-rule:nonzero;stroke:#969696;stroke-width:6px;"/><path d="M1446.12,451.94l-8.796,-25.412l-119.24,-114.352l-111.421,67.439l-40.072,-32.254l-252.162,143.674l-224.796,-177.882l-3.91,-29.321l-35.275,-29.051c-19.505,28.036 -63.078,16.044 -86.265,16.671c-24.109,0.651 -25.412,24.76 -36.489,41.618c-11.077,16.857 -22.805,7.902 -26.715,0c-3.909,-7.903 -22.153,-68.333 -31.275,-70.288c-9.123,-1.955 -24.109,13.683 -36.489,24.109c-12.38,10.425 -5.864,33.882 -5.864,33.882c-34.534,3.258 -66.462,-29.146 -66.462,-29.146c-7.819,12.206 -29.321,63.68 -29.321,63.68c0,0 -14.335,48.217 -18.244,48.217c-3.91,0 -6.516,-2.606 -13.032,-17.593c-6.516,-14.986 -37.792,-91.221 -52.126,-93.828c-9.267,-1.684 -26.751,2.892 -37.962,6.339c-34.858,34.927 -62.006,61.587 -68.878,66.964c-22.479,17.593 -18.57,26.389 -29.321,40.073c-10.751,13.683 -109.003,110.443 -109.003,110.443l-0,412.452l380.713,0l714.46,-138.788l521.918,43.982l82.099,-193.52l-256.072,-168.108Z" style="fill:#a3a2a2;fill-rule:nonzero;stroke:#969696;stroke-width:6px;"/><path d="M1114.61,253.108c2.102,11.909 12.609,22.416 25.919,14.711c13.31,-7.706 63.046,-42.2 71.453,-47.019c8.406,-4.819 23.817,-11.124 35.025,4.287c11.209,15.412 26.62,48.336 32.224,56.742c5.604,8.406 11.909,14.062 28.721,3.178c16.813,-10.884 26.62,-16.488 44.833,3.127c18.214,19.614 60.945,58.843 70.052,65.848c9.106,7.005 27.32,18.914 41.33,-9.807c14.011,-28.721 40.63,-100.174 44.833,-107.879c4.203,-7.706 8.406,-7.006 19.615,-1.401c11.208,5.604 38.528,19.614 44.833,23.117c6.304,3.502 19.614,7.705 28.721,-14.711c6.164,-15.175 11.217,-31.881 13.364,-40.102l-227.629,-193.871l-192.034,148.51l-49.151,-3.182l-31.765,24.027c-0.83,19.549 -1.959,65.273 -0.344,74.425" style="fill:#969696;fill-rule:nonzero;"/><path d="M237.276,297.19c18.57,11.077 42.146,67.641 49.846,83.728c7.7,16.088 25.255,20.982 29.647,19.548c15.964,-5.213 14.335,-18.57 20.851,-35.511c6.516,-16.942 18.452,-55.966 27.692,-69.068c-0,-0 32.493,19.787 73.303,16.289c-0,-0 -10.069,-27.252 4.561,-38.443c14.63,-11.191 16.586,-12.523 27.366,-10.425c10.78,2.098 16.209,51.207 19.548,60.271c6.842,18.57 33.498,28.847 46.588,10.751c13.09,-18.096 20.053,-40.024 48.543,-40.724c27.401,-0.672 60.353,9.897 83.403,-20.199l-250.647,-185.001c-13.633,13.113 -131.053,117.673 -225.858,212.152c13.248,-3.701 35.625,-9.054 45.157,-3.368" style="fill:#969696;fill-rule:nonzero;"/><path d="M248.164,272.104c14.334,2.606 45.61,78.842 52.126,93.828c6.515,14.986 9.123,17.593 13.031,17.593c3.91,-0 18.245,-48.217 18.245,-48.217c0,-0 21.502,-51.474 29.321,-63.68c0,-0 31.927,32.403 66.461,29.146c0,-0 -6.516,-23.457 5.864,-33.883c12.38,-10.425 27.367,-26.063 36.489,-24.108c9.122,1.955 27.367,62.385 31.276,70.287c3.91,7.903 15.638,16.858 26.715,-0c11.077,-16.857 12.38,-40.966 36.489,-41.618c23.187,-0.626 66.759,11.366 86.265,-16.67l-230.571,-189.881c-11.536,12.215 -130.496,134.21 -209.673,213.542c11.212,-3.447 28.695,-8.024 37.962,-6.339" style="fill:#fffffe;fill-rule:nonzero;"/><path d="M248.164,272.104c14.334,2.606 45.61,78.842 52.126,93.828c6.515,14.986 9.123,17.593 13.031,17.593c3.91,-0 18.245,-48.217 18.245,-48.217c0,-0 21.502,-51.474 29.321,-63.68c0,-0 31.927,32.403 66.461,29.146c0,-0 -6.516,-23.457 5.864,-33.883c12.38,-10.425 27.367,-26.063 36.489,-24.108c9.122,1.955 27.367,62.385 31.276,70.287c3.91,7.903 15.638,16.858 26.715,-0c11.077,-16.857 12.38,-40.966 36.489,-41.618c23.187,-0.626 66.759,11.366 86.265,-16.67l-230.571,-189.881c-11.536,12.215 -130.496,134.21 -209.673,213.542c11.212,-3.447 28.695,-8.024 37.962,-6.339Z" style="fill:none;fill-rule:nonzero;stroke:#dee0e2;stroke-width:6px;"/><path d="M1131.06,229.751c1.955,11.077 11.729,20.851 24.109,13.683c12.38,-7.167 58.642,-39.252 66.461,-43.734c7.819,-4.483 22.154,-10.347 32.579,3.988c10.425,14.334 24.76,44.959 29.973,52.778c5.212,7.819 11.077,13.08 26.715,2.956c15.638,-10.124 24.76,-15.336 41.701,2.908c16.941,18.244 56.688,54.733 65.158,61.249c8.471,6.516 25.412,17.593 38.444,-9.122c13.031,-26.715 37.791,-93.177 41.701,-100.344c3.909,-7.167 7.819,-6.516 18.244,-1.303c10.425,5.212 35.837,18.244 41.701,21.502c5.865,3.258 18.245,7.167 26.715,-13.683c5.734,-14.115 9.749,-28.22 11.746,-35.867l-211.043,-181.762l-178.621,138.136l-45.053,-0l-29.764,21.661c-0.773,18.184 -2.268,58.441 -0.766,66.954" style="fill:#fffffe;fill-rule:nonzero;"/><path d="M1131.06,229.751c1.955,11.077 11.729,20.851 24.109,13.683c12.38,-7.167 58.642,-39.252 66.461,-43.734c7.819,-4.483 22.154,-10.347 32.579,3.988c10.425,14.334 24.76,44.959 29.973,52.778c5.212,7.819 11.077,13.08 26.715,2.956c15.638,-10.124 24.76,-15.336 41.701,2.908c16.941,18.244 56.688,54.733 65.158,61.249c8.471,6.516 25.412,17.593 38.444,-9.122c13.031,-26.715 37.791,-93.177 41.701,-100.344c3.909,-7.167 7.819,-6.516 18.244,-1.303c10.425,5.212 35.837,18.244 41.701,21.502c5.865,3.258 18.245,7.167 26.715,-13.683c5.734,-14.115 9.749,-28.22 11.746,-35.867l-211.043,-181.762l-178.621,138.136l-45.053,-0l-29.764,21.661c-0.773,18.184 -2.268,58.441 -0.766,66.954Z" style="fill:none;fill-rule:nonzero;stroke:#dee0e2;stroke-width:6px;"/><path d="M15.669,590.728c0,-0 74.28,-84.054 105.556,-112.072c31.276,-28.018 89.919,-84.706 99.041,-95.131c9.122,-10.425 41.05,-22.806 18.244,13.683c-22.805,36.489 -129.665,186.353 -168.108,219.583c-38.443,33.231 -54.733,-26.063 -54.733,-26.063" style="fill:#969696;fill-rule:nonzero;"/><path d="M668.623,273.407l17.098,10.425l3.91,29.322l224.795,177.881l252.163,-143.673l18.793,15.126c0,-0 -142.555,77.724 -183.411,101.181c-40.856,23.457 -88.639,46.983 -98.847,46.914c-10.3,-0.069 -24.977,-11.077 -43.873,-13.249c-33.324,-3.83 -148.344,-137.267 -165.936,-157.466c-17.593,-20.199 -39.454,-52.954 -39.454,-52.954c0,0 5.708,-6.991 14.762,-13.507" style="fill:#969696;fill-rule:nonzero;"/><path d="M965.025,569.877c34.255,-18.763 97.737,-55.385 110.769,-70.371c13.032,-14.986 22.805,-20.85 16.941,-30.624c-5.864,-9.774 -26.715,-8.471 -43.656,-0c-16.941,8.47 -96.434,62.552 -120.543,80.144c-24.108,17.593 -29.972,31.276 -43.004,33.883c-13.032,2.606 -65.81,-36.489 -83.403,-45.611c-17.592,-9.122 -43.656,-15.638 -58.642,-31.276c-14.986,-15.638 -15.638,-15.638 -22.154,-11.077c-6.516,4.561 -3.909,18.686 12.38,27.587c16.29,8.902 79.493,53.209 99.692,72.105c20.199,18.896 29.973,29.321 49.521,25.412c19.547,-3.91 12.38,-11.077 29.972,-20.199c17.593,-9.122 28.527,-17.046 52.127,-29.973" style="fill:#969696;fill-rule:nonzero;"/><path d="M1364.66,402.42c-7.193,10.785 20.18,11.077 24.967,28.67c4.787,17.592 -2.381,27.366 4.787,39.746c7.167,12.38 74.932,65.81 117.284,91.222c42.353,25.412 45.611,34.534 66.462,42.353c20.85,7.819 32.39,13.683 37.371,7.167c4.982,-6.516 -23.036,-33.882 -54.964,-50.172c-31.928,-16.289 -83.402,-61.75 -112.724,-81.047c-29.321,-19.296 -35.837,-18.645 -39.095,-40.799c-3.258,-22.153 -16.941,-32.579 -25.411,-37.14c-8.471,-4.561 -13.897,-7.167 -18.677,0" style="fill:#969696;fill-rule:nonzero;"/><path d="M1211.81,376.502c-0,-0 -5.043,16.797 7.989,15.493c13.031,-1.303 46.262,-25.132 65.809,-29.507c19.548,-4.375 38.634,-20.946 48.638,-34.815l-16.159,-15.497l-106.277,64.326Z" style="fill:#969696;fill-rule:nonzero;"/><path d="M1590.54,339.868c8.19,-10.01 34.534,26.715 69.719,44.959c35.186,18.244 43.656,18.896 59.946,43.656c16.289,24.76 7.167,42.353 35.837,87.964c28.67,45.61 51.475,59.945 54.081,82.099c2.607,22.154 -13.031,34.534 -50.172,-12.38c-37.14,-46.914 -61.248,-89.918 -67.764,-125.104c-6.516,-35.185 -40.398,-43.511 -67.765,-68.995c-27.366,-25.484 -45.61,-37.864 -33.882,-52.199" style="fill:#969696;fill-rule:nonzero;"/><path d="M312.139,292.954c0,2.879 -2.334,5.213 -5.213,5.213c-2.879,0 -5.212,-2.334 -5.212,-5.213c0,-2.879 2.333,-5.213 5.212,-5.213c2.879,0 5.213,2.334 5.213,5.213" style="fill:#dee0e2;fill-rule:nonzero;"/><path d="M396.603,248.359c-0,3.172 -2.571,5.743 -5.743,5.743c-3.172,-0 -5.743,-2.571 -5.743,-5.743c-0,-3.172 2.571,-5.743 5.743,-5.743c3.172,-0 5.743,2.571 5.743,5.743" style="fill:#dee0e2;fill-rule:nonzero;"/><path d="M499.469,227.959c0,4.049 -3.282,7.33 -7.33,7.33c-4.049,0 -7.331,-3.281 -7.331,-7.33c0,-4.048 3.282,-7.33 7.331,-7.33c4.048,0 7.33,3.282 7.33,7.33" style="fill:#dee0e2;fill-rule:nonzero;"/><path d="M599.253,250.301c-0,3.174 -2.573,5.747 -5.747,5.747c-3.174,0 -5.747,-2.573 -5.747,-5.747c-0,-3.174 2.573,-5.747 5.747,-5.747c3.174,0 5.747,2.573 5.747,5.747" style="fill:#dee0e2;fill-rule:nonzero;"/><path d="M305.293,235.287c0,4.047 -3.281,7.328 -7.328,7.328c-4.047,0 -7.328,-3.281 -7.328,-7.328c0,-4.047 3.281,-7.328 7.328,-7.328c4.047,0 7.328,3.281 7.328,7.328" style="fill:#dee0e2;fill-rule:nonzero;"/><path d="M1173.3,191.982c-0,3.354 -2.719,6.074 -6.074,6.074c-3.354,0 -6.073,-2.72 -6.073,-6.074c-0,-3.354 2.719,-6.074 6.073,-6.074c3.355,0 6.074,2.72 6.074,6.074" style="fill:#dee0e2;fill-rule:nonzero;"/><path d="M1190.52,161.358c0,3.251 -2.636,5.887 -5.887,5.887c-3.252,-0 -5.888,-2.636 -5.888,-5.887c0,-3.251 2.636,-5.887 5.888,-5.887c3.251,-0 5.887,2.636 5.887,5.887" style="fill:#dee0e2;fill-rule:nonzero;"/><path d="M1309.39,218.511c0,3.509 -2.844,6.353 -6.353,6.353c-3.509,0 -6.353,-2.844 -6.353,-6.353c0,-3.509 2.844,-6.353 6.353,-6.353c3.509,0 6.353,2.844 6.353,6.353" style="fill:#dee0e2;fill-rule:nonzero;"/><path d="M1438.4,278.783c0,2.969 -2.407,5.375 -5.376,5.375c-2.968,-0 -5.375,-2.406 -5.375,-5.375c0,-2.969 2.407,-5.375 5.375,-5.375c2.969,-0 5.376,2.406 5.376,5.375" style="fill:#dee0e2;fill-rule:nonzero;"/><path d="M1546.56,182.022c-0,3.509 -2.844,6.353 -6.353,6.353c-3.508,0 -6.353,-2.844 -6.353,-6.353c-0,-3.509 2.845,-6.353 6.353,-6.353c3.509,0 6.353,2.844 6.353,6.353" style="fill:#dee0e2;fill-rule:nonzero;"/><path d="M1411.03,218.511c-0,3.509 -2.844,6.353 -6.353,6.353c-3.509,0 -6.353,-2.844 -6.353,-6.353c-0,-3.509 2.844,-6.353 6.353,-6.353c3.509,0 6.353,2.844 6.353,6.353" style="fill:#dee0e2;fill-rule:nonzero;"/><path d="M1322.58,136.656c-0,3.644 -2.954,6.597 -6.597,6.597c-3.644,0 -6.597,-2.953 -6.597,-6.597c-0,-3.644 2.953,-6.597 6.597,-6.597c3.643,0 6.597,2.953 6.597,6.597" style="fill:#dee0e2;fill-rule:nonzero;"/><path d="M1467.29,142.793c0,3.389 -2.748,6.137 -6.137,6.137c-3.39,0 -6.138,-2.748 -6.138,-6.137c0,-3.39 2.748,-6.137 6.138,-6.137c3.389,0 6.137,2.747 6.137,6.137" style="fill:#dee0e2;fill-rule:nonzero;"/></svg>