<?xml version="1.0" encoding="UTF-8" standalone="no"?><!DOCTYPE svg PUBLIC "-//W3C//DTD SVG 1.1//EN" "http://www.w3.org/Graphics/SVG/1.1/DTD/svg11.dtd"><svg width="100%" height="100%" viewBox="0 0 265 145" version="1.1" xmlns="http://www.w3.org/2000/svg" xmlns:xlink="http://www.w3.org/1999/xlink" xml:space="preserve" xmlns:serif="http://www.serif.com/" style="fill-rule:evenodd;clip-rule:evenodd;stroke-linecap:round;stroke-linejoin:round;stroke-miterlimit:10;"><path d="M126.288,140.698c39.094,0.327 100.344,2.606 121.846,-3.258c21.502,-5.864 14.335,-44.959 -8.471,-28.669c0,-0 17.593,-33.231 -3.909,-41.05c-21.502,-7.819 -48.869,8.396 -52.778,36.777c0,-0 24.108,-96.723 -51.475,-101.284c-75.584,-4.561 -78.19,65.158 -71.674,92.525c0,-0 -19.548,-31.928 -45.611,-13.032c-26.063,18.896 -0.208,44.308 12.276,49.521c12.484,5.212 76.35,8.274 99.796,8.47" style="fill:#fffffe;fill-rule:nonzero;"/><path d="M126.288,140.698c39.094,0.327 100.344,2.606 121.846,-3.258c21.502,-5.864 14.335,-44.959 -8.471,-28.669c0,-0 17.593,-33.231 -3.909,-41.05c-21.502,-7.819 -48.869,8.396 -52.778,36.777c0,-0 24.108,-96.723 -51.475,-101.284c-75.584,-4.561 -78.19,65.158 -71.674,92.525c0,-0 -19.548,-31.928 -45.611,-13.032c-26.063,18.896 -0.208,44.308 12.276,49.521c12.484,5.212 76.35,8.274 99.796,8.47Z" style="fill:none;fill-rule:nonzero;stroke:#eef2f7;stroke-width:6px;"/></svg>