<svg width="100%" height="100%" viewBox="0 0 490 265" version="1.1" style="fill-rule:evenodd;clip-rule:evenodd;stroke-linecap:round;stroke-linejoin:round;stroke-miterlimit:10;"><path d="M287.268,259.053c-72.975,0.88 -183.095,4.561 -215.022,0c-31.928,-4.561 -87.764,-46.223 -63.157,-79.257c31.71,-42.57 69.936,4.344 69.936,4.344c-0,0 -25.194,-64.29 37.792,-81.231c45.972,-12.365 71.24,55.167 71.24,55.167c-0,0 -45.241,-154.973 86.443,-155.076c105.991,-0.083 97.474,120.524 75.32,155.058c-0,0 12.38,-67.113 74.932,-50.172c62.552,16.941 81.448,103.602 37.792,130.968c-43.656,27.366 -154.438,19.948 -175.276,20.199" style="fill:#fffffe;fill-rule:nonzero;"/><path d="M287.268,259.053c-72.975,0.88 -183.095,4.561 -215.022,0c-31.928,-4.561 -87.764,-46.223 -63.157,-79.257c31.71,-42.57 69.936,4.344 69.936,4.344c-0,0 -25.194,-64.29 37.792,-81.231c45.972,-12.365 71.24,55.167 71.24,55.167c-0,0 -45.241,-154.973 86.443,-155.076c105.991,-0.083 97.474,120.524 75.32,155.058c-0,0 12.38,-67.113 74.932,-50.172c62.552,16.941 81.448,103.602 37.792,130.968c-43.656,27.366 -154.438,19.948 -175.276,20.199Z" style="fill:none;fill-rule:nonzero;stroke:#eef2f7;stroke-width:6px;"/></svg>