
<svg width="100%" height="100%" viewBox="0 0 2051 3000" version="1.1" xmlns="http://www.w3.org/2000/svg" xmlns:xlink="http://www.w3.org/1999/xlink" xml:space="preserve" xmlns:serif="http://www.serif.com/" style="fill-rule:evenodd;clip-rule:evenodd;stroke-linecap:round;stroke-linejoin:round;stroke-miterlimit:10;"><path d="M1458.47,245.577l25.195,-22.588l16.941,12.597l63.855,-60.38l16.507,22.588l23.022,-21.719l18.244,17.375l37.792,-35.185l16.641,26.211l31.279,-35.218l19.366,23.216l30.15,-31.787l16.614,31.215l29.244,-42.918l10.782,28.502l19.7,-12.838l9.85,13.088l25.707,-41.907l17.513,34.797l17.15,-30.959l10.9,13.457l15.418,-28.181l5.573,17.825l23.513,-25.055l11.656,21.732l20.654,-32.349l15.265,23.019l28.753,-37.851l20.496,26.495l2.65,356.604l-455.779,-148.537l-144.651,-61.249Z" style="fill:#377b4b;fill-rule:nonzero;stroke:#224e2f;stroke-width:6px;"/><path d="M382.61,186.659c0,0 73.074,-33.173 198.178,-24.376c125.104,8.796 280.624,64.75 429.897,54.669l-10.278,27.43l-230.008,51.149l-209.484,-23.782l-164.199,-21.177l-14.106,-63.913Z" style="fill:#377b4b;fill-rule:nonzero;stroke:#224e2f;stroke-width:6px;"/><path d="M1159.96,206.87c-255.145,0.464 -335.069,73.354 -672.613,126.197c-225.745,35.341 -378.909,41.216 -447.09,41.73c-26.593,0.201 -40.257,-8.071 -40.257,-8.071l0,1138.46c0,0 71.975,-59.229 89.997,-75.247c91.252,-81.109 364.539,-147.218 597.261,-147.218c203.33,0 279.477,53.378 600.334,163.431c471.622,161.766 737.535,141.027 737.535,141.027l30.044,-1138.47c0,-0 -520.902,-242.513 -895.211,-241.833" style="fill:#93b235;fill-rule:nonzero;"/><path d="M2055.17,450.161c0,0 -520.91,-243.97 -895.218,-243.291c-255.146,0.464 -335.228,72.353 -672.614,126.197c-333.288,53.191 -490.057,39.496 -490.057,39.496" style="fill:none;fill-rule:nonzero;stroke:#507d30;stroke-width:4px;stroke-linecap:butt;stroke-linejoin:miter;"/><path d="M1358.04,337.232c-255.145,0.464 -401.375,141.565 -860.089,184.316c-336.05,31.319 -497.951,1.075 -497.951,1.075l0,1117.56c0,-0 71.974,-48.436 89.996,-64.455c91.252,-81.109 364.539,-147.218 597.261,-147.218c203.33,0 279.477,53.379 600.334,163.432c471.622,161.765 763.409,137.526 763.409,137.526l0,-1137.01c0,-0 -318.651,-255.897 -692.96,-255.217" style="fill:#6e9d33;fill-rule:nonzero;"/><path d="M1287.59,1446.15c-320.857,-110.053 -397.003,-163.431 -600.334,-163.431c-232.722,0 -506.009,66.108 -597.261,147.217c-18.022,16.019 -89.995,96.31 -89.995,96.31l0,1473.75c0,0 1763.59,-1.728 2051,0l0,-1411.96c0,-0 -291.789,19.871 -763.411,-141.894" style="fill:#93b235;fill-rule:nonzero;"/><path d="M2051,1588.04c0,-0 -291.794,19.875 -763.416,-141.891c-320.857,-110.052 -397.003,-163.431 -600.334,-163.431c-232.722,0 -506.009,66.109 -597.261,147.218c-18.022,16.018 -97.307,104.998 -97.307,104.998" style="fill:none;fill-rule:nonzero;stroke:#507d30;stroke-width:5px;stroke-linecap:butt;stroke-linejoin:miter;"/><path d="M1800.94,2133.7c0.003,1.173 -0.034,2.344 -0.121,3.514c-0.047,0.628 -0.107,1.255 -0.18,1.881c-0.009,0.072 -0.136,0.956 -0.032,0.271c-0.047,0.31 -0.092,0.621 -0.142,0.931c-0.381,2.321 -0.954,4.606 -1.708,6.834c-0.503,1.488 0.578,3.345 2.096,3.691c1.661,0.378 3.151,-0.502 3.69,-2.096c1.629,-4.817 2.409,-9.944 2.397,-15.026c-0.004,-1.569 -1.377,-3.073 -3,-3c-1.622,0.073 -3.004,1.318 -3,3" style="fill:#6e9d33;fill-rule:nonzero;"/><path d="M1792.73,2161.09c-3.027,-5.458 -4.701,-11.828 -4.995,-18.043c-0.074,-1.565 -1.327,-3.075 -3,-3c-1.562,0.07 -3.079,1.321 -3,3c0.348,7.36 2.232,14.613 5.814,21.071c0.786,1.416 2.729,1.881 4.105,1.077c1.427,-0.836 1.865,-2.683 1.076,-4.105" style="fill:#6e9d33;fill-rule:nonzero;"/><path d="M1766.4,2124.35c0.065,6.278 -0.964,12.144 -3.326,18.116c-0.579,1.462 0.632,3.357 2.095,3.69c1.728,0.394 3.07,-0.529 3.69,-2.095c2.469,-6.24 3.61,-13.009 3.541,-19.711c-0.016,-1.569 -1.368,-3.073 -3,-3c-1.611,0.072 -3.017,1.319 -3,3" style="fill:#6e9d33;fill-rule:nonzero;"/><path d="M1751.5,2172.06c-0.35,-0.379 -0.693,-0.764 -1.024,-1.161c-0.083,-0.1 -0.165,-0.201 -0.247,-0.302c-0.199,-0.251 -0.164,-0.203 0.107,0.144c-0.134,-0.078 -0.256,-0.343 -0.351,-0.476c-0.608,-0.852 -1.11,-1.751 -1.558,-2.696c-0.092,-0.209 -0.056,-0.125 0.107,0.251c-0.05,-0.126 -0.098,-0.252 -0.144,-0.38c-0.092,-0.257 -0.176,-0.517 -0.252,-0.779c-0.076,-0.265 -0.144,-0.532 -0.202,-0.802c-0.029,-0.135 -0.056,-0.271 -0.081,-0.407c-0.042,-0.269 -0.046,-0.273 -0.011,-0.012c0.032,0.262 0.033,0.257 0.001,-0.013c-0.015,-0.138 -0.027,-0.276 -0.037,-0.415c-0.018,-0.276 -0.027,-0.553 -0.023,-0.83c0.003,-0.277 0.027,-0.551 0.044,-0.828c0.037,-0.335 0.029,-0.274 -0.026,0.183c0.022,-0.136 0.048,-0.271 0.077,-0.405c0.313,-1.534 -0.442,-3.314 -2.095,-3.691c-1.496,-0.34 -3.355,0.451 -3.69,2.096c-0.582,2.853 -0.25,5.746 0.88,8.423c1.008,2.389 2.53,4.442 4.282,6.343c1.067,1.157 3.177,1.16 4.243,0c1.136,-1.238 1.137,-3.009 0,-4.243" style="fill:#6e9d33;fill-rule:nonzero;"/><path d="M1764.41,2181.78c0.342,1.197 0.641,2.406 0.888,3.627c0.134,0.662 0.253,1.326 0.358,1.993c0.045,0.287 0.088,0.574 0.127,0.861c-0.082,-0.603 0.042,0.383 0.055,0.501c0.284,2.562 0.353,5.142 0.228,7.717c-0.075,1.569 1.435,3.07 3,3c1.691,-0.076 2.919,-1.319 3,-3c0.265,-5.473 -0.364,-11.024 -1.87,-16.294c-0.431,-1.508 -2.139,-2.598 -3.691,-2.095c-1.534,0.496 -2.557,2.074 -2.095,3.69" style="fill:#6e9d33;fill-rule:nonzero;"/><path d="M1724.21,2186.07c-2.802,1.49 -4.533,4.38 -5.542,7.292c-1.085,3.131 -1.25,6.558 -1.346,9.843c-0.046,1.57 1.413,3.071 3,3c1.665,-0.075 2.95,-1.318 3,-3c0.043,-1.464 0.102,-2.928 0.262,-4.385c0.019,-0.181 0.041,-0.361 0.064,-0.542c-0.047,0.348 -0.045,0.344 0.007,-0.011c0.048,-0.266 0.089,-0.534 0.14,-0.8c0.134,-0.695 0.3,-1.384 0.51,-2.059c0.095,-0.302 0.207,-0.597 0.311,-0.896c0.125,-0.314 0.114,-0.293 -0.034,0.063c0.063,-0.142 0.128,-0.284 0.196,-0.424c0.233,-0.48 0.494,-0.947 0.791,-1.392c0.082,-0.123 0.167,-0.245 0.255,-0.365c-0.248,0.313 -0.269,0.343 -0.063,0.09c0.195,-0.211 0.379,-0.426 0.587,-0.624c0.101,-0.097 0.205,-0.191 0.311,-0.281c-0.339,0.25 -0.378,0.28 -0.116,0.09c0.23,-0.145 0.454,-0.29 0.695,-0.418c1.388,-0.738 1.93,-2.781 1.077,-4.105c-0.91,-1.41 -2.621,-1.865 -4.105,-1.076" style="fill:#6e9d33;fill-rule:nonzero;"/><path d="M1647.07,2198.05c1.613,2.499 3.079,5.088 4.39,7.757c1.427,2.905 2.255,4.905 3.345,7.974c0.524,1.475 2.071,2.619 3.691,2.095c1.455,-0.471 2.657,-2.107 2.095,-3.691c-2.135,-6.009 -4.88,-11.802 -8.34,-17.163c-0.85,-1.317 -2.701,-1.981 -4.105,-1.077c-1.316,0.849 -1.986,2.695 -1.076,4.105" style="fill:#6e9d33;fill-rule:nonzero;"/><path d="M1690.16,2168.94c-3.905,5.19 -4.373,12.255 -4.831,18.494c-0.115,1.569 1.462,3.069 3,3c1.724,-0.077 2.877,-1.32 3,-3c0.109,-1.485 0.225,-2.97 0.389,-4.45c0.041,-0.371 0.085,-0.742 0.132,-1.113c-0.084,0.664 0.071,-0.471 0.089,-0.584c0.113,-0.727 0.244,-1.451 0.398,-2.171c0.299,-1.397 0.699,-2.759 1.21,-4.093c0.131,-0.321 0.13,-0.321 0,0.001c0.07,-0.157 0.142,-0.312 0.216,-0.467c0.148,-0.306 0.305,-0.608 0.471,-0.905c0.33,-0.587 0.702,-1.146 1.107,-1.684c0.947,-1.259 0.243,-3.407 -1.076,-4.104c-1.578,-0.834 -3.094,-0.268 -4.105,1.076" style="fill:#6e9d33;fill-rule:nonzero;"/><path d="M1714.82,2139.69c-2.069,4.273 -2.938,9.124 -2.332,13.845c0.107,0.827 0.265,1.508 0.879,2.122c0.52,0.52 1.374,0.912 2.121,0.878c1.454,-0.065 3.214,-1.332 3,-3c-0.129,-1.006 -0.197,-2.016 -0.191,-3.031c0.003,-0.507 0.023,-1.014 0.06,-1.52c0.021,-0.289 0.054,-0.576 0.08,-0.864c0.057,-0.633 -0.102,0.632 0.023,-0.168c0.154,-0.989 0.374,-1.968 0.662,-2.926c0.142,-0.473 0.301,-0.94 0.476,-1.401c0.037,-0.098 0.075,-0.195 0.115,-0.293c0.124,-0.305 0.104,-0.259 -0.061,0.139c0.039,-0.242 0.242,-0.533 0.349,-0.753c0.683,-1.41 0.432,-3.307 -1.076,-4.104c-1.345,-0.711 -3.375,-0.432 -4.105,1.076" style="fill:#6e9d33;fill-rule:nonzero;"/><path d="M1687.77,2120.05c-1.357,4.826 -1.544,9.824 -0.794,14.764c0.105,0.693 0.802,1.455 1.378,1.793c0.643,0.376 1.591,0.535 2.312,0.302c1.697,-0.549 2.349,-2.022 2.095,-3.69c-0.024,-0.159 -0.048,-0.319 -0.07,-0.478c0.048,0.358 0.057,0.424 0.03,0.198c-0.026,-0.282 -0.064,-0.562 -0.089,-0.843c-0.044,-0.484 -0.077,-0.968 -0.098,-1.453c-0.048,-1.092 -0.039,-2.186 0.027,-3.278c0.031,-0.524 0.076,-1.048 0.134,-1.57c0.013,-0.116 0.077,-0.937 0.014,-0.162c0.023,-0.278 0.084,-0.56 0.131,-0.835c0.182,-1.063 0.424,-2.114 0.716,-3.153c0.424,-1.51 -0.522,-3.332 -2.096,-3.69c-1.592,-0.363 -3.235,0.478 -3.69,2.095" style="fill:#6e9d33;fill-rule:nonzero;"/><path d="M1670.7,2134.04c0.055,0.018 0.226,0.11 0.277,0.097c-0.071,0.018 -0.662,-0.328 -0.314,-0.115c0.043,0.026 0.509,0.321 0.508,0.322c-0.028,0.027 -0.567,-0.486 -0.248,-0.178c0.075,0.073 0.154,0.142 0.229,0.215c0.15,0.15 0.275,0.336 0.431,0.478c-0.074,-0.067 -0.394,-0.548 -0.171,-0.212c0.062,0.093 0.127,0.184 0.188,0.278c0.123,0.192 0.238,0.389 0.345,0.59c0.109,0.202 0.188,0.428 0.305,0.625c-0.059,-0.1 -0.235,-0.613 -0.102,-0.23c0.048,0.139 0.102,0.275 0.148,0.415c0.167,0.498 0.3,1.007 0.41,1.521c0.055,0.261 0.104,0.523 0.148,0.787c0.022,0.132 0.04,0.265 0.062,0.397c0.069,0.408 -0.068,-0.61 -0.027,-0.198c0.111,1.113 0.2,2.224 0.264,3.341c0.089,1.564 1.315,3.076 3,3c1.548,-0.069 3.096,-1.322 3,-3c-0.152,-2.645 -0.273,-5.447 -1.251,-7.94c-1.051,-2.678 -2.768,-5.05 -5.607,-5.979c-1.492,-0.488 -3.342,0.567 -3.69,2.096c-0.376,1.648 0.497,3.167 2.095,3.69" style="fill:#6e9d33;fill-rule:nonzero;"/><path d="M1642.71,2125.98c0.081,0.096 0.16,0.193 0.239,0.292c-0.274,-0.359 -0.316,-0.411 -0.125,-0.154c0.146,0.21 0.296,0.417 0.436,0.631c0.283,0.436 0.544,0.887 0.783,1.349c0.121,0.234 0.237,0.472 0.347,0.712c0.055,0.121 0.109,0.243 0.162,0.365c-0.172,-0.41 -0.197,-0.463 -0.075,-0.16c0.172,0.478 0.347,0.951 0.492,1.439c0.145,0.492 0.271,0.989 0.375,1.492c0.057,0.269 0.107,0.54 0.152,0.812c0.022,0.136 0.043,0.273 0.062,0.41c-0.06,-0.455 -0.07,-0.515 -0.03,-0.18c0.093,1.114 0.138,2.212 0.064,3.329c-0.102,1.569 1.454,3.069 3,3c1.714,-0.077 2.89,-1.32 3,-3c0.343,-5.236 -1.288,-10.54 -4.639,-14.58c-1.006,-1.212 -3.217,-1.118 -4.243,0c-1.183,1.29 -1.073,2.949 0,4.243" style="fill:#6e9d33;fill-rule:nonzero;"/><path d="M1660.38,2165.52c0.3,5.715 2.031,11.523 5.526,16.117c0.493,0.649 0.974,1.153 1.793,1.379c0.718,0.198 1.674,0.108 2.311,-0.303c1.23,-0.793 2.093,-2.768 1.076,-4.104c-0.761,-1.001 -1.441,-2.059 -2.032,-3.17c-0.265,-0.498 -0.5,-1.008 -0.742,-1.518c-0.135,-0.312 -0.131,-0.297 0.013,0.045c-0.062,-0.151 -0.123,-0.302 -0.183,-0.454c-0.12,-0.306 -0.234,-0.613 -0.342,-0.923c-0.412,-1.176 -0.743,-2.381 -0.992,-3.603c-0.067,-0.329 -0.129,-0.659 -0.184,-0.99c-0.024,-0.141 -0.239,-1.207 -0.073,-0.454c-0.142,-0.645 -0.136,-1.363 -0.171,-2.022c-0.082,-1.565 -1.321,-3.075 -3,-3c-1.555,0.07 -3.088,1.322 -3,3" style="fill:#6e9d33;fill-rule:nonzero;"/><path d="M1827.1,2179.54c1.613,2.499 3.079,5.088 4.39,7.757c1.427,2.905 2.255,4.905 3.345,7.974c0.524,1.475 2.071,2.619 3.691,2.095c1.455,-0.471 2.657,-2.107 2.095,-3.691c-2.135,-6.009 -4.88,-11.802 -8.34,-17.163c-0.85,-1.317 -2.701,-1.981 -4.105,-1.077c-1.316,0.849 -1.986,2.695 -1.076,4.105" style="fill:#6e9d33;fill-rule:nonzero;"/><path d="M1875.75,2170.97c-3.905,5.19 -4.373,12.256 -4.831,18.494c-0.115,1.569 1.462,3.069 3,3c1.724,-0.077 2.877,-1.32 3,-3c0.109,-1.485 0.225,-2.97 0.389,-4.45c0.041,-0.371 0.085,-0.742 0.132,-1.113c-0.084,0.665 0.071,-0.47 0.089,-0.584c0.113,-0.727 0.244,-1.451 0.398,-2.171c0.299,-1.397 0.699,-2.759 1.21,-4.093c0.131,-0.321 0.13,-0.321 0,0.001c0.07,-0.157 0.142,-0.312 0.216,-0.467c0.148,-0.306 0.305,-0.608 0.471,-0.905c0.33,-0.587 0.702,-1.146 1.107,-1.684c0.947,-1.259 0.243,-3.407 -1.077,-4.104c-1.577,-0.833 -3.093,-0.268 -4.104,1.076" style="fill:#6e9d33;fill-rule:nonzero;"/><path d="M1879.75,2084.13c-1.357,4.826 -1.544,9.824 -0.794,14.764c0.105,0.693 0.802,1.455 1.378,1.793c0.643,0.376 1.591,0.535 2.312,0.302c1.697,-0.549 2.349,-2.022 2.095,-3.69c-0.024,-0.159 -0.048,-0.319 -0.07,-0.478c0.048,0.358 0.057,0.424 0.03,0.198c-0.027,-0.282 -0.064,-0.562 -0.089,-0.843c-0.044,-0.484 -0.077,-0.968 -0.098,-1.453c-0.048,-1.092 -0.039,-2.186 0.027,-3.278c0.031,-0.524 0.076,-1.048 0.134,-1.57c0.013,-0.116 0.077,-0.937 0.014,-0.162c0.023,-0.278 0.084,-0.56 0.131,-0.835c0.182,-1.063 0.424,-2.114 0.716,-3.153c0.424,-1.51 -0.522,-3.332 -2.096,-3.69c-1.592,-0.363 -3.235,0.478 -3.69,2.095" style="fill:#6e9d33;fill-rule:nonzero;"/><path d="M1862.68,2098.13c0.055,0.018 0.226,0.11 0.277,0.097c-0.071,0.018 -0.662,-0.328 -0.314,-0.115c0.043,0.026 0.509,0.321 0.508,0.322c-0.028,0.027 -0.567,-0.486 -0.248,-0.178c0.075,0.073 0.154,0.142 0.229,0.216c0.15,0.149 0.275,0.335 0.431,0.477c-0.074,-0.067 -0.394,-0.548 -0.171,-0.212c0.062,0.093 0.127,0.184 0.188,0.278c0.123,0.192 0.238,0.389 0.345,0.59c0.109,0.203 0.188,0.428 0.305,0.625c-0.059,-0.1 -0.235,-0.613 -0.102,-0.23c0.048,0.139 0.102,0.275 0.148,0.415c0.167,0.498 0.3,1.007 0.41,1.521c0.055,0.261 0.104,0.523 0.148,0.787c0.022,0.132 0.04,0.265 0.062,0.397c0.069,0.408 -0.068,-0.61 -0.027,-0.198c0.111,1.113 0.2,2.224 0.264,3.341c0.089,1.564 1.315,3.076 3,3c1.548,-0.069 3.096,-1.322 3,-3c-0.152,-2.645 -0.273,-5.447 -1.251,-7.94c-1.051,-2.678 -2.768,-5.05 -5.607,-5.979c-1.492,-0.488 -3.342,0.567 -3.69,2.096c-0.376,1.648 0.497,3.167 2.095,3.69" style="fill:#6e9d33;fill-rule:nonzero;"/><path d="M1834.69,2090.07c0.081,0.096 0.16,0.193 0.239,0.292c-0.274,-0.359 -0.316,-0.411 -0.125,-0.154c0.146,0.21 0.296,0.417 0.436,0.631c0.283,0.436 0.544,0.887 0.783,1.349c0.121,0.234 0.237,0.472 0.347,0.712c0.055,0.121 0.109,0.243 0.162,0.365c-0.172,-0.41 -0.197,-0.463 -0.075,-0.16c0.172,0.478 0.347,0.951 0.492,1.439c0.145,0.492 0.271,0.989 0.375,1.492c0.057,0.269 0.107,0.54 0.152,0.812c0.022,0.136 0.043,0.273 0.062,0.41c-0.06,-0.455 -0.07,-0.515 -0.03,-0.18c0.093,1.114 0.138,2.212 0.064,3.328c-0.102,1.57 1.454,3.07 3,3c1.714,-0.076 2.89,-1.319 3,-3c0.343,-5.235 -1.288,-10.539 -4.639,-14.579c-1.006,-1.212 -3.217,-1.118 -4.243,0c-1.183,1.29 -1.073,2.949 0,4.243" style="fill:#6e9d33;fill-rule:nonzero;"/><path d="M1852.35,2129.61c0.3,5.715 2.031,11.523 5.526,16.117c0.493,0.649 0.974,1.153 1.793,1.379c0.718,0.198 1.674,0.108 2.311,-0.303c1.23,-0.793 2.093,-2.768 1.076,-4.104c-0.761,-1.001 -1.441,-2.059 -2.032,-3.17c-0.265,-0.498 -0.5,-1.008 -0.742,-1.518c-0.135,-0.312 -0.131,-0.297 0.013,0.045c-0.062,-0.151 -0.123,-0.302 -0.183,-0.454c-0.12,-0.306 -0.234,-0.613 -0.342,-0.923c-0.412,-1.176 -0.743,-2.381 -0.992,-3.603c-0.067,-0.329 -0.129,-0.659 -0.184,-0.99c-0.024,-0.141 -0.239,-1.207 -0.073,-0.454c-0.142,-0.645 -0.136,-1.363 -0.171,-2.022c-0.082,-1.565 -1.321,-3.075 -3,-3c-1.555,0.07 -3.088,1.322 -3,3" style="fill:#6e9d33;fill-rule:nonzero;"/><path d="M1007.17,1703.79c0.37,0.359 0.728,0.731 1.066,1.121c0.16,0.183 0.31,0.373 0.466,0.559c0.249,0.294 -0.358,-0.49 -0.135,-0.176c0.071,0.099 0.145,0.195 0.216,0.294c0.601,0.838 1.129,1.729 1.577,2.658c0.053,0.109 0.105,0.219 0.155,0.33c0.041,0.09 0.211,0.494 0.033,0.058c-0.179,-0.437 -0.014,-0.029 0.023,0.062c0.044,0.113 0.088,0.226 0.131,0.34c0.181,0.483 0.341,0.973 0.479,1.47c0.131,0.468 0.242,0.941 0.333,1.418c0.028,0.148 0.054,0.298 0.079,0.448c0.017,0.103 0.077,0.543 0.013,0.051c-0.063,-0.493 -0.008,-0.051 0.003,0.053c0.017,0.151 0.031,0.302 0.044,0.453c0.138,1.559 1.281,3.077 3,3c1.507,-0.068 3.148,-1.326 3,-3c-0.447,-5.057 -2.576,-9.828 -6.24,-13.382c-1.128,-1.093 -3.136,-1.206 -4.243,0c-1.086,1.183 -1.204,3.076 -0,4.243" style="fill:#6e9d33;fill-rule:nonzero;"/><path d="M1052.76,1694.91c-2.348,5.273 -2.92,11.115 -1.356,16.705c0.423,1.511 2.144,2.596 3.691,2.096c1.541,-0.499 2.548,-2.072 2.095,-3.691c-0.157,-0.561 -0.296,-1.126 -0.408,-1.699c-0.063,-0.321 -0.145,-0.657 -0.168,-0.984c0.037,0.537 0.013,0.083 -0.014,-0.193c-0.113,-1.16 -0.13,-2.329 -0.052,-3.491c0.017,-0.249 0.038,-0.498 0.064,-0.747c0.017,-0.165 0.035,-0.331 0.056,-0.496c-0.052,0.385 -0.052,0.404 0,0.056c0.103,-0.574 0.21,-1.145 0.351,-1.711c0.14,-0.565 0.304,-1.125 0.491,-1.676c0.08,-0.237 0.165,-0.472 0.254,-0.705c0.059,-0.156 0.12,-0.31 0.183,-0.464c-0.142,0.332 -0.144,0.342 -0.006,0.028c0.637,-1.43 0.463,-3.291 -1.077,-4.104c-1.306,-0.69 -3.422,-0.455 -4.104,1.076" style="fill:#6e9d33;fill-rule:nonzero;"/><path d="M1110.66,1687.11c-6.535,4.1 -8.643,11.824 -10.051,18.943c-0.303,1.535 0.436,3.312 2.096,3.69c1.488,0.339 3.365,-0.449 3.69,-2.095c0.63,-3.185 1.356,-6.346 2.562,-9.369c-0.096,0.24 -0.146,0.331 -0.013,0.04c0.085,-0.185 0.168,-0.371 0.256,-0.554c0.174,-0.364 0.358,-0.724 0.552,-1.078c0.366,-0.664 0.774,-1.298 1.214,-1.915c0.439,-0.615 -0.254,0.275 0.038,-0.048c0.131,-0.145 0.252,-0.302 0.382,-0.449c0.262,-0.295 0.536,-0.578 0.822,-0.849c0.114,-0.108 0.231,-0.215 0.35,-0.32c0.004,-0.003 0.569,-0.491 0.247,-0.22c-0.318,0.267 0.206,-0.149 0.274,-0.196c0.199,-0.139 0.404,-0.27 0.609,-0.399c1.329,-0.834 1.974,-2.713 1.077,-4.105c-0.858,-1.33 -2.683,-1.968 -4.105,-1.076" style="fill:#6e9d33;fill-rule:nonzero;"/><path d="M1108.02,1648.49c-2.864,4.542 -4.853,9.677 -5.742,14.974c-0.259,1.541 0.405,3.305 2.095,3.69c1.45,0.33 3.412,-0.44 3.69,-2.095c0.418,-2.486 1.067,-4.927 1.958,-7.285c0.118,-0.314 0.243,-0.626 0.368,-0.938c0.313,-0.779 -0.254,0.555 0.09,-0.211c0.276,-0.612 0.556,-1.222 0.859,-1.822c0.566,-1.126 1.191,-2.219 1.863,-3.285c0.838,-1.329 0.323,-3.365 -1.077,-4.104c-1.478,-0.781 -3.209,-0.343 -4.104,1.076" style="fill:#6e9d33;fill-rule:nonzero;"/><path d="M1127.74,1598.79c-4.063,5.413 -6.396,11.887 -7.062,18.597c-0.155,1.567 1.491,3.068 3,3c1.758,-0.078 2.833,-1.321 3,-3c0.011,-0.107 0.143,-1.258 0.062,-0.643c0.05,-0.383 0.113,-0.765 0.18,-1.146c0.133,-0.762 0.294,-1.519 0.48,-2.27c0.348,-1.408 0.788,-2.793 1.314,-4.145c0.071,-0.18 0.142,-0.36 0.216,-0.539c-0.117,0.27 -0.104,0.242 0.037,-0.085c0.159,-0.353 0.317,-0.705 0.485,-1.054c0.294,-0.61 0.605,-1.211 0.935,-1.802c0.754,-1.353 1.604,-2.646 2.534,-3.885c0.945,-1.26 0.244,-3.407 -1.077,-4.104c-1.575,-0.833 -3.095,-0.269 -4.104,1.076" style="fill:#6e9d33;fill-rule:nonzero;"/><path d="M1086.18,1581.31c-4.194,4.602 -6.567,10.705 -6.414,16.949c0.039,1.568 1.353,3.074 3,3c1.593,-0.071 3.042,-1.319 3,-3c-0.016,-0.646 -0.008,-1.291 0.034,-1.936c0.021,-0.322 0.056,-0.643 0.086,-0.964c0.042,-0.347 0.037,-0.321 -0.014,0.077c0.024,-0.16 0.049,-0.319 0.076,-0.478c0.219,-1.273 0.554,-2.526 0.999,-3.738c0.047,-0.129 0.449,-1.103 0.146,-0.408c0.129,-0.296 0.263,-0.59 0.405,-0.88c0.283,-0.581 0.592,-1.148 0.927,-1.701c0.335,-0.553 0.702,-1.081 1.078,-1.607c0.203,-0.269 0.194,-0.258 -0.026,0.031c0.1,-0.126 0.203,-0.251 0.306,-0.375c0.208,-0.247 0.422,-0.489 0.64,-0.727c1.057,-1.16 1.231,-3.112 0,-4.243c-1.152,-1.057 -3.114,-1.239 -4.243,0" style="fill:#6e9d33;fill-rule:nonzero;"/><path d="M1038.58,1552.58c0.703,2.43 1.282,4.893 1.72,7.385c0.101,0.574 0.195,1.15 0.282,1.727c0.029,0.193 0.057,0.385 0.084,0.578c0.045,0.325 0.054,0.385 0.025,0.179c-0.028,-0.206 -0.021,-0.146 0.022,0.18c0.024,0.193 0.047,0.386 0.069,0.58c0.146,1.256 0.254,2.515 0.334,3.777c0.098,1.564 1.309,3.076 3,3c1.541,-0.069 3.105,-1.322 3,-3c-0.34,-5.411 -1.244,-10.791 -2.75,-16.001c-0.436,-1.506 -2.135,-2.599 -3.691,-2.095c-1.53,0.495 -2.562,2.075 -2.095,3.69" style="fill:#6e9d33;fill-rule:nonzero;"/><path d="M964.295,1581.39c0.061,0.045 0.607,0.463 0.29,0.215c-0.316,-0.248 0.282,0.23 0.279,0.228c0.289,0.235 0.572,0.476 0.852,0.722c0.558,0.492 1.098,1.005 1.618,1.537c0.549,0.562 1.077,1.145 1.581,1.747c0.133,0.159 0.264,0.319 0.393,0.48c0.039,0.049 0.365,0.469 0.148,0.185c-0.244,-0.321 0.168,0.229 0.213,0.291c0.122,0.167 0.243,0.335 0.361,0.504c0.879,1.253 1.664,2.571 2.344,3.942c0.165,0.333 0.325,0.669 0.478,1.009c0.118,0.263 0.205,0.466 0.043,0.079c0.064,0.153 0.126,0.306 0.187,0.46c0.306,0.769 0.575,1.55 0.819,2.341c0.46,1.498 2.116,2.604 3.69,2.095c1.509,-0.488 2.589,-2.084 2.095,-3.69c-2.151,-6.996 -6.5,-12.978 -12.363,-17.326c-1.265,-0.938 -3.404,-0.249 -4.104,1.077c-0.829,1.568 -0.275,3.102 1.076,4.104" style="fill:#6e9d33;fill-rule:nonzero;"/><path d="M960.789,1636.19c0.692,1.075 1.297,2.195 1.811,3.366c-0.286,-0.65 0.13,0.349 0.174,0.466c0.088,0.239 0.173,0.48 0.254,0.722c0.203,0.605 0.38,1.218 0.533,1.837c0.153,0.62 0.269,1.246 0.382,1.874c0.151,0.834 -0.058,-0.629 0.034,0.213c0.037,0.339 0.072,0.677 0.097,1.016c0.093,1.274 0.074,2.55 -0.04,3.822c-0.139,1.567 1.48,3.068 3,3c1.745,-0.079 2.851,-1.321 3,-3c0.507,-5.678 -0.98,-11.556 -4.064,-16.344c-0.849,-1.318 -2.702,-1.981 -4.105,-1.076c-1.317,0.849 -1.985,2.693 -1.076,4.104" style="fill:#6e9d33;fill-rule:nonzero;"/><path d="M1007.44,1597.53c-6.737,4.448 -11.652,11.524 -13.169,19.488c-0.292,1.537 0.429,3.311 2.096,3.69c1.479,0.337 3.376,-0.447 3.69,-2.095c0.325,-1.704 0.811,-3.358 1.441,-4.974c0.314,-0.806 -0.145,0.286 0.067,-0.164c0.097,-0.206 0.186,-0.416 0.282,-0.622c0.194,-0.412 0.398,-0.819 0.612,-1.22c0.406,-0.764 0.848,-1.508 1.324,-2.23c0.226,-0.342 0.459,-0.68 0.699,-1.011c0.039,-0.054 0.473,-0.633 0.257,-0.352c-0.206,0.269 0.286,-0.353 0.274,-0.339c0.548,-0.668 1.128,-1.311 1.737,-1.925c0.608,-0.614 1.246,-1.199 1.911,-1.751c0.051,-0.043 0.612,-0.499 0.335,-0.278c-0.265,0.211 0.363,-0.27 0.349,-0.26c0.368,-0.269 0.743,-0.525 1.123,-0.776c1.308,-0.864 1.988,-2.692 1.077,-4.105c-0.842,-1.305 -2.704,-2.001 -4.105,-1.076" style="fill:#6e9d33;fill-rule:nonzero;"/><path d="M987.153,1643.23c3.969,5.778 6.447,11.854 7.658,18.796c0.279,1.597 2.236,2.495 3.691,2.095c1.687,-0.464 2.375,-2.089 2.095,-3.691c-1.26,-7.22 -4.113,-14.187 -8.263,-20.228c-0.916,-1.334 -2.634,-1.937 -4.105,-1.076c-1.321,0.772 -1.998,2.762 -1.076,4.104" style="fill:#6e9d33;fill-rule:nonzero;"/><path d="M1026.31,1626.31c-4.31,7.066 -6.892,14.955 -7.8,23.166c-0.179,1.613 1.506,3 3,3c1.77,0 2.821,-1.382 3,-3c0.777,-7.026 3.252,-14.025 6.981,-20.138c0.844,-1.383 0.303,-3.298 -1.076,-4.104c-1.426,-0.834 -3.259,-0.311 -4.105,1.076" style="fill:#6e9d33;fill-rule:nonzero;"/><path d="M1054.54,1624.13c-2.684,5.859 -4.317,12.008 -4.872,18.431c-0.136,1.568 1.476,3.069 3,3c1.741,-0.078 2.855,-1.32 3,-3c0.062,-0.717 0.135,-1.433 0.226,-2.147c-0.066,0.52 0.07,-0.469 0.087,-0.577c0.055,-0.356 0.114,-0.711 0.177,-1.065c0.242,-1.367 0.541,-2.724 0.895,-4.067c0.354,-1.342 0.763,-2.67 1.227,-3.979c0.24,-0.678 0.495,-1.352 0.764,-2.019c-0.003,0.007 0.363,-0.862 0.173,-0.422c0.163,-0.378 0.333,-0.753 0.504,-1.127c0.652,-1.423 0.453,-3.296 -1.076,-4.104c-1.319,-0.697 -3.407,-0.447 -4.105,1.076" style="fill:#6e9d33;fill-rule:nonzero;"/><path d="M1047.55,1593.94c-1.595,1.98 -2.814,4.185 -3.452,6.662c-0.645,2.502 -0.678,5.032 -0.234,7.565c0.272,1.549 2.251,2.561 3.691,2.095c1.667,-0.54 2.386,-2.03 2.095,-3.691c-0.022,-0.119 -0.042,-0.239 -0.06,-0.36c0.062,0.497 0.074,0.582 0.034,0.255c-0.022,-0.242 -0.047,-0.483 -0.062,-0.726c-0.028,-0.486 -0.03,-0.973 -0.007,-1.458c0.011,-0.243 0.029,-0.486 0.053,-0.728c0.006,-0.061 0.013,-0.121 0.019,-0.182c0.04,-0.326 0.028,-0.241 -0.035,0.255c0.164,-0.43 0.175,-0.978 0.291,-1.43c0.122,-0.471 0.267,-0.936 0.436,-1.392c0.064,-0.172 0.137,-0.339 0.2,-0.51c-0.32,0.87 -0.019,0.073 0.073,-0.114c0.215,-0.437 0.452,-0.862 0.712,-1.273c0.129,-0.206 0.265,-0.408 0.405,-0.607c0.07,-0.099 0.142,-0.197 0.215,-0.294c-0.285,0.364 -0.329,0.423 -0.131,0.176c0.516,-0.641 0.878,-1.266 0.878,-2.122c0,-0.735 -0.326,-1.614 -0.878,-2.121c-1.092,-1.002 -3.192,-1.305 -4.243,0" style="fill:#6e9d33;fill-rule:nonzero;"/><path d="M1024.33,1596.42c0.707,1.912 1.247,3.881 1.596,5.89c0.039,0.223 0.076,0.447 0.11,0.671c0.023,0.149 0.045,0.298 0.066,0.447c-0.052,-0.386 -0.063,-0.465 -0.034,-0.236c0.05,0.488 0.107,0.975 0.145,1.464c0.082,1.054 0.109,2.11 0.092,3.166c-0.025,1.57 1.397,3.072 3,3c1.647,-0.073 2.973,-1.317 3,-3c0.07,-4.405 -0.661,-8.863 -2.189,-12.997c-0.543,-1.468 -2.058,-2.624 -3.691,-2.095c-1.438,0.465 -2.677,2.114 -2.095,3.69" style="fill:#6e9d33;fill-rule:nonzero;"/><path d="M1013.76,1665.25c-1.234,1.386 -2.15,2.967 -2.688,4.748c-0.262,0.867 -0.392,1.782 -0.468,2.68c-0.081,0.957 0.034,1.88 0.168,2.828c0.098,0.69 0.808,1.459 1.379,1.793c0.643,0.377 1.591,0.536 2.312,0.303c0.725,-0.235 1.426,-0.685 1.792,-1.379c0.101,-0.239 0.202,-0.478 0.303,-0.717c0.143,-0.531 0.143,-1.063 0,-1.595c-0.006,-0.038 -0.011,-0.077 -0.016,-0.115c0.035,0.266 0.071,0.532 0.107,0.798c-0.099,-0.773 -0.097,-1.547 -0.002,-2.32c-0.035,0.266 -0.071,0.531 -0.107,0.797c0.111,-0.811 0.322,-1.597 0.631,-2.354c-0.101,0.239 -0.201,0.478 -0.302,0.717c0.303,-0.718 0.688,-1.39 1.157,-2.012c-0.157,0.203 -0.313,0.405 -0.469,0.608c0.142,-0.185 0.291,-0.363 0.446,-0.537c0.53,-0.597 0.878,-1.306 0.878,-2.122c0,-0.735 -0.327,-1.614 -0.878,-2.121c-0.572,-0.525 -1.323,-0.914 -2.122,-0.879c-0.768,0.035 -1.593,0.285 -2.121,0.879" style="fill:#6e9d33;fill-rule:nonzero;"/><path d="M1045.4,1663.89c-1.589,2.054 -2.794,4.352 -3.259,6.932c-0.464,2.574 -0.409,5.208 0.373,7.719c0.466,1.496 2.113,2.606 3.691,2.095c1.504,-0.486 2.594,-2.085 2.095,-3.69c-0.147,-0.471 -0.271,-0.948 -0.363,-1.433c-0.023,-0.122 -0.044,-0.243 -0.064,-0.365c-0.048,-0.326 -0.037,-0.243 0.033,0.248c0.039,-0.21 -0.05,-0.519 -0.062,-0.736c-0.027,-0.493 -0.026,-0.987 0.003,-1.479c0.013,-0.221 0.099,-0.522 0.064,-0.738c-0.069,0.492 -0.08,0.574 -0.031,0.248c0.014,-0.092 0.029,-0.183 0.046,-0.274c0.082,-0.455 0.188,-0.906 0.317,-1.351c0.069,-0.236 0.145,-0.471 0.227,-0.704c0.042,-0.116 0.084,-0.232 0.129,-0.347c0.119,-0.298 0.088,-0.23 -0.092,0.204c0.14,-0.156 0.219,-0.479 0.316,-0.669c0.111,-0.22 0.229,-0.436 0.353,-0.649c0.125,-0.213 0.256,-0.422 0.393,-0.627c0.106,-0.158 0.633,-0.864 0.074,-0.141c0.51,-0.66 0.878,-1.25 0.878,-2.122c0,-0.736 -0.327,-1.614 -0.878,-2.121c-1.073,-0.984 -3.218,-1.326 -4.243,0" style="fill:#6e9d33;fill-rule:nonzero;"/><path d="M1077.6,1651.77c-4.273,5.161 -7.361,11.201 -8.826,17.756c-0.342,1.528 0.463,3.318 2.095,3.69c1.521,0.347 3.324,-0.457 3.69,-2.095c0.326,-1.458 0.727,-2.896 1.216,-4.308c0.244,-0.705 0.509,-1.403 0.793,-2.094c-0.229,0.557 0.211,-0.471 0.254,-0.567c0.155,-0.34 0.314,-0.678 0.479,-1.013c0.657,-1.34 1.391,-2.643 2.198,-3.899c0.403,-0.628 0.825,-1.244 1.264,-1.848c0.06,-0.083 0.73,-0.962 0.375,-0.509c0.231,-0.294 0.467,-0.583 0.705,-0.87c0.999,-1.207 1.27,-3.077 0,-4.243c-1.105,-1.014 -3.174,-1.291 -4.243,0" style="fill:#6e9d33;fill-rule:nonzero;"/><path d="M1092.28,1613.9c6.985,-1.103 6.95,7.385 6.95,7.385c0,0 10.598,-2.572 11.38,4.361c0.783,6.933 -7.111,8.458 -7.111,8.458c0,0 -0.359,7.149 -4.703,8.459c-4.344,1.31 -6.516,-6.075 -6.516,-6.075c0,0 -9.917,4.354 -12.56,-2.384c-2.644,-6.738 8.585,-8.458 8.585,-8.458c0,0 -4.278,-10.443 3.975,-11.746" style="fill:#5364b5;fill-rule:nonzero;"/><path d="M988.477,1679.1c1.541,5.745 -5.644,6.463 -5.644,6.463c0,-0 3.098,8.639 -2.701,9.903c-5.798,1.265 -7.776,-5.204 -7.776,-5.204c0,-0 -6.08,0.328 -7.566,-3.19c-1.487,-3.518 4.573,-5.985 4.573,-5.985c0,-0 -4.547,-7.912 0.925,-10.716c5.472,-2.804 7.904,6.438 7.904,6.438c0,-0 8.464,-4.498 10.285,2.291" style="fill:#5364b5;fill-rule:nonzero;"/><path d="M1738.72,1130c-6.737,4.448 -11.652,11.524 -13.169,19.488c-0.292,1.537 0.429,3.311 2.096,3.69c1.479,0.337 3.376,-0.447 3.69,-2.095c0.325,-1.704 0.811,-3.358 1.441,-4.974c0.314,-0.806 -0.145,0.286 0.067,-0.164c0.097,-0.206 0.186,-0.416 0.282,-0.622c0.194,-0.412 0.398,-0.819 0.612,-1.22c0.406,-0.764 0.848,-1.508 1.324,-2.23c0.226,-0.342 0.459,-0.68 0.699,-1.011c0.039,-0.054 0.473,-0.633 0.257,-0.352c-0.206,0.269 0.286,-0.353 0.274,-0.339c0.548,-0.668 1.128,-1.311 1.737,-1.925c0.608,-0.614 1.246,-1.199 1.911,-1.751c0.051,-0.043 0.612,-0.499 0.335,-0.278c-0.265,0.211 0.363,-0.27 0.349,-0.26c0.368,-0.269 0.743,-0.525 1.123,-0.776c1.308,-0.863 1.988,-2.692 1.076,-4.105c-0.841,-1.305 -2.703,-2.001 -4.104,-1.076" style="fill:#6e9d33;fill-rule:nonzero;"/><path d="M1757.59,1158.78c-4.31,7.066 -6.892,14.955 -7.8,23.166c-0.179,1.613 1.506,3 3,3c1.77,0 2.821,-1.382 3,-3c0.777,-7.026 3.252,-14.024 6.981,-20.138c0.844,-1.383 0.303,-3.297 -1.076,-4.104c-1.426,-0.834 -3.259,-0.311 -4.105,1.076" style="fill:#6e9d33;fill-rule:nonzero;"/><path d="M1755.61,1128.89c0.707,1.912 1.247,3.881 1.597,5.89c0.038,0.223 0.075,0.447 0.109,0.671c0.023,0.149 0.045,0.298 0.066,0.448c-0.052,-0.387 -0.063,-0.466 -0.034,-0.237c0.05,0.488 0.107,0.975 0.145,1.464c0.082,1.054 0.109,2.11 0.092,3.166c-0.025,1.57 1.397,3.072 3,3c1.647,-0.073 2.973,-1.317 3,-3c0.07,-4.405 -0.661,-8.863 -2.189,-12.997c-0.543,-1.468 -2.057,-2.624 -3.691,-2.095c-1.438,0.465 -2.677,2.114 -2.095,3.69" style="fill:#6e9d33;fill-rule:nonzero;"/><path d="M1791.11,1158.09c7.457,1.85 3.723,10.506 3.723,10.506c-0,0 11.706,1.89 9.465,9.306c-2.24,7.416 -10.79,5.61 -10.79,5.61c-0,0 -3.475,7.15 -8.385,6.637c-4.91,-0.513 -3.86,-8.983 -3.86,-8.983c-0,0 -11.803,0.222 -11.506,-7.789c0.297,-8.01 12.263,-4.982 12.263,-4.982c-0,0 0.278,-12.491 9.09,-10.305" style="fill:#ffdc00;fill-rule:nonzero;"/><path d="M326.939,1078.1c-5.131,11.178 -7.263,23.594 -5.81,35.833c0.191,1.609 1.242,3 3,3c1.473,0 3.193,-1.38 3,-3c-1.323,-11.147 0.297,-22.579 4.991,-32.805c0.675,-1.471 0.418,-3.23 -1.076,-4.104c-1.292,-0.756 -3.426,-0.403 -4.105,1.076" style="fill:#6e9d33;fill-rule:nonzero;"/><path d="M314.458,1142.94c3.695,8.963 6.449,18.28 8.222,27.811c0.297,1.594 2.224,2.499 3.691,2.095c1.673,-0.459 2.392,-2.092 2.095,-3.69c-1.773,-9.531 -4.527,-18.848 -8.222,-27.811c-0.617,-1.497 -1.992,-2.562 -3.691,-2.095c-1.415,0.389 -2.716,2.183 -2.095,3.69" style="fill:#6e9d33;fill-rule:nonzero;"/><path d="M256.469,1185.36c0.324,0.242 -0.139,-0.088 -0.207,-0.16c0.093,0.098 0.22,0.182 0.323,0.271c0.19,0.166 0.376,0.338 0.555,0.516c0.159,0.158 0.314,0.321 0.464,0.487c0.094,0.105 0.186,0.211 0.276,0.318c0.067,0.079 0.317,0.407 0.03,0.024c-0.306,-0.408 0.003,0.007 0.07,0.1c0.065,0.091 0.129,0.183 0.193,0.276c0.141,0.21 0.277,0.423 0.406,0.641c0.259,0.437 0.477,0.89 0.694,1.348c0.161,0.34 -0.232,-0.604 -0.107,-0.25c0.037,0.106 0.081,0.21 0.12,0.316c0.087,0.237 0.166,0.477 0.239,0.72c0.144,0.484 0.26,0.977 0.344,1.476c0.017,0.098 0.063,0.234 0.052,0.333c0.02,-0.183 -0.087,-0.73 -0.039,-0.213c0.02,0.224 0.035,0.448 0.043,0.672c0.018,0.534 -0.003,1.067 -0.054,1.599c-0.151,1.567 1.488,3.068 3,3c1.755,-0.079 2.839,-1.322 3,-3c0.256,-2.656 -0.349,-5.264 -1.417,-7.681c-1.072,-2.426 -2.853,-4.398 -4.957,-5.974c-0.582,-0.436 -1.644,-0.486 -2.311,-0.302c-0.696,0.191 -1.45,0.729 -1.793,1.379c-0.368,0.696 -0.553,1.539 -0.303,2.311c0.256,0.79 0.719,1.299 1.379,1.793" style="fill:#6e9d33;fill-rule:nonzero;"/><path d="M258.303,1085.87c4.752,7.142 7.773,15.172 8.962,23.666c0.224,1.606 2.273,2.485 3.69,2.096c1.729,-0.475 2.321,-2.08 2.095,-3.691c-1.251,-8.942 -4.565,-17.583 -9.566,-25.099c-0.897,-1.348 -2.649,-1.928 -4.105,-1.077c-1.338,0.783 -1.978,2.75 -1.076,4.105" style="fill:#6e9d33;fill-rule:nonzero;"/><path d="M195.299,1074.59c3.281,7.739 5.739,15.835 7.459,24.059c0.332,1.586 2.199,2.505 3.69,2.095c1.646,-0.452 2.429,-2.099 2.096,-3.69c-1.832,-8.762 -4.572,-17.255 -8.064,-25.492c-0.633,-1.492 -2.834,-1.82 -4.105,-1.077c-1.544,0.904 -1.711,2.607 -1.076,4.105" style="fill:#6e9d33;fill-rule:nonzero;"/><path d="M220.047,969.264c-0.707,5.624 -1.131,11.278 -1.272,16.944c-0.039,1.57 1.408,3.072 3,3c1.659,-0.074 2.958,-1.318 3,-3c0.141,-5.666 0.565,-11.32 1.272,-16.944c0.196,-1.563 -1.52,-3.066 -3,-3c-1.793,0.08 -2.79,1.325 -3,3" style="fill:#6e9d33;fill-rule:nonzero;"/><path d="M178.902,1012.14c0.225,0.267 0.447,0.535 0.662,0.81c-0.407,-0.521 0.246,0.347 0.312,0.44c0.403,0.569 0.784,1.153 1.142,1.752c0.357,0.598 0.692,1.21 1.003,1.834c0.155,0.312 0.305,0.627 0.448,0.945c0.072,0.159 0.142,0.318 0.211,0.478c-0.116,-0.275 -0.133,-0.312 -0.052,-0.113c0.461,1.276 0.911,2.536 1.226,3.859c0.162,0.679 0.281,1.364 0.405,2.051c0.051,0.352 0.053,0.345 0.003,-0.021c0.022,0.173 0.043,0.346 0.061,0.519c0.037,0.347 0.066,0.694 0.091,1.042c0.113,1.562 1.299,3.076 3,3c1.528,-0.069 3.121,-1.324 3,-3c-0.478,-6.616 -2.998,-12.769 -7.269,-17.839c-1.015,-1.204 -3.211,-1.124 -4.243,0c-1.177,1.282 -1.083,2.958 -0,4.243" style="fill:#6e9d33;fill-rule:nonzero;"/><path d="M108.349,1022.29c5.616,7.111 8.682,16.138 8.802,25.171c0.051,3.858 6.051,3.869 6,0c-0.142,-10.74 -3.92,-21.007 -10.559,-29.414c-1.005,-1.272 -3.192,-1.051 -4.243,0c-1.257,1.257 -1.008,2.967 0,4.243" style="fill:#6e9d33;fill-rule:nonzero;"/><path d="M68.92,917.951c2.681,2.646 4.517,4.984 6.416,8.217c1.907,3.247 3.042,5.95 4.051,9.594c0.419,1.511 2.147,2.594 3.691,2.095c1.545,-0.5 2.544,-2.07 2.095,-3.691c-2.14,-7.724 -6.306,-14.826 -12.01,-20.458c-1.118,-1.103 -3.142,-1.199 -4.243,0c-1.094,1.191 -1.193,3.065 0,4.243" style="fill:#6e9d33;fill-rule:nonzero;"/><path d="M102.618,899.456c-1.933,5.819 -2.033,12.212 -0.349,18.103c0.431,1.507 2.138,2.597 3.69,2.095c1.535,-0.497 2.558,-2.074 2.096,-3.691c-0.193,-0.672 -0.366,-1.348 -0.509,-2.032c-0.061,-0.293 -0.118,-0.588 -0.169,-0.882c-0.019,-0.106 -0.177,-1.251 -0.111,-0.684c-0.151,-1.289 -0.218,-2.586 -0.19,-3.884c0.015,-0.649 0.051,-1.297 0.11,-1.943c0.01,-0.113 0.122,-1.105 0.047,-0.541c0.04,-0.297 0.089,-0.593 0.14,-0.887c0.238,-1.379 0.59,-2.732 1.031,-4.059c0.495,-1.49 -0.572,-3.343 -2.096,-3.69c-1.654,-0.377 -3.16,0.499 -3.69,2.095" style="fill:#6e9d33;fill-rule:nonzero;"/><path d="M176.839,901.609c-4.051,7.059 -5.325,15.346 -3.739,23.312c0.317,1.59 2.209,2.503 3.691,2.095c1.657,-0.455 2.412,-2.095 2.095,-3.69c-1.246,-6.257 -0.11,-13.036 3.134,-18.689c1.925,-3.354 -3.257,-6.38 -5.181,-3.028" style="fill:#6e9d33;fill-rule:nonzero;"/><path d="M126.961,829.266c5.217,6.813 8.735,14.632 10.341,23.062c0.303,1.592 2.218,2.499 3.69,2.095c1.668,-0.459 2.4,-2.093 2.096,-3.69c-1.688,-8.861 -5.462,-17.333 -10.946,-24.495c-0.984,-1.284 -2.583,-1.967 -4.105,-1.076c-1.264,0.739 -2.067,2.81 -1.076,4.104" style="fill:#6e9d33;fill-rule:nonzero;"/><path d="M270.157,1042.9c7.931,-6.162 14.993,8.471 14.993,8.471c0,0 8.941,-2.607 8.941,3.909c0,6.516 -8.941,6.516 -8.941,6.516c0,0 3.728,9.774 -10.606,4.561c-14.335,-5.213 -4.387,-11.447 -4.387,-11.447c0,0 -10.902,-3.539 0,-12.01" style="fill:#ffdc00;fill-rule:nonzero;"/><path d="M111.595,967.43c9.996,0.969 5.078,16.454 5.078,16.454c0,-0 8.289,4.248 3.813,8.983c-4.475,4.736 -10.974,-1.406 -10.974,-1.406c0,-0 -8.903,6.046 -13.01,-2.429c-5.053,-10.425 6.844,-12.874 6.844,-12.874c0,-0 -5.493,-10.06 8.249,-8.728" style="fill:#ffdc00;fill-rule:nonzero;"/><path d="M329.354,429.105c0.004,1.231 -0.075,2.457 -0.233,3.678c0.035,-0.266 0.071,-0.532 0.107,-0.798c-0.159,1.155 -0.385,2.298 -0.689,3.424c-0.144,0.53 -0.304,1.057 -0.481,1.578c-0.093,0.276 -0.191,0.55 -0.293,0.823c-0.076,0.202 -0.48,1.188 -0.132,0.364c-0.328,0.776 -0.536,1.461 -0.302,2.312c0.192,0.695 0.73,1.45 1.379,1.792c0.696,0.368 1.539,0.553 2.311,0.303c0.688,-0.223 1.498,-0.681 1.793,-1.379c1.631,-3.855 2.553,-7.893 2.54,-12.097c-0.005,-1.569 -1.376,-3.073 -3,-3c-1.621,0.073 -3.005,1.318 -3,3" style="fill:#6e9d33;fill-rule:nonzero;"/><path d="M322.1,449.089c-0.717,-1.034 -1.371,-2.108 -1.947,-3.227c-0.307,-0.596 -0.594,-1.202 -0.856,-1.82c0.206,0.487 0.007,-0.001 -0.076,-0.215c-0.121,-0.312 -0.236,-0.627 -0.345,-0.944c-0.411,-1.189 -0.743,-2.404 -0.992,-3.637c-0.049,-0.246 -0.096,-0.493 -0.139,-0.741c-0.024,-0.136 -0.202,-1.219 -0.081,-0.445c-0.103,-0.661 -0.143,-1.336 -0.182,-2.003c-0.092,-1.564 -1.314,-3.076 -3,-3c-1.546,0.069 -3.099,1.322 -3,3c0.337,5.727 2.158,11.335 5.437,16.06c0.893,1.287 2.67,2.002 4.105,1.076c1.279,-0.824 2.033,-2.725 1.076,-4.104" style="fill:#6e9d33;fill-rule:nonzero;"/><path d="M297.224,422.154c0.016,1.193 -0.03,2.385 -0.152,3.572c-0.025,0.253 -0.046,0.51 -0.087,0.761c0.124,-0.758 -0.059,0.334 -0.081,0.466c-0.093,0.546 -0.202,1.089 -0.324,1.629c-0.255,1.121 -0.572,2.228 -0.952,3.314c-0.084,0.241 -0.172,0.481 -0.262,0.72c-0.044,0.115 -0.453,1.121 -0.175,0.468c-0.234,0.549 -0.487,1.089 -0.752,1.623c-0.695,1.405 -0.423,3.312 1.077,4.104c1.354,0.716 3.361,0.426 4.104,-1.076c2.399,-4.847 3.674,-10.163 3.604,-15.581c-0.02,-1.568 -1.365,-3.073 -3,-3c-1.608,0.072 -3.022,1.319 -3,3" style="fill:#6e9d33;fill-rule:nonzero;"/><path d="M283.712,457.096c-0.876,-0.76 -1.708,-1.567 -2.425,-2.481c0.157,0.202 0.313,0.405 0.469,0.607c-0.49,-0.642 -0.913,-1.322 -1.239,-2.062c0.1,0.239 0.201,0.478 0.302,0.717c-0.256,-0.609 -0.44,-1.235 -0.542,-1.887l0.107,0.797c-0.074,-0.55 -0.085,-1.094 -0.023,-1.645l-0.107,0.798c0.034,-0.25 0.082,-0.493 0.144,-0.737c0.388,-1.518 -0.495,-3.326 -2.095,-3.69c-1.561,-0.356 -3.275,0.468 -3.69,2.095c-0.621,2.431 -0.163,4.927 0.983,7.128c0.927,1.781 2.367,3.297 3.873,4.603c0.608,0.527 1.295,0.878 2.122,0.878c0.736,0 1.614,-0.327 2.121,-0.878c1.035,-1.128 1.266,-3.145 0,-4.243" style="fill:#6e9d33;fill-rule:nonzero;"/><path d="M295.374,465.071c0.648,1.813 1.103,3.671 1.398,5.573c0.114,0.734 -0.07,-0.691 0.004,0.048c0.024,0.247 0.053,0.494 0.076,0.742c0.041,0.46 0.071,0.921 0.09,1.383c0.041,0.994 0.026,1.989 -0.034,2.982c-0.095,1.57 1.447,3.07 3,3c1.706,-0.076 2.898,-1.319 3,-3c0.251,-4.152 -0.348,-8.406 -1.748,-12.323c-0.527,-1.474 -2.069,-2.62 -3.691,-2.095c-1.452,0.47 -2.661,2.108 -2.095,3.69" style="fill:#6e9d33;fill-rule:nonzero;"/><path d="M258.076,467.395c-2.199,0.931 -3.987,2.987 -4.939,5.143c-1.16,2.629 -1.468,5.415 -1.573,8.265c-0.057,1.57 1.421,3.071 3,3c1.675,-0.075 2.938,-1.318 3,-3c0.039,-1.056 0.098,-2.11 0.23,-3.16l-0.107,0.798c0.116,-0.847 0.277,-1.686 0.531,-2.503c0.058,-0.189 0.121,-0.376 0.19,-0.561c0.037,-0.101 0.076,-0.202 0.117,-0.302c-0.189,0.44 -0.236,0.554 -0.141,0.342c0.158,-0.318 0.311,-0.635 0.495,-0.94c0.084,-0.139 0.172,-0.277 0.264,-0.412c0.061,-0.09 0.123,-0.179 0.188,-0.266c-0.09,0.116 -0.181,0.232 -0.271,0.349c0.181,-0.302 0.513,-0.592 0.77,-0.829c0.116,-0.107 0.258,-0.199 0.365,-0.314c-0.492,0.527 -0.343,0.259 -0.087,0.093c0.316,-0.206 0.649,-0.375 0.996,-0.522c0.641,-0.271 1.204,-1.157 1.379,-1.793c0.198,-0.718 0.108,-1.674 -0.302,-2.312c-0.413,-0.64 -1.028,-1.204 -1.793,-1.378c-0.842,-0.192 -1.526,-0.031 -2.312,0.302" style="fill:#6e9d33;fill-rule:nonzero;"/><path d="M195.794,482.451c0.183,0.226 0.363,0.453 0.543,0.681c0.284,0.359 -0.081,-0.002 -0.068,-0.09c-0.008,0.059 0.223,0.294 0.263,0.347c0.349,0.464 0.691,0.934 1.025,1.409c0.69,0.98 1.346,1.984 1.969,3.007c1.228,2.017 2.318,4.114 3.276,6.272c0.286,0.643 1.146,1.2 1.793,1.378c0.718,0.198 1.675,0.109 2.312,-0.302c1.49,-0.96 1.76,-2.565 1.076,-4.105c-2.059,-4.635 -4.763,-8.897 -7.946,-12.84c-0.991,-1.226 -3.226,-1.107 -4.243,0c-1.195,1.302 -1.056,2.935 0,4.243" style="fill:#6e9d33;fill-rule:nonzero;"/><path d="M226.796,454.324c-3.781,4.013 -4.509,9.491 -4.992,14.75c-0.144,1.568 1.483,3.068 3,3c1.748,-0.078 2.846,-1.321 3,-3c0.048,-0.525 0.098,-1.051 0.153,-1.576c0.032,-0.298 0.065,-0.596 0.101,-0.893c0.016,-0.133 0.033,-0.265 0.049,-0.398c0.049,-0.411 -0.09,0.612 -0.027,0.202c0.168,-1.083 0.35,-2.16 0.629,-3.221c0.133,-0.505 0.284,-1.006 0.459,-1.498c0.086,-0.242 0.201,-0.479 0.276,-0.724c-0.043,0.142 -0.244,0.544 -0.071,0.185c0.056,-0.115 0.108,-0.232 0.165,-0.347c0.241,-0.488 0.513,-0.96 0.817,-1.412c0.071,-0.106 0.151,-0.208 0.22,-0.315c0.212,-0.325 -0.373,0.441 -0.116,0.148c0.193,-0.221 0.378,-0.445 0.58,-0.658c1.076,-1.143 1.218,-3.125 0,-4.243c-1.169,-1.072 -3.094,-1.22 -4.243,0" style="fill:#6e9d33;fill-rule:nonzero;"/><path d="M249.266,433.178c-0.963,1.59 -1.687,3.389 -2.033,5.219c-0.401,2.124 -0.4,4.136 -0.058,6.264c0.112,0.696 0.797,1.453 1.379,1.793c0.643,0.377 1.591,0.536 2.312,0.303c0.726,-0.235 1.426,-0.685 1.793,-1.379c0.399,-0.756 0.437,-1.471 0.302,-2.312c-0.025,-0.154 -0.048,-0.309 -0.069,-0.464l0.107,0.797c-0.141,-1.143 -0.138,-2.289 0.004,-3.432c-0.036,0.266 -0.071,0.532 -0.107,0.798c0.162,-1.194 0.471,-2.352 0.929,-3.466c-0.101,0.239 -0.202,0.478 -0.303,0.716c0.265,-0.625 0.573,-1.227 0.925,-1.809c0.814,-1.343 0.34,-3.356 -1.076,-4.104c-1.457,-0.77 -3.236,-0.358 -4.105,1.076" style="fill:#6e9d33;fill-rule:nonzero;"/><path d="M224.079,418.749c-1.287,3.659 -1.459,7.596 -0.739,11.39c0.294,1.545 2.235,2.566 3.69,2.095c1.65,-0.534 2.41,-2.035 2.096,-3.69c-0.067,-0.349 -0.124,-0.699 -0.173,-1.051l0.107,0.798c-0.215,-1.649 -0.214,-3.307 -0.003,-4.956l-0.108,0.798c0.178,-1.293 0.483,-2.558 0.916,-3.789c0.521,-1.482 -0.591,-3.348 -2.096,-3.69c-1.677,-0.382 -3.132,0.508 -3.69,2.095" style="fill:#6e9d33;fill-rule:nonzero;"/><path d="M208.345,430.105c0.196,0.051 0.384,0.112 0.572,0.187l-0.716,-0.303c0.37,0.159 0.709,0.36 1.03,0.603c-0.202,-0.156 -0.404,-0.312 -0.607,-0.469c0.351,0.279 0.661,0.594 0.941,0.944c-0.156,-0.203 -0.312,-0.405 -0.469,-0.608c0.351,0.457 0.638,0.948 0.869,1.475c-0.1,-0.239 -0.201,-0.478 -0.302,-0.717c0.366,0.876 0.572,1.796 0.705,2.733l-0.107,-0.798c0.1,0.751 0.158,1.506 0.212,2.261c0.058,0.803 0.296,1.538 0.879,2.121c0.52,0.521 1.374,0.913 2.121,0.879c0.776,-0.035 1.581,-0.29 2.121,-0.879c0.517,-0.562 0.936,-1.331 0.879,-2.121c-0.171,-2.382 -0.417,-4.734 -1.508,-6.895c-1.001,-1.984 -2.856,-3.635 -5.025,-4.199c-1.517,-0.394 -3.327,0.5 -3.69,2.096c-0.357,1.566 0.47,3.268 2.095,3.69" style="fill:#6e9d33;fill-rule:nonzero;"/><path d="M182.211,423.911c0.423,0.407 0.811,0.842 1.17,1.306c-0.157,-0.203 -0.313,-0.405 -0.469,-0.608c0.588,0.783 1.074,1.626 1.459,2.526c-0.101,-0.238 -0.201,-0.477 -0.302,-0.716c0.393,0.95 0.664,1.936 0.809,2.954c-0.036,-0.266 -0.071,-0.531 -0.107,-0.797c0.107,0.824 0.128,1.651 0.06,2.48c-0.06,0.728 0.378,1.62 0.879,2.121c0.52,0.52 1.374,0.912 2.121,0.879c0.776,-0.035 1.581,-0.29 2.122,-0.879c0.563,-0.614 0.81,-1.29 0.878,-2.121c0.344,-4.17 -1.376,-8.497 -4.377,-11.388c-1.132,-1.089 -3.133,-1.209 -4.243,0c-1.082,1.179 -1.208,3.08 0,4.243" style="fill:#6e9d33;fill-rule:nonzero;"/><path d="M198.585,452.779c0.317,4.864 2.27,9.445 5.638,12.982c1.084,1.14 3.165,1.174 4.243,-0c1.121,-1.221 1.157,-3.027 0,-4.242c-0.328,-0.344 -0.638,-0.702 -0.943,-1.067c-0.255,-0.307 0.073,0.086 0.14,0.187c-0.065,-0.099 -0.143,-0.19 -0.212,-0.286c-0.14,-0.192 -0.275,-0.387 -0.407,-0.584c-0.546,-0.822 -0.985,-1.686 -1.412,-2.572c-0.167,-0.347 0.232,0.585 0.093,0.225c-0.043,-0.11 -0.088,-0.22 -0.131,-0.331c-0.085,-0.221 -0.166,-0.445 -0.242,-0.669c-0.152,-0.45 -0.286,-0.906 -0.401,-1.366c-0.115,-0.461 -0.21,-0.926 -0.286,-1.395c-0.017,-0.105 -0.078,-0.538 -0.012,-0.041c0.067,0.497 0.011,0.063 -0.001,-0.043c-0.028,-0.266 -0.05,-0.532 -0.067,-0.798c-0.102,-1.563 -1.307,-3.076 -3,-3c-1.538,0.069 -3.109,1.323 -3,3" style="fill:#6e9d33;fill-rule:nonzero;"/><path d="M179.292,459.012c2.929,9.607 -13.26,10.987 -13.26,10.987c0,0 -0.753,9.283 -6.84,6.96c-6.088,-2.323 -2.9,-10.677 -2.9,-10.677c0,0 -8.992,-5.913 -2.733,-12.95c7.699,-8.657 14.513,1.398 14.513,1.398c0,0 7.194,-8.924 11.22,4.282" style="fill:#ffdc00;fill-rule:nonzero;"/><path d="M287.576,443.33c5.041,-3.119 8.145,2.717 8.145,2.717c0,0 6.841,-4.236 9.122,0c2.28,4.235 -1.955,6.731 -1.955,6.731c0,0 1.649,3.971 -2.922,6.439c-4.571,2.467 -6.852,-2.772 -6.852,-2.772c0,0 -3.909,2.57 -6.841,-1.634c-2.932,-4.203 0,-4.995 0,-4.995c0,0 -3.258,-3.664 1.303,-6.486" style="fill:#5364b5;fill-rule:nonzero;"/><path d="M949.367,463.527c2.339,2.496 4.055,4.842 5.791,8.006c0.397,0.723 0.772,1.459 1.126,2.204c0.42,0.884 0.616,1.344 0.866,1.981c0.64,1.633 1.171,3.306 1.607,5.006c0.389,1.52 2.167,2.587 3.69,2.095c1.57,-0.508 2.513,-2.061 2.095,-3.691c-1.901,-7.418 -5.7,-14.259 -10.932,-19.844c-1.076,-1.148 -3.171,-1.167 -4.243,0c-1.129,1.23 -1.147,3.018 -0,4.243" style="fill:#6e9d33;fill-rule:nonzero;"/><path d="M987.013,441.487c-0.176,5.215 -0.104,10.434 0.216,15.642c0.097,1.563 1.311,3.075 3,3c1.543,-0.069 3.104,-1.323 3,-3c-0.32,-5.208 -0.392,-10.427 -0.216,-15.642c0.053,-1.57 -1.418,-3.071 -3,-3c-1.671,0.075 -2.943,1.318 -3,3" style="fill:#6e9d33;fill-rule:nonzero;"/><path d="M971.103,443.325c0.632,0.992 1.217,2.012 1.743,3.065c0.277,0.555 0.579,1.122 0.793,1.706c-0.177,-0.483 -0.05,-0.117 0.057,0.152c0.116,0.291 0.227,0.584 0.335,0.879c0.807,2.212 1.369,4.503 1.697,6.834c0.097,0.689 0.809,1.459 1.379,1.793c0.643,0.376 1.59,0.535 2.311,0.302c0.726,-0.235 1.427,-0.685 1.793,-1.378c0.403,-0.764 0.421,-1.466 0.303,-2.312c-0.7,-4.982 -2.527,-9.829 -5.23,-14.069c-0.843,-1.322 -2.707,-1.978 -4.105,-1.076c-1.322,0.852 -1.978,2.688 -1.076,4.104" style="fill:#6e9d33;fill-rule:nonzero;"/><path d="M999.831,463.719c-1.611,1.731 -2.801,3.786 -3.491,6.05c-0.701,2.305 -0.753,4.674 -0.376,7.034c0.111,0.696 0.798,1.453 1.379,1.793c0.643,0.377 1.591,0.536 2.312,0.303c0.726,-0.235 1.426,-0.685 1.793,-1.379c0.399,-0.757 0.436,-1.471 0.302,-2.312c-0.017,-0.104 -0.034,-0.21 -0.048,-0.315l0.107,0.797c-0.138,-1.058 -0.135,-2.119 0,-3.178c-0.036,0.266 -0.072,0.532 -0.108,0.798c0.082,-0.58 0.198,-1.153 0.357,-1.716c0.087,-0.307 0.186,-0.611 0.297,-0.91c0.046,-0.125 0.096,-0.248 0.144,-0.372c0.113,-0.292 -0.326,0.728 -0.047,0.132c0.248,-0.529 0.534,-1.041 0.856,-1.528c0.146,-0.221 0.787,-0.969 0.139,-0.232c0.211,-0.239 0.409,-0.488 0.627,-0.722c1.069,-1.149 1.223,-3.12 0,-4.243c-1.163,-1.067 -3.101,-1.227 -4.243,0" style="fill:#6e9d33;fill-rule:nonzero;"/><path d="M1017.62,442.549c-2.42,5.635 -3.582,11.706 -3.083,17.844c0.127,1.56 1.289,3.076 3,3c1.516,-0.068 3.136,-1.325 3,-3c-0.113,-1.39 -0.151,-2.782 -0.096,-4.176c0.024,-0.596 0.063,-1.192 0.118,-1.786c0.036,-0.397 0.078,-0.793 0.13,-1.187c-0.07,0.525 0.048,-0.28 0.066,-0.384c0.209,-1.277 0.491,-2.541 0.843,-3.786c0.19,-0.67 0.401,-1.334 0.632,-1.991c0.1,-0.282 0.203,-0.562 0.309,-0.841c0.037,-0.095 0.46,-1.126 0.262,-0.665c0.617,-1.437 0.476,-3.284 -1.076,-4.104c-1.291,-0.682 -3.444,-0.464 -4.105,1.076" style="fill:#6e9d33;fill-rule:nonzero;"/><path d="M987.963,420.065c0.125,0.151 0.249,0.304 0.371,0.458c-0.168,-0.219 -0.146,-0.187 0.068,0.096c0.229,0.319 0.459,0.637 0.679,0.963c0.439,0.651 0.85,1.322 1.232,2.009c0.334,0.601 0.646,1.214 0.935,1.839c0.082,0.178 0.163,0.357 0.242,0.537c-0.109,-0.265 -0.096,-0.232 0.039,0.099c0.143,0.366 0.285,0.733 0.416,1.103c0.491,1.39 0.873,2.818 1.139,4.268c0.072,0.386 0.138,0.774 0.189,1.163c-0.078,-0.592 0.049,0.56 0.059,0.667c0.067,0.783 0.096,1.568 0.099,2.355c0.006,1.569 1.375,3.072 3,3c1.62,-0.073 3.006,-1.319 3,-3c-0.028,-7.269 -2.64,-14.194 -7.225,-19.8c-0.998,-1.22 -3.222,-1.112 -4.243,0c-1.19,1.296 -1.064,2.941 0,4.243" style="fill:#6e9d33;fill-rule:nonzero;"/><path d="M975.54,469.125c5.665,-1.133 5.908,5.675 5.908,5.675c0,0 7.689,-1.54 7.889,3.411c0.201,4.952 -4.507,5.784 -4.507,5.784c0,0 -0.236,4.459 -5.222,5.138c-4.985,0.679 -4.766,-5.245 -4.766,-5.245c0,0 -4.456,1.025 -5.233,-4.139c-0.777,-5.165 4.084,-3.743 4.084,-3.743c0,0 -3.279,-5.856 1.847,-6.881" style="fill:#5364b5;fill-rule:nonzero;"/><path d="M1440.23,347.112c1.969,3.928 3.202,8.232 3.594,12.609c0.072,0.807 0.637,1.5 1.5,1.5c0.755,0 1.572,-0.688 1.5,-1.5c-0.441,-4.934 -1.783,-9.693 -4.004,-14.123c-0.362,-0.724 -1.385,-0.929 -2.052,-0.538c-0.737,0.431 -0.902,1.325 -0.538,2.052" style="fill:#6e9d33;fill-rule:nonzero;"/><path d="M1381.08,324.118c-1.187,4.945 -1.916,9.996 -2.184,15.074c-0.102,1.93 2.898,1.924 3,0c0.255,-4.818 0.951,-9.585 2.077,-14.277c0.45,-1.876 -2.442,-2.677 -2.893,-0.797" style="fill:#6e9d33;fill-rule:nonzero;"/><path d="M1395.45,272.034c-3.02,2.242 -5.232,5.432 -6.113,9.108c-0.182,0.761 0.24,1.661 1.048,1.845c0.771,0.175 1.649,-0.232 1.845,-1.048c0.095,-0.396 0.204,-0.789 0.332,-1.177c0.061,-0.183 0.125,-0.365 0.193,-0.546c0.038,-0.1 0.08,-0.199 0.117,-0.3c0.078,-0.214 -0.096,0.21 -0.002,0.002c0.336,-0.746 0.712,-1.466 1.16,-2.151c0.106,-0.162 0.215,-0.321 0.327,-0.479c0.05,-0.07 0.101,-0.139 0.151,-0.208c0.242,-0.333 -0.11,0.13 0.04,-0.055c0.257,-0.317 0.518,-0.629 0.797,-0.927c0.265,-0.282 0.54,-0.553 0.826,-0.812c0.159,-0.144 0.322,-0.285 0.487,-0.421c0.067,-0.055 0.134,-0.107 0.2,-0.162c-0.251,0.208 0.077,-0.057 0.106,-0.079c0.628,-0.466 1.01,-1.319 0.538,-2.052c-0.401,-0.621 -1.378,-1.038 -2.052,-0.538" style="fill:#6e9d33;fill-rule:nonzero;"/><path d="M1353.05,314.769c2.98,4.312 4.562,9.399 4.501,14.644c-0.023,1.931 2.977,1.932 3,0c0.067,-5.732 -1.649,-11.44 -4.911,-16.158c-0.46,-0.666 -1.315,-0.969 -2.052,-0.538c-0.659,0.385 -1.001,1.382 -0.538,2.052" style="fill:#6e9d33;fill-rule:nonzero;"/><path d="M1333.51,328.849c1.77,4.886 3.943,9.621 6.519,14.135c0.956,1.677 3.549,0.167 2.59,-1.514c-2.448,-4.292 -4.534,-8.773 -6.216,-13.418c-0.276,-0.762 -1.02,-1.275 -1.845,-1.048c-0.735,0.202 -1.325,1.08 -1.048,1.845" style="fill:#6e9d33;fill-rule:nonzero;"/><path d="M1341.94,281.112c-0.74,5.323 -1.255,10.669 -1.51,16.037c-0.092,1.93 2.908,1.925 3,0c0.242,-5.097 0.7,-10.185 1.403,-15.239c0.111,-0.802 -0.195,-1.611 -1.048,-1.846c-0.701,-0.192 -1.733,0.241 -1.845,1.048" style="fill:#6e9d33;fill-rule:nonzero;"/><path d="M1305.07,277.28c-0.495,6.302 -0.99,12.605 -1.485,18.907c-0.151,1.925 2.85,1.915 3,-0c0.495,-6.302 0.99,-12.605 1.485,-18.907c0.151,-1.925 -2.85,-1.915 -3,-0" style="fill:#6e9d33;fill-rule:nonzero;"/><path d="M1280.59,282.608c2.821,5.424 4.553,11.386 5.051,17.481c0.156,1.911 3.157,1.927 3,0c-0.543,-6.646 -2.383,-13.078 -5.461,-18.995c-0.891,-1.714 -3.481,-0.198 -2.59,1.514" style="fill:#6e9d33;fill-rule:nonzero;"/><path d="M1288.45,328.187c2.516,3.408 4.206,7.424 4.707,11.644c0.096,0.804 0.621,1.5 1.5,1.5c0.737,0 1.596,-0.69 1.5,-1.5c-0.564,-4.751 -2.266,-9.298 -5.117,-13.158c-0.48,-0.651 -1.3,-0.978 -2.052,-0.538c-0.642,0.375 -1.022,1.397 -0.538,2.052" style="fill:#6e9d33;fill-rule:nonzero;"/><path d="M1281.53,318.253c2.929,9.607 -13.26,10.987 -13.26,10.987c0,0 -0.753,9.283 -6.84,6.96c-6.088,-2.323 -2.9,-10.677 -2.9,-10.677c0,0 -8.992,-5.913 -2.733,-12.95c7.699,-8.657 14.513,1.398 14.513,1.398c0,0 7.194,-8.924 11.22,4.282" style="fill:#ffdc00;fill-rule:nonzero;"/><path d="M1317.93,304.044c5.665,-1.133 5.908,5.675 5.908,5.675c0,0 7.689,-1.541 7.889,3.411c0.201,4.951 -4.507,5.784 -4.507,5.784c0,0 -0.236,4.459 -5.222,5.138c-4.985,0.678 -4.766,-5.245 -4.766,-5.245c0,0 -4.456,1.025 -5.233,-4.139c-0.777,-5.165 4.084,-3.743 4.084,-3.743c0,0 -3.279,-5.856 1.847,-6.881" style="fill:#5364b5;fill-rule:nonzero;"/><path d="M1400.8,302.275c7.931,-6.162 14.993,8.47 14.993,8.47c0,-0 8.941,-2.606 8.941,3.91c0,6.516 -8.941,6.516 -8.941,6.516c0,-0 3.729,9.774 -10.606,4.561c-14.335,-5.213 -4.387,-11.447 -4.387,-11.447c0,-0 -10.902,-3.54 0,-12.01" style="fill:#ffdc00;fill-rule:nonzero;"/><path d="M1245.99,1266.65c2.338,2.496 4.054,4.842 5.791,8.006c0.397,0.724 0.772,1.459 1.126,2.204c0.42,0.884 0.616,1.344 0.866,1.981c0.64,1.633 1.171,3.306 1.607,5.005c0.389,1.521 2.167,2.589 3.69,2.096c1.57,-0.508 2.513,-2.061 2.095,-3.691c-1.901,-7.418 -5.7,-14.259 -10.932,-19.844c-1.076,-1.148 -3.171,-1.167 -4.243,0c-1.129,1.23 -1.147,3.018 0,4.243" style="fill:#6e9d33;fill-rule:nonzero;"/><path d="M1318.77,1332.76c-0.176,5.215 -0.104,10.434 0.216,15.642c0.097,1.563 1.311,3.075 3,3c1.543,-0.069 3.104,-1.323 3,-3c-0.32,-5.208 -0.392,-10.427 -0.216,-15.642c0.053,-1.57 -1.418,-3.071 -3,-3c-1.671,0.075 -2.943,1.318 -3,3" style="fill:#6e9d33;fill-rule:nonzero;"/><path d="M1267.73,1246.44c0.632,0.992 1.217,2.012 1.743,3.065c0.277,0.555 0.579,1.122 0.793,1.706c-0.177,-0.483 -0.05,-0.117 0.057,0.152c0.116,0.291 0.227,0.584 0.335,0.879c0.807,2.212 1.369,4.503 1.697,6.834c0.097,0.689 0.809,1.459 1.379,1.793c0.642,0.376 1.59,0.535 2.311,0.302c0.726,-0.235 1.426,-0.685 1.793,-1.378c0.403,-0.764 0.421,-1.466 0.303,-2.312c-0.7,-4.982 -2.527,-9.829 -5.23,-14.069c-0.843,-1.322 -2.707,-1.978 -4.105,-1.076c-1.322,0.852 -1.978,2.688 -1.076,4.104" style="fill:#6e9d33;fill-rule:nonzero;"/><path d="M1296.46,1266.84c-1.611,1.731 -2.801,3.786 -3.491,6.05c-0.701,2.304 -0.753,4.674 -0.376,7.034c0.112,0.696 0.798,1.453 1.379,1.793c0.643,0.377 1.591,0.536 2.312,0.303c0.726,-0.235 1.426,-0.685 1.793,-1.379c0.399,-0.757 0.436,-1.471 0.302,-2.312c-0.018,-0.105 -0.034,-0.21 -0.048,-0.315c0.036,0.266 0.071,0.532 0.107,0.797c-0.138,-1.058 -0.135,-2.119 0,-3.178c-0.036,0.266 -0.072,0.532 -0.108,0.798c0.082,-0.58 0.198,-1.153 0.357,-1.717c0.087,-0.307 0.186,-0.61 0.297,-0.91c0.046,-0.124 0.096,-0.247 0.144,-0.371c0.113,-0.292 -0.326,0.728 -0.047,0.132c0.248,-0.529 0.534,-1.041 0.856,-1.529c0.146,-0.22 0.787,-0.968 0.139,-0.231c0.211,-0.24 0.409,-0.488 0.627,-0.722c1.069,-1.149 1.223,-3.12 0,-4.243c-1.163,-1.067 -3.101,-1.227 -4.243,0" style="fill:#6e9d33;fill-rule:nonzero;"/><path d="M1347.13,1266.47c-2.42,5.635 -3.582,11.706 -3.083,17.844c0.127,1.56 1.289,3.076 3,3c1.516,-0.068 3.136,-1.325 3,-3c-0.113,-1.39 -0.151,-2.782 -0.096,-4.175c0.024,-0.597 0.063,-1.193 0.118,-1.787c0.036,-0.397 0.078,-0.793 0.13,-1.187c-0.07,0.525 0.048,-0.28 0.066,-0.384c0.209,-1.277 0.491,-2.541 0.843,-3.786c0.19,-0.67 0.401,-1.334 0.632,-1.991c0.1,-0.282 0.203,-0.562 0.309,-0.841c0.037,-0.095 0.46,-1.126 0.262,-0.665c0.617,-1.437 0.476,-3.284 -1.076,-4.104c-1.291,-0.682 -3.444,-0.464 -4.105,1.076" style="fill:#6e9d33;fill-rule:nonzero;"/><path d="M1284.59,1223.18c0.125,0.151 0.249,0.304 0.371,0.458c-0.168,-0.219 -0.146,-0.187 0.068,0.096c0.229,0.319 0.459,0.637 0.679,0.963c0.439,0.651 0.85,1.322 1.232,2.009c0.334,0.601 0.646,1.215 0.935,1.839c0.082,0.178 0.163,0.357 0.242,0.537c-0.109,-0.265 -0.096,-0.232 0.039,0.099c0.143,0.366 0.285,0.733 0.416,1.103c0.491,1.39 0.873,2.818 1.139,4.268c0.072,0.386 0.138,0.774 0.189,1.163c-0.078,-0.592 0.049,0.56 0.059,0.667c0.067,0.783 0.096,1.568 0.099,2.355c0.006,1.569 1.376,3.072 3,3c1.62,-0.073 3.006,-1.319 3,-3c-0.028,-7.269 -2.64,-14.194 -7.225,-19.8c-0.998,-1.22 -3.222,-1.112 -4.243,0c-1.19,1.296 -1.064,2.942 0,4.243" style="fill:#6e9d33;fill-rule:nonzero;"/><path d="M1332.77,1355.09c0.37,0.359 0.728,0.731 1.066,1.121c0.16,0.183 0.31,0.373 0.466,0.559c0.249,0.294 -0.358,-0.489 -0.135,-0.176c0.071,0.099 0.145,0.195 0.216,0.294c0.601,0.838 1.129,1.729 1.577,2.658c0.053,0.109 0.105,0.219 0.155,0.33c0.041,0.09 0.211,0.494 0.033,0.058c-0.179,-0.437 -0.013,-0.029 0.023,0.062c0.045,0.113 0.088,0.226 0.131,0.34c0.181,0.483 0.341,0.973 0.479,1.47c0.131,0.468 0.242,0.941 0.333,1.418c0.028,0.148 0.055,0.298 0.079,0.448c0.017,0.103 0.077,0.543 0.014,0.051c-0.064,-0.493 -0.009,-0.051 0.002,0.053c0.017,0.151 0.031,0.302 0.044,0.453c0.138,1.559 1.282,3.077 3,3c1.507,-0.068 3.148,-1.326 3,-3c-0.447,-5.057 -2.576,-9.828 -6.24,-13.382c-1.128,-1.093 -3.135,-1.206 -4.243,0c-1.085,1.183 -1.203,3.076 0,4.243" style="fill:#6e9d33;fill-rule:nonzero;"/><path d="M1378.36,1346.22c-2.348,5.273 -2.92,11.115 -1.356,16.705c0.423,1.511 2.144,2.596 3.691,2.096c1.541,-0.499 2.548,-2.072 2.095,-3.691c-0.157,-0.561 -0.296,-1.126 -0.408,-1.699c-0.063,-0.321 -0.145,-0.657 -0.168,-0.984c0.037,0.537 0.013,0.083 -0.014,-0.193c-0.113,-1.16 -0.13,-2.329 -0.052,-3.491c0.017,-0.249 0.038,-0.498 0.064,-0.747c0.017,-0.165 0.035,-0.331 0.056,-0.496c-0.052,0.385 -0.052,0.404 -0,0.056c0.103,-0.574 0.21,-1.145 0.351,-1.711c0.14,-0.565 0.304,-1.125 0.491,-1.676c0.08,-0.237 0.165,-0.472 0.254,-0.705c0.059,-0.156 0.12,-0.31 0.183,-0.464c-0.142,0.332 -0.144,0.342 -0.006,0.028c0.637,-1.43 0.463,-3.291 -1.077,-4.104c-1.306,-0.69 -3.422,-0.455 -4.104,1.076" style="fill:#6e9d33;fill-rule:nonzero;"/><path d="M1433.62,1299.8c-2.864,4.542 -4.853,9.677 -5.742,14.974c-0.259,1.541 0.405,3.305 2.095,3.69c1.45,0.33 3.412,-0.44 3.69,-2.095c0.418,-2.486 1.067,-4.927 1.958,-7.285c0.118,-0.314 0.243,-0.626 0.368,-0.938c0.313,-0.779 -0.254,0.555 0.09,-0.211c0.276,-0.612 0.556,-1.222 0.859,-1.822c0.566,-1.126 1.191,-2.219 1.863,-3.285c0.838,-1.329 0.323,-3.365 -1.077,-4.104c-1.478,-0.781 -3.209,-0.343 -4.104,1.076" style="fill:#6e9d33;fill-rule:nonzero;"/><path d="M1453.35,1250.09c-4.063,5.413 -6.396,11.887 -7.062,18.597c-0.155,1.567 1.491,3.068 3,3c1.758,-0.078 2.833,-1.321 3,-3c0.011,-0.107 0.143,-1.258 0.062,-0.643c0.05,-0.383 0.113,-0.765 0.18,-1.146c0.133,-0.762 0.294,-1.519 0.48,-2.27c0.348,-1.408 0.788,-2.793 1.314,-4.145c0.071,-0.18 0.142,-0.36 0.216,-0.539c-0.117,0.27 -0.104,0.242 0.037,-0.085c0.159,-0.353 0.317,-0.705 0.485,-1.054c0.294,-0.61 0.605,-1.211 0.935,-1.802c0.754,-1.353 1.604,-2.646 2.534,-3.885c0.945,-1.26 0.244,-3.407 -1.077,-4.104c-1.575,-0.833 -3.095,-0.269 -4.104,1.076" style="fill:#6e9d33;fill-rule:nonzero;"/><path d="M1371,1315.19c-1.589,2.054 -2.794,4.352 -3.259,6.932c-0.464,2.574 -0.409,5.208 0.373,7.719c0.466,1.497 2.113,2.606 3.691,2.095c1.504,-0.486 2.595,-2.085 2.095,-3.69c-0.147,-0.471 -0.271,-0.948 -0.363,-1.433c-0.023,-0.122 -0.044,-0.243 -0.064,-0.365c-0.048,-0.326 -0.037,-0.243 0.033,0.248c0.039,-0.21 -0.05,-0.519 -0.062,-0.736c-0.027,-0.493 -0.026,-0.987 0.003,-1.479c0.013,-0.221 0.099,-0.522 0.064,-0.738c-0.069,0.492 -0.08,0.574 -0.031,0.248c0.014,-0.092 0.029,-0.183 0.046,-0.274c0.082,-0.455 0.188,-0.906 0.317,-1.351c0.069,-0.236 0.145,-0.471 0.227,-0.704c0.041,-0.116 0.084,-0.232 0.129,-0.347c0.119,-0.298 0.088,-0.23 -0.092,0.204c0.14,-0.156 0.219,-0.479 0.316,-0.669c0.111,-0.22 0.229,-0.436 0.354,-0.649c0.124,-0.213 0.255,-0.422 0.392,-0.627c0.106,-0.158 0.633,-0.864 0.074,-0.141c0.51,-0.66 0.878,-1.25 0.878,-2.122c0,-0.736 -0.327,-1.614 -0.878,-2.121c-1.073,-0.984 -3.217,-1.326 -4.243,0" style="fill:#6e9d33;fill-rule:nonzero;"/><path d="M1403.2,1303.08c-4.273,5.161 -7.361,11.201 -8.826,17.756c-0.342,1.528 0.463,3.318 2.095,3.69c1.521,0.347 3.324,-0.457 3.69,-2.095c0.326,-1.458 0.727,-2.896 1.216,-4.308c0.244,-0.705 0.509,-1.403 0.793,-2.094c-0.229,0.557 0.211,-0.471 0.254,-0.567c0.155,-0.34 0.314,-0.678 0.479,-1.013c0.657,-1.34 1.391,-2.643 2.198,-3.899c0.403,-0.628 0.825,-1.244 1.264,-1.848c0.06,-0.083 0.73,-0.961 0.375,-0.509c0.231,-0.294 0.467,-0.583 0.705,-0.87c0.999,-1.207 1.27,-3.077 0,-4.243c-1.105,-1.014 -3.174,-1.291 -4.243,0" style="fill:#6e9d33;fill-rule:nonzero;"/><path d="M1412.18,1248.04c7.57,3.018 0,8.875 0,8.875c0,0 8.009,3.497 3.298,7.531c-4.711,4.035 -9.658,1.345 -9.658,1.345c0,0 -5.3,4.84 -11.66,2.017c-6.36,-2.824 0,-9.262 0,-9.262c0,0 -6.36,-6.741 0,-10.506c6.36,-3.765 9.988,4.446 9.988,4.446c0,0 0.612,-7.404 8.032,-4.446" style="fill:#ffdc00;fill-rule:nonzero;"/><path d="M1311.03,1303.35c-1.267,7.318 -11.892,6.484 -11.892,6.484c0,-0 -2.769,8.535 -10.528,3.849c-7.759,-4.687 -1.979,-13.32 -1.979,-13.32c0,-0 -7.729,-0.479 -6.268,-8.24c1.461,-7.761 11.008,-0.988 11.008,-0.988c0,-0 7.581,-7.583 16.264,0.071c8.682,7.654 3.395,12.144 3.395,12.144" style="fill:#5364b5;fill-rule:nonzero;"/><path d="M487.344,333.067c125.649,-19.67 215.597,-42.118 292.177,-62.575c-10.918,1.587 -15.889,0.818 -22.678,0.457c0.86,-7.137 -0.648,-14.54 -4.234,-20.772c-11.786,7.39 -23.572,14.779 -35.359,22.168c-4.896,-4.829 -9.792,-9.657 -14.687,-14.486c-2.469,3.696 -6.744,6.12 -11.183,6.34c-4.351,-8.213 -8.702,-16.425 -13.053,-24.637c-4.409,3.507 -9.419,6.256 -14.744,8.091c-2.091,-6.784 -6.034,-12.987 -11.289,-17.759c-7.894,4.441 -15.788,8.882 -23.682,13.323c-3.486,-6.1 -8.022,-11.598 -13.349,-16.178c-9.419,6.867 -19.296,13.107 -29.542,18.665c-5.324,-8.26 -10.647,-16.52 -15.97,-24.78c1.362,10.485 -12.184,17.754 -22.286,14.638c-10.103,-3.115 -16.858,-12.37 -22.874,-21.064c-0.379,9.62 -11.624,16.321 -20.982,14.056c-9.357,-2.264 -15.978,-11.23 -17.977,-20.648c-6.778,6.794 -15.32,11.812 -24.554,14.426c-4.451,-11.466 -8.902,-22.933 -13.353,-34.399c-9.884,9.112 -20.433,17.501 -31.537,25.079c-4.253,-7.324 -8.507,-14.648 -12.761,-21.971c-1.879,3.253 -5.557,5.384 -9.313,5.398c-15.968,-10.544 -17.402,-19.569 -28.131,-35.739c-14.933,10.359 -14.092,10.386 -29.025,20.744c-7.343,-7.537 -14.687,-15.074 -22.031,-22.61c-4.974,6.322 -12.426,10.64 -20.385,11.814c-4.431,-13.243 -8.862,-26.485 -13.292,-39.727c-10.276,7.363 -20.551,14.725 -30.827,22.087c-2.195,-6.534 -4.391,-13.067 -6.587,-19.601c-3.619,3.375 -7.239,6.751 -10.858,10.126c-4.984,-8.135 -11.295,-15.455 -18.608,-21.581c-2.774,6.064 -7.232,11.347 -12.742,15.104c-1.248,-11.022 -4.747,-21.784 -10.219,-31.432c-6.419,6.172 -13.964,11.168 -22.153,14.669c-4.216,-9.72 -8.432,-19.44 -12.648,-29.159c-2.823,4.178 -6.452,7.81 -10.628,10.635c-4.434,-7.914 -8.869,-15.829 -13.303,-23.744c-4.747,6.547 -11.932,11.283 -19.82,13.065c-3.974,-7.159 -7.948,-14.319 -11.921,-21.479c-3.614,8.296 -16.268,8.67 -23.222,2.881c-6.955,-5.79 -9.628,-15.121 -11.942,-23.869c-6.069,6.009 -10.151,13.991 -11.471,22.429c-6.976,-19.809 -22.99,-35.573 -35.851,-51.346c-3.066,-3.759 -15.14,-14.266 -18.45,-18.24l0,372.38c0,-0 11.173,0.537 32.974,0.537c64.123,-0.002 220.193,-4.655 454.37,-41.316" style="fill:#377b4b;fill-rule:nonzero;"/><path d="M781.981,264.295c-8.186,2.844 -16.488,4.064 -25.138,3.655l3,3c0.788,-7.807 -0.87,-15.424 -4.644,-22.287c-0.763,-1.388 -2.756,-1.921 -4.104,-1.076c-11.786,7.389 -23.572,14.779 -35.359,22.168c1.212,0.156 2.424,0.313 3.636,0.469c-4.896,-4.829 -9.792,-9.657 -14.688,-14.486c-1.486,-1.466 -3.585,-0.938 -4.712,0.607c-2.058,2.825 -5.116,4.538 -8.592,4.854c0.864,0.495 1.727,0.99 2.591,1.486c-4.351,-8.213 -8.702,-16.425 -13.054,-24.637c-0.999,-1.885 -3.27,-1.723 -4.711,-0.607c-4.065,3.146 -8.589,5.583 -13.421,7.319c1.23,0.699 2.46,1.397 3.69,2.095c-2.391,-7.338 -6.425,-13.798 -12.06,-19.082c-0.988,-0.927 -2.445,-1.139 -3.635,-0.469c-7.894,4.441 -15.788,8.882 -23.682,13.323c1.368,0.359 2.736,0.718 4.104,1.077c-3.696,-6.32 -8.315,-11.957 -13.818,-16.786c-0.924,-0.811 -2.527,-1.273 -3.635,-0.469c-9.447,6.848 -19.301,13.074 -29.542,18.665c1.368,0.358 2.736,0.717 4.104,1.076c-5.323,-8.26 -10.646,-16.52 -15.969,-24.779c-1.485,-2.304 -5.873,-1.643 -5.591,1.514c0.8,8.946 -9.943,13.779 -17.589,11.993c-9.928,-2.319 -16.543,-12.096 -21.98,-19.934c-1.728,-2.491 -5.356,-1.513 -5.591,1.515c-0.619,8.001 -9.874,12.798 -17.184,11.162c-8.669,-1.939 -14.01,-10.441 -15.882,-18.552c-0.518,-2.244 -3.459,-2.848 -5.014,-1.324c-6.568,6.436 -14.411,11.05 -23.23,13.654c1.23,0.699 2.46,1.397 3.69,2.096c-4.451,-11.467 -8.902,-22.933 -13.353,-34.399c-0.822,-2.115 -3.239,-2.952 -5.015,-1.324c-9.73,8.925 -20.041,17.139 -30.929,24.61c1.368,0.358 2.736,0.717 4.105,1.076c-4.254,-7.324 -8.508,-14.648 -12.761,-21.971c-1.176,-2.024 -3.968,-1.854 -5.181,0c-1.184,1.81 -3.832,4.359 -6.252,3.621c-1.972,-0.601 -4.089,-2.994 -5.622,-4.358c-2.846,-2.534 -5.375,-5.379 -7.54,-8.515c-4.676,-6.772 -8.327,-14.21 -12.85,-21.089c-0.837,-1.273 -2.715,-2.041 -4.104,-1.076c-9.768,6.787 -19.257,13.957 -29.025,20.744c1.212,0.156 2.424,0.312 3.635,0.469c-7.343,-7.537 -14.687,-15.074 -22.031,-22.611c-1.048,-1.076 -3.222,-1.247 -4.242,0c-4.913,6.009 -11.407,9.768 -19.061,11.043c1.23,0.699 2.46,1.397 3.69,2.095c-4.431,-13.242 -8.862,-26.484 -13.293,-39.726c-0.561,-1.678 -2.739,-2.988 -4.407,-1.793c-10.275,7.362 -20.55,14.725 -30.826,22.087c1.469,0.598 2.938,1.195 4.407,1.793c-2.195,-6.534 -4.391,-13.068 -6.587,-19.602c-0.727,-2.163 -3.308,-2.914 -5.014,-1.324c-3.62,3.376 -7.239,6.751 -10.859,10.127c1.571,0.203 3.141,0.405 4.712,0.607c-5.202,-8.351 -11.58,-15.813 -19.076,-22.188c-1.347,-1.146 -3.817,-1.268 -4.712,0.607c-2.698,5.652 -6.534,10.405 -11.666,14.027c1.505,0.864 3.01,1.727 4.514,2.591c-1.414,-11.641 -4.921,-22.69 -10.628,-32.946c-0.964,-1.732 -3.339,-1.905 -4.712,-0.607c-6.341,5.991 -13.558,10.702 -21.546,14.199c1.369,0.359 2.737,0.718 4.105,1.077c-4.216,-9.72 -8.433,-19.44 -12.649,-29.159c-0.978,-2.256 -4.043,-1.627 -5.18,0c-2.62,3.746 -5.807,6.937 -9.552,9.559c1.368,0.359 2.737,0.718 4.105,1.076c-4.435,-7.914 -8.869,-15.829 -13.304,-23.744c-1.202,-2.146 -3.892,-1.712 -5.181,0c-4.479,5.953 -10.827,9.925 -18.026,11.687c1.129,0.459 2.258,0.919 3.388,1.378c-3.974,-7.159 -7.948,-14.319 -11.922,-21.479c-1.038,-1.871 -4.189,-2.038 -5.181,0c-3.266,6.711 -12.651,6.514 -18.082,2.576c-7.112,-5.156 -9.467,-14.831 -11.598,-22.847c-0.576,-2.171 -3.44,-2.931 -5.014,-1.324c-6.41,6.547 -10.684,14.713 -12.243,23.753l5.786,0c-8.375,-23.979 -37.328,-51.422 -53.829,-71.539c-2.45,-2.987 -6.673,1.279 -4.242,4.243c15.734,19.182 44.304,46.039 52.285,68.891c0.881,2.523 5.24,3.164 5.786,-0c1.391,-8.071 4.962,-15.245 10.7,-21.105c-1.671,-0.441 -3.343,-0.883 -5.014,-1.324c2.734,10.288 6.373,22.799 16.787,27.839c8.086,3.913 19.585,2.646 23.859,-6.135l-5.181,-0c3.974,7.16 7.948,14.32 11.922,21.48c0.657,1.183 2.115,1.69 3.388,1.378c8.813,-2.156 16.179,-7.223 21.612,-14.443l-5.181,-0c4.435,7.914 8.869,15.829 13.304,23.744c0.745,1.33 2.791,1.996 4.104,1.076c4.629,-3.242 8.465,-7.079 11.704,-11.712l-5.18,-0c4.216,9.72 8.432,19.439 12.648,29.159c0.695,1.602 2.773,1.659 4.105,1.076c8.443,-3.696 16.063,-8.809 22.76,-15.138c-1.571,-0.202 -3.142,-0.404 -4.712,-0.607c5.159,9.271 8.528,19.375 9.809,29.918c0.245,2.015 2.443,4.052 4.514,2.59c5.952,-4.201 10.673,-9.59 13.819,-16.18c-1.571,0.203 -3.141,0.405 -4.712,0.607c7.12,6.056 13.195,13.038 18.138,20.974c1.046,1.679 3.274,1.948 4.712,0.608c3.62,-3.376 7.239,-6.751 10.859,-10.127c-1.672,-0.441 -3.343,-0.882 -5.015,-1.324c2.196,6.534 4.392,13.068 6.588,19.602c0.563,1.676 2.737,2.989 4.407,1.793c10.275,-7.363 20.55,-14.725 30.826,-22.087c-1.469,-0.598 -2.938,-1.196 -4.407,-1.793c4.431,13.242 8.862,26.484 13.293,39.727c0.554,1.658 2.011,2.375 3.69,2.095c8.537,-1.423 16.23,-5.886 21.708,-12.586l-4.242,-0c7.344,7.537 14.687,15.073 22.031,22.61c0.866,0.889 2.565,1.213 3.635,0.469c9.768,-6.786 19.257,-13.956 29.025,-20.743c-1.368,-0.359 -2.736,-0.718 -4.104,-1.076c5.709,8.684 10.049,18.445 16.896,26.336c1.607,1.851 3.355,3.572 5.217,5.167c2.049,1.754 4.603,4.252 7.093,5.311c4.936,2.1 10.911,-2.641 13.419,-6.474l-5.181,-0c4.254,7.324 8.507,14.647 12.761,21.971c0.77,1.327 2.766,1.994 4.104,1.076c11.304,-7.755 22.041,-16.28 32.144,-25.547c-1.671,-0.442 -3.343,-0.883 -5.014,-1.324c4.451,11.466 8.902,22.932 13.353,34.398c0.579,1.49 2.005,2.594 3.691,2.096c9.795,-2.893 18.582,-8.049 25.877,-15.197c-1.671,-0.442 -3.343,-0.883 -5.014,-1.324c2.536,10.984 10.809,21.996 22.763,23.185c10.612,1.056 21.248,-6.515 22.089,-17.39c-1.863,0.504 -3.727,1.009 -5.59,1.514c6.942,10.006 15.822,22.304 29.142,23.23c10.373,0.72 22.635,-6.832 21.608,-18.318c-1.863,0.505 -3.727,1.009 -5.59,1.514c5.323,8.26 10.646,16.519 15.969,24.779c0.897,1.391 2.628,1.882 4.105,1.076c10.241,-5.59 20.095,-11.816 29.542,-18.665c-1.212,-0.156 -2.424,-0.313 -3.636,-0.469c5.142,4.512 9.426,9.665 12.881,15.572c0.827,1.415 2.688,1.873 4.104,1.076c7.894,-4.441 15.788,-8.882 23.682,-13.324c-1.212,-0.156 -2.424,-0.313 -3.636,-0.469c4.897,4.593 8.435,10.045 10.518,16.436c0.473,1.451 2.104,2.665 3.69,2.095c5.886,-2.115 11.126,-5.037 16.068,-8.863c-1.57,-0.202 -3.141,-0.404 -4.711,-0.607c4.351,8.212 8.702,16.425 13.053,24.637c0.455,0.86 1.598,1.576 2.59,1.486c5.766,-0.523 10.366,-3.151 13.773,-7.825c-1.571,0.202 -3.141,0.404 -4.712,0.607c4.896,4.828 9.792,9.657 14.688,14.486c0.923,0.91 2.508,1.175 3.636,0.469c11.786,-7.389 23.572,-14.779 35.358,-22.168c-1.368,-0.359 -2.736,-0.718 -4.104,-1.076c3.305,6.01 4.511,12.449 3.824,19.258c-0.169,1.667 1.513,2.929 3,3c9.141,0.433 18.084,-0.864 26.733,-3.869c3.625,-1.26 2.066,-7.058 -1.595,-5.786" style="fill:#224e2f;fill-rule:nonzero;"/></svg>