<?xml version="1.0" encoding="UTF-8" standalone="no"?><!DOCTYPE svg PUBLIC "-//W3C//DTD SVG 1.1//EN" "http://www.w3.org/Graphics/SVG/1.1/DTD/svg11.dtd"><svg width="100%" height="100%" viewBox="0 0 330 509" version="1.1" xmlns="http://www.w3.org/2000/svg" xmlns:xlink="http://www.w3.org/1999/xlink" xml:space="preserve"  style="fill-rule:evenodd;clip-rule:evenodd;stroke-linejoin:round;stroke-miterlimit:2;"><g><path d="M149.613,490.038c14.828,-0.383 23.641,7.533 20.817,12.928c-2.823,5.395 -27.127,6.844 -42.857,5.061c-15.731,-1.783 -17.453,-15.613 -18.181,-15.404c-0.726,0.209 25.404,-2.203 40.221,-2.585Z" style="fill:#507e3b;fill-rule:nonzero;"/><path d="M222.232,261.082c6.494,-7.534 10.314,-40.827 -11.174,-47.918c-21.488,-7.092 -26.216,20.628 -23.208,36.1c3.009,15.471 29.01,18.049 34.382,11.818Z" style="fill:#4ebb81;fill-rule:nonzero;"/><path d="M222.232,261.082l0.757,0.653c1.562,-1.826 2.848,-4.739 3.804,-8.321c0.947,-3.58 1.531,-7.821 1.532,-12.231c-0.002,-5.836 -1.021,-11.972 -3.65,-17.232c-2.621,-5.256 -6.913,-9.635 -13.304,-11.737c-2.45,-0.809 -4.718,-1.19 -6.811,-1.19c-3.392,-0.003 -6.317,1.015 -8.717,2.752c-3.604,2.609 -6.035,6.751 -7.587,11.445c-1.551,4.699 -2.227,9.979 -2.228,14.975c0,3.291 0.295,6.458 0.84,9.259c0.539,2.772 1.778,5.17 3.469,7.173c2.541,3.008 6.075,5.144 9.877,6.541c3.804,1.396 7.886,2.056 11.585,2.057c2.415,-0.001 4.667,-0.281 6.588,-0.845c1.918,-0.568 3.526,-1.408 4.602,-2.646l-0.757,-0.653l-0.758,-0.653c-0.69,0.81 -1.962,1.541 -3.651,2.033c-1.685,0.497 -3.766,0.765 -6.024,0.764c-4.616,0.003 -9.965,-1.118 -14.324,-3.467c-2.18,-1.172 -4.113,-2.646 -5.609,-4.42c-1.497,-1.776 -2.562,-3.846 -3.034,-6.266c-0.518,-2.656 -0.804,-5.706 -0.804,-8.877c-0.004,-6.419 1.18,-13.338 3.862,-18.533c1.339,-2.6 3.041,-4.763 5.124,-6.265c2.086,-1.502 4.548,-2.37 7.546,-2.374c1.85,0 3.905,0.337 6.184,1.089c5.848,1.937 9.689,5.848 12.142,10.733c2.445,4.88 3.44,10.733 3.439,16.337c0.001,4.232 -0.565,8.32 -1.466,11.719c-0.892,3.395 -2.152,6.111 -3.385,7.527l0.758,0.653Z" style="fill:#3fb870;fill-rule:nonzero;"/><path d="M250.596,238.949c1.805,-7.769 -1.955,-32.232 -18.92,-33.091c-16.965,-0.86 -23.761,26.97 -23.197,36.314c3.438,56.944 37.175,18.051 42.117,-3.223Z" style="fill:#785f91;fill-rule:nonzero;"/><path d="M250.596,238.949l0.974,0.226c0.29,-1.253 0.435,-2.82 0.436,-4.616c-0.005,-5.192 -1.234,-12.293 -4.353,-18.314c-1.562,-3.008 -3.605,-5.748 -6.24,-7.8c-2.631,-2.051 -5.866,-3.396 -9.687,-3.586c-0.274,-0.014 -0.546,-0.021 -0.816,-0.021c-4.216,-0.004 -7.849,1.694 -10.825,4.326c-4.472,3.953 -7.589,9.972 -9.637,15.961c-2.042,5.997 -3,11.954 -3.003,15.902c0,0.426 0.012,0.83 0.036,1.21l0,-0.004c0.67,11.033 2.451,18.555 5.041,23.437c1.296,2.439 2.808,4.224 4.51,5.403c1.698,1.181 3.584,1.731 5.501,1.727c3.073,-0.006 6.191,-1.349 9.208,-3.475c4.522,-3.199 8.864,-8.216 12.4,-13.687c3.531,-5.475 6.248,-11.393 7.429,-16.462l-0.974,-0.227l-0.974,-0.226c-1.465,6.335 -5.661,14.477 -10.826,20.936c-2.579,3.233 -5.402,6.05 -8.209,8.032c-2.81,1.988 -5.589,3.115 -8.054,3.109c-1.546,-0.003 -2.983,-0.419 -4.362,-1.371c-2.063,-1.424 -4.009,-4.137 -5.545,-8.583c-1.537,-4.44 -2.657,-10.581 -3.149,-18.734l0,-0.004c-0.022,-0.332 -0.033,-0.693 -0.033,-1.081c-0.001,-2.422 0.407,-5.831 1.267,-9.54c1.286,-5.566 3.598,-11.824 6.977,-16.605c1.688,-2.393 3.637,-4.413 5.832,-5.822c2.2,-1.409 4.634,-2.22 7.39,-2.222c0.235,-0 0.474,0.006 0.715,0.018c3.412,0.176 6.21,1.343 8.56,3.168c3.519,2.733 6,7.005 7.574,11.548c1.577,4.537 2.249,9.327 2.247,12.987c0.001,1.683 -0.143,3.128 -0.384,4.164l0.974,0.226Z" style="fill:#6e51a2;fill-rule:nonzero;"/><path d="M201.388,278.272c0.215,-8.595 0,-36.1 21.273,-36.1c21.273,0 23.852,24.497 23.207,36.1c-0.644,11.604 -44.48,-0 -44.48,-0Z" style="fill:#89b3d1;fill-rule:nonzero;"/><path d="M201.388,278.272l1,0.025c0.053,-2.162 0.081,-5.46 0.419,-9.201c0.502,-5.61 1.727,-12.197 4.695,-17.263c1.482,-2.536 3.384,-4.69 5.842,-6.216c2.46,-1.525 5.489,-2.442 9.317,-2.445c4.701,0.004 8.37,1.23 11.301,3.235c4.389,3.004 7.155,7.853 8.808,13.154c1.654,5.294 2.184,11.002 2.183,15.564c0,1.105 -0.032,2.143 -0.084,3.093c-0.047,0.753 -0.293,1.305 -0.752,1.82c-0.685,0.766 -1.963,1.404 -3.715,1.805c-1.746,0.406 -3.931,0.587 -6.352,0.586c-6.466,0.002 -14.597,-1.275 -21.08,-2.559c-3.243,-0.642 -6.079,-1.284 -8.101,-1.765c-1.011,-0.24 -1.819,-0.441 -2.374,-0.581c-0.554,-0.14 -0.851,-0.218 -0.851,-0.218l-0.256,0.966l1,0.025l-1,-0.025l-0.256,0.967c0.014,0.004 4.901,1.297 11.45,2.593c6.553,1.294 14.753,2.595 21.468,2.597c3.361,-0.004 6.35,-0.316 8.657,-1.194c1.151,-0.442 2.145,-1.034 2.891,-1.853c0.747,-0.815 1.208,-1.874 1.269,-3.054c0.053,-0.986 0.085,-2.06 0.085,-3.203c-0.004,-6.285 -0.946,-14.643 -4.44,-21.566c-1.749,-3.458 -4.153,-6.563 -7.419,-8.802c-3.265,-2.241 -7.382,-3.588 -12.432,-3.585c-5.533,-0.008 -9.798,1.816 -12.942,4.693c-4.721,4.321 -6.958,10.832 -8.099,17.028c-1.134,6.198 -1.15,12.146 -1.232,15.354c-0.012,0.462 0.297,0.874 0.744,0.992l0.256,-0.967Z" style="fill:#6e9cc3;fill-rule:nonzero;"/><path d="M273.588,266.454c1.934,-10.529 0.86,-39.753 -14.182,-42.761c-15.042,-3.009 -28.149,18.265 -27.72,35.885c0.43,17.62 10.959,23.422 19.34,22.992c8.38,-0.43 22.562,-16.116 22.562,-16.116Z" style="fill:#f38088;fill-rule:nonzero;"/><path d="M273.588,266.454l0.984,0.18c0.454,-2.478 0.738,-5.881 0.739,-9.73c-0.003,-6.541 -0.823,-14.345 -3.152,-20.91c-1.167,-3.282 -2.714,-6.261 -4.77,-8.607c-2.05,-2.343 -4.642,-4.049 -7.787,-4.675c-1.032,-0.206 -2.059,-0.306 -3.072,-0.306c-3.628,-0 -7.078,1.275 -10.171,3.402c-4.644,3.196 -8.538,8.297 -11.3,14.154c-2.758,5.858 -4.382,12.48 -4.384,18.768c0,0.289 0.003,0.582 0.011,0.879l0,-0.007c0.208,8.695 2.848,14.729 6.596,18.564c3.745,3.837 8.533,5.428 12.882,5.426c0.306,-0 0.61,-0.008 0.911,-0.023c2.391,-0.133 4.948,-1.276 7.532,-2.845c3.867,-2.363 7.775,-5.752 10.74,-8.558c2.961,-2.806 4.971,-5.028 4.983,-5.042c0.124,-0.137 0.208,-0.308 0.242,-0.49l-0.984,-0.18l-0.742,-0.671c0,0 -0.051,0.057 -0.155,0.17c-0.777,0.844 -4.393,4.705 -8.759,8.378c-2.181,1.836 -4.55,3.624 -6.822,4.959c-2.268,1.34 -4.448,2.203 -6.136,2.281c-0.268,0.014 -0.539,0.021 -0.81,0.021c-3.875,-0.002 -8.117,-1.408 -11.451,-4.823c-3.332,-3.416 -5.82,-8.889 -6.027,-17.216l0,-0.006c-0.009,-0.267 -0.011,-0.539 -0.011,-0.817c-0.006,-7.923 2.766,-16.604 7.174,-23.223c2.202,-3.31 4.808,-6.104 7.643,-8.05c2.837,-1.949 5.885,-3.051 9.038,-3.051c0.883,-0 1.776,0.087 2.68,0.267c2.665,0.536 4.843,1.949 6.676,4.033c2.746,3.121 4.635,7.774 5.799,12.853c1.168,5.077 1.627,10.567 1.626,15.345c0.001,3.746 -0.282,7.062 -0.707,9.369l0.984,0.181l-0.742,-0.671l0.742,0.671Z" style="fill:#f26f81;fill-rule:nonzero;"/><path d="M179.9,247.545c13.739,0.292 29.845,9.454 27.279,35.885c-2.568,26.43 -54.784,9.884 -57.362,-5.158c-2.579,-15.041 19.984,-30.942 30.083,-30.727Z" style="fill:#fecb6c;fill-rule:nonzero;"/><path d="M179.9,247.545l-0.021,0.999c6.185,0.131 12.836,2.121 17.907,6.722c5.067,4.604 8.654,11.823 8.664,22.747c0,1.684 -0.088,3.457 -0.267,5.321c-0.235,2.406 -0.895,4.393 -1.883,6.039c-1.484,2.464 -3.722,4.198 -6.54,5.343c-2.815,1.142 -6.203,1.669 -9.856,1.668c-7.826,0.005 -16.845,-2.419 -24.025,-5.976c-3.591,-1.775 -6.724,-3.833 -9.017,-5.97c-2.302,-2.137 -3.728,-4.346 -4.06,-6.335c-0.128,-0.746 -0.19,-1.495 -0.19,-2.246c-0.002,-3.3 1.194,-6.67 3.193,-9.877c2.99,-4.81 7.771,-9.215 12.674,-12.377c2.45,-1.583 4.929,-2.858 7.213,-3.729c2.282,-0.873 4.375,-1.335 6.002,-1.332l0.179,0.002l0.006,-0l0.021,-0.999l0.027,-1l-0.233,-0.003c-2.652,0.006 -5.835,0.942 -9.198,2.526c-5.036,2.383 -10.448,6.256 -14.653,10.931c-2.102,2.338 -3.901,4.878 -5.183,7.547c-1.282,2.668 -2.048,5.471 -2.048,8.311c0,0.861 0.071,1.724 0.219,2.585c0.462,2.645 2.187,5.143 4.667,7.459c3.732,3.47 9.246,6.561 15.373,8.819c6.126,2.253 12.86,3.663 19.033,3.664c5.121,-0.002 9.876,-0.967 13.558,-3.334c1.837,-1.183 3.397,-2.725 4.552,-4.647c1.155,-1.921 1.902,-4.214 2.16,-6.877c0.185,-1.923 0.275,-3.76 0.275,-5.513c0.01,-11.357 -3.801,-19.237 -9.32,-24.229c-5.515,-4.995 -12.638,-7.099 -19.208,-7.239l0.006,0l-0.027,1Z" style="fill:#d1a638;fill-rule:nonzero;"/><path d="M147.453,380.126c0,0 19.554,23.207 66.613,19.124c47.059,-4.082 53.075,-20.843 54.58,-27.719c1.504,-6.876 17.835,-96.482 8.81,-113.457c0,-0 -15.256,15.901 -53.291,17.62c-38.033,1.719 -86.811,-0.86 -97.555,-8.166c0,0 -5.802,90.895 20.843,112.598Z" style="fill:#edb581;fill-rule:nonzero;"/><path d="M147.453,380.126l-0.765,0.644c0.062,0.074 4.284,5.063 13.45,10.038c9.163,4.975 23.274,9.925 43.049,9.924c3.478,-0 7.132,-0.153 10.965,-0.486c23.639,-2.052 37.088,-7.288 44.879,-13.002c3.891,-2.855 6.357,-5.834 7.934,-8.553c1.579,-2.717 2.27,-5.173 2.657,-6.947c0.304,-1.389 1.169,-5.923 2.306,-12.491c3.407,-19.7 9.228,-57.494 9.231,-81.779c0,-4.422 -0.193,-8.399 -0.635,-11.76c-0.447,-3.363 -1.126,-6.106 -2.185,-8.11c-0.151,-0.283 -0.428,-0.477 -0.746,-0.521c-0.318,-0.044 -0.637,0.067 -0.859,0.298l-0.005,0.005c-0.341,0.339 -15.438,15.622 -52.609,17.309c-7.516,0.34 -15.456,0.511 -23.438,0.511c-16.161,0 -32.499,-0.704 -45.842,-2.136c-6.671,-0.716 -12.594,-1.614 -17.356,-2.69c-4.758,-1.067 -8.37,-2.347 -10.312,-3.678c-0.299,-0.203 -0.678,-0.23 -1.002,-0.072c-0.324,0.158 -0.535,0.475 -0.558,0.835c-0.001,0.015 -0.536,8.4 -0.536,20.69c0,14.112 0.703,33.367 3.742,51.043c1.52,8.839 3.624,17.285 6.536,24.512c2.914,7.224 6.633,13.248 11.467,17.191l0.632,-0.775l-0.765,0.644l0.765,-0.644l0.631,-0.776c-4.446,-3.616 -8.041,-9.349 -10.875,-16.388c-4.257,-10.554 -6.804,-24.001 -8.27,-37.429c-1.468,-13.43 -1.864,-26.845 -1.864,-37.378c0,-6.116 0.133,-11.261 0.267,-14.875c0.066,-1.806 0.133,-3.23 0.183,-4.202c0.05,-0.971 0.082,-1.484 0.082,-1.486l-0.997,-0.064l-0.563,0.827c2.365,1.598 6.117,2.868 10.997,3.976c14.609,3.295 39.301,4.872 63.638,4.875c8.011,0 15.979,-0.172 23.528,-0.513c38.308,-1.725 53.84,-17.782 53.967,-17.927l-0.721,-0.692l-0.883,0.469c0.874,1.634 1.546,4.2 1.968,7.432c0.426,3.233 0.619,7.137 0.619,11.499c0.001,15.996 -2.576,38.142 -5.304,56.931c-1.364,9.396 -2.765,17.958 -3.899,24.507c-1.132,6.543 -2.001,11.093 -2.288,12.405c-0.365,1.664 -0.99,3.882 -2.433,6.369c-2.167,3.725 -6.172,8.074 -14.055,11.913c-7.88,3.835 -19.639,7.132 -37.202,8.655c-3.777,0.327 -7.373,0.478 -10.792,0.478c-19.44,-0.002 -33.196,-4.854 -42.095,-9.682c-4.45,-2.415 -7.683,-4.825 -9.798,-6.623c-1.056,-0.898 -1.834,-1.644 -2.343,-2.161c-0.254,-0.258 -0.441,-0.459 -0.563,-0.593l-0.134,-0.149l-0.031,-0.035l-0.005,-0.008l-0.134,-0.131l-0.631,0.776Z" style="fill:#c69461;fill-rule:nonzero;"/><path d="M273.675,279.22l0.196,0.237l-0.194,-0.238l-0.002,0.001l0.196,0.237l-0.194,-0.238c-0.059,0.044 -16.757,13.638 -69.424,13.642c-17.769,0 -39.629,-1.549 -66.316,-5.692c-0.546,-0.085 -1.057,0.289 -1.142,0.835c-0.085,0.545 0.289,1.057 0.835,1.141c26.776,4.157 48.738,5.716 66.623,5.716c53.417,0.005 70.491,-13.926 70.695,-14.098c0.426,-0.352 0.486,-0.982 0.135,-1.408c-0.352,-0.426 -0.982,-0.486 -1.407,-0.135l-0.001,-0Z" style="fill:#c69461;fill-rule:nonzero;"/><path d="M273.675,295.002l0.178,0.216l-0.176,-0.218l-0.002,0.002l0.178,0.216l-0.176,-0.218c-0.059,0.044 -16.757,13.639 -69.424,13.643c-17.769,0 -39.63,-1.55 -66.316,-5.693c-0.546,-0.085 -1.057,0.289 -1.142,0.835c-0.085,0.546 0.289,1.057 0.835,1.142c26.775,4.156 48.738,5.716 66.623,5.716c53.417,0.004 70.491,-13.927 70.695,-14.099c0.426,-0.351 0.486,-0.981 0.135,-1.407c-0.352,-0.426 -0.982,-0.487 -1.407,-0.135l-0.001,0Z" style="fill:#c69461;fill-rule:nonzero;"/><path d="M270.745,313.191l0.179,0.216l-0.177,-0.218l-0.002,0.002l0.179,0.216l-0.177,-0.218c-0.059,0.044 -16.757,13.639 -69.423,13.643c-17.769,0 -39.63,-1.55 -66.317,-5.693c-0.546,-0.084 -1.057,0.289 -1.141,0.835c-0.085,0.546 0.289,1.057 0.835,1.142c26.775,4.156 48.737,5.716 66.623,5.716c53.417,0.004 70.491,-13.927 70.694,-14.099c0.426,-0.351 0.487,-0.981 0.135,-1.407c-0.351,-0.426 -0.981,-0.487 -1.407,-0.135l-0.001,-0Z" style="fill:#c69461;fill-rule:nonzero;"/><path d="M267.849,331.281l-0.061,0.034c-1.383,0.76 -25.847,13.865 -70.43,13.865c-16.933,-0 -36.77,-1.891 -59.351,-7.069c-0.539,-0.123 -1.075,0.214 -1.199,0.752c-0.123,0.538 0.214,1.074 0.752,1.198c22.727,5.211 42.716,7.119 59.798,7.119c46.432,-0 71.364,-14.094 71.477,-14.159c0.481,-0.272 0.65,-0.882 0.377,-1.363c-0.272,-0.48 -0.882,-0.649 -1.362,-0.377l-0.001,0Z" style="fill:#c69461;fill-rule:nonzero;"/><path d="M265.2,350.371l-0.066,0.035c-1.462,0.785 -27.003,14.152 -69.525,14.152c-15.368,-0.001 -32.955,-1.746 -52.433,-6.462c-0.537,-0.13 -1.078,0.199 -1.207,0.736c-0.13,0.537 0.199,1.078 0.736,1.208c19.636,4.755 37.385,6.518 52.904,6.517c44.332,-0.001 70.454,-14.379 70.556,-14.435c0.484,-0.266 0.66,-0.874 0.393,-1.358c-0.266,-0.484 -0.874,-0.66 -1.357,-0.393l-0.001,0Z" style="fill:#c69461;fill-rule:nonzero;"/><path d="M261.981,365.938l-0.006,0.005c-0.42,0.32 -18.796,14.477 -63.142,14.482c-13.195,0 -28.689,-1.255 -46.69,-4.506c-0.544,-0.098 -1.064,0.263 -1.162,0.806c-0.097,0.544 0.263,1.064 0.807,1.162c18.11,3.271 33.723,4.538 47.045,4.538c45.486,0.005 64.242,-14.794 64.393,-14.921c0.432,-0.344 0.504,-0.973 0.161,-1.405c-0.344,-0.433 -0.973,-0.505 -1.405,-0.161l-0.001,0Z" style="fill:#c69461;fill-rule:nonzero;"/><path d="M257.331,276.795c0,0.001 0.016,0.584 0.032,1.696c0.015,1.111 0.031,2.746 0.031,4.836c0.002,16.113 -0.953,59.284 -10.135,97.867c-0.128,0.537 0.204,1.076 0.741,1.204c0.538,0.128 1.077,-0.204 1.205,-0.741c9.245,-38.87 10.187,-82.132 10.189,-98.33c0,-4.199 -0.063,-6.578 -0.063,-6.585c-0.015,-0.552 -0.474,-0.988 -1.026,-0.973c-0.553,0.014 -0.988,0.474 -0.973,1.026l-0.001,0Z" style="fill:#c69461;fill-rule:nonzero;"/><path d="M236.274,279.956c0,0.004 -0.044,1.245 -0.127,3.473c-0.288,7.799 -1.047,27.644 -2.038,48.284c-0.99,20.636 -2.215,42.088 -3.427,53.03c-0.061,0.549 0.335,1.043 0.884,1.104c0.549,0.061 1.043,-0.335 1.104,-0.884c1.398,-12.633 2.795,-38.839 3.847,-61.923c1.052,-23.079 1.755,-43.011 1.755,-43.013c0.019,-0.552 -0.412,-1.015 -0.964,-1.035c-0.551,-0.019 -1.015,0.413 -1.034,0.964Z" style="fill:#c69461;fill-rule:nonzero;"/><path d="M208.554,282.566c0,0.005 -0.861,33.807 -0.861,64.888c0,15.543 0.214,30.397 0.862,40.045c0.037,0.551 0.514,0.968 1.065,0.931c0.552,-0.037 0.968,-0.514 0.932,-1.065c-0.644,-9.549 -0.859,-24.391 -0.859,-39.911c0,-15.523 0.215,-31.734 0.43,-44.063c0.107,-6.164 0.215,-11.358 0.296,-15.011c0.04,-1.826 0.074,-3.267 0.097,-4.251c0.023,-0.985 0.037,-1.51 0.037,-1.512c0.014,-0.552 -0.422,-1.011 -0.974,-1.025c-0.552,-0.014 -1.011,0.422 -1.025,0.975l0,-0.001Z" style="fill:#c69461;fill-rule:nonzero;"/><path d="M182.338,282.565c0,0.007 -0.215,8.011 -0.215,19.903c0,11.891 0.214,27.668 1.076,43.227c0.862,15.563 2.364,30.895 4.967,41.966c0.127,0.538 0.665,0.871 1.203,0.744c0.538,-0.126 0.871,-0.664 0.745,-1.202c-2.556,-10.847 -4.062,-26.118 -4.919,-41.618c-0.858,-15.504 -1.073,-31.25 -1.073,-43.117c0,-5.934 0.055,-10.898 0.108,-14.377c0.027,-1.74 0.054,-3.109 0.074,-4.042c0.02,-0.934 0.034,-1.429 0.034,-1.43c0.014,-0.552 -0.421,-1.012 -0.973,-1.027c-0.552,-0.014 -1.012,0.421 -1.026,0.973l-0.001,-0Z" style="fill:#c69461;fill-rule:nonzero;"/><path d="M155.91,283.375c-0.001,0.014 -0.414,7.624 -0.414,19.319c0.003,21.053 1.325,55.317 8.829,82.426c0.147,0.532 0.698,0.844 1.23,0.697c0.532,-0.147 0.844,-0.698 0.697,-1.231c-7.417,-26.762 -8.759,-60.933 -8.756,-81.892c0,-5.824 0.103,-10.63 0.205,-13.979c0.052,-1.674 0.103,-2.983 0.142,-3.874c0.038,-0.89 0.063,-1.356 0.063,-1.357c0.03,-0.552 -0.393,-1.023 -0.944,-1.053c-0.552,-0.029 -1.022,0.393 -1.052,0.944Z" style="fill:#c69461;fill-rule:nonzero;"/><path d="M122,119.619c0,0 -2.865,-12.606 16.904,-29.51c19.769,-16.904 40.541,-35.384 49.422,-48.277c8.882,-12.892 16.332,-35.956 19.913,-37.675c3.581,-1.719 11.317,15.758 8.452,32.805c-2.865,17.047 -7.736,35.24 -19.769,50.568c-12.033,15.328 -21.058,31.229 -39.968,34.524c-18.91,3.295 -34.954,-2.435 -34.954,-2.435Z" style="fill:#a5744e;fill-rule:nonzero;"/><path d="M122,119.619l0.974,-0.222l-0.386,0.088l0.388,-0.083l-0.002,-0.005l-0.386,0.088l0.388,-0.083c-0.003,-0.013 -0.121,-0.57 -0.122,-1.598c0.002,-1.893 0.397,-5.378 2.675,-10.018c2.278,-4.639 6.446,-10.438 14.025,-16.917c9.89,-8.457 20.036,-17.312 28.833,-25.678c8.798,-8.37 16.243,-16.235 20.763,-22.791c4.518,-6.564 8.607,-15.586 12.032,-23.185c1.71,-3.796 3.252,-7.236 4.573,-9.802c0.658,-1.281 1.264,-2.345 1.788,-3.106c0.261,-0.381 0.502,-0.685 0.704,-0.896c0.2,-0.214 0.365,-0.327 0.424,-0.353l0.084,-0.019c0.074,-0.005 0.316,0.053 0.661,0.324c0.605,0.461 1.417,1.486 2.203,2.928c1.19,2.164 2.374,5.258 3.247,8.881c0.876,3.625 1.447,7.784 1.447,12.105c0,2.476 -0.187,5.005 -0.609,7.519c-2.853,16.984 -7.694,34.994 -19.569,50.116c-6.043,7.702 -11.298,15.485 -17.336,21.696c-6.046,6.214 -12.813,10.852 -22.017,12.461c-4.158,0.725 -8.181,1.006 -11.921,1.006c-6.505,0.001 -12.153,-0.853 -16.167,-1.706c-2.007,-0.426 -3.605,-0.852 -4.697,-1.17c-0.546,-0.159 -0.965,-0.291 -1.246,-0.383c-0.141,-0.045 -0.247,-0.081 -0.316,-0.105l-0.099,-0.034l-0.336,0.942l0.974,-0.222l-0.974,0.222l-0.337,0.942c0.069,0.022 9.84,3.512 23.198,3.514c3.84,-0 7.977,-0.289 12.264,-1.036c9.706,-1.686 16.906,-6.646 23.108,-13.038c6.21,-6.395 11.485,-14.227 17.475,-21.854c12.192,-15.534 17.091,-33.909 19.969,-51.02c0.441,-2.635 0.635,-5.274 0.635,-7.85c-0.001,-6.853 -1.37,-13.261 -3.158,-18.01c-0.897,-2.377 -1.894,-4.337 -2.919,-5.759c-0.515,-0.712 -1.035,-1.292 -1.593,-1.726c-0.554,-0.427 -1.172,-0.737 -1.887,-0.743c-0.323,-0.001 -0.654,0.073 -0.95,0.216c-0.388,0.19 -0.701,0.458 -1.007,0.777c-0.569,0.602 -1.118,1.415 -1.714,2.432c-2.066,3.541 -4.638,9.602 -7.629,16.129c-2.984,6.519 -6.375,13.482 -9.952,18.672c-4.363,6.336 -11.744,14.157 -20.494,22.476c-8.752,8.324 -18.876,17.16 -28.755,25.607c-7.75,6.626 -12.106,12.641 -14.52,17.557c-2.415,4.914 -2.881,8.724 -2.879,10.899c-0.001,1.26 0.155,1.972 0.17,2.037l0.121,0.535l0.517,0.185l0.337,-0.942Z" style="fill:#8f5d48;fill-rule:nonzero;"/><path d="M122,119.619c0,0 16.044,5.73 34.954,2.435c18.91,-3.295 27.935,-19.196 39.968,-34.524c12.033,-15.328 16.904,-33.521 19.769,-50.568c2.865,-17.047 -4.871,-34.524 -8.452,-32.805c0,-0 6.985,16.76 0.682,37.246c-6.303,20.485 -28.078,57.731 -50.139,73.059c-22.061,15.328 -36.782,5.157 -36.782,5.157Z" style="fill:#8f5d48;fill-rule:nonzero;"/><path d="M18.714,295.105c0,-0 1.719,10.601 7.163,18.623c5.443,8.022 9.168,15.185 9.168,15.185c0,-0 2.292,-2.006 2.578,-4.298c0,0 1.146,6.017 7.163,6.017c0,0 69.335,-13.753 82.514,-9.455l13.18,4.298c0,0 -2.579,-2.866 -2.006,-11.031c0.573,-8.165 21.897,0.938 24.502,7.303c2.287,5.59 -0.579,8.885 -0.579,8.885c0,0 -7.735,8.308 -11.317,9.598c-3.581,1.289 -4.011,12.463 8.166,8.738c0,0 -12.463,9.741 -9.455,14.899c3.009,5.157 9.48,5.73 16.916,-2.579c0,-0 -9.323,8.452 -5.312,11.604c4.011,3.151 15.777,-4.155 18.919,-9.025c0,0 -8.068,7.664 -8.605,8.416c-0.537,0.752 8.058,3.438 15.149,-6.662c7.091,-10.099 2.742,-15.741 1.97,-23.422c-0.173,-1.723 3.76,-4.297 7.306,-12.892c0,0 0.107,4.405 -0.86,6.446c0,0 15.364,-15.257 4.943,-33.092c0,-0 2.522,1.29 3.625,2.901c1.102,1.612 -4.807,-14.289 -14.692,-19.017c0,0 6.124,1.505 7.843,2.579c0,0 -19.769,-19.877 -55.654,-15.579c0,0 19.877,-0.107 30.084,-9.562c0,-0 -0.323,2.256 -1.505,3.653c0,0 31.803,-18.265 37.927,-39.753c0,0 0.537,2.686 0,5.05c0,0 6.231,-5.48 2.793,-28.15c0,0 2.149,3.116 2.471,6.447c0,-0 -2.363,-25.249 -5.157,-43.514c0,-0 48.85,-10.421 74.062,-43.656c25.213,-33.235 31.373,-44.266 36.53,-64.178c5.157,-19.912 8.882,-30.226 9.312,-38.821c0.429,-8.595 1.575,-17.191 -2.292,-19.769c-3.868,-2.579 -7.449,12.463 -19.626,25.642c-12.177,13.179 -51.715,46.127 -77.07,62.888c-25.356,16.761 -33.379,37.389 -38.536,48.563c0,-0 -21.058,-20.199 -46.414,-21.058c-25.356,-0.86 -32.232,4.297 -36.531,4.297c-4.296,0 6.877,2.579 11.175,2.149c0,-0 -14.612,-0.43 -20.199,6.876c0,0 2.865,1.433 6.876,1.146c0,0 -16.617,26.359 -26.645,33.522c-10.028,7.162 -32.484,22.881 -25.213,53.004c2.006,8.308 8.882,18.909 9.742,24.639c0,0 2.292,-2.292 2.578,-5.443c0,0 9.455,13.752 10.314,17.763c0,0 2.006,-1.719 2.292,-4.011c0,-0 9.742,14.325 21.202,18.623c0,0 -14.325,18.05 -25.213,21.202c-10.887,3.151 -14.306,3.438 -22.338,0c-8.031,-3.439 -11.183,-8.596 -11.183,-8.596" style="fill:#a5744e;fill-rule:nonzero;"/><path d="M17.727,295.265c0.005,0.031 0.442,2.721 1.57,6.434c1.13,3.713 2.945,8.45 5.752,12.59c2.704,3.985 4.984,7.762 6.587,10.539c0.801,1.389 1.433,2.528 1.863,3.319c0.216,0.395 0.381,0.703 0.492,0.912c0.111,0.208 0.166,0.315 0.166,0.315c0.142,0.273 0.4,0.464 0.702,0.521c0.302,0.057 0.613,-0.028 0.844,-0.23c0.032,-0.028 0.645,-0.566 1.314,-1.43c0.664,-0.867 1.41,-2.058 1.599,-3.496l-0.993,-0.124l-0.982,0.187c0.018,0.078 0.322,1.697 1.484,3.389c0.583,0.844 1.39,1.708 2.494,2.361c1.102,0.654 2.496,1.082 4.167,1.08l0.194,-0.019c0.003,-0.001 0.807,-0.161 2.267,-0.441c5.11,-0.983 18.203,-3.443 32.472,-5.655c14.262,-2.213 29.729,-4.175 39.471,-4.172c3.469,-0.005 6.223,0.261 7.8,0.783l13.18,4.297c0.43,0.141 0.901,-0.026 1.148,-0.405c0.247,-0.38 0.208,-0.878 -0.095,-1.214l-0.413,0.371l0.421,-0.362l-0.008,-0.009l-0.413,0.371l0.421,-0.362l-0.016,-0.02c-0.178,-0.233 -1.82,-2.427 -1.825,-8.059c0,-0.689 0.024,-1.429 0.081,-2.22c0.033,-0.455 0.139,-0.79 0.291,-1.058c0.228,-0.396 0.567,-0.683 1.115,-0.908c0.543,-0.221 1.285,-0.344 2.167,-0.343c1.491,-0.002 3.361,0.348 5.323,0.959c2.947,0.916 6.11,2.413 8.666,4.078c1.278,0.831 2.404,1.705 3.274,2.552c0.872,0.844 1.477,1.668 1.743,2.33c0.605,1.481 0.81,2.753 0.811,3.821c-0.001,1.337 -0.325,2.361 -0.641,3.05c-0.158,0.344 -0.314,0.602 -0.425,0.768l-0.127,0.178l-0.028,0.035l-0.002,0.003l0.418,0.354l-0.414,-0.359l-0.004,0.005l0.418,0.354l-0.414,-0.359l0.755,0.656l-0.732,-0.682c0,0.001 -0.116,0.125 -0.332,0.352c-0.755,0.793 -2.704,2.808 -4.836,4.749c-1.065,0.97 -2.176,1.921 -3.195,2.686c-1.013,0.765 -1.955,1.34 -2.56,1.552c-0.977,0.357 -1.676,1.133 -2.144,2.034c-0.467,0.909 -0.719,1.979 -0.72,3.089c-0.001,1.481 0.462,3.066 1.608,4.298c1.144,1.236 2.946,2.022 5.315,2.014c1.368,0 2.935,-0.25 4.737,-0.8l-0.292,-0.956l-0.616,-0.788c-0.023,0.019 -2.532,1.978 -5.07,4.643c-1.27,1.335 -2.548,2.845 -3.533,4.407c-0.978,1.564 -1.695,3.181 -1.704,4.829c-0.002,0.791 0.182,1.592 0.605,2.312c0.763,1.309 1.752,2.384 2.942,3.131c1.188,0.748 2.576,1.155 4.066,1.153c1.736,0 3.598,-0.54 5.526,-1.64c1.929,-1.101 3.934,-2.765 5.99,-5.06c0.354,-0.395 0.337,-1.002 -0.04,-1.376c-0.377,-0.375 -0.983,-0.389 -1.377,-0.032c-0.02,0.02 -1.625,1.473 -3.255,3.438c-0.816,0.984 -1.639,2.095 -2.276,3.244c-0.633,1.152 -1.105,2.341 -1.112,3.567c-0.001,0.525 0.095,1.06 0.326,1.561c0.228,0.5 0.59,0.955 1.059,1.321c0.906,0.711 2.041,0.978 3.219,0.977c1.466,-0.002 3.059,-0.398 4.701,-1.026c2.459,-0.946 5.022,-2.432 7.25,-4.081c2.227,-1.657 4.11,-3.451 5.207,-5.139c0.274,-0.426 0.188,-0.989 -0.202,-1.312c-0.391,-0.324 -0.96,-0.305 -1.327,0.044c-0.001,0.001 -2.019,1.919 -4.107,3.932c-1.044,1.007 -2.104,2.037 -2.942,2.867c-0.419,0.415 -0.782,0.78 -1.062,1.07c-0.141,0.146 -0.261,0.272 -0.36,0.381c-0.101,0.113 -0.174,0.193 -0.259,0.31c-0.12,0.162 -0.214,0.409 -0.211,0.654c0.004,0.36 0.156,0.602 0.277,0.753c0.224,0.266 0.436,0.383 0.674,0.505c0.353,0.173 0.772,0.303 1.277,0.402c0.504,0.097 1.09,0.156 1.746,0.156c3.338,0.014 8.557,-1.601 13.018,-7.975c3.165,-4.493 4.184,-8.286 4.176,-11.713c0,-2.241 -0.419,-4.302 -0.873,-6.315c-0.456,-2.014 -0.948,-3.983 -1.156,-6.068l-0.001,-0.006l-0.001,-0.009l-0.046,0.003l0.046,-0l0,-0.003l-0.046,0.003l0.046,-0c0,-0.028 0.011,-0.124 0.088,-0.297c0.128,-0.302 0.45,-0.79 0.91,-1.415c0.69,-0.943 1.676,-2.216 2.772,-3.946c1.096,-1.731 2.305,-3.926 3.467,-6.742l-0.924,-0.381l-1,0.02c0,-0 0.003,0.133 0.003,0.376c0,0.541 -0.019,1.609 -0.13,2.721c-0.106,1.106 -0.333,2.276 -0.637,2.901c-0.208,0.44 -0.07,0.964 0.327,1.245c0.397,0.28 0.937,0.235 1.282,-0.108c0.04,-0.041 2.234,-2.222 4.437,-5.918c2.2,-3.694 4.422,-8.918 4.424,-15.034c0.003,-4.146 -1.034,-8.689 -3.76,-13.353l-0.863,0.504l-0.456,0.891l0.019,0.01c0.116,0.06 0.725,0.387 1.408,0.865c0.683,0.473 1.436,1.117 1.828,1.7l0.176,0.218c0.044,0.044 0.096,0.096 0.195,0.162c0.1,0.059 0.255,0.162 0.564,0.169c0.209,0.006 0.473,-0.084 0.64,-0.227c0.257,-0.22 0.314,-0.43 0.348,-0.55c0.031,-0.128 0.032,-0.207 0.033,-0.272c-0.002,-0.154 -0.021,-0.236 -0.038,-0.328c-0.071,-0.328 -0.206,-0.719 -0.421,-1.277c-0.749,-1.915 -2.452,-5.497 -4.974,-9.122c-2.525,-3.618 -5.853,-7.285 -9.958,-9.257l-0.431,0.902l-0.239,0.971c0.001,0.001 0.374,0.092 0.969,0.248c0.891,0.234 2.272,0.611 3.573,1.025c0.651,0.206 1.282,0.422 1.815,0.63c0.532,0.205 0.973,0.412 1.195,0.553c0.43,0.269 0.996,0.172 1.312,-0.224c0.316,-0.397 0.285,-0.97 -0.073,-1.329c-0.054,-0.054 -4.153,-4.166 -11.983,-8.274c-7.83,-4.108 -19.398,-8.209 -34.341,-8.209c-3.23,-0 -6.618,0.192 -10.158,0.616c-0.527,0.063 -0.912,0.525 -0.879,1.055c0.033,0.53 0.472,0.941 1.004,0.938c0.04,-0.001 5.06,-0.028 11.398,-1.254c6.336,-1.234 14.01,-3.636 19.359,-8.575l-0.679,-0.733l-0.991,-0.142l-0.002,0.012c-0.013,0.091 -0.104,0.625 -0.312,1.263c-0.205,0.64 -0.54,1.379 -0.963,1.874c-0.315,0.371 -0.316,0.913 -0.005,1.286c0.311,0.373 0.844,0.469 1.266,0.227c0.031,-0.019 8.021,-4.607 16.808,-11.917c4.394,-3.656 8.988,-7.993 12.887,-12.796c3.898,-4.804 7.11,-10.077 8.695,-15.633l-0.961,-0.274l-0.981,0.196l0.007,0.038c0.039,0.21 0.212,1.239 0.212,2.456c0,0.694 -0.058,1.45 -0.214,2.14c-0.095,0.421 0.094,0.859 0.465,1.079c0.371,0.221 0.846,0.176 1.171,-0.109c0.114,-0.099 1.17,-1.081 2.182,-3.608c1.013,-2.527 1.986,-6.592 1.985,-12.879c0,-3.47 -0.296,-7.618 -1.046,-12.563l-0.988,0.15l-0.823,0.568l0.016,0.024c0.099,0.147 0.61,0.93 1.124,2.034c0.515,1.102 1.026,2.526 1.159,3.917c0.052,0.55 0.54,0.951 1.089,0.899c0.55,-0.052 0.953,-0.539 0.902,-1.089c-0.002,-0.009 -2.364,-25.259 -5.164,-43.571l-0.989,0.151l0.209,0.978c0.044,-0.01 12.314,-2.628 27.77,-9.428c15.453,-6.802 34.11,-17.778 46.88,-34.602c12.614,-16.629 20.479,-27.721 25.858,-37.196c5.38,-9.472 8.254,-17.331 10.843,-27.335c5.143,-19.884 8.886,-30.172 9.342,-39.022c0.181,-3.64 0.496,-7.311 0.496,-10.571c-0.001,-2.198 -0.14,-4.211 -0.594,-5.94c-0.228,-0.864 -0.538,-1.66 -0.967,-2.365c-0.427,-0.704 -0.981,-1.316 -1.671,-1.775c-0.424,-0.286 -0.929,-0.462 -1.44,-0.46c-0.386,0 -0.758,0.095 -1.092,0.247c-0.628,0.291 -1.147,0.757 -1.661,1.336c-0.894,1.016 -1.778,2.426 -2.79,4.149c-3.019,5.158 -7.118,13.148 -13.932,20.524c-6.015,6.513 -18.941,18.048 -33.494,30.006c-14.555,11.964 -30.765,24.379 -43.393,32.726c-25.598,16.904 -33.758,37.846 -38.892,48.978l0.908,0.419l0.692,-0.722c-0.036,-0.033 -5.346,-5.126 -13.869,-10.338c-8.523,-5.208 -20.266,-10.555 -33.204,-10.998c-1.961,-0.066 -3.813,-0.097 -5.564,-0.097c-10.503,-0.001 -17.354,1.108 -22.068,2.224c-2.355,0.557 -4.176,1.114 -5.621,1.521c-1.444,0.41 -2.507,0.654 -3.311,0.649c-0.37,0.002 -0.647,0.014 -0.915,0.061c-0.138,0.028 -0.274,0.054 -0.472,0.158c-0.1,0.055 -0.222,0.134 -0.348,0.29c-0.127,0.151 -0.236,0.409 -0.231,0.659c0.002,0.31 0.126,0.526 0.219,0.651c0.191,0.241 0.329,0.305 0.461,0.387c0.243,0.134 0.493,0.227 0.807,0.333c1.074,0.355 2.852,0.756 4.808,1.085c1.954,0.326 4.054,0.572 5.741,0.573c0.427,0 0.829,-0.016 1.203,-0.053c0.525,-0.052 0.919,-0.501 0.901,-1.029c-0.018,-0.528 -0.442,-0.95 -0.969,-0.965c-0.01,-0.001 -0.182,-0.006 -0.489,-0.006c-1.305,0.001 -5.05,0.086 -9.16,1.014c-2.056,0.465 -4.205,1.141 -6.191,2.141c-1.985,1.001 -3.815,2.331 -5.183,4.119c-0.18,0.236 -0.247,0.544 -0.18,0.833c0.066,0.289 0.261,0.536 0.527,0.669c0.086,0.04 2.583,1.286 6.258,1.289c0.367,-0 0.746,-0.012 1.136,-0.04l-0.071,-0.998l-0.846,-0.533c-0.001,0.001 -0.256,0.406 -0.728,1.138c-1.651,2.56 -5.926,9.072 -10.871,15.71c-2.472,3.319 -5.112,6.669 -7.666,9.566c-2.552,2.896 -5.031,5.341 -7.115,6.827c-4.336,3.099 -11.083,7.848 -16.761,14.74c-5.679,6.886 -10.299,15.973 -10.295,27.63c0,3.644 0.45,7.535 1.452,11.683c1.043,4.307 3.291,9.067 5.368,13.478c1.039,2.203 2.036,4.314 2.819,6.209c0.783,1.893 1.347,3.579 1.538,4.866c0.055,0.372 0.318,0.683 0.676,0.801c0.357,0.118 0.753,0.024 1.02,-0.243c0.037,-0.037 0.656,-0.659 1.321,-1.714c0.662,-1.055 1.38,-2.55 1.546,-4.346l-0.996,-0.09l-0.824,0.566c0,0.001 0.145,0.212 0.404,0.593c0.906,1.336 3.188,4.742 5.329,8.236c1.07,1.746 2.106,3.516 2.911,5.049c0.805,1.522 1.379,2.852 1.516,3.529c0.074,0.346 0.323,0.624 0.658,0.738c0.336,0.113 0.702,0.042 0.971,-0.189c0.037,-0.032 0.586,-0.504 1.188,-1.305c0.597,-0.801 1.265,-1.937 1.446,-3.341l-0.993,-0.124l-0.827,0.562c0.02,0.029 2.48,3.646 6.402,7.823c3.927,4.173 9.296,8.923 15.276,11.174l0.351,-0.936l-0.784,-0.622c0,0.001 -0.052,0.066 -0.157,0.197c-0.791,0.977 -4.482,5.464 -9.22,10.049c-2.368,2.292 -4.999,4.609 -7.645,6.52c-2.643,1.913 -5.308,3.412 -7.685,4.097c-5.547,1.608 -9.082,2.436 -12.172,2.433c-2.957,-0.003 -5.612,-0.732 -9.494,-2.392c-3.893,-1.666 -6.587,-3.741 -8.305,-5.389c-0.859,-0.824 -1.472,-1.54 -1.867,-2.044c-0.197,-0.252 -0.34,-0.45 -0.431,-0.582l-0.098,-0.146l-0.02,-0.032l-0.004,-0.006l-0.261,0.162l0.262,-0.16l-0.001,-0.002l-0.261,0.162l0.262,-0.16c-0.288,-0.471 -0.904,-0.62 -1.374,-0.332c-0.471,0.288 -0.62,0.904 -0.332,1.375c0.069,0.114 3.359,5.445 11.643,8.993c3.971,1.703 6.966,2.555 10.281,2.553c3.459,-0.004 7.151,-0.9 12.728,-2.512c2.908,-0.846 5.919,-2.625 8.851,-4.8c8.773,-6.526 16.837,-16.709 16.867,-16.74c0.2,-0.252 0.266,-0.58 0.18,-0.889c-0.085,-0.309 -0.312,-0.557 -0.612,-0.669c-5.48,-2.046 -10.712,-6.608 -14.521,-10.672c-1.907,-2.03 -3.463,-3.931 -4.54,-5.322c-0.538,-0.695 -0.957,-1.262 -1.24,-1.654c-0.141,-0.196 -0.249,-0.348 -0.32,-0.45c-0.072,-0.102 -0.105,-0.151 -0.105,-0.151c-0.234,-0.345 -0.656,-0.508 -1.061,-0.41c-0.405,0.097 -0.707,0.434 -0.758,0.848c-0.107,0.889 -0.584,1.758 -1.061,2.389c-0.237,0.316 -0.469,0.571 -0.636,0.743l-0.197,0.192l-0.049,0.045l-0.009,0.008l0.142,0.163l-0.14,-0.164l-0.002,0.001l0.142,0.163l-0.14,-0.164l0.65,0.759l0.978,-0.209c-0.136,-0.624 -0.399,-1.318 -0.755,-2.115c-1.244,-2.766 -3.657,-6.73 -5.777,-10.048c-2.117,-3.313 -3.932,-5.952 -3.936,-5.958c-0.24,-0.348 -0.668,-0.508 -1.077,-0.401c-0.41,0.107 -0.705,0.456 -0.743,0.877c-0.121,1.356 -0.691,2.582 -1.247,3.462c-0.277,0.439 -0.546,0.79 -0.742,1.026c-0.098,0.118 -0.178,0.208 -0.231,0.265l-0.058,0.062l-0.012,0.013l0.036,0.035l-0.036,-0.036l0,0.001l0.036,0.035l-0.036,-0.036l0.708,0.707l0.989,-0.148c-0.24,-1.578 -0.858,-3.366 -1.668,-5.332c-1.217,-2.944 -2.878,-6.275 -4.417,-9.639c-1.539,-3.361 -2.951,-6.756 -3.674,-9.755c-0.967,-4.003 -1.396,-7.734 -1.396,-11.213c0.004,-11.114 4.367,-19.709 9.839,-26.359c5.472,-6.645 12.043,-11.289 16.379,-14.383c2.63,-1.883 5.575,-4.914 8.573,-8.425c8.974,-10.52 18.323,-25.358 18.337,-25.377c0.199,-0.319 0.205,-0.725 0.012,-1.048c-0.194,-0.322 -0.554,-0.51 -0.929,-0.483c-0.342,0.024 -0.673,0.035 -0.994,0.035c-1.607,-0 -2.968,-0.277 -3.919,-0.552c-0.475,-0.138 -0.847,-0.275 -1.095,-0.374c-0.124,-0.05 -0.217,-0.091 -0.276,-0.118l-0.063,-0.029l-0.012,-0.006l-0.049,0.1l0.05,-0.099l-0.001,-0.001l-0.049,0.1l0.05,-0.099l-0.447,0.894l0.794,0.608c1.131,-1.481 2.703,-2.645 4.495,-3.548c2.684,-1.355 5.846,-2.104 8.561,-2.498c2.714,-0.395 4.98,-0.443 5.89,-0.443c0.143,-0 0.252,0.001 0.325,0.002l0.104,0.003l0.03,-1l-0.099,-0.995c-0.289,0.029 -0.629,0.043 -1.006,0.043c-1.883,0.002 -4.617,-0.368 -6.828,-0.803c-1.105,-0.216 -2.088,-0.45 -2.763,-0.65c-0.334,-0.099 -0.597,-0.194 -0.724,-0.252l-0.061,-0.03l-0.004,-0.003l-0.272,0.447l0.376,-0.357l-0.104,-0.09l-0.272,0.447l0.376,-0.357l-0.614,0.581l0.751,-0.385c-0.051,-0.099 -0.1,-0.157 -0.137,-0.196l-0.614,0.581l0.751,-0.385l-0.825,0.423l0.927,0c0.001,-0.178 -0.051,-0.326 -0.102,-0.423l-0.825,0.423l0.927,0l-0.939,0l0.737,0.585c0.107,-0.127 0.207,-0.36 0.202,-0.585l-0.939,0l0.737,0.585l-0.628,-0.498l0.266,0.765c0.043,-0.022 0.165,-0.04 0.362,-0.267l-0.628,-0.498l0.266,0.765l-0.112,-0.323l0.082,0.333l0.03,-0.01l-0.112,-0.323l0.082,0.333l0.005,-0.001c0.046,-0.01 0.252,-0.03 0.556,-0.029c1.18,-0.004 2.375,-0.31 3.854,-0.724c2.216,-0.625 5.094,-1.532 9.387,-2.295c4.29,-0.762 9.985,-1.375 17.759,-1.375c1.727,-0 3.557,0.03 5.497,0.096c12.419,0.416 23.882,5.599 32.227,10.705c4.173,2.551 7.564,5.078 9.907,6.964c1.172,0.942 2.081,1.724 2.696,2.269c0.307,0.272 0.541,0.485 0.696,0.629l0.175,0.162l0.054,0.052c0.234,0.224 0.56,0.321 0.878,0.261c0.319,-0.061 0.586,-0.27 0.723,-0.564c5.18,-11.216 13.065,-31.531 38.179,-48.148c12.727,-8.413 28.964,-20.853 43.56,-32.849c14.6,-12.001 27.532,-23.529 33.693,-30.194c5.71,-6.182 9.54,-12.743 12.379,-17.715c1.416,-2.483 2.59,-4.574 3.586,-5.98c0.495,-0.703 0.948,-1.231 1.315,-1.54c0.183,-0.156 0.342,-0.256 0.462,-0.31c0.122,-0.055 0.201,-0.067 0.264,-0.068c0.08,0.003 0.163,0.015 0.331,0.124c0.42,0.28 0.769,0.655 1.072,1.151c0.454,0.741 0.784,1.761 0.986,2.999c0.204,1.237 0.284,2.684 0.284,4.266c0,3.133 -0.31,6.787 -0.494,10.471c-0.403,8.339 -4.109,18.68 -9.281,38.62c-2.568,9.909 -5.353,17.521 -10.646,26.85c-5.293,9.327 -13.114,20.368 -25.712,36.974c-12.443,16.411 -30.817,27.264 -46.092,33.981c-7.636,3.359 -14.493,5.688 -19.435,7.175c-2.471,0.743 -4.464,1.276 -5.836,1.623c-0.685,0.173 -1.216,0.3 -1.574,0.383c-0.179,0.041 -0.315,0.072 -0.405,0.092c-0.091,0.02 -0.133,0.029 -0.133,0.029c-0.516,0.11 -0.859,0.607 -0.779,1.129c1.393,9.107 2.681,19.977 3.62,28.564c0.47,4.294 0.852,8.018 1.117,10.668c0.265,2.65 0.412,4.22 0.412,4.224c0.025,0.266 0.152,0.507 0.359,0.677c0.206,0.171 0.466,0.25 0.731,0.225c0.267,-0.025 0.507,-0.153 0.678,-0.359c0.17,-0.206 0.249,-0.467 0.223,-0.733c-0.181,-1.847 -0.844,-3.549 -1.451,-4.811c-0.609,-1.26 -1.172,-2.077 -1.192,-2.107c-0.264,-0.382 -0.759,-0.533 -1.192,-0.362c-0.432,0.172 -0.69,0.62 -0.62,1.08c0.736,4.858 1.024,8.907 1.024,12.263c-0.001,6.083 -0.942,9.887 -1.843,12.135c-0.451,1.125 -0.892,1.862 -1.205,2.306c-0.156,0.222 -0.281,0.371 -0.359,0.457l-0.081,0.086l-0.001,0.002l0.661,0.751l0.975,0.219c0.199,-0.886 0.262,-1.777 0.262,-2.579c-0.001,-1.601 -0.25,-2.845 -0.257,-2.886c-0.091,-0.453 -0.479,-0.785 -0.94,-0.803c-0.462,-0.019 -0.876,0.28 -1.002,0.725c-1.477,5.188 -4.537,10.256 -8.325,14.92c-5.678,6.999 -12.976,13.077 -18.847,17.389c-2.935,2.156 -5.514,3.872 -7.356,5.048c-0.921,0.587 -1.657,1.04 -2.162,1.344c-0.253,0.153 -0.448,0.268 -0.578,0.345c-0.131,0.077 -0.195,0.113 -0.195,0.114l0.498,0.867l0.763,0.646c0.73,-0.869 1.133,-1.889 1.388,-2.701c0.251,-0.812 0.338,-1.421 0.343,-1.457c0.06,-0.418 -0.151,-0.831 -0.525,-1.027c-0.375,-0.196 -0.834,-0.135 -1.144,0.152c-4.858,4.516 -12.226,6.895 -18.38,8.079c-3.075,0.595 -5.843,0.9 -7.837,1.056c-0.996,0.077 -1.8,0.118 -2.351,0.139c-0.276,0.01 -0.489,0.016 -0.631,0.019c-0.143,0.003 -0.21,0.003 -0.211,0.003l0.006,1l0.119,0.993c3.461,-0.415 6.768,-0.602 9.92,-0.602c14.573,0.001 25.811,3.994 33.411,7.98c3.799,1.993 6.686,3.984 8.617,5.471c0.965,0.743 1.692,1.361 2.173,1.789c0.241,0.214 0.421,0.38 0.539,0.492l0.129,0.125l0.031,0.029l0.006,0.007l0.709,-0.705l0.53,-0.848c-0.56,-0.346 -1.294,-0.643 -2.143,-0.95c-2.527,-0.903 -5.975,-1.747 -5.991,-1.752c-0.499,-0.122 -1.008,0.152 -1.181,0.635c-0.173,0.483 0.048,1.017 0.511,1.238c4.252,2.02 7.894,6.422 10.403,10.453c1.258,2.012 2.241,3.926 2.902,5.381c0.331,0.727 0.582,1.34 0.745,1.784c0.081,0.221 0.141,0.401 0.176,0.52l0.031,0.122l0,0.001l0.6,-0.081l-0.604,0l0.004,0.081l0.6,-0.081l-0.604,0l0.906,0l-0.835,-0.346c-0.079,0.206 -0.067,0.29 -0.071,0.346l0.906,0l-0.835,-0.346l0.902,0.374l-0.616,-0.758c-0.166,0.137 -0.244,0.283 -0.286,0.384l0.902,0.374l-0.616,-0.758l0.622,0.765l0,-0.986c-0.201,-0.006 -0.459,0.082 -0.622,0.221l0.622,0.765l0,-0.986l0,0.964l0.527,-0.809c-0.085,-0.05 -0.228,-0.147 -0.527,-0.155l0,0.964l0.527,-0.809l-0.442,0.679l0.617,-0.529c-0.023,-0.023 -0.05,-0.065 -0.175,-0.15l-0.442,0.679l0.617,-0.529l-0.297,0.254l0.313,-0.235l-0.016,-0.019l-0.297,0.254l0.313,-0.235l-0.002,-0.002c-0.685,-0.989 -1.668,-1.752 -2.488,-2.317c-0.821,-0.559 -1.483,-0.897 -1.507,-0.91c-0.396,-0.202 -0.877,-0.119 -1.182,0.203c-0.305,0.323 -0.361,0.808 -0.137,1.192c2.549,4.369 3.485,8.529 3.488,12.344c0.002,5.62 -2.059,10.517 -4.143,14.01c-1.04,1.746 -2.082,3.137 -2.859,4.087c-0.389,0.475 -0.711,0.839 -0.934,1.082c-0.111,0.121 -0.198,0.212 -0.255,0.272l-0.064,0.065l-0.017,0.017l0.705,0.71l0.904,0.428c0.486,-1.046 0.69,-2.337 0.818,-3.557c0.122,-1.214 0.14,-2.336 0.14,-2.921c0,-0.259 -0.003,-0.411 -0.003,-0.417c-0.01,-0.473 -0.349,-0.875 -0.815,-0.962c-0.466,-0.088 -0.929,0.163 -1.109,0.601c-1.702,4.121 -3.474,6.798 -4.843,8.693c-0.686,0.95 -1.273,1.7 -1.723,2.373c-0.224,0.338 -0.416,0.657 -0.565,0.994c-0.147,0.335 -0.256,0.699 -0.256,1.103l0.011,0.217l0,-0.006c0.228,2.27 0.748,4.328 1.195,6.31c0.449,1.983 0.825,3.887 0.825,5.874c-0.008,3.031 -0.838,6.311 -3.814,10.564c-4.151,5.889 -8.652,7.111 -11.381,7.125c-0.812,0.001 -1.467,-0.117 -1.862,-0.245c-0.196,-0.061 -0.327,-0.13 -0.349,-0.147l-0.002,-0.001l-0.269,0.359l0.361,-0.259l-0.092,-0.1l-0.269,0.359l0.361,-0.259l-0.663,0.476l0.81,-0c-0.002,-0.246 -0.094,-0.403 -0.147,-0.476l-0.663,0.476l0.81,-0l-0.875,-0l0.712,0.511c0.089,-0.118 0.166,-0.317 0.163,-0.511l-0.875,-0l0.712,0.511l-0.029,-0.024l0.029,0.024l0.001,-0.002l-0.03,-0.022l0.029,0.024c0.039,-0.052 0.245,-0.277 0.52,-0.559c0.98,-1.006 2.98,-2.945 4.723,-4.619c0.872,-0.839 1.682,-1.613 2.273,-2.177c0.592,-0.565 0.964,-0.919 0.965,-0.919l-0.688,-0.725l-0.841,-0.543c-0.576,0.897 -1.549,1.968 -2.755,3.032c-1.808,1.6 -4.138,3.2 -6.453,4.38c-2.308,1.185 -4.624,1.929 -6.269,1.919c-0.891,0 -1.543,-0.201 -1.983,-0.55c-0.244,-0.192 -0.383,-0.379 -0.478,-0.583c-0.093,-0.204 -0.143,-0.438 -0.144,-0.726c-0.007,-0.667 0.31,-1.612 0.862,-2.597c0.82,-1.484 2.111,-3.052 3.192,-4.223c0.54,-0.587 1.027,-1.077 1.378,-1.419c0.175,-0.171 0.316,-0.305 0.412,-0.395l0.109,-0.101l0.035,-0.032l-0.672,-0.741l-0.745,-0.667c-1.944,2.172 -3.799,3.692 -5.491,4.657c-1.695,0.967 -3.219,1.377 -4.535,1.377c-1.133,-0.002 -2.123,-0.297 -3.003,-0.847c-0.879,-0.552 -1.651,-1.371 -2.278,-2.445c-0.227,-0.392 -0.331,-0.808 -0.333,-1.304c-0.009,-1.02 0.514,-2.373 1.397,-3.763c1.314,-2.092 3.362,-4.255 5.073,-5.865c0.855,-0.807 1.627,-1.479 2.183,-1.948c0.277,-0.234 0.501,-0.417 0.655,-0.542l0.175,-0.14l0.057,-0.045c0.38,-0.298 0.494,-0.821 0.271,-1.25c-0.223,-0.428 -0.718,-0.636 -1.18,-0.494c-1.652,0.505 -3.029,0.712 -4.152,0.712c-1.956,-0.008 -3.116,-0.598 -3.852,-1.378c-0.734,-0.785 -1.071,-1.856 -1.072,-2.934c-0.001,-0.799 0.192,-1.583 0.498,-2.171c0.305,-0.594 0.707,-0.955 1.044,-1.07c1.096,-0.403 2.282,-1.208 3.556,-2.197c3.785,-2.961 8.135,-7.643 8.154,-7.661l0.023,-0.025c0.09,-0.104 1.704,-2.001 1.708,-5.341c0.001,-1.328 -0.26,-2.871 -0.959,-4.578c-0.582,-1.398 -1.754,-2.697 -3.265,-3.964c-2.271,-1.888 -5.344,-3.662 -8.508,-4.99c-3.167,-1.321 -6.402,-2.202 -9.084,-2.208c-1.41,0.003 -2.697,0.241 -3.741,0.915c-0.519,0.337 -0.966,0.792 -1.28,1.348c-0.317,0.556 -0.498,1.202 -0.547,1.904c-0.06,0.839 -0.086,1.626 -0.086,2.362c-0.007,6.634 2.186,9.241 2.346,9.408l0.744,-0.669l0.309,-0.951l-13.179,-4.298c-1.988,-0.641 -4.846,-0.876 -8.42,-0.881c-11.406,0.003 -30.007,2.582 -45.817,5.156c-15.801,2.575 -28.775,5.148 -28.782,5.15l0.195,0.981l0,-1c-1.338,-0.003 -2.343,-0.327 -3.148,-0.801c-1.204,-0.709 -1.974,-1.806 -2.437,-2.753c-0.231,-0.47 -0.384,-0.898 -0.476,-1.2c-0.046,-0.151 -0.078,-0.271 -0.097,-0.35l-0.019,-0.085l-0.004,-0.017l-0.125,0.026l0.125,-0.024l0,-0.002l-0.125,0.026l0.125,-0.024c-0.092,-0.483 -0.522,-0.828 -1.014,-0.812c-0.492,0.015 -0.899,0.387 -0.96,0.875c-0.098,0.854 -0.641,1.812 -1.196,2.521c-0.275,0.355 -0.545,0.65 -0.742,0.851c-0.099,0.101 -0.179,0.179 -0.234,0.23l-0.06,0.055l-0.012,0.012l-0.001,0l0.659,0.753l0.887,-0.462c-0.012,-0.021 -3.75,-7.21 -9.228,-15.285c-2.637,-3.882 -4.403,-8.456 -5.493,-12.049c-0.547,-1.796 -0.926,-3.348 -1.167,-4.446c-0.12,-0.548 -0.207,-0.984 -0.263,-1.281c-0.028,-0.148 -0.048,-0.261 -0.061,-0.337l-0.019,-0.108c-0.089,-0.545 -0.602,-0.916 -1.147,-0.827c-0.545,0.088 -0.915,0.602 -0.827,1.147Z" style="fill:#8f5d48;fill-rule:nonzero;"/><path d="M123.146,186.089c0,0 13.145,-48.134 34.776,-39.252c21.632,8.882 -2.518,43.387 -19.582,47.504c-0.885,0.213 -0.405,-11.691 -15.194,-8.252Z" style="fill:#8f5d48;fill-rule:nonzero;"/><path d="M93.922,177.923c0,-0 6.333,-43.179 27.47,-36.373c21.202,6.827 -17.012,39.238 -17.012,39.238c0,0 -4.871,-2.149 -10.458,-2.865Z" style="fill:#8f5d48;fill-rule:nonzero;"/><path d="M123.146,186.089c0,0 15.121,-44.835 33.665,-35.814c15.901,7.736 -3.152,37.053 -18.665,43.894c0,-0 -7.694,-8.653 -15,-8.08Z" style="fill:#fff;fill-rule:nonzero;"/><path d="M93.922,177.923c0,-0 8.452,-37.962 25.643,-34.381c17.836,3.716 -15.185,37.246 -15.185,37.246c0,0 -4.871,-2.149 -10.458,-2.865Z" style="fill:#fff;fill-rule:nonzero;"/><path d="M124.851,215.742l4.745,3.913c0,0 6.914,18.005 0,25.741c-6.914,7.735 -18.77,7.346 -22.601,3.223c-3.83,-4.124 -9.269,-28.794 -5.386,-31.588c3.882,-2.793 23.242,-1.289 23.242,-1.289Z" style="fill:#d84c5b;fill-rule:nonzero;"/><path d="M131.741,233.57c0,-0 -7.865,-0.924 -11.095,6.239c0,0 1.64,-4.155 -0.795,-3.725c-2.435,0.43 -7.019,3.581 -9.741,12.75c0,0 10.887,4.441 16.617,-2.292c5.73,-6.733 5.014,-12.972 5.014,-12.972Z" style="fill:#ef8a90;fill-rule:nonzero;"/><path d="M127.3,220.183c0,0 4.585,13.609 1.719,19.482c-2.865,5.874 -17.659,14.396 -23.257,3.152l-2.6,0.143c0,0 -0.659,9.885 6.225,12.463c6.883,2.579 19.489,1.457 25.649,-10.875c6.16,-12.332 2.006,-25.941 -2.435,-33.963l-5.301,9.598Z" style="fill:#e5c299;fill-rule:nonzero;"/><path d="M127.3,220.183l-0.948,0.319l0.028,0.083c0.139,0.426 0.789,2.453 1.401,5.097c0.612,2.641 1.182,5.908 1.18,8.761c0.004,1.9 -0.261,3.608 -0.841,4.784c-0.391,0.806 -1.096,1.749 -2.029,2.678c-1.398,1.397 -3.302,2.769 -5.38,3.774c-2.078,1.008 -4.33,1.645 -6.414,1.643c-1.542,-0.002 -2.987,-0.339 -4.272,-1.108c-1.285,-0.771 -2.439,-1.982 -3.367,-3.842l-0.294,-0.59l-4.14,0.229l-0.06,0.881c-0.001,0.019 -0.02,0.297 -0.02,0.762c0.002,1.215 0.116,3.709 1.011,6.265c0.449,1.277 1.098,2.573 2.05,3.715c0.95,1.142 2.215,2.122 3.829,2.726c2.006,0.75 4.418,1.194 7.017,1.195c3.46,-0.001 7.254,-0.794 10.782,-2.769c3.528,-1.972 6.775,-5.137 9.097,-9.791c2.311,-4.625 3.216,-9.426 3.215,-14.034c-0.004,-8.11 -2.778,-15.628 -5.67,-20.86l-0.876,-1.582l-6.388,11.566l0.141,0.417l0.948,-0.319l0.875,0.483l5.301,-9.598l-0.875,-0.483l-0.875,0.484c2.767,4.996 5.424,12.247 5.42,19.892c-0.001,4.349 -0.85,8.825 -3.005,13.14c-2.157,4.312 -5.094,7.151 -8.285,8.94c-3.19,1.787 -6.648,2.514 -9.805,2.514c-2.368,0.001 -4.562,-0.411 -6.314,-1.068c-1.274,-0.479 -2.234,-1.224 -2.996,-2.134c-1.142,-1.362 -1.807,-3.119 -2.169,-4.755c-0.365,-1.635 -0.429,-3.135 -0.428,-3.944c0,-0.206 0.004,-0.367 0.008,-0.474l0.006,-0.119l0.002,-0.032l-0.998,-0.069l0.055,0.999l2.601,-0.143l-0.056,-0.999l-0.894,0.446c1.065,2.147 2.491,3.689 4.13,4.667c1.639,0.982 3.465,1.393 5.299,1.392c3.315,-0.007 6.677,-1.302 9.487,-3.065c1.405,-0.884 2.671,-1.89 3.72,-2.937c1.049,-1.048 1.883,-2.132 2.414,-3.216c0.784,-1.622 1.039,-3.587 1.043,-5.661c-0.002,-3.316 -0.684,-6.934 -1.358,-9.749c-0.675,-2.811 -1.349,-4.811 -1.356,-4.83l-0.947,0.319l0.875,0.483l-0.875,-0.483Z" style="fill:#d2ac8c;fill-rule:nonzero;"/><path d="M90.929,223.945c0,-0 3.566,17.869 9.153,19.875c5.586,2.005 14.598,0.828 9.305,-16.06l-10.737,-6.574l-7.721,2.759Z" style="fill:#fff;fill-rule:nonzero;"/><path d="M90.929,223.945l-0.981,0.196c0.005,0.024 0.901,4.519 2.515,9.309c0.808,2.396 1.793,4.866 2.964,6.915c0.587,1.025 1.221,1.946 1.925,2.706c0.704,0.756 1.486,1.362 2.392,1.69c1.325,0.475 2.82,0.786 4.331,0.787c1.937,0.002 3.95,-0.528 5.476,-1.997c0.761,-0.73 1.38,-1.683 1.798,-2.849c0.419,-1.167 0.642,-2.546 0.642,-4.162c-0.001,-2.433 -0.504,-5.41 -1.651,-9.079l-0.112,-0.358l-11.465,-7.02l-8.984,3.211l0.169,0.847l0.981,-0.196l0.336,0.942l7.27,-2.599l10.329,6.325l0.523,-0.853l-0.956,0.298c1.107,3.532 1.562,6.327 1.56,8.482c0,1.433 -0.199,2.58 -0.524,3.486c-0.495,1.359 -1.243,2.188 -2.159,2.735c-0.917,0.543 -2.04,0.787 -3.233,0.787c-1.232,0.001 -2.523,-0.262 -3.655,-0.669c-0.49,-0.174 -1.043,-0.565 -1.603,-1.17c-0.983,-1.053 -1.955,-2.724 -2.805,-4.621c-1.282,-2.847 -2.316,-6.197 -3.02,-8.822c-0.353,-1.313 -0.624,-2.446 -0.807,-3.249c-0.091,-0.401 -0.161,-0.72 -0.207,-0.938c-0.046,-0.217 -0.068,-0.329 -0.068,-0.33l-0.981,0.196l0.336,0.942l-0.336,-0.942Z" style="fill:#ded9cb;fill-rule:nonzero;"/><path d="M96.486,178.353c0,0 3.229,-17.028 9.276,-16.347c5.231,0.589 1.718,11.049 -3.414,17.996c0,0 -2.16,-0.709 -5.862,-1.649Z" style="fill-rule:nonzero;"/><path d="M127.745,186.793c0,0 8.294,-22.622 15.886,-18.468c9.167,5.016 -1.713,16.711 -8.826,22.698c0,-0 -2.382,-2.177 -7.06,-4.23Z" style="fill-rule:nonzero;"/><path d="M102.582,236.783c-0.001,-0.002 -0.16,-0.667 -0.42,-1.79c-0.779,-3.364 -2.461,-10.813 -3.421,-16.412c-0.094,-0.544 -0.61,-0.909 -1.155,-0.816c-0.544,0.093 -0.909,0.61 -0.816,1.155c1.299,7.574 3.864,18.317 3.866,18.327c0.128,0.538 0.668,0.87 1.205,0.741c0.537,-0.128 0.869,-0.667 0.741,-1.205Z" style="fill:#ded9cb;fill-rule:nonzero;"/><path d="M118.992,187.328c6.347,3.113 24.292,16.254 9.168,34.144c-11.747,13.896 -29.51,2.006 -29.51,2.006c0,0 -14.756,4.584 -19.626,-10.314c-4.871,-14.899 -0.143,-45.512 39.968,-25.836Z" style="fill:#e5c299;fill-rule:nonzero;"/><path d="M118.992,187.328l-0.441,0.898c2.167,1.059 5.865,3.422 8.952,6.759c1.546,1.668 2.942,3.578 3.945,5.685c1.004,2.108 1.618,4.407 1.618,6.891c-0.004,3.911 -1.512,8.338 -5.67,13.266c-2.075,2.452 -4.312,4.035 -6.596,5.02c-2.284,0.983 -4.625,1.367 -6.901,1.367c-3.893,0.003 -7.59,-1.137 -10.3,-2.288c-1.355,-0.575 -2.462,-1.151 -3.227,-1.58c-0.382,-0.215 -0.678,-0.393 -0.877,-0.515c-0.099,-0.062 -0.173,-0.109 -0.222,-0.14l-0.054,-0.035l-0.013,-0.009l-0.398,-0.266l-0.455,0.142l-0.013,0.004c-0.185,0.056 -2.157,0.617 -4.753,0.616c-2.253,0.001 -4.956,-0.42 -7.419,-1.89c-2.462,-1.475 -4.743,-3.982 -6.194,-8.4c-0.939,-2.867 -1.516,-6.384 -1.516,-9.986c-0.003,-5.134 1.176,-10.425 3.997,-14.347c1.412,-1.964 3.224,-3.598 5.535,-4.754c2.313,-1.155 5.135,-1.836 8.588,-1.837c5.586,-0.003 12.817,1.804 21.973,6.297l0.441,-0.898l0.439,-0.898c-9.337,-4.578 -16.835,-6.499 -22.853,-6.501c-3.715,-0.001 -6.865,0.74 -9.482,2.048c-3.93,1.961 -6.613,5.187 -8.279,8.897c-1.671,3.713 -2.357,7.92 -2.358,11.993c0,3.815 0.604,7.515 1.614,10.607c1.563,4.805 4.191,7.787 7.071,9.497c2.878,1.713 5.95,2.171 8.443,2.172c3.072,-0.002 5.297,-0.692 5.359,-0.71l-0.296,-0.955l-0.557,0.831c0.038,0.024 1.854,1.239 4.725,2.458c2.871,1.216 6.8,2.445 11.081,2.447c2.5,0.001 5.123,-0.424 7.692,-1.53c2.569,-1.105 5.074,-2.894 7.332,-5.566c4.389,-5.185 6.147,-10.111 6.143,-14.557c0,-2.818 -0.701,-5.421 -1.812,-7.752c-1.669,-3.498 -4.247,-6.398 -6.836,-8.649c-2.593,-2.251 -5.195,-3.85 -6.987,-4.73l-0.439,0.898Z" style="fill:#d2ac8c;fill-rule:nonzero;"/><path d="M134.606,424.606c0,0 14.469,7.879 16.188,43.12c1.719,35.24 -2.006,36.816 -12.75,38.965c-10.744,2.148 -11.03,-3.725 -11.03,-3.725c0,0 -3.868,3.868 -10.887,2.292c-7.02,-1.576 -6.735,-6.017 -6.735,-6.017c0,0 -5.442,0.144 -5.442,-7.162c0,-7.306 8.452,-12.607 15.185,-11.747c0,0 0.573,-6.303 -1.289,-10.887c0,0 19.769,-18.337 16.76,-44.839Z" style="fill:#a5744e;fill-rule:nonzero;"/><path d="M134.606,424.606l-0.478,0.878l0.082,-0.151l-0.084,0.15l0.002,0.001l0.082,-0.151l-0.084,0.15c0.087,0.051 3.562,2.027 7.247,8.277c3.683,6.252 7.581,16.798 8.422,34.014c0.264,5.432 0.4,10.057 0.4,13.997c0,5.392 -0.255,9.503 -0.765,12.63c-0.381,2.345 -0.907,4.134 -1.554,5.5c-0.981,2.049 -2.177,3.17 -3.79,4.002c-1.614,0.825 -3.693,1.3 -6.238,1.807c-1.608,0.321 -2.955,0.453 -4.077,0.453c-1.533,0 -2.638,-0.245 -3.435,-0.578c-1.191,-0.505 -1.727,-1.188 -2.024,-1.75c-0.145,-0.281 -0.222,-0.533 -0.261,-0.705l-0.035,-0.189l-0.004,-0.035l-0.3,0.026l0.301,-0.015l-0.001,-0.011l-0.3,0.026l0.301,-0.015l-0.111,-2.255l-1.596,1.597l0.186,0.185l-0.183,-0.188l-0.003,0.003l0.186,0.185l-0.183,-0.188c-0.025,0.025 -0.653,0.627 -1.819,1.214c-1.167,0.588 -2.864,1.165 -5.075,1.165c-0.93,0 -1.953,-0.102 -3.069,-0.353c-3.066,-0.695 -4.486,-1.897 -5.206,-2.903c-0.716,-1.009 -0.749,-1.91 -0.75,-2.065l0,-0.004l-0.611,-0.031l0.61,0.06l0.001,-0.029l-0.611,-0.031l0.61,0.06l0.106,-1.098l-1.125,0c-0.08,0.005 -1.241,-0.03 -2.281,-0.765c-0.525,-0.369 -1.038,-0.9 -1.444,-1.744c-0.402,-0.843 -0.695,-2.014 -0.695,-3.653c0.001,-1.516 0.404,-2.933 1.114,-4.231c1.067,-1.945 2.841,-3.612 4.926,-4.779c2.082,-1.169 4.462,-1.831 6.678,-1.829c0.455,-0 0.902,0.027 1.339,0.084l1.03,0.133l0.094,-1.035c0.002,-0.023 0.086,-0.965 0.086,-2.39c-0.005,-2.32 -0.211,-5.904 -1.445,-8.963l-0.926,0.376l0.679,0.733c0.045,-0.043 4.371,-4.059 8.707,-11.062c4.332,-7.004 8.683,-17.014 8.685,-29.014c0,-1.826 -0.101,-3.697 -0.317,-5.608l-0.994,0.112l-0.478,0.878l0.478,-0.878l-0.994,0.113c0.208,1.835 0.305,3.631 0.305,5.383c0.002,11.506 -4.183,21.168 -8.386,27.96c-2.101,3.395 -4.203,6.068 -5.775,7.887c-0.786,0.909 -1.439,1.605 -1.893,2.071c-0.227,0.234 -0.405,0.409 -0.523,0.525l-0.135,0.128l-0.04,0.039l-0.506,0.469l0.26,0.64c1.069,2.616 1.303,6.027 1.299,8.211c0,0.673 -0.021,1.231 -0.04,1.618c-0.011,0.194 -0.02,0.344 -0.028,0.445c-0.007,0.101 -0.011,0.147 -0.011,0.147l0.996,0.09l0.128,-0.992c-0.528,-0.068 -1.061,-0.1 -1.595,-0.1c-3.477,0.005 -7.091,1.345 -9.898,3.596c-1.402,1.128 -2.602,2.491 -3.458,4.05c-0.856,1.557 -1.363,3.316 -1.362,5.193c0,1.875 0.337,3.357 0.891,4.516c0.827,1.744 2.146,2.697 3.261,3.156c1.117,0.466 2.039,0.489 2.268,0.49l0.022,0l0,-1l-0.994,-0.097l-0.007,0.17c-0.001,0.425 0.089,1.768 1.117,3.221c1.026,1.457 2.975,2.937 6.4,3.699c1.257,0.282 2.43,0.401 3.507,0.401c2.647,0.001 4.711,-0.719 6.109,-1.447c1.4,-0.729 2.142,-1.461 2.197,-1.515l-0.707,-0.707l-0.999,0.048c0.008,0.123 0.081,1.391 1.15,2.689c0.532,0.644 1.315,1.275 2.399,1.727c1.085,0.453 2.463,0.733 4.207,0.733c1.278,0 2.754,-0.149 4.469,-0.492c2.28,-0.458 4.299,-0.891 6.092,-1.674c1.343,-0.587 2.557,-1.385 3.577,-2.521c1.535,-1.708 2.596,-4.107 3.28,-7.559c0.685,-3.46 1.005,-8.009 1.005,-14.146c0,-3.986 -0.136,-8.64 -0.402,-14.094c-0.864,-17.751 -4.95,-28.705 -8.88,-35.242c-3.927,-6.537 -7.694,-8.637 -7.828,-8.707l-1.687,-0.918l0.215,1.909l0.994,-0.113Z" style="fill:#8f5d48;fill-rule:nonzero;"/><path d="M98.076,208.006c4.585,0.427 17.498,-2.263 19,-11.434c1.343,-8.191 -5.104,-11.629 -11.693,-14.208c-6.59,-2.579 -21.413,-5.739 -19.197,10.887c1.433,10.744 7.736,14.368 11.89,14.755Z" style="fill:#ef8a90;fill-rule:nonzero;"/><path d="M98.076,208.006l-0.092,0.996c0.339,0.032 0.708,0.047 1.105,0.047c2.788,-0.006 7.023,-0.751 10.867,-2.629c1.92,-0.942 3.739,-2.172 5.192,-3.769c1.453,-1.594 2.532,-3.57 2.915,-5.918c0.129,-0.788 0.192,-1.542 0.191,-2.264c0.002,-1.821 -0.404,-3.439 -1.12,-4.843c-1.076,-2.109 -2.815,-3.714 -4.818,-5.008c-2.008,-1.295 -4.296,-2.295 -6.569,-3.185c-2.625,-1.023 -6.468,-2.139 -10.209,-2.144c-2.641,0.002 -5.285,0.564 -7.315,2.277c-1.01,0.854 -1.84,1.991 -2.4,3.41c-0.562,1.421 -0.862,3.118 -0.862,5.129c0,1.01 0.075,2.101 0.234,3.28c0.736,5.544 2.76,9.364 5.205,11.831c2.446,2.468 5.272,3.57 7.584,3.786l0.092,-0.996l0.093,-0.995c-1.843,-0.171 -4.245,-1.075 -6.348,-3.202c-2.103,-2.128 -3.948,-5.492 -4.643,-10.69c-0.149,-1.102 -0.217,-2.104 -0.217,-3.014c0,-1.814 0.271,-3.256 0.721,-4.393c0.682,-1.702 1.734,-2.75 3.077,-3.443c1.342,-0.687 3.005,-0.981 4.779,-0.98c3.338,-0.005 7.024,1.041 9.48,2.006c2.964,1.157 5.839,2.484 7.899,4.248c1.032,0.882 1.86,1.865 2.434,2.991c0.573,1.128 0.902,2.406 0.904,3.935c-0.001,0.606 -0.053,1.252 -0.166,1.941c-0.319,1.935 -1.185,3.534 -2.42,4.895c-1.848,2.039 -4.554,3.499 -7.283,4.424c-2.724,0.928 -5.47,1.322 -7.297,1.32c-0.345,-0 -0.654,-0.014 -0.92,-0.038l-0.093,0.995Z" style="fill:#f26f81;fill-rule:nonzero;"/><path d="M94.71,459.847c-5.637,1.671 9.527,6.876 11.389,11.746c1.862,4.871 16.761,-2.578 23.78,-15.328c7.019,-12.749 7.159,-26.132 5.227,-33.551c0,0 -14.892,13.04 -18.571,17.631c-3.68,4.591 -14.967,17.469 -21.825,19.502Z" style="fill:#8ec3e3;fill-rule:nonzero;"/><path d="M94.71,459.847l-0.284,-0.958c-0.515,0.154 -0.942,0.337 -1.312,0.643c-0.184,0.154 -0.351,0.345 -0.471,0.578c-0.121,0.232 -0.184,0.503 -0.183,0.756c0.001,0.349 0.104,0.651 0.237,0.908c0.255,0.481 0.617,0.857 1.052,1.248c0.762,0.672 1.777,1.357 2.912,2.091c1.701,1.094 3.666,2.284 5.295,3.487c0.813,0.602 1.541,1.205 2.099,1.782c0.562,0.576 0.944,1.126 1.11,1.569c0.269,0.722 0.8,1.313 1.454,1.658c0.652,0.35 1.397,0.487 2.187,0.487c1.487,-0.004 3.193,-0.475 5.059,-1.3c2.792,-1.243 5.93,-3.313 8.921,-6.042c2.989,-2.73 5.827,-6.119 7.968,-10.007c4.757,-8.642 6.414,-17.553 6.415,-24.798c-0.001,-3.663 -0.424,-6.9 -1.095,-9.487c-0.088,-0.337 -0.342,-0.602 -0.674,-0.704c-0.333,-0.102 -0.692,-0.026 -0.953,0.203c-0.004,0.003 -3.731,3.267 -7.923,7.11c-2.096,1.921 -4.309,3.987 -6.235,5.867c-1.927,1.883 -3.558,3.565 -4.535,4.782c-1.815,2.264 -5.543,6.614 -9.639,10.62c-2.048,2.003 -4.191,3.921 -6.22,5.448c-2.026,1.528 -3.954,2.656 -5.469,3.101l0.284,0.958l0.284,0.959c1.914,-0.573 3.968,-1.818 6.103,-3.42c6.377,-4.806 13.416,-12.926 16.218,-16.415c0.862,-1.079 2.472,-2.749 4.372,-4.602c2.853,-2.785 6.376,-6.015 9.182,-8.544c1.403,-1.265 2.628,-2.355 3.501,-3.129c0.873,-0.774 1.393,-1.229 1.394,-1.23l-0.658,-0.752l-0.968,0.251c0.623,2.392 1.032,5.477 1.031,8.984c0.001,6.944 -1.596,15.534 -6.167,23.834c-2.687,4.885 -6.598,9.002 -10.436,11.873c-1.918,1.435 -3.816,2.558 -5.513,3.313c-1.696,0.757 -3.198,1.132 -4.247,1.128c-0.558,0 -0.972,-0.103 -1.238,-0.248c-0.267,-0.151 -0.414,-0.312 -0.535,-0.613c-0.525,-1.333 -1.63,-2.435 -2.943,-3.513c-1.974,-1.602 -4.497,-3.094 -6.503,-4.394c-0.999,-0.647 -1.87,-1.247 -2.442,-1.742c-0.285,-0.247 -0.492,-0.466 -0.598,-0.616l-0.089,-0.149l-0.004,-0.008l-0.169,0.052l0.175,-0l-0.006,-0.052l-0.169,0.052l0.175,-0l-0.349,-0l0.31,0.161l0.039,-0.161l-0.349,-0l0.31,0.161l-0.154,-0.081l0.124,0.125l0.03,-0.044l-0.154,-0.081l0.124,0.125c0.001,-0.01 0.196,-0.15 0.603,-0.265l-0.284,-0.959Z" style="fill:#6597ac;fill-rule:nonzero;"/><path d="M141.305,273.545c0,0 19.876,-0.107 30.083,-9.562c0,-0 -0.322,2.256 -1.504,3.653c0,0 31.802,-18.265 37.926,-39.753c0,0 0.537,2.686 0,5.05c0,0 6.232,-5.48 2.794,-28.15c0,0 2.149,3.116 2.471,6.447c0,-0 -2.329,-25.249 -5.123,-43.514c0,-0 -0.979,36.217 -4.334,47.105c0,0 -0.229,-3.665 -0.919,-4.542c-0.69,-0.876 -12.407,29.386 -25.014,39.271c0,0 0.144,-0.859 1.29,-3.725c0,-0 -19.121,19.196 -31.834,22.348c-12.712,3.152 -14.431,1.433 -16.723,2.865c-2.293,1.433 -13.323,23.064 -15.758,33.808c-2.436,10.744 21.917,-18.623 26.645,-31.301Z" style="fill:#8f5d48;fill-rule:nonzero;"/><path d="M54.957,418.589c-9.455,-7.592 -8.595,-18.909 -8.595,-18.909c-9.741,-11.46 -12.32,-24.926 -8.739,-49.423c3.582,-24.496 41.687,-59.163 41.687,-59.163c0,0 35.098,10.027 42.117,13.752c0,-0 9.224,17.393 18.149,19.011c0,-0 5.822,19.063 6.204,29.122c0.382,10.06 9.312,53.721 -14.325,73.203c-23.637,19.482 -19.339,24.783 -30.227,31.659c0,0 -1.289,-18.903 -13.465,-31.584c-12.177,-12.681 -25.93,-15.833 -28.365,-14.257c-2.435,1.576 -4.441,6.589 -4.441,6.589Z" style="fill:#4492cc;fill-rule:nonzero;"/><path d="M54.957,418.589l0.626,-0.779c-3.826,-3.075 -5.878,-6.77 -6.987,-10.039c-1.108,-3.266 -1.256,-6.096 -1.256,-7.342c0,-0.226 0.006,-0.399 0.01,-0.513l0.007,-0.125l0.002,-0.031l0.032,-0.413l-0.267,-0.315c-3.417,-4.022 -5.911,-8.258 -7.568,-13.163c-1.655,-4.905 -2.471,-10.491 -2.471,-17.197c0,-5.321 0.514,-11.345 1.528,-18.27c0.859,-5.908 3.85,-12.576 7.889,-19.203c6.053,-9.946 14.434,-19.807 21.294,-27.163c3.43,-3.678 6.48,-6.732 8.672,-8.865c1.095,-1.067 1.976,-1.902 2.582,-2.471c0.302,-0.285 0.537,-0.502 0.695,-0.648c0.158,-0.146 0.238,-0.219 0.238,-0.219l-0.673,-0.739l-0.275,0.961c0.002,0.001 0.547,0.156 1.519,0.437c3.403,0.984 12.011,3.497 20.528,6.168c4.258,1.335 8.494,2.71 12.038,3.952c3.539,1.237 6.413,2.358 7.838,3.117l0.469,-0.883l-0.884,0.468c0.016,0.028 2.338,4.41 5.812,9.032c1.739,2.311 3.764,4.684 5.96,6.61c2.199,1.921 4.569,3.422 7.082,3.885l0.179,-0.984l-0.957,0.292c0,0.001 0.09,0.292 0.249,0.83c0.556,1.882 1.957,6.739 3.257,12.209c1.301,5.464 2.497,11.566 2.656,15.829c0.088,2.29 0.58,6.071 1.049,10.865c0.47,4.788 0.916,10.562 0.916,16.719c0.001,7.929 -0.744,16.493 -3.114,24.384c-2.371,7.895 -6.351,15.098 -12.813,20.425c-11.871,9.78 -16.805,16.084 -20.078,20.754c-1.634,2.332 -2.845,4.225 -4.285,5.923c-1.44,1.699 -3.113,3.233 -5.762,4.908l0.534,0.846l0.998,-0.068c-0.004,-0.05 -0.332,-4.84 -2.205,-11.249c-1.875,-6.407 -5.29,-14.448 -11.537,-20.96c-5.235,-5.45 -10.758,-9.175 -15.596,-11.542c-2.42,-1.184 -4.668,-2.029 -6.633,-2.581c-1.967,-0.552 -3.643,-0.814 -4.966,-0.816c-0.971,0.012 -1.753,0.112 -2.437,0.537l0.003,-0.002c-0.758,0.493 -1.397,1.179 -1.972,1.926c-1.705,2.233 -2.833,5.091 -2.854,5.132l0.928,0.371l0.626,-0.779l-0.626,0.779l0.929,0.372l0.019,-0.048c0.104,-0.253 0.625,-1.485 1.381,-2.804c0.378,-0.66 0.815,-1.34 1.276,-1.924c0.459,-0.585 0.948,-1.069 1.379,-1.346l0.003,-0.002c0.065,-0.062 0.577,-0.223 1.345,-0.212c1.055,-0.001 2.591,0.224 4.425,0.741c5.516,1.548 13.739,5.677 21.327,13.583c5.929,6.17 9.246,13.921 11.06,20.136c0.908,3.106 1.442,5.825 1.747,7.76c0.153,0.968 0.249,1.74 0.307,2.267c0.028,0.264 0.047,0.466 0.06,0.601l0.012,0.151l0.003,0.046l0.114,1.672l1.418,-0.895c2.795,-1.764 4.668,-3.47 6.22,-5.308c2.335,-2.765 3.941,-5.725 7.177,-9.811c3.234,-4.088 8.109,-9.342 16.932,-16.615c6.843,-5.64 11.009,-13.236 13.457,-21.393c2.449,-8.162 3.197,-16.905 3.198,-24.959c0,-6.253 -0.453,-12.092 -0.925,-16.914c-0.473,-4.814 -0.964,-8.639 -1.042,-10.746c-0.201,-5.184 -1.765,-12.48 -3.274,-18.537c-1.51,-6.05 -2.97,-10.829 -2.973,-10.839l-0.179,-0.583l-0.599,-0.109c-1.949,-0.346 -4.079,-1.626 -6.12,-3.421c-3.067,-2.685 -5.923,-6.47 -7.986,-9.571c-1.032,-1.552 -1.87,-2.933 -2.447,-3.923c-0.289,-0.495 -0.513,-0.893 -0.664,-1.165c-0.076,-0.137 -0.133,-0.242 -0.171,-0.312l-0.056,-0.103l-0.144,-0.271l-0.271,-0.144c-0.944,-0.501 -2.281,-1.071 -3.933,-1.71c-5.767,-2.229 -15.341,-5.25 -23.498,-7.726c-8.154,-2.474 -14.876,-4.394 -14.879,-4.395l-0.537,-0.153l-0.411,0.375c-0.019,0.018 -9.569,8.706 -19.589,20.488c-5.01,5.892 -10.138,12.556 -14.254,19.317c-4.114,6.762 -7.229,13.613 -8.16,19.954c-1.023,6.993 -1.549,13.109 -1.549,18.559c0,6.866 0.836,12.681 2.576,17.836c1.738,5.155 4.382,9.637 7.939,13.819l0.762,-0.647l-0.997,-0.08c-0.002,0.024 -0.024,0.318 -0.024,0.829c0,1.4 0.16,4.437 1.36,7.984c1.199,3.544 3.456,7.606 7.63,10.956l1.053,0.846l0.502,-1.254l-0.929,-0.372Z" style="fill:#3572af;fill-rule:nonzero;"/><path d="M58.31,313.273c0,-0 2.807,-18.311 12.692,-27.05c9.884,-8.739 22.347,-15.042 28.507,-16.331c0,0 -12.32,8.882 -15.471,12.177c-3.152,3.294 -8.669,8.94 -9.556,13.65l-16.172,17.554Z" style="fill:#f79449;fill-rule:nonzero;"/><path d="M58.31,313.273l0.988,0.152c0,0 0.009,-0.062 0.032,-0.193c0.165,-0.983 1.004,-5.596 2.937,-10.942c1.927,-5.349 4.969,-11.414 9.397,-15.318c4.875,-4.311 10.409,-8.036 15.472,-10.833c5.055,-2.797 9.671,-4.665 12.578,-5.268l-0.205,-0.979l-0.585,-0.811c-0.004,0.003 -3.088,2.226 -6.573,4.867c-1.742,1.32 -3.585,2.744 -5.196,4.051c-1.615,1.311 -2.987,2.489 -3.84,3.378c-1.573,1.646 -3.765,3.904 -5.693,6.371c-1.923,2.475 -3.612,5.137 -4.123,7.785l0.983,0.186l-0.736,-0.678l-16.172,17.555l0.736,0.677l0.988,0.152l-0.988,-0.152l0.735,0.678l16.172,-17.555c0.125,-0.136 0.213,-0.31 0.247,-0.492c0.377,-2.061 1.89,-4.576 3.735,-6.925c1.84,-2.357 3.983,-4.57 5.561,-6.219c0.723,-0.758 2.072,-1.926 3.654,-3.207c2.378,-1.929 5.302,-4.145 7.627,-5.875c1.163,-0.865 2.177,-1.609 2.9,-2.137c0.722,-0.528 1.152,-0.837 1.153,-0.838c0.381,-0.275 0.52,-0.784 0.33,-1.215c-0.19,-0.431 -0.659,-0.672 -1.12,-0.575c-3.253,0.686 -7.948,2.614 -13.136,5.476c-5.179,2.862 -10.82,6.657 -15.829,11.085c-5.16,4.575 -8.364,11.475 -10.337,17.228c-1.965,5.755 -2.675,10.382 -2.681,10.42c-0.067,0.436 0.158,0.861 0.555,1.053c0.398,0.191 0.87,0.1 1.169,-0.224l-0.735,-0.678Z" style="fill:#f58246;fill-rule:nonzero;"/><path d="M88.622,300.978c5.591,1.446 19.481,1.433 20.915,7.163c1.432,5.73 -6.303,17.477 -11.747,23.493c-5.443,6.017 -17.606,-1.489 -24.067,-3.294c-6.461,-1.806 -18.48,-3.582 -16.76,-8.882c1.719,-5.301 11.746,-14.29 14.898,-17.674c3.152,-3.384 8.452,-2.955 16.761,-0.806Z" style="fill:#4492cc;fill-rule:nonzero;"/><path d="M88.622,300.978l-0.251,0.968c1.492,0.384 3.424,0.653 5.539,0.946c3.166,0.436 6.732,0.923 9.558,1.801c1.411,0.436 2.63,0.972 3.505,1.597c0.88,0.632 1.395,1.307 1.594,2.093c0.094,0.378 0.143,0.81 0.143,1.29c0.003,1.335 -0.392,3.029 -1.095,4.87c-2.098,5.542 -6.896,12.373 -10.567,16.421c-0.647,0.713 -1.382,1.19 -2.224,1.506c-0.841,0.315 -1.795,0.46 -2.841,0.46c-2.732,0.007 -6.052,-1.016 -9.249,-2.24c-3.208,-1.22 -6.281,-2.622 -8.741,-3.314c-3.079,-0.858 -7.289,-1.693 -10.673,-2.856c-1.688,-0.577 -3.163,-1.243 -4.136,-1.962c-0.488,-0.358 -0.846,-0.723 -1.067,-1.07c-0.222,-0.35 -0.319,-0.667 -0.322,-1.032c0.001,-0.208 0.034,-0.431 0.117,-0.686l0.002,-0.004c0.364,-1.138 1.26,-2.638 2.458,-4.23c1.797,-2.396 4.255,-5.028 6.557,-7.369c2.304,-2.346 4.443,-4.392 5.664,-5.702c0.71,-0.759 1.517,-1.283 2.496,-1.637c0.979,-0.351 2.137,-0.525 3.504,-0.525c2.549,-0.002 5.8,0.612 9.778,1.643l0.251,-0.968l0.25,-0.968c-4.047,-1.045 -7.418,-1.704 -10.279,-1.706c-1.533,0 -2.925,0.192 -4.18,0.642c-1.254,0.449 -2.364,1.166 -3.284,2.156c-0.76,0.817 -1.977,2.014 -3.389,3.417c-2.119,2.106 -4.684,4.684 -6.897,7.258c-1.107,1.287 -2.128,2.573 -2.966,3.811c-0.837,1.24 -1.495,2.425 -1.866,3.561l0.002,-0.004c-0.145,0.441 -0.218,0.882 -0.217,1.311c-0.003,0.769 0.24,1.496 0.637,2.111c0.702,1.082 1.813,1.872 3.125,2.554c1.973,1.014 4.458,1.771 6.956,2.431c2.495,0.656 5.001,1.208 6.94,1.751c2.209,0.613 5.297,2.007 8.567,3.256c3.28,1.244 6.755,2.364 9.962,2.371c1.228,-0 2.424,-0.169 3.541,-0.586c1.115,-0.415 2.146,-1.085 3.007,-2.039c2.549,-2.82 5.557,-6.824 7.956,-10.933c1.198,-2.055 2.243,-4.135 2.998,-6.118c0.752,-1.985 1.221,-3.869 1.225,-5.581c0,-0.615 -0.062,-1.209 -0.203,-1.774c-0.224,-0.904 -0.702,-1.692 -1.329,-2.344c-1.102,-1.142 -2.632,-1.916 -4.363,-2.524c-2.598,-0.905 -5.693,-1.417 -8.6,-1.836c-2.9,-0.415 -5.628,-0.738 -7.343,-1.185l-0.25,0.968Z" style="fill:#3572af;fill-rule:nonzero;"/><path d="M132.422,273.047c-2.894,-0.191 -13.321,24.395 -15.209,31.226c0,-0 3.957,0.418 4.679,2.793c0,-0 18.535,-29.865 24.175,-34.019c0,0 -6.742,0.455 -13.645,0Z" style="fill:#4492cc;fill-rule:nonzero;"/><path d="M132.422,273.047l0.075,-0.998l-0.109,-0.004c-0.54,0.011 -0.91,0.237 -1.24,0.48c-0.61,0.471 -1.165,1.164 -1.796,2.076c-1.091,1.592 -2.338,3.847 -3.641,6.449c-1.952,3.899 -4.018,8.563 -5.746,12.787c-1.728,4.229 -3.113,7.992 -3.716,10.17c-0.078,0.282 -0.027,0.587 0.138,0.829c0.165,0.242 0.429,0.4 0.721,0.431l0.002,0.001c0.067,0.006 0.994,0.124 1.912,0.482c0.458,0.176 0.909,0.413 1.247,0.689c0.342,0.279 0.562,0.576 0.666,0.918c0.114,0.376 0.439,0.65 0.828,0.701c0.388,0.051 0.772,-0.131 0.979,-0.464c0.001,-0.002 0.288,-0.464 0.805,-1.287c1.808,-2.881 6.412,-10.147 11.171,-17.135c2.379,-3.494 4.798,-6.918 6.919,-9.681c1.059,-1.381 2.044,-2.597 2.905,-3.568c0.858,-0.969 1.605,-1.696 2.118,-2.071c0.356,-0.264 0.498,-0.733 0.345,-1.15c-0.152,-0.416 -0.563,-0.683 -1.006,-0.653c-0.001,-0 -0.179,0.012 -0.519,0.031c-1.019,0.056 -3.446,0.169 -6.453,0.169c-2.006,0 -4.268,-0.05 -6.54,-0.2l-0.065,0.998l0.075,-0.998l-0.075,0.998l-0.066,0.997c2.328,0.154 4.632,0.205 6.671,0.205c4.076,0 7.091,-0.204 7.107,-0.205l-0.067,-0.997l-0.594,-0.806c-0.822,0.61 -1.748,1.565 -2.822,2.807c-3.732,4.334 -9.107,12.177 -13.583,18.973c-4.471,6.791 -8.023,12.513 -8.026,12.518l0.85,0.527l0.957,-0.291c-0.254,-0.835 -0.788,-1.472 -1.373,-1.932c-0.884,-0.692 -1.903,-1.055 -2.712,-1.278c-0.808,-0.218 -1.41,-0.282 -1.446,-0.286l-0.105,0.994l0.964,0.266c0.449,-1.63 1.443,-4.424 2.716,-7.649c1.911,-4.843 4.459,-10.696 6.789,-15.307c1.163,-2.304 2.276,-4.302 3.204,-5.681c0.461,-0.689 0.881,-1.223 1.201,-1.542c0.157,-0.159 0.29,-0.263 0.361,-0.304l0.038,-0.022l0.008,-0.004l-0.107,-0.28l0.001,0.295l0.106,-0.015l-0.107,-0.28l0.001,0.295l0,-0.545l-0.042,0.544l0.042,0.001l0,-0.545l-0.042,0.544l0.01,-0l0.066,-0.997Z" style="fill:#3572af;fill-rule:nonzero;"/><path d="M155.529,273.047c0,0 -21.901,26.1 -21.782,52.714c0.071,16.009 6.344,24.339 10.151,27.64c2.818,2.443 4.93,9.469 5.929,19.204c0.43,4.19 -11.818,-3.223 -17.679,-10.585c-6.48,-8.139 -26.745,-36.009 -5.421,-68.061c11.419,-17.164 19.34,-20.912 19.34,-20.912l9.462,0Z" style="fill:#f79449;fill-rule:nonzero;"/><path d="M155.529,273.047l-0.766,-0.643c-0.027,0.033 -5.508,6.564 -11,16.454c-5.487,9.891 -11.01,23.141 -11.017,36.686c0,0.068 -0.001,0.147 0.001,0.237l1,-0.02l-1,0.004c0.066,16.275 6.475,24.915 10.496,28.391c0.572,0.494 1.176,1.293 1.745,2.374c1.725,3.247 3.109,8.951 3.844,16.177l0.006,0.103l-0.006,0.076l-0.002,0.011l0.177,0.064l-0.088,-0.166l-0.089,0.102l0.177,0.064l-0.088,-0.166l0.017,0.032l-0.014,-0.033l-0.003,0.001l0.017,0.032l-0.014,-0.033c0,0.002 -0.074,0.026 -0.217,0.026c-0.232,0.002 -0.627,-0.065 -1.11,-0.219c-1.713,-0.536 -4.444,-2.094 -7.174,-4.14c-2.739,-2.044 -5.519,-4.584 -7.491,-7.064c-4.316,-5.41 -14.729,-19.617 -14.718,-37.799c0.003,-8.879 2.456,-18.724 9.347,-29.085c5.67,-8.522 10.452,-13.684 13.791,-16.705c1.669,-1.511 2.978,-2.486 3.859,-3.078c0.44,-0.296 0.773,-0.496 0.99,-0.62c0.108,-0.062 0.188,-0.104 0.237,-0.13l0.052,-0.027l0.009,-0.004l-0.118,-0.243l0.115,0.244l0.003,-0.001l-0.118,-0.243l0.115,0.244l-0.427,-0.903l0,0.999l9.462,0l0,-0.999l-0.766,-0.643l0.766,0.643l0,-1l-9.462,0c-0.147,0 -0.297,0.033 -0.428,0.096c-0.186,0.086 -8.247,3.977 -19.745,21.262c-7.099,10.663 -9.685,20.943 -9.682,30.193c0.011,18.962 10.759,33.514 15.153,39.045c2.43,3.048 5.844,6.037 9.078,8.302c1.618,1.132 3.188,2.08 4.585,2.758c0.699,0.339 1.354,0.611 1.963,0.804c0.609,0.192 1.168,0.31 1.714,0.312c0.494,-0.001 1.029,-0.101 1.483,-0.482c0.222,-0.187 0.399,-0.44 0.503,-0.708c0.106,-0.268 0.146,-0.546 0.146,-0.819c0,-0.1 -0.005,-0.202 -0.015,-0.306c-0.505,-4.916 -1.289,-9.161 -2.322,-12.529c-0.516,-1.684 -1.095,-3.151 -1.743,-4.379c-0.651,-1.228 -1.368,-2.224 -2.204,-2.951c-3.594,-3.125 -9.73,-11.146 -9.807,-26.888l0,-0.016l-0.001,-0.197c-0.006,-12.994 5.362,-25.993 10.766,-35.715c2.7,-4.862 5.402,-8.906 7.426,-11.729c1.013,-1.412 1.855,-2.518 2.443,-3.27c0.294,-0.376 0.524,-0.663 0.68,-0.855c0.078,-0.096 0.138,-0.169 0.177,-0.217l0.057,-0.069c0.25,-0.298 0.305,-0.712 0.141,-1.065c-0.165,-0.352 -0.518,-0.577 -0.906,-0.577l0,1Z" style="fill:#f58246;fill-rule:nonzero;"/><path d="M81.28,295.248c0,0 4.297,-8.595 10.852,-15.042c6.553,-6.446 10.063,-9.168 10.063,-9.168c0,0 -6.196,-4.477 -17.978,10.243c-6.964,8.699 -8.596,12.105 -8.596,12.105c0,0 2.507,1.003 5.659,1.862Z" style="fill:#4492cc;fill-rule:nonzero;"/><path d="M81.28,295.248l0.894,0.447l0.046,-0.089c0.466,-0.92 4.61,-8.791 10.613,-14.687c3.263,-3.21 5.765,-5.489 7.447,-6.962c0.841,-0.737 1.477,-1.272 1.9,-1.622c0.212,-0.174 0.371,-0.303 0.476,-0.387l0.117,-0.092l0.035,-0.028c0.248,-0.192 0.392,-0.493 0.387,-0.807c-0.006,-0.314 -0.16,-0.61 -0.414,-0.794c-0.121,-0.09 -1.222,-0.831 -3.212,-0.829c-1.635,-0.002 -3.835,0.501 -6.526,2.157c-2.694,1.657 -5.892,4.46 -9.607,9.101c-6.995,8.739 -8.668,12.198 -8.716,12.298c-0.121,0.251 -0.132,0.535 -0.031,0.795c0.101,0.259 0.302,0.462 0.561,0.565c0.022,0.009 2.555,1.023 5.767,1.899c0.46,0.125 0.944,-0.091 1.157,-0.518l-0.894,-0.447l0.263,-0.965c-1.546,-0.421 -2.94,-0.88 -3.944,-1.232c-0.501,-0.176 -0.906,-0.326 -1.183,-0.431c-0.139,-0.052 -0.246,-0.093 -0.318,-0.121l-0.105,-0.042l-0.372,0.929l0.902,0.432l0,-0.001c0.056,-0.115 1.759,-3.524 8.474,-11.911c3.61,-4.512 6.658,-7.151 9.094,-8.647c2.439,-1.497 4.252,-1.86 5.478,-1.862c0.746,0.001 1.283,0.137 1.623,0.26c0.169,0.062 0.289,0.121 0.359,0.159l0.067,0.039l0.005,0.003l0.317,-0.467l-0.331,0.458l0.014,0.009l0.317,-0.467l-0.331,0.458l0.586,-0.811l-0.613,-0.79c-0.032,0.025 -3.571,2.772 -10.152,9.245c-6.704,6.604 -11.015,15.26 -11.044,15.308l0.894,0.447l0.263,-0.965l-0.263,0.965Z" style="fill:#3572af;fill-rule:nonzero;"/><path d="M195.742,149.076c0,0 11.388,-26 48.348,-51.733c40.546,-28.23 50.783,-36.601 62.243,-54.364c0,0 -31.516,101.603 -110.591,106.097Z" style="fill:#ef8a90;fill-rule:nonzero;"/><path d="M195.742,149.076l0.915,0.401l0.029,-0.063c0.648,-1.428 12.348,-26.445 47.975,-51.251c20.278,-14.119 32.992,-23.279 42.112,-31.171c9.119,-7.889 14.639,-14.536 20.4,-23.471l-0.84,-0.542l-0.955,-0.297c0,0.001 -0.029,0.092 -0.09,0.281c-0.941,2.925 -9.393,28.211 -27.108,53.236c-8.856,12.513 -20.023,24.958 -33.7,34.527c-13.678,9.571 -29.85,16.273 -48.796,17.351l0.058,0.999l0.915,0.401l-0.915,-0.401l0.056,0.998c19.982,-1.134 36.973,-8.414 51.169,-18.661c21.297,-15.375 36.35,-37.401 46.106,-55.577c9.752,-18.178 14.202,-32.519 14.215,-32.561c0.148,-0.479 -0.078,-0.991 -0.532,-1.203c-0.454,-0.211 -0.992,-0.057 -1.263,0.364c-5.699,8.828 -11.028,15.248 -20.029,23.043c-9,7.792 -21.678,16.932 -41.946,31.043c-37.143,25.86 -48.639,52.029 -48.692,52.153c-0.14,0.318 -0.104,0.686 0.094,0.972c0.198,0.285 0.531,0.447 0.878,0.427l-0.056,-0.998Z" style="fill:#8f5d48;fill-rule:nonzero;"/><path d="M45.849,273.824c-0.005,6.9 -3.582,15.551 -13.323,19.418c-9.741,3.868 -19.053,4.441 -24.353,-2.721c-7.185,-9.71 -7.592,-22.634 4.441,-22.061c0,0 1.719,-5.731 6.589,-5.444c0,0 -2.721,-12.463 8.166,-12.463c10.887,-0 9.598,12.749 9.598,12.749c0,-0 8.888,2.292 8.882,10.522Z" style="fill:#a5744e;fill-rule:nonzero;"/><path d="M45.849,273.824l-1,-0.001c-0.002,3.28 -0.858,6.998 -2.867,10.332c-2.012,3.335 -5.156,6.301 -9.825,8.158c-4.309,1.713 -8.502,2.747 -12.203,2.745c-2.26,-0.001 -4.332,-0.381 -6.168,-1.205c-1.835,-0.825 -3.447,-2.089 -4.809,-3.927c-3.108,-4.188 -4.88,-9.017 -4.872,-12.852c0.002,-2.288 0.611,-4.177 1.816,-5.483c0.606,-0.657 1.37,-1.184 2.343,-1.559c0.974,-0.374 2.161,-0.591 3.589,-0.591c0.232,-0 0.468,0.005 0.712,0.017c0.458,0.023 0.874,-0.272 1.007,-0.711l-0.313,-0.094l0.312,0.096l0.001,-0.002l-0.313,-0.094l0.312,0.096c0.004,-0.02 0.408,-1.296 1.288,-2.488c0.439,-0.597 0.99,-1.17 1.646,-1.58c0.659,-0.411 1.411,-0.673 2.347,-0.676c0.097,-0 0.192,0.003 0.29,0.009c0.313,0.019 0.616,-0.109 0.821,-0.348c0.204,-0.238 0.284,-0.557 0.217,-0.864l-0.001,-0.007c-0.025,-0.114 -0.279,-1.381 -0.279,-3.01c-0.005,-1.742 0.302,-3.871 1.349,-5.453c0.523,-0.795 1.215,-1.468 2.187,-1.965c0.973,-0.494 2.244,-0.814 3.933,-0.814c2.044,0.002 3.54,0.476 4.686,1.198c1.712,1.079 2.704,2.786 3.274,4.581c0.568,1.786 0.685,3.616 0.685,4.747c0,0.357 -0.012,0.645 -0.022,0.84c-0.006,0.098 -0.011,0.172 -0.015,0.221l-0.004,0.052l-0.001,0.012c-0.049,0.489 0.269,0.944 0.745,1.067l0.012,0.003c0.189,0.049 2.302,0.66 4.286,2.154c0.994,0.746 1.954,1.705 2.66,2.911c0.706,1.208 1.171,2.66 1.173,4.477l0.98,-0l-0.975,-0.099l-0.005,0.099l0.98,-0l-0.975,-0.099l-0.003,0.029c-0.007,0.065 -0.01,0.305 0.104,0.525l0.895,-0.447l-1,-0.001l1,0.001l0.894,-0.447l-0.886,0.443l0.99,0.044c0.006,-0.082 -0.005,-0.296 -0.104,-0.487l-0.886,0.443l0.99,0.044l-0.977,-0.043l0.974,0.09l0.003,-0.047l-0.977,-0.043l0.974,0.09l-0.926,-0.086l0.925,0.096l0.001,-0.01l-0.926,-0.086l0.925,0.096l0.005,-0.105c0.002,-2.237 -0.612,-4.119 -1.533,-5.631c-1.383,-2.272 -3.407,-3.715 -5.066,-4.606c-1.662,-0.889 -2.98,-1.231 -3.032,-1.245l-0.25,0.968l0.995,0.099c0.003,-0.026 0.051,-0.525 0.051,-1.322c-0.005,-1.683 -0.205,-4.697 -1.637,-7.427c-0.717,-1.361 -1.764,-2.653 -3.253,-3.593c-1.487,-0.941 -3.398,-1.508 -5.754,-1.506c-1.94,-0.001 -3.543,0.372 -4.839,1.032c-1.952,0.987 -3.141,2.61 -3.795,4.29c-0.66,1.685 -0.833,3.444 -0.834,4.91c0,1.954 0.316,3.398 0.325,3.444l0.977,-0.213l0.061,-0.998c-0.141,-0.009 -0.279,-0.013 -0.412,-0.013c-1.35,-0.002 -2.519,0.409 -3.455,1.01c-1.407,0.903 -2.317,2.189 -2.898,3.235c-0.579,1.049 -0.828,1.876 -0.843,1.922l0.958,0.288l0.049,-0.999c-0.277,-0.014 -0.546,-0.02 -0.81,-0.02c-1.63,-0 -3.065,0.247 -4.306,0.724c-1.862,0.71 -3.267,1.957 -4.155,3.52c-0.892,1.563 -1.286,3.413 -1.286,5.389c0.009,4.427 1.951,9.555 5.263,14.041c1.55,2.099 3.457,3.604 5.599,4.563c2.141,0.961 4.504,1.38 6.986,1.38c4.07,-0.003 8.476,-1.116 12.941,-2.886c5.072,-2.011 8.587,-5.304 10.8,-8.986c2.216,-3.683 3.15,-7.741 3.153,-11.361c0,-0.158 -0.035,-0.307 -0.105,-0.448l-0.894,0.447Z" style="fill:#8f5d48;fill-rule:nonzero;"/><path d="M12.391,269.434l0.096,-0.417l-0.098,0.417l0.002,0l0.096,-0.417l-0.098,0.417c0.025,0.003 1.572,0.384 3.026,1.447c0.729,0.53 1.433,1.222 1.953,2.112c0.519,0.891 0.867,1.98 0.87,3.387c0,0.235 -0.011,0.481 -0.032,0.738l0.001,-0.003c-0.173,1.999 -1.086,3.351 -2.261,4.279c-1.17,0.923 -2.637,1.356 -3.687,1.35c-0.273,0 -0.515,-0.028 -0.706,-0.073c-0.538,-0.126 -1.076,0.207 -1.202,0.745c-0.127,0.538 0.207,1.076 0.745,1.202c0.368,0.086 0.757,0.126 1.163,0.126c1.545,-0.006 3.36,-0.564 4.919,-1.774c1.553,-1.204 2.815,-3.126 3.022,-5.689l0,-0.003c0.024,-0.305 0.037,-0.604 0.037,-0.898c0.003,-1.774 -0.466,-3.266 -1.175,-4.453c-1.066,-1.785 -2.624,-2.88 -3.892,-3.539c-1.273,-0.659 -2.278,-0.89 -2.334,-0.903c-0.538,-0.123 -1.074,0.214 -1.197,0.752c-0.123,0.539 0.214,1.075 0.753,1.198l-0.001,-0.001Z" style="fill:#8f5d48;fill-rule:nonzero;"/><path d="M37.167,262.323c-0.05,-0.011 -0.451,-0.089 -1.071,-0.089c-1.027,-0.001 -2.7,0.218 -4.288,1.406c-1.591,1.186 -2.992,3.314 -3.566,6.798c-0.057,0.339 -0.085,0.678 -0.085,1.015c0,1.22 0.36,2.369 0.926,3.387c0.851,1.528 2.154,2.785 3.558,3.688c1.411,0.897 2.913,1.459 4.315,1.468c0.324,-0 0.645,-0.032 0.957,-0.106c0.537,-0.127 0.87,-0.665 0.744,-1.202c-0.127,-0.538 -0.666,-0.871 -1.203,-0.744c-0.142,0.033 -0.307,0.052 -0.498,0.052c-0.551,0.003 -1.294,-0.171 -2.067,-0.517c-1.162,-0.516 -2.387,-1.408 -3.28,-2.485c-0.9,-1.079 -1.455,-2.313 -1.452,-3.541c0,-0.225 0.019,-0.454 0.057,-0.685c0.529,-3.124 1.672,-4.68 2.794,-5.527c1.124,-0.845 2.334,-1.007 3.088,-1.008c0.224,-0 0.405,0.015 0.522,0.029l0.128,0.017l0.025,0.004l0.038,-0.211l-0.043,0.21l0.005,0.001l0.038,-0.211l-0.043,0.21c0.541,0.111 1.07,-0.238 1.181,-0.779c0.11,-0.541 -0.238,-1.069 -0.779,-1.18l-0.001,0Z" style="fill:#8f5d48;fill-rule:nonzero;"/><path d="M19.385,263.999l-0.054,-0.289l0.052,0.29l0.002,-0.001l-0.054,-0.289l0.052,0.29c0.018,-0.004 0.488,-0.084 1.189,-0.084c0.975,-0.002 2.382,0.159 3.664,0.832c1.28,0.681 2.473,1.816 3.183,4.015c0.577,1.813 0.963,3.755 0.962,5.5c-0.001,1.88 -0.441,3.48 -1.432,4.584c-0.499,0.557 -1.144,1.014 -2.021,1.347c-0.875,0.331 -1.986,0.532 -3.376,0.532c-1.107,-0 -2.391,-0.127 -3.861,-0.41c-0.543,-0.104 -1.067,0.251 -1.171,0.794c-0.104,0.542 0.251,1.066 0.794,1.17c1.572,0.302 2.978,0.446 4.238,0.446c1.58,-0.001 2.934,-0.227 4.084,-0.661c1.726,-0.647 2.97,-1.795 3.714,-3.185c0.749,-1.39 1.029,-2.984 1.03,-4.617c-0.001,-2.033 -0.434,-4.148 -1.055,-6.106c-0.839,-2.67 -2.47,-4.307 -4.163,-5.181c-1.693,-0.882 -3.411,-1.058 -4.59,-1.06c-0.908,0 -1.505,0.108 -1.55,0.116c-0.544,0.101 -0.903,0.622 -0.802,1.165c0.1,0.544 0.622,0.902 1.165,0.802Z" style="fill:#8f5d48;fill-rule:nonzero;"/><path d="M84.126,191.759c-0.041,-0.069 -3.135,-5.574 -9.945,-11.44c-6.805,-5.864 -17.352,-12.086 -32.2,-13.499c-0.55,-0.052 -1.038,0.351 -1.09,0.901c-0.053,0.55 0.351,1.038 0.901,1.09c14.376,1.372 24.512,7.367 31.084,13.023c3.284,2.828 5.671,5.57 7.231,7.598c0.78,1.014 1.354,1.849 1.73,2.427c0.188,0.288 0.326,0.512 0.417,0.662l0.099,0.168l0.023,0.04l0.005,0.009c0.27,0.481 0.88,0.653 1.362,0.383c0.481,-0.27 0.653,-0.88 0.383,-1.362Z" style="fill-rule:nonzero;"/><path d="M82.029,197.604c-0.017,-0.006 -5.355,-1.796 -12.602,-3.589c-7.252,-1.792 -16.398,-3.593 -24.119,-3.596c-2.87,0.001 -5.548,0.248 -7.88,0.862c-0.534,0.141 -0.853,0.689 -0.712,1.223c0.141,0.534 0.689,0.853 1.223,0.712c2.092,-0.554 4.616,-0.798 7.369,-0.797c7.418,-0.003 16.473,1.762 23.639,3.537c3.584,0.887 6.7,1.774 8.918,2.439c1.108,0.333 1.993,0.609 2.599,0.803c0.302,0.097 0.536,0.172 0.693,0.224c0.157,0.051 0.236,0.078 0.236,0.078c0.523,0.176 1.09,-0.106 1.266,-0.63c0.176,-0.524 -0.106,-1.09 -0.629,-1.266l-0.001,-0Z" style="fill-rule:nonzero;"/><path d="M81.998,208.195c-0.063,-0.018 -6.437,-1.928 -15.583,-1.929c-7.185,0 -16.09,1.181 -24.96,5.422c-0.499,0.239 -0.709,0.836 -0.471,1.334c0.238,0.498 0.836,0.709 1.334,0.471c8.525,-4.079 17.128,-5.228 24.097,-5.228c4.433,0 8.202,0.465 10.853,0.929c1.326,0.232 2.373,0.463 3.084,0.635c0.356,0.087 0.628,0.158 0.808,0.207c0.091,0.025 0.159,0.044 0.203,0.056l0.061,0.018c0.528,0.159 1.086,-0.141 1.245,-0.67c0.158,-0.529 -0.141,-1.087 -0.67,-1.245l-0.001,-0Z" style="fill-rule:nonzero;"/><path d="M120.981,205.514c0,-0 0.047,-0.017 0.154,-0.053c1.601,-0.544 15.497,-5.054 35.184,-5.052c13.17,0 28.929,2.015 45.355,8.569c0.513,0.205 1.094,-0.045 1.299,-0.558c0.205,-0.513 -0.045,-1.095 -0.558,-1.299c-16.706,-6.666 -32.723,-8.712 -46.096,-8.712c-21.325,0.001 -35.936,5.196 -36.009,5.221c-0.52,0.185 -0.792,0.757 -0.607,1.277c0.186,0.521 0.758,0.792 1.278,0.607Z" style="fill-rule:nonzero;"/><path d="M119.48,211.584c0.001,0 0.104,0.005 0.314,0.019c1.581,0.101 8.951,0.675 17.897,2.884c8.947,2.205 19.459,6.061 27.326,12.624c0.424,0.354 1.055,0.297 1.409,-0.128c0.354,-0.424 0.296,-1.055 -0.127,-1.408c-8.8,-7.324 -20.461,-11.285 -29.929,-13.458c-9.467,-2.167 -16.752,-2.528 -16.791,-2.531c-0.551,-0.027 -1.021,0.398 -1.048,0.95c-0.027,0.551 0.398,1.02 0.95,1.048l-0.001,0Z" style="fill-rule:nonzero;"/><path d="M119.152,219.39l0.037,0.015c0.441,0.186 4.618,2.002 9.229,5.719c4.617,3.718 9.648,9.315 11.928,17.059c0.155,0.53 0.711,0.833 1.241,0.677c0.53,-0.156 0.833,-0.712 0.677,-1.242c-2.518,-8.537 -8.12,-14.548 -13.056,-18.421c-4.942,-3.876 -9.243,-5.635 -9.3,-5.659c-0.512,-0.209 -1.095,0.037 -1.304,0.548c-0.209,0.511 0.036,1.095 0.548,1.304Z" style="fill-rule:nonzero;"/><path d="M58.588,412.036l0.02,-0.07c0.22,-0.768 2.325,-7.719 6.923,-14.395c2.296,-3.339 5.211,-6.604 8.792,-9.017c3.586,-2.414 7.821,-3.989 12.872,-3.992l0.235,0.002c0.551,0.007 1.004,-0.436 1.011,-0.988c0.007,-0.552 -0.435,-1.005 -0.987,-1.012l-0.259,-0.001c-5.653,-0.003 -10.436,1.845 -14.361,4.587c-5.891,4.116 -9.904,10.198 -12.474,15.24c-2.568,5.045 -3.686,9.067 -3.699,9.11c-0.148,0.533 0.164,1.084 0.696,1.232c0.532,0.148 1.084,-0.164 1.232,-0.696l-0.001,-0Z" style="fill:#3572af;fill-rule:nonzero;"/><path d="M91.916,465.885c4.867,-4.185 9.281,-5.501 10.315,-7.47c1.034,-1.97 -0.573,-23.494 -18.909,-38.393c-18.337,-14.898 -26.021,-9.487 -26.502,-6.876c-0.481,2.61 -3.126,7.871 -5.216,10.812c0,-0 24.146,21.678 26.277,45.369c1.286,14.3 9.833,0.172 14.035,-3.442Z" style="fill:#8ec3e3;fill-rule:nonzero;"/><path d="M91.916,465.885l0.652,0.758c2.36,-2.029 4.613,-3.366 6.455,-4.466c0.922,-0.55 1.741,-1.038 2.435,-1.547c0.69,-0.509 1.278,-1.038 1.658,-1.751c0.174,-0.349 0.226,-0.654 0.281,-1.045c0.049,-0.385 0.073,-0.839 0.073,-1.367c-0.004,-3.171 -0.88,-9.169 -3.752,-16.065c-2.871,-6.886 -7.751,-14.644 -15.766,-21.156c-9.665,-7.846 -16.502,-10.23 -21.117,-10.24c-2.114,-0 -3.756,0.513 -4.925,1.258c-0.584,0.373 -1.05,0.802 -1.398,1.257c-0.347,0.457 -0.582,0.938 -0.676,1.444c-0.2,1.119 -0.958,3.067 -1.919,5.024c-0.96,1.964 -2.129,3.984 -3.129,5.389c-0.294,0.414 -0.23,0.985 0.147,1.324l0.064,0.057c0.678,0.618 6.673,6.17 12.731,14.387c6.063,8.214 12.159,19.095 13.155,30.269c0.218,2.383 0.615,4.056 1.258,5.255c0.325,0.597 0.725,1.083 1.221,1.423c0.494,0.341 1.081,0.508 1.644,0.504c0.592,-0.001 1.155,-0.163 1.692,-0.407c0.94,-0.431 1.835,-1.122 2.733,-1.939c1.343,-1.227 2.681,-2.755 3.918,-4.171c1.232,-1.412 2.379,-2.721 3.217,-3.437l-0.652,-0.758l-0.652,-0.759c-0.787,0.68 -1.636,1.612 -2.55,2.647c-1.365,1.549 -2.863,3.322 -4.279,4.673c-0.705,0.674 -1.39,1.241 -1.994,1.615c-0.605,0.38 -1.116,0.542 -1.433,0.536c-0.207,-0.003 -0.345,-0.043 -0.516,-0.156c-0.251,-0.166 -0.6,-0.587 -0.904,-1.44c-0.306,-0.846 -0.562,-2.088 -0.712,-3.765c-1.103,-12.156 -7.778,-23.617 -14.134,-32.079c-6.363,-8.459 -12.439,-13.915 -12.47,-13.943l-0.668,0.744l0.815,0.579c1.09,-1.535 2.289,-3.616 3.294,-5.67c1.004,-2.061 1.809,-4.05 2.09,-5.54c0.02,-0.119 0.107,-0.343 0.298,-0.592c0.573,-0.755 2.044,-1.729 4.734,-1.729c3.9,-0.01 10.395,2.098 19.856,9.792c7.716,6.27 12.411,13.734 15.181,20.374c2.77,6.631 3.602,12.465 3.599,15.295c0,0.465 -0.023,0.846 -0.058,1.115c-0.017,0.134 -0.037,0.24 -0.054,0.308l-0.019,0.069l-0.003,0.007l0.199,0.085l-0.191,-0.101l-0.008,0.016l0.199,0.085l-0.191,-0.101c-0.137,0.271 -0.488,0.645 -1.069,1.067c-0.866,0.638 -2.19,1.372 -3.754,2.333c-1.566,0.961 -3.378,2.16 -5.258,3.777l0.652,0.758Z" style="fill:#6597ac;fill-rule:nonzero;"/><path d="M30.031,458.702c6.095,5.862 26.502,28.792 34.381,29.222c7.879,0.43 17.477,-4.441 12.606,-22.491c-4.87,-18.049 -16.474,-35.24 -33.808,-48.706c-17.333,-13.466 -18.336,-2.292 -18.336,-2.292c0,-0 -8.595,-6.446 -14.191,-2.503c-5.369,3.783 -4.219,8.013 -4.219,8.013c0,-0 -8.951,1.223 -3.938,11.681c5.014,10.457 19.835,19.698 27.505,27.076Z" style="fill:#a5744e;fill-rule:nonzero;"/><path d="M30.031,458.702l-0.693,0.719c1.493,1.437 3.916,3.972 6.811,6.955c4.346,4.477 9.768,9.973 14.873,14.413c2.554,2.221 5.027,4.178 7.273,5.622c1.124,0.722 2.191,1.317 3.197,1.75c1.007,0.432 1.954,0.71 2.865,0.762c0.329,0.018 0.659,0.026 0.992,0.026c3.259,-0.001 6.746,-0.879 9.46,-3.206c1.353,-1.163 2.497,-2.686 3.29,-4.592c0.794,-1.906 1.239,-4.188 1.238,-6.879c0,-2.622 -0.42,-5.636 -1.353,-9.099c-4.934,-18.283 -16.672,-35.65 -34.16,-49.236c-3.302,-2.564 -6.04,-4.265 -8.338,-5.337c-2.298,-1.069 -4.164,-1.515 -5.717,-1.516c-1.287,-0.002 -2.356,0.318 -3.186,0.826c-1.251,0.763 -1.921,1.886 -2.277,2.777c-0.357,0.897 -0.421,1.595 -0.428,1.659l0.996,0.089l0.599,-0.8c-0.031,-0.023 -1.331,-0.998 -3.278,-1.983c-1.949,-0.98 -4.54,-1.991 -7.236,-1.997c-1.645,-0.003 -3.349,0.397 -4.853,1.46c-1.998,1.406 -3.204,2.92 -3.89,4.309c-0.689,1.389 -0.857,2.639 -0.856,3.505c0,0.745 0.121,1.212 0.139,1.28l0.965,-0.264l-0.136,-0.991c-0.078,0.015 -1.558,0.21 -3.125,1.179c-0.78,0.486 -1.586,1.178 -2.196,2.152c-0.613,0.971 -1.01,2.22 -1.007,3.719c0.001,1.681 0.48,3.669 1.624,6.054c2.631,5.466 7.683,10.443 13.007,15.019c5.325,4.567 10.95,8.728 14.707,12.344l0.693,-0.719l0.693,-0.722c-3.914,-3.761 -9.534,-7.909 -14.791,-12.421c-5.256,-4.502 -10.122,-9.375 -12.505,-14.366c-1.053,-2.192 -1.429,-3.896 -1.428,-5.189c0.003,-1.157 0.288,-1.994 0.701,-2.657c0.616,-0.988 1.583,-1.605 2.428,-1.967c0.42,-0.179 0.802,-0.293 1.072,-0.361c0.135,-0.033 0.242,-0.055 0.312,-0.068l0.075,-0.013l0.014,-0.003l-0.037,-0.247l0.034,0.248l0.003,-0.001l-0.037,-0.247l0.034,0.248l1.13,-0.155l-0.3,-1.1l-0.316,0.086l0.318,-0.077l-0.002,-0.009l-0.316,0.086l0.318,-0.077c-0.005,-0.019 -0.072,-0.302 -0.072,-0.761c0.001,-0.615 0.115,-1.54 0.649,-2.617c0.535,-1.077 1.491,-2.321 3.251,-3.563c1.116,-0.785 2.363,-1.092 3.7,-1.095c2.178,-0.006 4.544,0.873 6.334,1.783c0.896,0.453 1.649,0.908 2.174,1.247c0.263,0.17 0.468,0.31 0.606,0.407l0.155,0.111l0.037,0.027l0.009,0.006l1.435,1.077l0.16,-1.788l-0.227,-0.02l0.227,0.024l0,-0.004l-0.227,-0.02l0.227,0.024c0,-0.041 0.125,-0.995 0.668,-1.831c0.271,-0.421 0.632,-0.813 1.134,-1.108c0.505,-0.293 1.161,-0.503 2.098,-0.505c1.161,-0.001 2.757,0.343 4.872,1.329c2.114,0.985 4.74,2.605 7.956,5.104c17.179,13.346 28.648,30.36 33.456,48.177c0.897,3.326 1.285,6.171 1.285,8.578c-0.001,2.473 -0.408,4.483 -1.085,6.11c-1.02,2.438 -2.634,4.041 -4.557,5.083c-1.922,1.038 -4.167,1.485 -6.347,1.485c-0.297,-0.001 -0.591,-0.009 -0.883,-0.024c-0.756,-0.036 -1.836,-0.384 -3.087,-1.03c-2.197,-1.125 -4.918,-3.119 -7.799,-5.549c-4.327,-3.646 -9.039,-8.27 -13.162,-12.462c-4.128,-4.195 -7.657,-7.946 -9.694,-9.905l-0.693,0.722Z" style="fill:#8f5d48;fill-rule:nonzero;"/><path d="M28.312,421.884c2.381,-3.523 7.54,1.326 10.028,4.871c1.809,2.579 1.96,6.962 -0.603,7.602c-3.409,0.85 -13.006,-7.172 -9.425,-12.473Z" style="fill:#ef8a90;fill-rule:nonzero;"/><path d="M28.312,421.884l0.828,0.56c0.218,-0.321 0.431,-0.503 0.639,-0.617c0.21,-0.112 0.428,-0.166 0.704,-0.167c0.421,-0.003 0.979,0.149 1.597,0.467c0.928,0.47 1.968,1.29 2.926,2.236c0.961,0.944 1.846,2.013 2.515,2.966c0.725,1.022 1.166,2.497 1.16,3.718c0.002,0.677 -0.133,1.265 -0.346,1.651c-0.222,0.389 -0.454,0.584 -0.841,0.688c-0.074,0.019 -0.177,0.033 -0.308,0.033c-0.518,0.008 -1.412,-0.255 -2.373,-0.779c-1.45,-0.777 -3.077,-2.098 -4.293,-3.6c-1.226,-1.502 -2.009,-3.174 -1.998,-4.573c0.003,-0.719 0.183,-1.375 0.617,-2.022l-0.827,-0.561l-0.828,-0.561c-0.664,0.975 -0.965,2.07 -0.962,3.144c0.002,1.403 0.479,2.766 1.196,4.023c1.082,1.887 2.721,3.569 4.427,4.82c0.855,0.624 1.727,1.139 2.573,1.507c0.848,0.367 1.667,0.598 2.468,0.601c0.265,0 0.53,-0.026 0.792,-0.091c0.961,-0.233 1.701,-0.893 2.115,-1.675c0.422,-0.784 0.586,-1.682 0.587,-2.605c-0.006,-1.663 -0.533,-3.444 -1.522,-4.866c-0.988,-1.406 -2.347,-2.979 -3.839,-4.241c-0.747,-0.631 -1.527,-1.185 -2.331,-1.595c-0.803,-0.408 -1.637,-0.683 -2.505,-0.685c-0.561,-0.002 -1.137,0.125 -1.658,0.409c-0.522,0.282 -0.977,0.713 -1.342,1.256l0.829,0.559Z" style="fill:#d55f6d;fill-rule:nonzero;"/><path d="M12.645,422.145c2.673,-3.307 7.4,1.965 9.575,5.71c1.582,2.723 1.358,7.104 -1.25,7.522c-3.468,0.556 -12.346,-8.257 -8.325,-13.232Z" style="fill:#ef8a90;fill-rule:nonzero;"/><path d="M12.645,422.145l0.778,0.628c0.221,-0.272 0.429,-0.432 0.626,-0.53c0.198,-0.098 0.393,-0.142 0.626,-0.143c0.403,-0.003 0.941,0.16 1.54,0.51c0.898,0.519 1.9,1.433 2.806,2.481c0.909,1.048 1.731,2.228 2.334,3.266c0.549,0.937 0.863,2.193 0.86,3.305c0.002,0.796 -0.162,1.511 -0.422,1.973c-0.129,0.233 -0.276,0.403 -0.431,0.522c-0.158,0.118 -0.325,0.195 -0.551,0.232l-0.172,0.013c-0.438,0.011 -1.262,-0.256 -2.151,-0.805c-1.344,-0.814 -2.86,-2.202 -3.995,-3.766c-1.144,-1.563 -1.883,-3.299 -1.874,-4.731c0.005,-0.867 0.236,-1.619 0.803,-2.325l0.001,-0.002l-0.778,-0.628l-0.777,-0.63c-0.871,1.068 -1.253,2.337 -1.249,3.585c0.002,1.388 0.438,2.759 1.101,4.046c0.999,1.929 2.52,3.686 4.115,5.004c0.8,0.658 1.617,1.205 2.42,1.6c0.804,0.392 1.589,0.647 2.384,0.651c0.162,0 0.325,-0.011 0.489,-0.037c0.542,-0.086 1.04,-0.305 1.447,-0.617c0.614,-0.471 1.021,-1.122 1.274,-1.823c0.254,-0.705 0.365,-1.473 0.365,-2.262c-0.003,-1.466 -0.379,-3.009 -1.129,-4.31c-0.892,-1.531 -2.161,-3.272 -3.593,-4.681c-0.717,-0.704 -1.475,-1.326 -2.272,-1.79c-0.796,-0.461 -1.644,-0.778 -2.545,-0.781c-0.512,-0.001 -1.036,0.111 -1.518,0.352c-0.483,0.241 -0.918,0.604 -1.29,1.065l0.001,-0.002l0.777,0.63Z" style="fill:#d55f6d;fill-rule:nonzero;"/><path d="M6.022,427.23c2.49,-3.08 6.893,1.83 8.919,5.318c1.474,2.537 1.265,6.617 -1.164,7.007c-3.231,0.518 -11.5,-7.691 -7.755,-12.325Z" style="fill:#ef8a90;fill-rule:nonzero;"/><path d="M6.022,427.23l0.778,0.628c0.201,-0.247 0.386,-0.389 0.561,-0.476c0.174,-0.086 0.344,-0.125 0.552,-0.126c0.359,-0.003 0.849,0.144 1.4,0.466c0.827,0.478 1.756,1.324 2.597,2.297c0.843,0.972 1.607,2.068 2.166,3.031c0.505,0.861 0.795,2.02 0.792,3.044c0.002,0.733 -0.15,1.388 -0.385,1.805c-0.116,0.21 -0.247,0.361 -0.384,0.465c-0.138,0.104 -0.282,0.17 -0.481,0.203l-0.15,0.011c-0.387,0.011 -1.147,-0.231 -1.969,-0.74c-1.242,-0.752 -2.65,-2.04 -3.701,-3.49c-1.061,-1.447 -1.742,-3.054 -1.733,-4.366c0.005,-0.793 0.216,-1.476 0.734,-2.123l-0.777,-0.629l-0.777,-0.63c-0.821,1.007 -1.184,2.205 -1.179,3.382c0.002,1.308 0.411,2.595 1.032,3.8c0.937,1.807 2.358,3.45 3.852,4.683c0.747,0.615 1.513,1.127 2.267,1.499c0.755,0.368 1.494,0.609 2.251,0.614c0.154,0 0.31,-0.011 0.465,-0.036c0.518,-0.082 0.993,-0.291 1.38,-0.589c0.586,-0.448 0.971,-1.066 1.21,-1.729c0.24,-0.665 0.344,-1.389 0.344,-2.13c-0.003,-1.378 -0.355,-2.824 -1.062,-4.048c-0.833,-1.431 -2.017,-3.057 -3.356,-4.375c-0.672,-0.659 -1.381,-1.241 -2.131,-1.678c-0.748,-0.433 -1.548,-0.734 -2.405,-0.737c-0.486,-0.001 -0.985,0.106 -1.444,0.336c-0.461,0.229 -0.874,0.574 -1.225,1.01l0.778,0.628Z" style="fill:#d55f6d;fill-rule:nonzero;"/><path d="M27.524,437.785c4.163,-1.022 15.973,3.439 17.262,9.025c1.29,5.587 -9.312,3.439 -12.32,4.298c-3.008,0.86 -6.446,1.405 -8.738,-2.091c-2.292,-3.496 -0.286,-10.229 3.796,-11.232Z" style="fill:#ef8a90;fill-rule:nonzero;"/><path d="M27.285,436.814l0.478,1.942c0.299,-0.074 0.7,-0.118 1.171,-0.118c1.099,-0.002 2.564,0.237 4.123,0.685c2.342,0.669 4.909,1.804 6.94,3.194c1.017,0.693 1.898,1.45 2.556,2.222c0.66,0.773 1.088,1.554 1.258,2.296c0.058,0.253 0.082,0.47 0.082,0.655c-0.004,0.382 -0.089,0.609 -0.234,0.82c-0.129,0.182 -0.327,0.358 -0.621,0.522c-0.511,0.287 -1.306,0.505 -2.235,0.629c-1.394,0.191 -3.072,0.193 -4.614,0.197c-0.773,0.002 -1.513,0.006 -2.184,0.041c-0.674,0.036 -1.271,0.095 -1.814,0.248c-1.177,0.337 -2.379,0.605 -3.471,0.603c-0.81,-0.001 -1.551,-0.14 -2.23,-0.479c-0.68,-0.342 -1.323,-0.886 -1.926,-1.802c-0.526,-0.798 -0.802,-1.885 -0.801,-3.065c-0.002,-1.456 0.421,-3.032 1.152,-4.267c0.733,-1.245 1.737,-2.112 2.848,-2.381l-0.478,-1.942c-1.796,0.446 -3.172,1.744 -4.093,3.308c-0.923,1.574 -1.426,3.451 -1.428,5.282c0,1.479 0.332,2.944 1.127,4.162c0.764,1.168 1.692,1.99 2.705,2.494c1.012,0.506 2.084,0.69 3.124,0.69c1.407,-0.002 2.772,-0.325 4.021,-0.68c0.235,-0.069 0.643,-0.129 1.139,-0.16c0.873,-0.059 2.024,-0.048 3.248,-0.056c1.841,-0.016 3.837,-0.058 5.517,-0.528c0.839,-0.24 1.622,-0.59 2.244,-1.19c0.625,-0.593 1.016,-1.477 1.004,-2.446c0,-0.354 -0.045,-0.722 -0.133,-1.104c-0.359,-1.535 -1.317,-2.88 -2.559,-4.062c-1.871,-1.772 -4.429,-3.213 -7.018,-4.244c-2.593,-1.024 -5.195,-1.637 -7.249,-1.642c-0.592,0.001 -1.141,0.052 -1.649,0.176Z" style="fill:#d55f6d;fill-rule:nonzero;"/><path d="M45.558,400.275c0.065,0.082 4.318,5.815 12.717,9.357l0.776,-1.843c-3.952,-1.664 -6.938,-3.856 -8.931,-5.628c-0.996,-0.886 -1.742,-1.666 -2.236,-2.219c-0.247,-0.276 -0.431,-0.496 -0.551,-0.644l-0.132,-0.167l-0.03,-0.039l-0.006,-0.008l-1.606,1.192l-0.001,-0.001Z" style="fill:#3572af;fill-rule:nonzero;"/><path d="M110.39,499.314l0.002,-0.026c0.024,-0.322 0.345,-3.533 1.789,-6.545c0.72,-1.507 1.711,-2.953 3.039,-4.002c1.332,-1.048 2.984,-1.732 5.21,-1.737c0.346,-0 0.706,0.017 1.081,0.053c0.549,0.054 1.038,-0.348 1.092,-0.898c0.053,-0.55 -0.349,-1.039 -0.898,-1.092c-0.439,-0.043 -0.864,-0.063 -1.275,-0.063c-2.739,-0.006 -4.949,0.921 -6.609,2.296c-2.498,2.068 -3.813,5.037 -4.55,7.464c-0.731,2.434 -0.871,4.357 -0.875,4.404c-0.041,0.551 0.373,1.03 0.923,1.071c0.551,0.04 1.03,-0.374 1.072,-0.925l-0.001,0Z" style="fill:#8f5d48;fill-rule:nonzero;"/><path d="M128.013,502.926l-0.002,-0.097c-0.002,-0.069 -0.004,-0.174 -0.004,-0.309c-0.003,-1.102 0.097,-4.253 0.976,-7.082c0.436,-1.415 1.067,-2.737 1.909,-3.689c0.851,-0.952 1.856,-1.554 3.264,-1.682c0.549,-0.047 0.958,-0.532 0.911,-1.082c-0.047,-0.55 -0.532,-0.958 -1.081,-0.911c-1.941,0.159 -3.493,1.091 -4.594,2.353c-1.66,1.897 -2.457,4.47 -2.898,6.787c-0.435,2.318 -0.486,4.397 -0.486,5.306c0,0.3 0.006,0.473 0.006,0.485c0.022,0.552 0.487,0.982 1.04,0.96c0.551,-0.022 0.981,-0.487 0.96,-1.039l-0.001,0Z" style="fill:#8f5d48;fill-rule:nonzero;"/><path d="M19.238,296.058c0,0 17.215,-1.046 23.478,-11.189c0,0 0.736,1.724 2.253,2.057c0,0 -7.079,10.931 -25.606,10.459l-0.125,-1.327Z" style="fill:#8f5d48;fill-rule:nonzero;"/></g></svg>