<?xml version="1.0" encoding="UTF-8" standalone="no"?><!DOCTYPE svg PUBLIC "-//W3C//DTD SVG 1.1//EN" "http://www.w3.org/Graphics/SVG/1.1/DTD/svg11.dtd"><svg width="100%" height="100%" viewBox="0 0 760 258" version="1.1" xmlns="http://www.w3.org/2000/svg" xmlns:xlink="http://www.w3.org/1999/xlink" xml:space="preserve" xmlns:serif="http://www.serif.com/" style="fill-rule:evenodd;clip-rule:evenodd;stroke-linejoin:round;stroke-miterlimit:2;"><path d="M30.867,0l698.11,0c17.028,0 30.869,13.839 30.869,30.867l-0,195.492c-0,17.028 -13.841,30.867 -30.869,30.867l-698.11,0c-17.029,0 -30.867,-13.839 -30.867,-30.867l0,-195.492c0,-17.028 13.838,-30.867 30.867,-30.867Z" style="fill:#2e2c2f;fill-rule:nonzero;"/><path d="M489.556,166.169l20.319,-8.384c-1.607,-3.146 -4.934,-5.033 -8.46,-4.797c-6.856,0.3 -12.17,6.101 -11.87,12.957c0.003,0.075 0.007,0.149 0.011,0.224Zm23.832,8.158l7.78,5.136c-4.219,6.296 -11.305,10.066 -18.884,10.047c-12.117,0.173 -22.081,-9.51 -22.255,-21.627c-0.004,-0.345 -0.001,-0.69 0.01,-1.034c-0.994,-11.471 7.499,-21.576 18.97,-22.57c9.668,-0.838 18.636,5.106 21.63,14.337l1.02,2.606l-30.214,12.501c1.926,4.329 6.293,7.051 11.028,6.874c4.475,-0.071 8.599,-2.44 10.915,-6.27Zm-39.279,-52.724l-0,66.509l-9.97,0l0,-66.509l9.97,0Zm-26.286,45.359c0.572,-7.048 -4.678,-13.225 -11.726,-13.797c-0.132,-0.01 -0.265,-0.019 -0.397,-0.026c-7.255,0.241 -12.941,6.317 -12.701,13.571c0.003,0.085 0.006,0.168 0.011,0.252c-0.336,7.189 5.219,13.288 12.407,13.624c0.094,0.005 0.188,0.008 0.283,0.011c6.982,-0.271 12.423,-6.151 12.153,-13.133c-0.007,-0.168 -0.017,-0.335 -0.03,-0.502Zm8.8,-21.49l0,40.79c0,16.693 -9.933,23.567 -21.641,23.567c-8.776,0.074 -16.734,-5.142 -20.168,-13.219l8.573,-3.777c1.818,4.714 6.281,7.882 11.331,8.045c7.553,0 12.161,-4.646 12.161,-13.294l-0,-3.249l-0.378,0c-2.997,3.345 -7.293,5.231 -11.783,5.175c-12.516,0 -22.661,-10.146 -22.661,-22.661c-0,-12.515 10.145,-22.661 22.661,-22.661c4.519,-0.099 8.864,1.743 11.934,5.061l0.378,0l-0,-3.777l9.593,0Zm-58.804,21.377c0.66,-6.956 -4.444,-13.131 -11.4,-13.791c-6.956,-0.661 -13.131,4.443 -13.792,11.399c-0.075,0.796 -0.075,1.597 -0,2.392c-0.66,6.956 4.444,13.131 11.4,13.791c6.956,0.661 13.131,-4.443 13.792,-11.399c0.075,-0.795 0.075,-1.596 0,-2.392Zm9.781,-0c0,12.369 -10.027,22.396 -22.396,22.396c-12.369,-0 -22.396,-10.027 -22.396,-22.396c0,-12.369 10.027,-22.396 22.396,-22.396c12.369,0 22.396,10.027 22.396,22.396Zm-60.05,-0c0.66,-6.956 -4.444,-13.131 -11.4,-13.791c-6.956,-0.661 -13.131,4.443 -13.791,11.399c-0.076,0.796 -0.076,1.597 -0,2.392c-0.661,6.956 4.443,13.131 11.399,13.791c6.957,0.661 13.131,-4.443 13.792,-11.399c0.075,-0.795 0.075,-1.596 0,-2.392Zm9.819,-0c0.509,12.38 -9.115,22.827 -21.495,23.335c-12.379,0.509 -22.827,-9.115 -23.335,-21.494c-0.025,-0.614 -0.025,-1.228 0,-1.841c-0.508,-12.38 9.115,-22.827 21.495,-23.335c12.379,-0.509 22.827,9.115 23.335,21.494c0.025,0.614 0.025,1.228 -0,1.841Zm-83.202,22.661c-19.557,0.064 -35.532,-15.607 -35.842,-35.162c0.31,-19.555 16.285,-35.226 35.842,-35.162c9.046,-0.15 17.772,3.348 24.209,9.707l-6.836,6.76c-4.637,-4.543 -10.882,-7.069 -17.373,-7.025c-14.121,0 -25.569,11.448 -25.569,25.569c-0,14.121 11.448,25.569 25.569,25.569c6.674,0.274 13.151,-2.293 17.826,-7.063c3.074,-3.314 4.926,-7.577 5.25,-12.086l-23.076,0l0,-9.328l32.48,0c0.354,1.981 0.519,3.992 0.491,6.005c0.327,8.36 -2.675,16.509 -8.346,22.66c-6.477,6.542 -15.431,10.017 -24.625,9.556Zm358.114,-8.989c-3.248,-0 -7.781,-1.662 -7.781,-5.665c0,-5.137 5.628,-7.101 10.538,-7.101c3.166,-0.084 6.297,0.686 9.064,2.229c-0.754,5.972 -5.802,10.471 -11.821,10.537Zm1.171,-36.484c-7.407,-0.425 -14.362,3.579 -17.714,10.198l8.838,3.776c1.79,-3.272 5.35,-5.171 9.064,-4.834c5.23,-0.524 9.895,3.291 10.419,8.521c0.002,0.018 0.003,0.035 0.005,0.052l-0,0.68c-3.166,-1.713 -6.71,-2.608 -10.31,-2.606c-9.48,0 -19.149,5.212 -19.149,15.107c0,8.913 7.743,14.654 16.505,14.654c5.08,0.323 9.926,-2.173 12.614,-6.496l0.378,-0l0,5.137l9.668,0l-0,-25.607c-0,-11.821 -8.837,-18.393 -20.243,-18.393l-0.075,-0.189Zm-61.335,9.556l-14.126,0l-0,-22.661l14.126,0c6.257,0 11.33,5.073 11.33,11.33c-0,6.258 -5.073,11.331 -11.33,11.331Zm-0.303,-32.065l-23.793,0l0,66.547l9.97,0l-0,-25.192l13.861,0c11.653,0.399 21.423,-8.724 21.822,-20.377c0.003,-0.094 0.006,-0.188 0.008,-0.281c-0.243,-11.679 -9.908,-20.948 -21.586,-20.705c-0.094,0.002 -0.188,0.004 -0.282,0.008Zm37.239,0l-9.895,0l-0,66.547l9.895,0l0,-66.547Zm80.068,23.944l-11.33,28.855l-0.34,0l-11.822,-28.855l-10.688,0l17.713,40.336l-10.121,22.434l10.386,0l27.306,-62.77l-11.104,0Z" style="fill:#fff;fill-rule:nonzero;"/><path d="M124.519,125.18l-64.325,67.392c2.617,9.274 12.256,14.671 21.529,12.054c1.406,-0.396 2.756,-0.968 4.019,-1.701l72.377,-41.221l-33.6,-36.524Z" style="fill:#ea4335;fill-rule:nonzero;"/><path d="M189.562,113.724l-31.299,-17.926l-35.23,30.916l35.374,34.894l31.059,-17.735c8.326,-4.359 11.541,-14.642 7.182,-22.967c-1.607,-3.069 -4.112,-5.575 -7.182,-7.182l0.096,-0Z" style="fill:#fbbc04;fill-rule:nonzero;"/><path d="M60.194,64.69c-0.389,1.437 -0.582,2.92 -0.575,4.41l-0,119.062c0.004,1.489 0.197,2.971 0.575,4.41l66.53,-65.667l-66.53,-62.215Z" style="fill:#4285f4;fill-rule:nonzero;"/><path d="M124.998,128.631l33.265,-32.833l-72.281,-41.413c-2.72,-1.593 -5.812,-2.436 -8.964,-2.445c-7.821,-0.015 -14.697,5.176 -16.824,12.702l64.804,63.989Z" style="fill:#34a853;fill-rule:nonzero;"/><path d="M255.135,96.408c-10.249,0 -16.81,-7.476 -16.81,-19.149c0,-11.469 6.536,-18.768 16.81,-18.768c7.934,0 13.96,4.705 15.335,12.003l-4.807,0c-1.526,-4.959 -5.366,-7.781 -10.528,-7.781c-7.553,0 -12.105,5.442 -12.105,14.521c-0,9.231 4.628,14.953 12.105,14.953c6.51,0 10.986,-4.222 10.986,-10.376l0,-0.661l-10.35,0l-0,-4.018l14.927,0l0,3.484c0,9.917 -5.772,15.792 -15.563,15.792Z" style="fill:#fff;fill-rule:nonzero;"/><path d="M299.285,95.798l-22.735,0l0,-36.696l22.735,0l0,4.119l-18.158,0l-0,11.775l17.216,0l-0,4.068l-17.216,0l-0,12.614l18.158,0l0,4.12Z" style="fill:#fff;fill-rule:nonzero;"/><path d="M314.595,95.798l0,-32.577l-11.571,0l0,-4.119l27.719,0l0,4.119l-11.571,0l0,32.577l-4.577,0Z" style="fill:#fff;fill-rule:nonzero;"/><rect x="346.258" y="59.102" width="4.578" height="36.696" style="fill:#fff;fill-rule:nonzero;"/><path d="M357.957,95.798l0,-36.696l4.45,0l20.09,28.812l0.229,0l-0,-28.812l4.527,0l0,36.696l-4.45,0l-20.091,-28.711l-0.228,0l-0,28.711l-4.527,0Z" style="fill:#fff;fill-rule:nonzero;"/><path d="M408.337,77.462c0,9.028 4.705,14.725 12.207,14.725c7.502,0 12.206,-5.697 12.206,-14.725c0,-9.053 -4.704,-14.749 -12.206,-14.749c-7.502,0 -12.207,5.696 -12.207,14.749Zm29.118,0c-0,11.647 -6.51,18.946 -16.911,18.946c-10.401,0 -16.912,-7.299 -16.912,-18.946c-0,-11.647 6.511,-18.971 16.912,-18.971c10.401,0 16.911,7.324 16.911,18.971Z" style="fill:#fff;fill-rule:nonzero;"/><path d="M443.154,95.798l0,-36.696l4.45,0l20.09,28.812l0.229,0l0,-28.812l4.527,0l-0,36.696l-4.451,0l-20.09,-28.711l-0.229,0l0,28.711l-4.526,0Z" style="fill:#fff;fill-rule:nonzero;"/></svg>