<svg width="100%" height="100%" viewBox="0 0 1205 375" version="1.1" style="fill-rule:evenodd;clip-rule:evenodd;stroke-linejoin:round;stroke-miterlimit:2;"><path d="M4.386,230.143c0,-3.976 -0.074,-8.86 -0.219,-14.649c-0.147,-5.791 -0.323,-12.164 -0.526,-19.125c-0.206,-6.959 -0.469,-14.168 -0.79,-21.624c-0.322,-7.457 -0.645,-14.87 -0.965,-22.238c-0.323,-7.37 -0.644,-14.373 -0.966,-21.011c-0.321,-6.637 -0.628,-12.589 -0.92,-17.852c2.573,-0.468 5.511,-0.804 8.816,-1.01c3.304,-0.203 6.36,-0.306 9.167,-0.306c3.51,-0 6.784,0.131 9.826,0.394c3.04,0.263 5.408,0.542 7.106,0.834c0,1.578 0.043,4.035 0.131,7.369c0.088,3.334 0.175,7.105 0.263,11.316c0.088,4.211 0.205,8.452 0.351,12.721c0.146,4.27 0.308,8.071 0.483,11.404c1.812,-1.813 3.713,-4.255 5.702,-7.325c1.987,-3.07 4.064,-6.593 6.228,-10.571c2.163,-3.976 4.387,-8.29 6.667,-12.94c2.281,-4.649 4.62,-9.488 7.018,-14.519c5.848,4.446 11.551,8.29 17.107,11.537c5.555,3.245 9.503,5.482 11.843,6.711c-0.526,1.638 -1.725,4.05 -3.597,7.237c-1.872,3.189 -4.094,6.697 -6.667,10.527c-2.574,3.831 -5.293,7.56 -8.158,11.185c-2.866,3.627 -5.586,6.667 -8.158,9.123c2.689,3.277 5.38,6.741 8.07,10.396c2.69,3.656 5.248,7.296 7.676,10.922c2.426,3.627 4.634,7.048 6.624,10.264c1.987,3.217 3.654,6.068 5,8.553c1.344,2.487 2.28,4.373 2.807,5.658c-1.814,1.171 -4.518,2.72 -8.114,4.65c-3.597,1.93 -7.444,3.816 -11.537,5.658c-4.094,1.843 -7.807,3.29 -11.141,4.343c-0.761,-1.871 -1.799,-4.168 -3.114,-6.887c-1.316,-2.719 -2.779,-5.628 -4.386,-8.728c-1.61,-3.1 -3.233,-6.17 -4.869,-9.211c-1.638,-3.041 -3.158,-5.835 -4.562,-8.379c-1.403,-2.543 -2.603,-4.575 -3.596,-6.096c-0.937,0.76 -1.742,1.33 -2.413,1.71c-0.673,0.381 -1.418,0.805 -2.237,1.272c0.233,2.983 0.496,6.288 0.789,9.913c0.293,3.628 0.556,7.165 0.79,10.615c0.233,3.451 0.439,6.478 0.614,9.08c0.176,2.603 0.263,4.402 0.263,5.395c-1.287,0.059 -3.874,0.263 -7.764,0.614c-3.889,0.351 -8.378,0.803 -13.465,1.36c-5.088,0.554 -10.148,1.126 -15.177,1.71" style="fill:#ff4749;fill-rule:nonzero;"/><path d="M136.325,227.073c-1.053,0.059 -3.32,0.206 -6.799,0.438c-3.48,0.233 -7.18,0.351 -11.097,0.351c-2.691,-0 -5.454,-0.074 -8.29,-0.219c-2.838,-0.146 -5.659,-0.394 -8.466,-0.745c0.233,-1.52 0.556,-4.591 0.965,-9.211c0.409,-4.62 0.834,-10.074 1.272,-16.362c0.439,-6.286 0.862,-12.792 1.272,-19.519c0.409,-6.724 0.73,-13.04 0.965,-18.949c0.233,-5.906 0.351,-10.672 0.351,-14.298c1.52,-0.117 3.698,-0.233 6.535,-0.351c2.837,-0.117 5.892,-0.234 9.168,-0.352c3.274,-0.116 6.404,-0.219 9.387,-0.307c2.982,-0.087 5.351,-0.131 7.105,-0.131c0.409,1.989 0.731,5.25 0.965,9.782c0.233,4.532 0.351,9.577 0.351,15.133c-0,5.262 -0.088,10.717 -0.263,16.36c-0.176,5.645 -0.425,11.053 -0.746,16.23c-0.322,5.175 -0.717,9.723 -1.184,13.641c-0.469,3.918 -0.965,6.754 -1.491,8.509m-12.808,-89.392c-6.141,-0 -11.391,-1.755 -15.747,-5.264c-4.358,-3.509 -6.535,-8.246 -6.535,-14.211c-0,-3.977 1.022,-7.398 3.07,-10.265c2.047,-2.864 4.693,-5.073 7.939,-6.623c3.246,-1.549 6.652,-2.325 10.22,-2.325c5.731,-0 10.541,1.814 14.431,5.439c3.888,3.627 5.834,8.334 5.834,14.124c-0,5.439 -1.858,9.987 -5.571,13.641c-3.714,3.656 -8.261,5.484 -13.641,5.484" style="fill:#ff4749;fill-rule:nonzero;"/><path d="M189.965,225.665c-2.223,0 -4.957,-0.016 -8.203,-0.044c-3.246,-0.03 -6.565,-0.074 -9.957,-0.132c-2.574,-0.118 -5.6,-0.25 -9.079,-0.395c-3.48,-0.146 -5.834,-0.278 -7.062,-0.395c0.526,-4.853 0.95,-10.527 1.271,-17.018c0.322,-6.492 0.571,-13.627 0.747,-21.406c0.175,-7.777 0.307,-16.067 0.394,-24.87c0.088,-8.801 0.132,-17.939 0.132,-27.414c2.748,-0.351 6.023,-0.628 9.825,-0.833c3.801,-0.205 7.573,-0.307 11.317,-0.307c2.748,0 5.38,0.074 7.895,0.219c2.514,0.146 4.737,0.366 6.667,0.658l-0,3.027c-0,1.55 -0.015,3.245 -0.044,5.088c-0.03,1.842 -0.074,3.495 -0.132,4.956c1.054,-2.106 3.129,-4.356 6.229,-6.755c3.099,-2.397 6.828,-4.43 11.185,-6.097c4.356,-1.666 8.904,-2.5 13.642,-2.5c8.948,0 15.834,1.814 20.659,5.439c4.825,3.627 8.159,9.11 10.001,16.448c1.843,7.341 2.763,16.596 2.763,27.766c-0,3.509 -0.103,7.764 -0.307,12.764c-0.205,5 -0.498,10.207 -0.878,15.615c-0.38,5.41 -0.891,10.484 -1.534,15.22c-1.462,0.117 -3.744,0.22 -6.843,0.307c-3.101,0.088 -6.375,0.132 -9.825,0.132c-3.743,0 -7.281,-0.044 -10.615,-0.132c-3.333,-0.087 -5.732,-0.19 -7.193,-0.307c0.526,-2.105 1.197,-5.452 2.017,-10.044c0.819,-4.59 1.535,-9.751 2.15,-15.484c0.613,-5.731 0.92,-11.286 0.92,-16.667c-0,-4.093 -0.337,-7.646 -1.008,-10.659c-0.673,-3.012 -1.96,-5.352 -3.86,-7.018c-1.901,-1.667 -4.693,-2.501 -8.378,-2.501c-2.281,0 -4.621,0.426 -7.018,1.273c-2.399,0.848 -4.693,1.96 -6.886,3.334c-2.193,1.374 -4.167,2.85 -5.922,4.43c-0,8.831 -0.162,16.711 -0.482,23.641c-0.323,6.931 -0.717,12.94 -1.185,18.028c-0.469,5.088 -0.936,9.299 -1.403,12.633" style="fill:#ff4749;fill-rule:nonzero;"/><path d="M314.751,197.293c1.52,-0 3.054,-0.102 4.605,-0.308c1.549,-0.203 3.07,-0.57 4.562,-1.096c1.491,-0.526 2.924,-1.229 4.299,-2.105c1.372,-0.878 2.616,-1.988 3.727,-3.334l-0,-6.448c-0,-1.022 0.015,-2.002 0.044,-2.939c0.029,-0.934 0.073,-1.754 0.133,-2.456c-1.229,-1.229 -2.838,-2.31 -4.826,-3.246c-1.989,-0.935 -4.079,-1.666 -6.273,-2.193c-2.193,-0.527 -4.254,-0.79 -6.183,-0.79c-3.92,-0 -7.078,1.215 -9.475,3.641c-2.399,2.427 -3.596,5.425 -3.596,8.992c-0,3.919 1.125,6.946 3.376,9.08c2.251,2.135 5.454,3.202 9.607,3.202m18.51,31.23c-0.118,-0.701 -0.22,-1.651 -0.307,-2.851c-0.088,-1.198 -0.147,-2.471 -0.176,-3.816c-0.03,-1.344 -0.044,-2.544 -0.044,-3.597c-0.877,1.171 -2.091,2.384 -3.64,3.641c-1.551,1.258 -3.437,2.427 -5.658,3.508c-2.224,1.084 -4.826,1.96 -7.808,2.633c-2.982,0.672 -6.375,1.008 -10.177,1.008c-7.076,-0 -13.217,-1.842 -18.422,-5.526c-5.206,-3.685 -9.226,-8.626 -12.062,-14.826c-2.837,-6.198 -4.255,-13.012 -4.255,-20.44c-0,-7.661 1.432,-14.796 4.299,-21.406c2.865,-6.607 7.194,-11.959 12.983,-16.053c5.79,-4.093 13.071,-6.141 21.844,-6.141c3.801,-0 7.325,0.438 10.571,1.316c3.246,0.877 6.037,2.032 8.378,3.465c2.338,1.434 4.005,2.998 5,4.694c0.175,-3.685 0.438,-7.749 0.79,-12.194c0.351,-4.444 0.731,-8.918 1.14,-13.422c0.408,-4.504 0.804,-8.714 1.185,-12.633c0.379,-3.918 0.715,-7.237 1.008,-9.957c0.292,-2.719 0.496,-4.459 0.614,-5.219c4.093,-0 8.728,0.249 13.905,0.745c5.175,0.498 9.81,1.302 13.904,2.413c-0.936,13.277 -1.711,26.523 -2.325,39.74c-0.613,13.217 -1.052,26.859 -1.315,40.924c-0.264,14.066 -0.396,29.051 -0.396,44.959c-1.637,-0 -4.313,-0.03 -8.026,-0.088c-3.715,-0.058 -7.545,-0.162 -11.493,-0.307c-3.946,-0.146 -7.12,-0.336 -9.517,-0.57" style="fill:#ff4749;fill-rule:nonzero;"/><path d="M414.056,165.577c1.637,-0.292 3.772,-0.555 6.404,-0.79c2.632,-0.233 5.731,-0.351 9.299,-0.351c2.047,0 3.977,0.03 5.79,0.088c1.812,0.059 3.099,0.118 3.86,0.175c0,-0.759 -0.147,-1.637 -0.439,-2.632c-0.41,-1.461 -1.184,-2.762 -2.325,-3.903c-1.14,-1.14 -2.53,-2.046 -4.167,-2.72c-1.638,-0.671 -3.48,-1.009 -5.526,-1.009c-2.867,0 -5.235,0.659 -7.106,1.974c-1.872,1.316 -3.261,2.852 -4.167,4.605c-0.908,1.755 -1.448,3.277 -1.623,4.563m43.102,45.7c-1.873,2.224 -4.11,4.241 -6.712,6.054c-2.602,1.813 -5.614,3.348 -9.035,4.605c-3.421,1.258 -7.297,2.223 -11.624,2.895c-4.329,0.672 -9.123,1.009 -14.387,1.009c-8.891,0 -16.829,-1.623 -23.818,-4.869c-6.988,-3.246 -12.472,-8.114 -16.448,-14.606c-3.978,-6.492 -5.965,-14.651 -5.965,-24.476c0,-10.176 2.002,-19.065 6.009,-26.669c4.005,-7.601 9.663,-13.509 16.975,-17.72c7.309,-4.211 15.936,-6.317 25.879,-6.317c12.514,0 22.458,3.291 29.826,9.87c7.37,6.579 11.054,15.893 11.054,27.94c0,2.34 -0.088,4.402 -0.263,6.185c-0.176,1.785 -0.498,3.728 -0.965,5.834c-0.936,-0.058 -2.998,-0.117 -6.185,-0.175c-3.188,-0.058 -6.726,-0.117 -10.615,-0.176c-3.89,-0.057 -7.442,-0.117 -10.658,-0.175c-3.217,-0.058 -5.323,-0.088 -6.317,-0.088c-4.504,0 -8.671,0.19 -12.501,0.57c-3.831,0.381 -6.829,0.776 -8.992,1.185c0,0.701 0.044,1.418 0.132,2.149c0.088,0.732 0.248,1.419 0.483,2.061c0.642,1.638 1.666,3.013 3.07,4.123c1.404,1.112 3.099,1.945 5.088,2.501c1.987,0.556 4.123,0.833 6.404,0.833c1.637,0 3.246,-0.117 4.826,-0.351c1.578,-0.233 3.171,-0.659 4.78,-1.272c1.608,-0.614 3.216,-1.448 4.825,-2.5c1.608,-1.053 3.289,-2.398 5.044,-4.036c0.351,0.293 1.388,1.316 3.115,3.071c1.724,1.754 3.697,3.919 5.921,6.492c2.222,2.574 4.356,5.278 6.404,8.114c2.047,2.838 3.597,5.483 4.65,7.939" style="fill:#ff4749;fill-rule:nonzero;"/><path d="M497.991,155.456c1.052,-2.457 2.777,-4.87 5.175,-7.238c2.398,-2.369 5.366,-4.327 8.904,-5.877c3.538,-1.549 7.471,-2.326 11.8,-2.326c2.632,0 5.233,0.295 7.807,0.878c2.573,0.586 4.386,1.287 5.44,2.106l-6.755,34.739c-1.229,-0.468 -2.808,-1.009 -4.738,-1.623c-1.93,-0.614 -4.006,-0.921 -6.229,-0.921c-2.222,0 -4.313,0.337 -6.271,1.009c-1.961,0.673 -3.773,1.653 -5.44,2.938c-1.667,1.288 -3.261,2.867 -4.781,4.738c0.468,2.982 1.038,6.873 1.711,11.667c0.671,4.797 1.329,9.767 1.974,14.914c0.642,5.147 1.184,9.811 1.622,13.992c0.44,4.182 0.659,7.208 0.659,9.08c-5.207,0.701 -11.084,1.169 -17.633,1.403c-6.551,0.233 -12.955,0.351 -19.212,0.351c-0,-4.562 -0.131,-10.044 -0.395,-16.448c-0.264,-6.404 -0.629,-13.173 -1.097,-20.309c-0.468,-7.134 -1.008,-14.124 -1.623,-20.966c-0.613,-6.843 -1.271,-13.028 -1.974,-18.555c-0.701,-5.526 -1.403,-9.838 -2.105,-12.939c3.626,-0.994 7.558,-1.915 11.8,-2.763c4.239,-0.847 8.026,-1.536 11.36,-2.062c3.334,-0.526 5.439,-0.819 6.316,-0.877c0.702,1.463 1.492,3.787 2.369,6.974c0.877,3.188 1.316,5.893 1.316,8.115" style="fill:#ff4749;fill-rule:nonzero;"/><path d="M160.312,283.631c4.309,0.569 8.33,1.249 12.063,2.033c3.731,0.787 6.84,1.488 9.324,2.101c2.482,0.614 3.996,1.008 4.539,1.181c-0.86,4.371 -1.811,8.925 -2.851,13.665c-1.041,4.742 -2.163,9.582 -3.367,14.525c-1.204,4.942 -2.494,9.886 -3.867,14.835c-1.375,4.949 -2.837,9.827 -4.386,14.635c-1.55,4.809 -3.192,9.438 -4.926,13.889c-3.191,0.656 -7.025,1.066 -11.501,1.234c-2.239,0.084 -4.432,0.081 -6.579,-0.01c-2.148,-0.09 -3.979,-0.204 -5.494,-0.342c-2.572,-4.922 -5.067,-10.055 -7.483,-15.398c-2.418,-5.343 -4.806,-10.918 -7.167,-16.725c-2.361,-5.807 -4.696,-11.884 -7.004,-18.23c-2.309,-6.345 -4.64,-12.982 -6.993,-19.91c0.726,-0.124 2.103,-0.444 4.13,-0.958c2.027,-0.515 4.307,-1.123 6.838,-1.828c2.532,-0.703 5.002,-1.416 7.412,-2.141c2.409,-0.723 4.359,-1.332 5.851,-1.827c0.834,2.746 1.828,5.888 2.984,9.427c1.156,3.538 2.376,7.172 3.661,10.899c1.283,3.729 2.524,7.276 3.723,10.641c1.197,3.367 2.245,6.288 3.141,8.763c0.897,2.476 1.534,4.218 1.914,5.228l-0.86,0.47c0.584,-2.604 1.099,-5.108 1.547,-7.513c0.445,-2.403 0.876,-4.88 1.292,-7.43c0.417,-2.548 0.825,-5.317 1.225,-8.304c0.4,-2.987 0.822,-6.354 1.267,-10.098c0.445,-3.744 0.966,-8.013 1.567,-12.812" style="fill:#ff4749;fill-rule:nonzero;"/><path d="M222.101,312.248c1.363,-0.243 3.141,-0.462 5.332,-0.658c2.191,-0.194 4.771,-0.292 7.741,-0.292c1.705,-0 3.312,0.025 4.821,0.073c1.509,0.05 2.58,0.098 3.214,0.146c-0,-0.632 -0.122,-1.363 -0.366,-2.191c-0.341,-1.217 -0.985,-2.3 -1.935,-3.25c-0.949,-0.949 -2.107,-1.703 -3.47,-2.264c-1.363,-0.559 -2.897,-0.84 -4.6,-0.84c-2.387,-0 -4.359,0.548 -5.916,1.643c-1.559,1.096 -2.715,2.374 -3.47,3.834c-0.756,1.461 -1.205,2.728 -1.351,3.799m44.334,40.462c-1.559,1.851 -3.422,3.531 -5.588,5.04c-2.167,1.509 -4.674,2.788 -7.523,3.834c-2.848,1.048 -6.075,1.852 -9.677,2.41c-3.604,0.56 -7.596,0.841 -11.978,0.841c-7.402,-0 -14.012,-1.352 -19.83,-4.055c-5.818,-2.701 -10.384,-6.755 -13.694,-12.16c-3.312,-5.404 -4.967,-12.197 -4.967,-20.378c-0,-8.471 1.667,-15.872 5.004,-22.203c3.334,-6.328 8.045,-11.247 14.132,-14.753c6.086,-3.506 13.268,-5.259 21.546,-5.259c10.419,-0 18.698,2.74 24.832,8.217c6.136,5.478 9.203,13.232 9.203,23.262c-0,1.948 -0.073,3.665 -0.219,5.149c-0.146,1.486 -0.414,3.104 -0.803,4.857c-0.78,-0.047 -2.496,-0.097 -5.149,-0.146c-2.654,-0.047 -5.601,-0.097 -8.838,-0.146c-3.239,-0.047 -6.196,-0.097 -8.874,-0.146c-2.678,-0.047 -4.431,-0.073 -5.259,-0.073c-3.75,-0 -7.219,0.159 -10.408,0.475c-3.189,0.317 -5.685,0.646 -7.486,0.986c-0,0.584 0.037,1.181 0.11,1.79c0.073,0.609 0.206,1.181 0.402,1.715c0.535,1.365 1.387,2.509 2.556,3.433c1.169,0.926 2.58,1.62 4.236,2.082c1.655,0.464 3.433,0.694 5.332,0.694c1.362,-0 2.702,-0.097 4.017,-0.292c1.314,-0.194 2.641,-0.549 3.981,-1.06c1.338,-0.511 2.676,-1.205 4.016,-2.081c1.339,-0.876 2.739,-1.996 4.2,-3.36c0.292,0.244 1.156,1.096 2.593,2.557c1.436,1.46 3.078,3.263 4.929,5.405c1.851,2.143 3.627,4.394 5.332,6.755c1.705,2.363 2.995,4.565 3.872,6.61" style="fill:#ff4749;fill-rule:nonzero;"/><path d="M301.637,297.786c0.876,-2.046 2.312,-4.054 4.309,-6.026c1.996,-1.972 4.467,-3.602 7.413,-4.893c2.945,-1.29 6.22,-1.936 9.824,-1.936c2.191,0 4.357,0.245 6.5,0.731c2.142,0.487 3.652,1.071 4.529,1.753l-5.624,28.922c-1.023,-0.389 -2.338,-0.84 -3.945,-1.351c-1.607,-0.511 -3.335,-0.767 -5.186,-0.767c-1.85,0 -3.591,0.281 -5.221,0.84c-1.632,0.56 -3.141,1.376 -4.529,2.446c-1.388,1.073 -2.715,2.387 -3.98,3.945c0.389,2.483 0.864,5.722 1.424,9.714c0.559,3.993 1.107,8.132 1.644,12.416c0.534,4.285 0.985,8.168 1.35,11.649c0.366,3.483 0.549,6.002 0.549,7.56c-4.335,0.584 -9.228,0.974 -14.681,1.168c-5.454,0.194 -10.786,0.292 -15.995,0.292c0,-3.798 -0.11,-8.362 -0.329,-13.694c-0.219,-5.331 -0.524,-10.967 -0.913,-16.908c-0.39,-5.94 -0.839,-11.759 -1.351,-17.456c-0.511,-5.697 -1.059,-10.846 -1.644,-15.447c-0.584,-4.601 -1.168,-8.192 -1.753,-10.773c3.02,-0.828 6.293,-1.594 9.824,-2.301c3.53,-0.705 6.683,-1.278 9.458,-1.716c2.776,-0.438 4.529,-0.682 5.259,-0.73c0.584,1.217 1.242,3.153 1.972,5.806c0.73,2.654 1.096,4.906 1.096,6.756" style="fill:#ff4749;fill-rule:nonzero;"/><path d="M407.027,350.931c-1.072,1.413 -2.738,2.958 -5.002,4.638c-2.265,1.68 -5.126,3.116 -8.582,4.309c-3.458,1.192 -7.5,1.789 -12.125,1.789c-6.184,-0 -11.333,-1.266 -15.447,-3.798c-4.116,-2.53 -7.194,-5.939 -9.24,-10.225c-2.045,-4.284 -3.067,-9.031 -3.067,-14.241c0,-2.874 0.037,-5.746 0.11,-8.619c0.073,-2.872 0.157,-5.635 0.255,-8.29c0.098,-2.653 0.207,-5.136 0.329,-7.45c0.121,-2.311 0.243,-4.345 0.365,-6.098c0.121,-1.753 0.207,-3.165 0.255,-4.237c-3.165,0.342 -6.317,0.72 -9.458,1.133c-3.14,0.414 -5.417,0.766 -6.829,1.059c-0.633,-3.506 -1.106,-7.036 -1.423,-10.59c-0.317,-3.554 -0.536,-6.61 -0.658,-9.167c-0.121,-2.556 -0.183,-4.102 -0.183,-4.638c2.872,-0.34 5.781,-0.62 8.728,-0.839c2.946,-0.22 6.196,-0.403 9.75,-0.549c-0.098,-0.681 -0.207,-2.154 -0.328,-4.418c-0.122,-2.264 -0.231,-4.224 -0.329,-5.879c-0.048,-1.655 -0.146,-3.348 -0.292,-5.077c-0.146,-1.727 -0.268,-3.054 -0.365,-3.98l26.805,-2.703c-0.049,0.488 -0.086,1.607 -0.11,3.36c-0.025,1.753 -0.037,3.847 -0.037,6.281c0,1.51 0.025,3.214 0.074,5.113c0.048,1.899 0.121,3.92 0.219,6.062c1.703,-0.097 3.639,-0.206 5.806,-0.329c2.166,-0.121 3.858,-0.206 5.077,-0.256c1.898,-0.146 3.517,-0.242 4.856,-0.292c1.339,-0.048 2.434,-0.073 3.287,-0.073l1.789,-0c0.39,2.971 0.645,6.623 0.768,10.956c0.12,4.334 0.182,8.229 0.182,11.686c-0.487,-0 -2.021,0.073 -4.602,0.219c-2.581,0.146 -5.088,0.292 -7.522,0.438c-1.656,0.099 -3.518,0.232 -5.588,0.402c-2.07,0.171 -3.591,0.305 -4.565,0.401c-0.048,0.877 -0.109,1.973 -0.182,3.287c-0.073,1.315 -0.135,2.788 -0.183,4.419c-0.048,1.633 -0.098,3.36 -0.146,5.186c-0.048,1.826 -0.085,3.652 -0.109,5.478c-0.025,1.826 -0.037,3.591 -0.037,5.294c0,3.312 0.134,6.161 0.402,8.546c0.267,2.386 0.84,4.224 1.716,5.514c0.877,1.291 2.239,1.936 4.09,1.936c1.169,-0 2.215,-0.243 3.141,-0.73c0.925,-0.486 1.753,-1.083 2.484,-1.79c0.73,-0.706 1.387,-1.424 1.971,-2.154c0.778,1.168 1.85,2.678 3.213,4.528c1.363,1.851 2.788,3.774 4.274,5.769c1.484,1.997 2.822,3.787 4.017,5.369c1.192,1.583 2.008,2.666 2.446,3.25" style="fill:#ff4749;fill-rule:nonzero;"/><path d="M438.213,297.786c0.878,-2.046 2.312,-4.054 4.31,-6.026c1.996,-1.972 4.467,-3.602 7.413,-4.893c2.946,-1.29 6.22,-1.936 9.823,-1.936c2.192,0 4.358,0.245 6.501,0.731c2.141,0.487 3.651,1.071 4.528,1.753l-5.623,28.922c-1.024,-0.389 -2.338,-0.84 -3.944,-1.351c-1.608,-0.511 -3.336,-0.767 -5.187,-0.767c-1.851,0 -3.59,0.281 -5.222,0.84c-1.632,0.56 -3.141,1.376 -4.528,2.446c-1.387,1.073 -2.714,2.387 -3.981,3.945c0.389,2.483 0.865,5.722 1.424,9.714c0.56,3.993 1.108,8.132 1.644,12.416c0.535,4.285 0.986,8.168 1.351,11.649c0.365,3.483 0.548,6.002 0.548,7.56c-4.334,0.584 -9.227,0.974 -14.68,1.168c-5.454,0.194 -10.786,0.292 -15.995,0.292c0,-3.798 -0.11,-8.362 -0.329,-13.694c-0.22,-5.331 -0.524,-10.967 -0.913,-16.908c-0.39,-5.94 -0.84,-11.759 -1.351,-17.456c-0.512,-5.697 -1.059,-10.846 -1.644,-15.447c-0.584,-4.601 -1.168,-8.192 -1.753,-10.773c3.019,-0.828 6.293,-1.594 9.824,-2.301c3.529,-0.705 6.682,-1.278 9.458,-1.716c2.776,-0.438 4.528,-0.682 5.258,-0.73c0.586,1.217 1.243,3.153 1.973,5.806c0.73,2.654 1.095,4.906 1.095,6.756" style="fill:#ff4749;fill-rule:nonzero;"/><path d="M510.537,348.439c1.735,0.242 3.617,0.235 5.645,-0.024c2.026,-0.257 3.886,-0.638 5.579,-1.139c1.691,-0.502 2.887,-0.973 3.59,-1.417c-0.071,-0.55 -0.092,-1.377 -0.061,-2.479c0.031,-1.101 0.084,-1.917 0.158,-2.448c-0.815,-0.507 -2.346,-1.076 -4.592,-1.71c-2.247,-0.633 -4.432,-1.097 -6.554,-1.393c-1.978,-0.276 -3.962,-0.405 -5.956,-0.389c-1.992,0.017 -3.692,0.309 -5.1,0.875c-1.406,0.566 -2.209,1.572 -2.411,3.019c-0.182,1.302 0.08,2.42 0.785,3.354c0.705,0.935 1.813,1.716 3.324,2.344c1.51,0.629 3.374,1.097 5.593,1.407m-9.189,19.883c-5.933,-0.827 -11.244,-2.392 -15.939,-4.694c-4.693,-2.301 -8.255,-5.49 -10.686,-9.565c-2.43,-4.074 -3.221,-9.151 -2.374,-15.227c0.868,-6.221 3.315,-10.907 7.343,-14.057c4.029,-3.149 8.949,-5.118 14.762,-5.905c5.813,-0.787 11.805,-0.75 17.978,0.111c2.026,0.282 3.945,0.71 5.758,1.282c1.812,0.573 3.408,1.212 4.783,1.921c1.377,0.708 2.41,1.405 3.101,2.092c0.141,-1.013 0.058,-2.18 -0.249,-3.501c-0.307,-1.321 -0.841,-2.428 -1.602,-3.321c-1.051,-1.277 -2.412,-2.45 -4.081,-3.519c-1.671,-1.069 -4.145,-1.832 -7.424,-2.289c-3.135,-0.437 -6.133,-0.093 -8.992,1.032c-2.862,1.125 -5.113,2.458 -6.753,3.999l-19.692,-16.906c2.634,-2.68 6.027,-4.874 10.173,-6.582c4.147,-1.708 8.706,-2.853 13.679,-3.438c4.974,-0.585 10.039,-0.517 15.2,0.203c8.826,1.231 15.698,3.504 20.62,6.821c4.92,3.316 8.352,7.691 10.299,13.124c0.889,2.435 1.525,5.106 1.907,8.009c0.381,2.905 0.535,6.024 0.466,9.357c-0.069,2.252 -0.214,4.605 -0.433,7.056c-0.219,2.452 -0.513,5.005 -0.883,7.657c-0.558,4.003 -0.55,6.671 0.027,8.005c0.576,1.334 1.515,2.092 2.817,2.273c1.108,0.155 2.152,0.165 3.129,0.031c0.978,-0.133 1.686,-0.367 2.125,-0.699l5.253,19.98c-0.866,0.911 -2.555,1.745 -5.07,2.501c-2.514,0.755 -5.771,0.853 -9.774,0.295c-2.847,-0.397 -5.571,-1.219 -8.173,-2.467c-2.604,-1.248 -4.723,-2.809 -6.353,-4.683c-1.632,-1.875 -2.433,-3.965 -2.406,-6.273c-0.891,1.793 -2.587,3.389 -5.093,4.784c-2.506,1.396 -5.712,2.363 -9.622,2.898c-3.909,0.535 -8.517,0.435 -13.821,-0.305" style="fill:#ff4749;fill-rule:nonzero;"/><path d="M611.271,293.258c1.557,-0.535 3.762,-0.949 6.609,-1.242c2.849,-0.292 5.612,-0.438 8.29,-0.438c2.239,-0 4.711,0.098 7.414,0.292c2.702,0.196 4.931,0.439 6.683,0.731c0.486,3.408 0.851,6.805 1.095,10.188c0.243,3.385 0.365,6.733 0.365,10.043c0,7.645 -0.67,14.815 -2.009,21.509c-1.338,6.696 -3.517,12.588 -6.536,17.676c-3.019,5.088 -7.025,9.081 -12.015,11.977c-4.992,2.897 -11.114,4.347 -18.368,4.347c-7.646,-0 -13.95,-1.498 -18.918,-4.493c-4.966,-2.995 -8.836,-7.194 -11.612,-12.599c-2.776,-5.404 -4.723,-11.758 -5.842,-19.062c-1.121,-7.304 -1.681,-15.24 -1.681,-23.811c0,-2.969 0.06,-6 0.183,-9.093c0.12,-3.091 0.279,-6.219 0.474,-9.385c1.608,-0.146 3.689,-0.279 6.246,-0.401c2.555,-0.121 4.88,-0.183 6.974,-0.183c3.068,-0 6.147,0.146 9.24,0.438c3.092,0.292 5.514,0.707 7.267,1.242c-0.244,2.629 -0.488,5.709 -0.731,9.239c-0.243,3.531 -0.365,7.17 -0.365,10.919c0,4.967 0.23,9.775 0.694,14.425c0.463,4.65 1.387,8.461 2.776,11.43c1.387,2.97 3.468,4.456 6.244,4.456c2.63,-0 4.626,-1.34 5.99,-4.017c1.361,-2.678 2.287,-6.099 2.774,-10.262c0.487,-4.163 0.732,-8.46 0.732,-12.891c0,-4.187 -0.197,-8.181 -0.586,-11.979c-0.389,-3.797 -0.852,-6.816 -1.387,-9.056" style="fill:#ff4749;fill-rule:nonzero;"/><path d="M679.266,312.248c1.363,-0.243 3.141,-0.462 5.331,-0.658c2.192,-0.194 4.773,-0.292 7.743,-0.292c1.704,-0 3.31,0.025 4.82,0.073c1.509,0.05 2.58,0.098 3.214,0.146c-0,-0.632 -0.122,-1.363 -0.365,-2.191c-0.342,-1.217 -0.986,-2.3 -1.935,-3.25c-0.951,-0.949 -2.108,-1.703 -3.471,-2.264c-1.362,-0.559 -2.897,-0.84 -4.6,-0.84c-2.387,-0 -4.358,0.548 -5.917,1.643c-1.559,1.096 -2.714,2.374 -3.469,3.834c-0.756,1.461 -1.205,2.728 -1.351,3.799m44.333,40.462c-1.559,1.851 -3.421,3.531 -5.587,5.04c-2.168,1.509 -4.674,2.788 -7.523,3.834c-2.849,1.048 -6.074,1.852 -9.677,2.41c-3.605,0.56 -7.596,0.841 -11.978,0.841c-7.402,-0 -14.011,-1.352 -19.829,-4.055c-5.819,-2.701 -10.385,-6.755 -13.696,-12.16c-3.311,-5.404 -4.966,-12.197 -4.966,-20.378c-0,-8.471 1.668,-15.872 5.004,-22.203c3.333,-6.328 8.045,-11.247 14.132,-14.753c6.087,-3.506 13.267,-5.259 21.546,-5.259c10.42,-0 18.697,2.74 24.832,8.217c6.136,5.478 9.204,13.232 9.204,23.262c-0,1.948 -0.073,3.665 -0.219,5.149c-0.146,1.486 -0.415,3.104 -0.805,4.857c-0.779,-0.047 -2.495,-0.097 -5.149,-0.146c-2.654,-0.047 -5.599,-0.097 -8.837,-0.146c-3.238,-0.047 -6.197,-0.097 -8.874,-0.146c-2.678,-0.047 -4.43,-0.073 -5.258,-0.073c-3.751,-0 -7.219,0.159 -10.409,0.475c-3.189,0.317 -5.684,0.646 -7.485,0.986c-0,0.584 0.036,1.181 0.109,1.79c0.073,0.609 0.207,1.181 0.402,1.715c0.535,1.365 1.387,2.509 2.557,3.433c1.168,0.926 2.579,1.62 4.236,2.082c1.654,0.464 3.432,0.694 5.331,0.694c1.362,-0 2.702,-0.097 4.017,-0.292c1.315,-0.194 2.641,-0.549 3.981,-1.06c1.338,-0.511 2.676,-1.205 4.016,-2.081c1.339,-0.876 2.739,-1.996 4.201,-3.36c0.292,0.244 1.155,1.096 2.592,2.557c1.436,1.46 3.079,3.263 4.93,5.405c1.85,2.143 3.626,4.394 5.331,6.755c1.704,2.363 2.995,4.565 3.871,6.61" style="fill:#ff4749;fill-rule:nonzero;"/><path d="M765.021,371.937c-1.851,0 -4.126,-0.013 -6.828,-0.037c-2.703,-0.025 -5.468,-0.061 -8.29,-0.11c-2.143,-0.098 -4.663,-0.207 -7.56,-0.328c-2.898,-0.122 -4.856,-0.232 -5.88,-0.329c0.438,-4.041 0.792,-8.764 1.06,-14.169c0.267,-5.405 0.475,-11.345 0.621,-17.821c0.146,-6.475 0.255,-13.377 0.328,-20.706c0.073,-7.328 0.11,-14.936 0.11,-22.824c2.288,-0.292 5.015,-0.523 8.18,-0.694c3.165,-0.17 6.306,-0.255 9.422,-0.255c2.288,0 4.479,0.061 6.574,0.182c2.093,0.122 3.944,0.305 5.55,0.548l0,2.52c0,1.29 -0.013,2.702 -0.036,4.236c-0.026,1.534 -0.062,2.91 -0.11,4.126c0.876,-1.753 2.604,-3.627 5.186,-5.624c2.58,-1.995 5.683,-3.688 9.313,-5.076c3.625,-1.387 7.412,-2.081 11.356,-2.081c7.449,0 13.183,1.51 17.201,4.528c4.017,3.019 6.791,7.585 8.326,13.694c1.533,6.112 2.3,13.817 2.3,23.117c0,2.922 -0.086,6.464 -0.256,10.627c-0.17,4.163 -0.414,8.497 -0.73,13c-0.316,4.505 -0.743,8.728 -1.278,12.672c-1.217,0.097 -3.117,0.183 -5.696,0.256c-2.582,0.073 -5.309,0.109 -8.18,0.109c-3.118,0 -6.063,-0.036 -8.839,-0.109c-2.775,-0.073 -4.772,-0.159 -5.989,-0.256c0.44,-1.753 0.998,-4.539 1.681,-8.363c0.681,-3.821 1.278,-8.118 1.789,-12.891c0.511,-4.771 0.767,-9.396 0.767,-13.876c0,-3.408 -0.28,-6.366 -0.84,-8.874c-0.561,-2.508 -1.632,-4.456 -3.214,-5.843c-1.583,-1.388 -3.908,-2.082 -6.974,-2.082c-1.9,0 -3.848,0.354 -5.844,1.059c-1.997,0.706 -3.908,1.632 -5.733,2.776c-1.827,1.144 -3.47,2.373 -4.93,3.688c0,7.352 -0.135,13.913 -0.403,19.683c-0.267,5.77 -0.597,10.773 -0.984,15.009c-0.391,4.236 -0.781,7.742 -1.17,10.518" style="fill:#ff4749;fill-rule:nonzero;"/><path d="M666.265,229.14c-19.155,-0 -35.663,-4.158 -49.522,-12.476c-13.863,-8.316 -24.572,-20.311 -32.133,-35.988c-7.561,-15.674 -11.341,-34.5 -11.341,-56.479c0,-20.462 3.402,-38.559 10.207,-54.284c6.805,-15.727 16.709,-28.052 29.713,-36.973c13.005,-8.921 28.78,-13.383 47.33,-13.383c9.172,-0 18.523,1.187 28.05,3.555c9.527,2.369 18.472,6.024 26.841,10.962c8.366,4.94 15.322,11.342 20.867,19.205c-2.219,2.622 -5.998,6.35 -11.341,11.189c-5.345,4.839 -11.265,9.83 -17.767,14.971c-6.503,5.141 -12.728,9.526 -18.676,13.155c-1.11,-1.512 -2.797,-3.452 -5.065,-5.822c-2.268,-2.367 -5.194,-4.484 -8.771,-6.35c-3.579,-1.866 -7.888,-2.798 -12.928,-2.798c-5.243,-0 -9.704,1.537 -13.382,4.612c-3.681,3.076 -6.63,7.107 -8.847,12.097c-2.219,4.991 -3.832,10.536 -4.839,16.634c-1.009,6.1 -1.512,12.172 -1.512,18.22c0,8.672 1.233,16.611 3.705,23.818c2.469,7.208 6.2,12.954 11.19,17.237c4.99,4.286 11.315,6.427 18.977,6.427c3.327,-0 6.602,-0.629 9.829,-1.89c3.225,-1.26 5.872,-2.999 7.939,-5.217c2.065,-2.216 3.1,-4.637 3.1,-7.258c0,-1.108 -0.026,-1.966 -0.076,-2.572c-0.052,-0.603 -0.177,-1.208 -0.377,-1.813c-1.312,-0.403 -3.252,-0.833 -5.823,-1.285c-2.571,-0.454 -5.344,-0.857 -8.316,-1.211c-2.975,-0.352 -5.798,-0.627 -8.469,-0.832c-2.672,-0.201 -4.864,-0.302 -6.577,-0.302c0,-3.426 0.099,-7.837 0.302,-13.231c0.201,-5.391 0.477,-10.759 0.832,-16.105c0.352,-5.341 0.73,-9.625 1.134,-12.852c6.854,-0 15.272,0.529 25.253,1.587c9.979,1.059 19.983,2.42 30.016,4.083c10.029,1.663 18.472,3.504 25.328,5.519c1.108,3.328 1.89,7.361 2.344,12.098c0.453,4.739 0.68,8.973 0.68,12.701c0,14.014 -2.899,27.195 -8.694,39.542c-5.799,12.351 -14.467,22.358 -26.009,30.017c-11.545,7.66 -25.933,11.492 -43.172,11.492" style="fill:#ff4749;fill-rule:nonzero;"/><path d="M857.099,213.418c8.165,0 15.196,-2.443 21.093,-7.334c5.897,-4.888 10.409,-11.266 13.534,-19.127c3.124,-7.864 4.688,-16.182 4.688,-24.952c-0,-6.249 -0.657,-12.172 -1.966,-17.767c-1.311,-5.594 -3.378,-10.51 -6.199,-14.744c-2.824,-4.233 -6.578,-7.56 -11.265,-9.979c-4.689,-2.42 -10.461,-3.629 -17.315,-3.629c-6.957,0 -13.358,2.368 -19.204,7.106c-5.848,4.74 -10.536,11.066 -14.063,18.978c-3.53,7.915 -5.293,16.609 -5.293,26.085c-0,8.871 1.059,16.708 3.176,23.512c2.117,6.806 5.796,12.15 11.038,16.03c5.241,3.881 12.5,5.821 21.776,5.821m-1.059,60.637c-22.179,0 -40.248,-4.537 -54.21,-13.609c-13.963,-9.074 -24.221,-21.473 -30.772,-37.198c-6.554,-15.727 -9.829,-33.571 -9.829,-53.53c-0,-19.859 3.804,-37.525 11.417,-53.001c7.61,-15.474 18.472,-27.672 32.586,-36.593c14.112,-8.922 31.049,-13.383 50.808,-13.383c16.43,0 30.621,2.547 42.566,7.636c11.947,5.091 21.775,12.224 29.487,21.397c7.713,9.174 13.433,19.959 17.163,32.361c3.728,12.399 5.595,25.958 5.595,40.676c-0,13.608 -1.815,26.715 -5.444,39.315c-3.629,12.602 -9.249,23.842 -16.859,33.72c-7.614,9.882 -17.416,17.719 -29.411,23.514c-11.999,5.797 -26.365,8.695 -43.097,8.695" style="fill:#ff4749;fill-rule:nonzero;"/><path d="M928.76,66.7c-0.89,-2.538 -1.84,-6.312 -2.852,-11.322c-1.01,-5.009 -1.976,-10.303 -2.899,-15.882c-0.921,-5.577 -1.702,-10.562 -2.34,-14.955c-0.638,-4.391 -1.035,-7.288 -1.191,-8.692c11.023,-2.133 23.561,-4.306 37.617,-6.524c14.055,-2.214 28.348,-4.126 42.876,-5.735c11.221,-1.242 22.22,-2.207 32.998,-2.893c10.775,-0.685 20.645,-0.864 29.606,-0.541c1.176,10.623 1.854,20.41 2.036,29.366c0.179,8.957 -0.049,15.599 -0.684,19.93c-1.805,0.2 -4.235,0.469 -7.29,0.807c-3.057,0.338 -6.415,0.687 -10.078,1.041c-3.664,0.355 -7.225,0.699 -10.688,1.03c-3.461,0.334 -6.453,0.589 -8.966,0.766c0.609,3.685 1.472,8.964 2.589,15.839c1.116,6.874 2.385,14.671 3.808,23.388c1.422,8.719 2.937,17.832 4.548,27.338c1.609,9.509 3.17,18.795 4.682,27.854c1.509,9.063 2.879,17.306 4.107,24.724c1.225,7.422 2.252,13.47 3.073,18.145c0.822,4.679 1.267,7.314 1.334,7.916c-5.021,1.369 -11.479,2.818 -19.373,4.351c-7.893,1.532 -15.755,2.909 -23.58,4.133c-7.829,1.221 -14.246,2.109 -19.255,2.664c-0.944,-5.777 -1.993,-12.508 -3.149,-20.19c-1.154,-7.681 -2.321,-15.92 -3.497,-24.716c-1.178,-8.793 -2.376,-17.788 -3.596,-26.986c-1.223,-9.195 -2.377,-18.245 -3.463,-27.154c-1.089,-8.906 -2.064,-17.268 -2.929,-25.083c-0.522,-4.709 -0.99,-9.144 -1.399,-13.31c-0.41,-4.161 -0.753,-7.953 -1.031,-11.371c-3.073,0.645 -6.254,1.224 -9.543,1.742c-3.291,0.516 -6.655,1.04 -10.096,1.573c-3.44,0.533 -6.936,1.023 -10.486,1.466c-3.553,0.446 -7.184,0.871 -10.889,1.281" style="fill:#ff4749;fill-rule:nonzero;"/><path d="M1058.93,120.321c-0.266,-2.676 -0.298,-6.568 -0.098,-11.675c0.201,-5.106 0.512,-10.478 0.932,-16.118c0.421,-5.636 0.84,-10.665 1.257,-15.084c0.416,-4.417 0.714,-7.326 0.895,-8.728c11.215,0.53 23.911,1.378 38.094,2.542c14.18,1.166 28.52,2.682 43.017,4.549c11.197,1.441 22.113,3.101 32.749,4.979c10.632,1.878 20.265,4.034 28.897,6.464c-1.365,10.6 -3.018,20.27 -4.955,29.016c-1.941,8.746 -3.73,15.147 -5.37,19.205c-1.8,-0.232 -4.225,-0.544 -7.274,-0.937c-3.051,-0.393 -6.397,-0.846 -10.039,-1.368c-3.645,-0.52 -7.186,-1.026 -10.629,-1.522c-3.442,-0.492 -6.409,-0.951 -8.894,-1.373c-0.278,3.725 -0.685,9.059 -1.223,16.004c-0.539,6.943 -1.146,14.819 -1.822,23.625c-0.676,8.808 -1.355,18.022 -2.034,27.639c-0.681,9.62 -1.357,19.012 -2.026,28.173c-0.673,9.163 -1.288,17.496 -1.846,24.994c-0.562,7.501 -0.992,13.621 -1.297,18.358c-0.306,4.74 -0.496,7.406 -0.573,8.006c-5.202,0.145 -11.82,0.029 -19.853,-0.344c-8.032,-0.375 -15.996,-0.894 -23.889,-1.552c-7.895,-0.662 -14.341,-1.313 -19.339,-1.957c0.446,-5.836 1.016,-12.624 1.706,-20.362c0.692,-7.736 1.503,-16.018 2.437,-24.844c0.931,-8.822 1.89,-17.846 2.877,-27.072c0.981,-9.223 1.997,-18.29 3.045,-27.204c1.044,-8.911 2.071,-17.266 3.075,-25.065c0.605,-4.699 1.197,-9.119 1.783,-13.264c0.584,-4.14 1.146,-7.906 1.683,-11.293c-3.139,-0.099 -6.367,-0.287 -9.685,-0.56c-3.319,-0.276 -6.712,-0.56 -10.181,-0.855c-3.47,-0.294 -6.982,-0.644 -10.537,-1.051c-3.557,-0.406 -7.185,-0.85 -10.883,-1.326" style="fill:#ff4749;fill-rule:nonzero;"/></svg>