<?xml version="1.0" encoding="UTF-8" standalone="no"?><!DOCTYPE svg PUBLIC "-//W3C//DTD SVG 1.1//EN" "http://www.w3.org/Graphics/SVG/1.1/DTD/svg11.dtd"><svg width="100%" height="100%" viewBox="0 0 714 3096" version="1.1" xmlns="http://www.w3.org/2000/svg" xmlns:xlink="http://www.w3.org/1999/xlink" xml:space="preserve" xmlns:serif="http://www.serif.com/" style="fill-rule:evenodd;clip-rule:evenodd;stroke-linecap:round;stroke-linejoin:round;stroke-miterlimit:10;"><path d="M710.785,1089.13c-48.438,8.471 -79.923,-24.109 -79.923,-24.109c9.773,37.792 26.715,54.733 26.715,54.733c-37.792,-28.018 -91.222,-52.778 -154.425,-61.248c-63.204,-8.471 -62.552,-11.729 -134.226,-35.186c-71.674,-23.457 -122.498,-79.493 -122.498,-79.493c-19.547,13.683 -64.507,5.213 -64.507,5.213c9.774,18.896 78.19,73.629 110.769,96.434c32.58,22.805 112.073,53.43 155.077,62.552c43.004,9.122 158.986,40.398 184.398,57.339c25.412,16.941 30.624,75.584 31.927,139.439c1.304,63.855 -7.819,362.28 -11.728,456.107c-3.91,93.828 -11.729,225.448 -12.591,311.457c-0.863,86.009 -1.744,177.23 -0.441,280.18c1.303,102.95 -0,173.321 -7.819,256.724c-7.819,83.402 -2.606,100.343 -6.515,205.248c-3.91,104.905 -41.05,278.257 -41.05,278.257" style="fill:none;fill-rule:nonzero;stroke:#4f2e1e;stroke-width:5px;"/><path d="M711.11,1089.13c-48.438,8.471 -79.923,-24.109 -79.923,-24.109c9.773,37.792 26.715,54.733 26.715,54.733c-37.792,-28.018 -91.222,-52.778 -154.425,-61.248c-63.204,-8.471 -62.552,-11.729 -134.226,-35.186c-71.674,-23.457 -122.498,-79.493 -122.498,-79.493c-19.547,13.683 -64.507,5.213 -64.507,5.213c9.774,18.896 78.19,73.629 110.769,96.434c32.579,22.805 112.073,53.43 155.077,62.552c43.004,9.122 158.986,40.398 184.398,57.339c25.412,16.941 30.624,75.584 31.927,139.439c1.304,63.855 -7.819,362.28 -11.728,456.107c-3.91,93.828 -11.729,225.448 -12.591,311.457c-0.863,86.009 -1.744,177.23 -0.441,280.18c1.303,102.95 0,173.321 -7.819,256.724c-7.819,83.402 -2.606,100.343 -6.516,205.248c-3.909,104.905 -41.049,278.257 -41.049,278.257l126.837,0l0,-2003.65Z" style="fill:#68503e;fill-rule:nonzero;"/><path d="M181.921,949.04c0,0 44.308,8.47 64.507,-5.213c0,0 42.232,62.288 149.477,88.484c107.246,26.195 114.917,22.753 166.466,39.46c51.549,16.708 95.205,47.984 95.205,47.984c0,0 -6.636,-7.402 -10.674,-14.838c-4.038,-7.437 18.493,7.019 21.099,14.838c2.607,7.819 -1.954,16.289 -21.502,12.38c-19.547,-3.91 -115.33,-50.172 -170.063,-59.294c-54.733,-9.123 -177.23,-65.81 -203.945,-87.312c-26.715,-21.503 -28.67,-26.064 -28.67,-26.064c0,0 -19.287,11.47 -46.784,7.69l-15.116,-18.115Z" style="fill:#574334;fill-rule:nonzero;"/><path d="M249.686,981.619c-2.606,5.213 52.127,53.43 102.95,69.719c50.823,16.29 82.099,37.14 146.606,51.475c64.507,14.335 86.009,31.276 94.48,33.231c8.47,1.955 13.031,-4.561 -6.516,-13.683c-19.548,-9.122 -96.435,-44.612 -170.063,-63.356c-73.629,-18.744 -153.122,-77.386 -160.29,-77.386l-7.167,0Z" style="fill:#82644d;fill-rule:nonzero;"/><path d="M190.066,627.693c-0,0 -13.374,-59.294 30.942,-67.113c-0,0 -76.759,-52.778 -32.837,-131.945c43.922,-79.168 96.7,-60.598 96.7,-60.598c-0,0 -27.366,-26.389 -0,-52.778c27.367,-26.389 51.801,0 51.801,0c-0,0 -27.129,-44.265 51.482,-110.443c45.278,-38.117 99.034,-4.887 99.034,-4.887c-0,0 3.909,-22.479 45.936,-36.163c42.027,-13.683 67.439,0 67.439,0c-0,0 5.422,-100.669 110.222,-161.266l0.326,1087.82c-0,0 -97.842,17.592 -105.661,-64.507c-0,0 -29.715,27.221 -67.439,16.615c-45.937,-12.915 -47.891,-65.484 -47.891,-65.484c-0,0 -48.53,47.892 -101.966,26.389c-53.437,-21.502 -74.939,-71.348 -60.278,-109.466c14.66,-38.117 -137.81,-266.171 -137.81,-266.171" style="fill:#377b4b;fill-rule:nonzero;"/><path d="M711.11,1090.32c0,0 -97.842,17.593 -105.661,-64.507c0,0 -29.715,27.222 -67.439,16.616c-45.936,-12.915 -47.891,-65.484 -47.891,-65.484c0,0 -48.529,47.891 -101.966,26.389c-53.436,-21.503 -74.939,-71.348 -60.278,-109.466c14.661,-38.118 -137.81,-266.172 -137.81,-266.172c0,0 -13.374,-59.293 30.942,-67.112c0,0 -76.758,-52.779 -32.836,-131.946c43.921,-79.167 96.7,-60.597 96.7,-60.597c0,0 -27.367,-26.389 0,-52.778c27.366,-26.389 51.8,0 51.8,0c0,0 -27.128,-44.265 51.482,-110.443c45.278,-38.118 99.034,-4.887 99.034,-4.887c0,0 3.909,-22.48 45.937,-36.163c42.027,-13.683 67.438,0 67.438,0c0,0 5.422,-100.67 110.222,-161.267" style="fill:none;fill-rule:nonzero;stroke:#224e2f;stroke-width:5px;"/><path d="M192.067,628.694c0,0 -13.374,-59.294 30.942,-67.113c0,0 -76.759,-52.778 -32.837,-131.945c43.922,-79.168 96.7,-60.598 96.7,-60.598c0,0 -27.366,-26.389 0,-52.778c27.367,-26.389 51.801,0 51.801,0c0,0 -27.129,-44.265 51.482,-110.443c45.278,-38.118 99.034,-4.887 99.034,-4.887c0,0 3.909,-22.479 45.936,-36.163c42.027,-13.683 67.439,0 67.439,0c0,0 5.422,-100.669 110.222,-161.266l0.326,925.684c0,0 -127.383,20.204 -135.202,-61.895c0,0 -26.563,34.063 -64.287,23.456c-45.937,-12.915 -41.381,-92.85 -41.381,-92.85c0,0 -64.273,55.357 -117.709,33.855c-53.437,-21.502 -100.719,-42.721 -86.059,-80.838c14.661,-38.118 -76.407,-122.219 -76.407,-122.219" style="fill:#44955b;fill-rule:nonzero;"/><path d="M659.906,1531.55c0,0 14.611,125.112 12.005,222.197c-2.606,97.086 -9.087,184.398 -5.847,250.86c3.241,66.461 1.937,229.357 -0.669,305.592c-2.606,76.235 -2.606,273.013 -5.213,312.759c-2.606,39.747 3.258,220.297 -50.171,469.822l-26.064,0c0,0 23.457,-117.967 31.276,-175.307c7.819,-57.339 12.094,-155.727 11.553,-211.111c-0.541,-55.385 6.692,-119.892 11.253,-170.064c4.561,-50.172 3.258,-188.308 3.258,-233.918c0,-45.611 -5.389,-192.552 -1.469,-234.074c4.075,-43.175 8.31,-196.948 10.916,-236.043c2.607,-39.095 5.539,-168.434 7.494,-206.877c1.954,-38.444 1.678,-93.836 1.678,-93.836" style="fill:#574334;fill-rule:nonzero;"/><path d="M277.495,500.752c-0,0 -28.431,45.829 17.732,70.673c-0,0 31.611,-41.324 -17.732,-70.673" style="fill:#316c42;fill-rule:nonzero;"/><path d="M600.563,163.767c-0,-0 -26.552,-12.589 -67.376,1.611c-36.878,12.828 -45.999,34.552 -45.999,34.552c-0,-0 -53.104,-31.323 -97.033,5.887c-75.798,64.206 -51.482,110.443 -51.482,110.443c-0,-0 -24.434,-26.389 -51.8,-0c-27.367,26.39 -0,52.779 -0,52.779c-0,-0 -52.779,-18.571 -96.7,60.597c-43.922,79.167 32.836,131.945 32.836,131.945c-44.316,7.819 -32.943,66.113 -32.943,66.113c-0,-0 6.842,-55.594 39.095,-63.413c-0,-0 -41.855,-65.456 -25.814,-114.827c16.04,-49.372 59.258,-60.859 92.382,-78.084c-0,-0 -21.208,-25.946 -0,-46.546c21.208,-20.6 46.807,0.978 46.807,0.978c-0,-0 -7.479,-57.665 45.618,-99.692c53.097,-42.028 97.751,-14.661 97.751,-14.661c-0,-0 14.966,-27.367 52.106,-33.231c37.14,-5.864 60.366,3.927 60.366,3.927c-0,-0 0.34,-11.762 2.186,-18.378" style="fill:#316c42;fill-rule:nonzero;"/><path d="M278.553,717.872c-0,-0.001 60.868,-49.498 98.994,-0.001c38.127,49.497 -38.795,88.961 -38.795,88.961c-0,0 60.2,28.093 22.073,76.922c-38.126,48.828 -93.643,26.086 -93.643,26.086c-0,0 10.682,38.76 -54.858,46.135c-65.541,7.375 -72.229,-22.055 -72.229,-22.055c-0,0 -3.345,16.053 -23.411,14.046c-20.067,-2.007 -11.371,-22.073 -11.371,-22.073c-0,0 -68.226,34.782 -88.293,-30.1c-20.066,-64.881 45.484,-84.948 45.484,-84.948c-0,0 -72.239,-13.377 -58.192,-81.603c14.046,-68.226 86.954,-33.37 86.954,-33.37c-0,0 -3.344,-10.776 6.02,-16.127c9.365,-5.351 19.398,6.02 19.398,6.02c-0,0 25.417,-78.928 101.001,-65.551c75.583,13.378 60.868,97.657 60.868,97.657Z" style="fill:#377b4b;fill-rule:nonzero;stroke:#224e2f;stroke-width:5px;"/><path d="M357.848,728.154c-16.471,-35.599 -81.448,-8.47 -81.448,-8.47c0,-0 14.335,-82.1 -59.294,-95.132c-73.629,-13.031 -98.389,63.855 -98.389,63.855c0,-0 -9.774,-11.076 -18.896,-5.864c-9.122,5.213 -5.864,15.711 -5.864,15.711c0,-0 -71.022,-33.955 -84.706,32.506c-13.683,66.462 56.688,79.493 56.688,79.493c0,-0 -63.855,19.548 -44.308,82.751c19.548,63.204 86.009,13.032 86.009,13.032c0,-0 -1.954,15.638 17.593,17.593c19.547,1.954 24.76,-13.032 24.76,-13.032c0,-0 23.225,25.869 63.204,10.425c32.049,-12.38 32.049,-49.52 32.049,-49.52c0,-0 43.866,21.891 66.398,-8.398c13.625,-18.317 2.595,-60.669 2.595,-60.669c0,-0 63.808,-30.625 43.609,-74.281" style="fill:#44955b;fill-rule:nonzero;"/><path d="M140.22,741.185c-0,0 11.173,-49.52 55.107,-35.837c43.934,13.683 26.992,51.475 26.992,51.475c-0,0 16.942,-13.683 33.883,-3.258c16.941,10.425 7.819,29.321 7.819,29.321" style="fill:none;fill-rule:nonzero;stroke:#224e2f;stroke-width:5px;"/><path d="M85.818,740.016c-0,-0 -16.798,26.39 12.835,42.871c-0,-0 18.905,-23.585 -12.835,-42.871" style="fill:#316c42;fill-rule:nonzero;"/><path d="M70.206,843.012c0,0 2.266,23.61 27.667,19.642c0,0 0.302,-22.916 -27.667,-19.642" style="fill:#316c42;fill-rule:nonzero;"/><path d="M198.485,783.793c0,0 -40.283,3.602 -33.8,46.957c0,0 39.071,0.77 33.8,-46.957" style="fill:#316c42;fill-rule:nonzero;"/><path d="M332.44,745.76c-0,-0 -37.274,-1.382 -36.385,34.184c-0,-0 35.656,4.77 36.385,-34.184" style="fill:#2fba63;fill-rule:nonzero;"/><path d="M229.762,660.703c0,0 -23.212,29.197 5.956,49.568c0,0 24.98,-25.886 -5.956,-49.568" style="fill:#2fba63;fill-rule:nonzero;"/><path d="M619.85,391.287c0,-0 -51.965,-1.954 -50.754,49.1c0,-0 49.707,6.819 50.754,-49.1" style="fill:#2fba63;fill-rule:nonzero;"/><path d="M278.228,434.242c0,0 4.25,36.382 38.392,30.222c0,0 -0.744,-35.316 -38.392,-30.222" style="fill:#2fba63;fill-rule:nonzero;"/><path d="M605.051,157.685c-5.259,32.238 0.139,48.877 0.139,48.877c-0,0 -62.552,-19.548 -93.828,10.751c-31.276,30.298 -19.547,81.122 -19.547,81.122c-0,0 -25.412,-11.729 -42.027,8.796c-16.616,20.525 -0,38.118 -0,38.118c-0,0 18.57,-26.389 55.71,-25.412c-0,0 -2.932,-32.044 35.185,-65.379c38.118,-33.336 73.304,-28.449 73.304,-28.449c-0,0 24.643,-109.466 98.819,-166.153l-0.366,-55.263c-0,0 -89.657,44.294 -107.389,152.992" style="fill:#316c42;fill-rule:nonzero;"/><path d="M354.23,371.37c-0,0 -1.291,53.916 51.096,51.945c-0,0 6.315,-51.643 -51.096,-51.945" style="fill:#316c42;fill-rule:nonzero;"/><path d="M672.629,268.138c-0,0 -64.902,-2.077 -63.032,61.857c-0,0 62.117,8.186 63.032,-61.857" style="fill:#316c42;fill-rule:nonzero;"/><path d="M485.951,465.168c-0,0 -38.431,7.645 -27.828,48.177c-0,0 37.703,-3.362 27.828,-48.177" style="fill:#316c42;fill-rule:nonzero;"/><path d="M237.082,1854.74l55.059,-46.914l246.707,-0l43.247,46.914" style="fill:#bf682e;fill-rule:nonzero;stroke:#934b29;stroke-width:3px;"/><rect x="237.082" y="1854.74" width="345.013" height="28.19" style="fill:#bf682e;stroke:#934b29;stroke-width:3px;"/><path d="M553.778,1060.81c0,-0 -17.555,41.701 -10.081,75.583c0,-0 -1.852,-75.583 4.114,-75.583" style="fill:none;fill-rule:nonzero;stroke:#e6e0d3;stroke-width:5px;"/><path d="M564.176,1848.55l-20.688,-100.67l0,-611.487" style="fill:none;fill-rule:nonzero;stroke:#e6e0d3;stroke-width:5px;"/><path d="M525.081,1817.96l18.407,-70.077" style="fill:none;fill-rule:nonzero;stroke:#e6e0d3;stroke-width:5px;"/><path d="M273.353,962.941c0,-0 10.786,38.458 3.312,72.341c0,-0 11.777,-65.391 5.81,-65.391" style="fill:none;fill-rule:nonzero;stroke:#e6e0d3;stroke-width:5px;"/><path d="M256.186,1848.55l20.688,-100.67l-0,-712.598" style="fill:none;fill-rule:nonzero;stroke:#e6e0d3;stroke-width:5px;"/><path d="M295.281,1817.96l-18.407,-70.078" style="fill:none;fill-rule:nonzero;stroke:#e6e0d3;stroke-width:5px;"/><path d="M336.792,1997.84c0,-0 1.783,9.2 1.299,13.847c0,-0 12.245,-0.095 14.529,-0.747c8.444,-2.408 16.095,-12.936 16.095,-12.936c0,-0 -2.538,-4.595 -2.982,-8.709c0,-0 -6.777,7.635 -18.359,9.953c-6.341,1.27 -10.582,-1.408 -10.582,-1.408Z" style="fill:#ecbba3;fill-rule:nonzero;stroke:#000;stroke-width:3px;"/><path d="M283.793,1559.63c-0,-0.001 -14.711,10.096 -17.1,61.843c-1.55,33.556 -20.199,41.375 -20.199,41.375c-0,0 36.786,17.593 57.814,-3.909c21.027,-21.503 18.695,-39.094 16.766,-53.755l4.791,-17.593l-25.29,-40.304l-16.782,12.343Z" style="fill:#e1750e;fill-rule:nonzero;stroke:#000;stroke-width:3px;"/><path d="M256.268,1660.89c-0,-0 37.466,6.516 46.262,-19.222c8.797,-25.737 1.746,-46.809 10.647,-56.472c-0,-0 -0.377,39.472 -5.832,53.991c-5.454,14.52 -11.295,21.864 -28.486,24.033c-17.19,2.17 -22.591,-2.33 -22.591,-2.33" style="fill:#d16327;fill-rule:nonzero;"/><path d="M319.905,1606.27c-0,-0 -10.587,-26.036 -11.972,-38.471c-0,-0 -0.081,1.982 -1.819,1.982c-1.737,-0 -14.335,0.435 -23.348,-7.167l-3.035,4.726c-0,-0 16.039,8.849 24.577,7.763c-0,-0 2.434,11.94 4.835,18.676c2.401,6.735 9.921,18.124 11.306,19.02l-0.544,-6.529Z" style="fill:#d16327;fill-rule:nonzero;"/><path d="M261.48,1652.42c0,0 18.57,-2.136 21.176,-40.815c2.607,-38.678 15.324,-44.268 15.324,-44.268c0,0 -10.822,26.7 -11.801,44.268c-0.978,17.569 -3.982,29.085 -11.133,34.593c-10.217,7.869 -13.566,6.222 -13.566,6.222" style="fill:#d16327;fill-rule:nonzero;"/><path d="M256.268,1660.89c-0,-0 37.466,6.516 46.262,-19.222c8.797,-25.737 1.746,-46.809 10.647,-56.472" style="fill:none;fill-rule:nonzero;stroke:#000;stroke-width:3px;"/><path d="M261.48,1652.42c0,0 18.57,-2.136 21.176,-40.815c2.607,-38.678 15.324,-44.268 15.324,-44.268" style="fill:none;fill-rule:nonzero;stroke:#000;stroke-width:3px;"/><path d="M472.919,1709.76c-0,-0 14.986,19.059 23.457,20.036c6.958,0.803 35.18,-17.864 42.679,-22.208l3.746,-16.072c-0,-0 -30.613,4.883 -33.436,6.186c-0,-0 -9.385,-4.713 -13.315,-8.63c-3.93,-3.917 -23.131,20.688 -23.131,20.688Z" style="fill:#ecbba3;fill-rule:nonzero;stroke:#000;stroke-width:3px;"/><path d="M545.244,1684.13c6.156,1.486 7.602,4.945 7.385,14.31c-0.218,9.364 -2.39,11.753 -7.385,11.971c-4.995,0.217 -5.973,-1.195 -6.19,-2.824c-0.217,-1.629 2.606,-3.475 2.606,-3.475c0,-0 -3.258,-0.543 -3.475,-2.606c-0.217,-2.064 2.824,-3.475 2.824,-3.475c0,-0 -2.629,-1.412 -2.835,-4.127c-0.206,-2.715 2.726,-3.801 2.726,-3.801c0,-0 -2.866,-0.869 -2.736,-3.367c0.13,-2.497 4.194,-3.303 7.08,-2.606" style="fill:#ecbba3;fill-rule:nonzero;"/><path d="M545.244,1684.13c6.156,1.486 7.602,4.945 7.385,14.31c-0.218,9.364 -2.39,11.753 -7.385,11.971c-4.995,0.217 -5.973,-1.195 -6.19,-2.824c-0.217,-1.629 2.606,-3.475 2.606,-3.475c0,-0 -3.258,-0.543 -3.475,-2.606c-0.217,-2.064 2.824,-3.475 2.824,-3.475c0,-0 -2.629,-1.412 -2.835,-4.127c-0.206,-2.715 2.726,-3.801 2.726,-3.801c0,-0 -2.866,-0.869 -2.736,-3.367c0.13,-2.497 4.194,-3.303 7.08,-2.606Z" style="fill:none;fill-rule:nonzero;stroke:#000;stroke-width:3px;"/><path d="M482.751,1638.85c0,-0 -4.294,47.133 23.724,57.558c28.018,10.426 41.649,5.539 41.649,5.539c0,-0 -6.517,-24.76 -0.626,-57.991c5.891,-33.231 -2.795,-47.479 -2.795,-47.479l-25.197,-11.815l-36.755,54.188Z" style="fill:#e1750e;fill-rule:nonzero;stroke:#000;stroke-width:3px;"/><path d="M541.628,1701.66c-13.519,-0.001 -27.295,-12.862 -30.45,-21.244c-4.251,-11.296 -4.051,-31.72 -4.051,-31.72c8.905,10.57 4.561,20.932 8.905,30.118c7.963,16.843 32.093,23.131 32.093,23.131c-18.296,-14.335 -14.935,-44.634 -12.002,-63.855c2.932,-19.222 -6.516,-26.48 -6.516,-26.48c-0,-0 3.366,15.403 2.606,22.788c-0.76,7.384 -3.909,21.285 -3.149,30.515c0.76,9.231 2.479,24.009 8.145,29.647c5.665,5.639 7.71,5.647 7.71,5.647" style="fill:#d16327;fill-rule:nonzero;"/><path d="M507.127,1648.69c8.904,10.57 4.561,20.931 8.904,30.117c7.964,16.844 32.094,23.132 32.094,23.132c-18.296,-14.335 -14.935,-44.634 -12.003,-63.856c2.932,-19.221 -6.516,-26.479 -6.516,-26.479" style="fill:none;fill-rule:nonzero;stroke:#000;stroke-width:3px;"/><path d="M304.952,1477.8c-10.21,-1.748 -20.088,1.084 -24.191,12.972c-4.104,11.887 -3.141,12.255 -5.587,46.063c-2.446,33.808 31.038,31.439 31.038,31.439l12.486,-37.093l2.24,-27.266l-7.195,-17.209l-8.791,-8.906" style="fill:#0a789b;fill-rule:nonzero;stroke:#000;stroke-width:3px;"/><path d="M295.08,1478.03c-0,0 13.64,-100.247 101.278,-107.414c87.638,-7.168 108.814,16.615 126.081,31.927c17.267,15.312 44.033,52.682 36.026,108.44l-25.166,-2.581l-13.032,-56.773l-171.67,-33.122l-27.659,58.823l-25.858,0.7Z" style="fill:#0a789b;fill-rule:nonzero;stroke:#000;stroke-width:3px;"/><path d="M548.125,1508.4c10.337,0.671 19.287,5.72 20.517,18.235c1.231,12.516 0.209,12.65 -5.263,46.102c-5.473,33.452 -37.491,23.371 -37.491,23.371l-3.531,-38.979l4.154,-27.041l10.996,-15.068l10.618,-6.62" style="fill:#0a789b;fill-rule:nonzero;stroke:#000;stroke-width:3px;"/><path d="M309.652,1506.5c0,-0 -20.689,121.772 61.845,134.803c82.533,13.032 94.906,7.541 117.928,-6.36c23.023,-13.9 50.464,-41.009 50.861,-98.694c0.397,-57.685 -42.607,-98.518 -42.607,-98.518l-118.588,-28.235l-69.439,97.004Z" style="fill:#ecbba3;fill-rule:nonzero;stroke:#000;stroke-width:3px;"/><path d="M379.417,1605.18c-0,-0 6.268,10.751 15.514,12.054c9.246,1.304 13.481,1.304 21.626,-2.28" style="fill:none;fill-rule:nonzero;stroke:#000;stroke-width:3px;"/><path d="M339.67,1800.66c0,0 -37.14,57.339 -38.769,71.348c-1.629,14.009 20.525,100.344 32.253,124.127c0,0 9.122,5.538 17.267,2.28c8.145,-3.258 11.728,-3.909 15.312,-9.122c0,0 -7.167,-63.855 -4.235,-82.099c0,0 23.783,62.226 39.421,79.493c0,0 10.751,1.303 20.199,-2.606c9.448,-3.91 13.683,-9.774 13.683,-9.774c0,0 -23.439,-50.511 -25.412,-74.256c-0.651,-7.844 1.629,-11.427 21.177,-24.785c19.547,-13.357 40.398,-23.457 42.353,-66.135c0,0 -37.141,10.099 -74.932,8.796c-37.792,-1.303 -58.317,-17.267 -58.317,-17.267Z" style="fill:#364b87;fill-rule:nonzero;stroke:#000;stroke-width:3px;"/><path d="M444.739,1994.86l1.14,6.437c0,-0 -11.283,19.631 -21.761,28.855c-10.479,9.224 -15.235,13.312 -20.209,16.441l-4.48,-3.286" style="fill:#fff;fill-rule:nonzero;stroke:#000;stroke-width:3px;"/><path d="M437.615,1981.77c0,0 4.887,7.167 7.124,13.093c0,0 -12.432,19.855 -24.069,30.253c-11.637,10.398 -21.241,18.195 -21.241,18.195c0,0 -12.522,-7.613 -9.054,-17.125c3.468,-9.512 11.352,-25.668 16.616,-30.733c0,0 12.81,1.354 16.634,-1.846c3.824,-3.2 13.99,-11.837 13.99,-11.837Z" style="fill:#e6e0d3;fill-rule:nonzero;stroke:#000;stroke-width:3px;"/><path d="M403.417,2002.27c0,-0 6.432,-0.102 9.076,3.191" style="fill:none;fill-rule:nonzero;stroke:#000;stroke-width:3px;"/><path d="M398.7,2008.54c0,0 7.068,-0.342 10.681,3.096" style="fill:none;fill-rule:nonzero;stroke:#000;stroke-width:3px;"/><path d="M394.61,2016.86c-0,0 7.007,-1.775 9.497,1.968" style="fill:none;fill-rule:nonzero;stroke:#000;stroke-width:3px;"/><path d="M391.532,2023.17c0,-0 17.497,0.587 22,8.228l-14.103,11.909c0,-0 -14.267,-8.436 -7.897,-20.137Z" style="fill:#fff;fill-rule:nonzero;stroke:#000;stroke-width:3px;"/><path d="M375.839,2011.09l1.14,6.437c0,0 -12.017,20.493 -21.02,31.163c-7.605,9.013 -14.791,14.79 -19.764,17.918l-4.453,-3.04" style="fill:#fff;fill-rule:nonzero;stroke:#000;stroke-width:3px;"/><path d="M368.715,1998c0,0 4.887,7.167 7.124,13.093c0,0 -14.084,19.02 -23.572,31.41c-9.231,12.054 -20.525,21.068 -20.525,21.068c0,0 -13.303,-10.404 -9.835,-19.916c3.468,-9.513 10.92,-26.907 16.184,-31.972c0,0 12.371,0.741 16.634,-1.846c6.121,-3.714 13.99,-11.837 13.99,-11.837Z" style="fill:#e6e0d3;fill-rule:nonzero;stroke:#000;stroke-width:3px;"/><path d="M334.517,2017.63c0,0 6.432,-0.102 9.076,3.191" style="fill:none;fill-rule:nonzero;stroke:#000;stroke-width:3px;"/><path d="M330.352,2024.77c-0,0 7.068,-0.342 10.681,3.096" style="fill:none;fill-rule:nonzero;stroke:#000;stroke-width:3px;"/><path d="M326.196,2033.09c-0,0 7.007,-1.775 9.497,1.968" style="fill:none;fill-rule:nonzero;stroke:#000;stroke-width:3px;"/><path d="M322.946,2041.2c0,-0 19.172,0.286 23.674,7.928l-14.878,14.443c0,-0 -15.166,-10.67 -8.796,-22.371Z" style="fill:#fff;fill-rule:nonzero;stroke:#000;stroke-width:3px;"/><path d="M337.296,2012.92c-0,0 -7.372,-4.452 -11.824,0c-4.453,4.453 9.313,6.842 11.824,0Z" style="fill:none;fill-rule:nonzero;stroke:#000;stroke-width:3px;"/><path d="M338.232,2012.98c-0,-0 4.699,7.217 10.646,5.146c5.946,-2.071 -5.408,-10.213 -10.646,-5.146Z" style="fill:none;fill-rule:nonzero;stroke:#000;stroke-width:3px;"/><path d="M403.417,1986.86c0,0 2.37,2.813 3.574,8.596c0,0 6.123,3.028 14.034,-0.59c7.912,-3.617 16.59,-13.093 16.59,-13.093c0,0 -1.794,-5.204 -3.42,-8.789c0,0 -9.602,8.491 -17.421,11.097c-7.819,2.607 -13.357,2.779 -13.357,2.779Z" style="fill:#ecbba3;fill-rule:nonzero;stroke:#000;stroke-width:3px;"/><path d="M357.806,1688.37c-0,-0 -2.33,5.647 -6.154,9.014" style="fill:#f07e88;fill-rule:nonzero;stroke:#000;stroke-width:3px;"/><path d="M458.15,1695.75c-0,-0 1.789,4.177 5.647,7.334" style="fill:#f07e88;fill-rule:nonzero;stroke:#000;stroke-width:3px;"/><path d="M332.211,1708.51c0,0 -11.496,12.38 -15.405,12.814c-3.91,0.435 -30.396,-7.384 -37.895,-11.728l-0.983,-14.118c0,0 17.376,-1.303 20.199,0c0,0 8.864,-10.844 12.794,-14.761c3.93,-3.917 21.29,27.793 21.29,27.793Z" style="fill:#ecbba3;fill-rule:nonzero;stroke:#000;stroke-width:3px;"/><path d="M275.924,1685.11c-6.156,1.485 -7.602,4.945 -7.385,14.31c0.218,9.364 2.39,11.753 7.385,11.971c4.995,0.217 5.973,-1.195 6.19,-2.824c0.217,-1.629 -2.606,-3.475 -2.606,-3.475c-0,0 3.258,-0.543 3.475,-2.607c0.217,-2.063 -2.824,-3.475 -2.824,-3.475c-0,0 2.629,-1.411 2.835,-4.126c0.206,-2.715 -2.726,-3.801 -2.726,-3.801c-0,0 2.866,-0.869 2.736,-3.367c-0.13,-2.497 -4.193,-3.303 -7.08,-2.606" style="fill:#ecbba3;fill-rule:nonzero;"/><path d="M275.924,1685.11c-6.156,1.485 -7.602,4.945 -7.385,14.31c0.218,9.364 2.39,11.753 7.385,11.971c4.995,0.217 5.973,-1.195 6.19,-2.824c0.217,-1.629 -2.606,-3.475 -2.606,-3.475c-0,0 3.258,-0.543 3.475,-2.607c0.217,-2.063 -2.824,-3.475 -2.824,-3.475c-0,0 2.629,-1.411 2.835,-4.126c0.206,-2.715 -2.726,-3.801 -2.726,-3.801c-0,0 2.866,-0.869 2.736,-3.367c-0.13,-2.497 -4.193,-3.303 -7.08,-2.606Z" style="fill:none;fill-rule:nonzero;stroke:#000;stroke-width:3px;"/><path d="M351.652,1635.31c-0,0 -31.529,27.864 -40.651,43.502c-0,0 5.616,19.547 22.03,29.973c-0,0 11.707,-4.235 18.621,-11.403c-0,0 -13.936,71.023 -11.981,103.276c-0,0 15.312,16.615 58.316,17.267c43.005,0.651 74.932,-8.797 74.932,-8.797c-0,0 -2.932,-88.281 -9.122,-106.041c-0,0 6.19,5.372 9.122,6.675c-0,0 13.278,-5.61 24.557,-18.769c-0,0 -11.503,-10.5 -13.211,-26.492c-1.708,-15.993 -1.513,-25.655 -1.513,-25.655c-0,0 -23.517,13.597 -49.254,9.678c-0,0 -2.606,17.256 -26.715,16.931c-24.108,-0.326 -20.831,-21.959 -20.831,-21.959c-0,0 -18.083,-0.865 -34.3,-8.186Z" style="fill:#f07e88;fill-rule:nonzero;stroke:#000;stroke-width:3px;"/><path d="M481.254,1641.31c-0,-0 0.089,4.41 0.136,5.549c-0,-0 -18.535,10.659 -50.154,7.625l1.339,-4.934c-0,-0 31.412,1.89 48.679,-8.24" style="fill:#f0697e;fill-rule:nonzero;"/><path d="M351.652,1636.79l-6.016,5.928c-0,0 13.952,6.18 40.477,8.926l-1.646,-6.709c-0,0 -19.113,-1.086 -32.815,-8.145" style="fill:#f0697e;fill-rule:nonzero;"/><path d="M385.952,1643.5c-0,0 -4.254,22.447 20.832,21.959c25.085,-0.489 26.714,-16.931 26.714,-16.931c-0,0 -30.423,-1.901 -47.546,-5.028Z" style="fill:#ecbba3;fill-rule:nonzero;stroke:#000;stroke-width:3px;"/><path d="M387.383,1645.26c-0,0 -0.435,2.799 0.311,6.641c-0,0 19.46,4.049 41.433,2.97c-0,0 1.051,-1.2 2.742,-5.029c-0,0 -30.739,-1.976 -44.486,-4.582" style="fill:#ddac8f;fill-rule:nonzero;"/><path d="M406.196,1996.69c-0,-0 -7.372,-4.453 -11.824,-0c-4.453,4.453 9.313,6.842 11.824,-0Z" style="fill:none;fill-rule:nonzero;stroke:#000;stroke-width:3px;"/><path d="M407.131,1996.75c0,0 4.699,7.217 10.646,5.146c5.946,-2.071 -5.408,-10.213 -10.646,-5.146Z" style="fill:none;fill-rule:nonzero;stroke:#000;stroke-width:3px;"/><path d="M317.466,1506.61c9.08,-2.478 25.274,-6.298 38.168,-6.098l0.543,10.099c0,-0 13.466,-2.172 35.837,0.326c22.371,2.498 32.579,3.692 32.579,3.692c0,-0 0.434,-3.8 1.086,-6.95l0.537,8.471c0,-0 21.182,-0.435 30.848,1.412c9.665,1.846 36.488,5.647 38.551,6.19c0,-0 1.521,-8.905 1.847,-12.163c0,-0 0.868,12.163 0.543,14.226c0,-0 33.726,12.126 40.375,14.612c0,-0 0.457,-4.621 0.348,-7.228c0,-0 -25.411,-11.294 -36.705,-12.597c0,-0 0.434,-35.185 -3.041,-49.954l-6.95,45.176c0,-0 -35.62,-9.122 -61.683,-8.253c0,-0 -1.738,-38.662 -0.435,-51.042c0,-0 -9.556,35.404 -8.688,49.738c0,-0 -37.357,-6.95 -56.036,-5.212c0,-0 -6.081,-49.521 4.779,-67.33c0,-0 -18.245,16.506 -18.245,58.642c0,-0 -21.866,-1.368 -40.11,9.057c0,-0 -16.534,89.859 30.337,126.565c17.603,13.785 57.773,16.073 66.461,16.941c0,-0 -67.365,-10.805 -81.665,-41.701c-19.402,-41.918 -9.281,-96.619 -9.281,-96.619" style="fill:#ddac8f;fill-rule:nonzero;"/><path d="M504.246,1532.96c0,0 -1.303,-16.724 -16.507,-19.33c-15.203,-2.607 -23.457,9.665 -23.457,9.665c0,0 10.86,-3.801 23.24,-1.195c7.463,1.571 16.724,10.86 16.724,10.86Z" style="fill:#e1750e;fill-rule:nonzero;stroke:#000;stroke-width:3px;"/><path d="M334.349,1520.69c-0,0 1.303,-16.724 16.507,-19.33c15.203,-2.607 23.457,9.665 23.457,9.665c-0,0 -10.86,-3.801 -23.24,-1.195c-7.463,1.572 -16.724,10.86 -16.724,10.86Z" style="fill:#e1750e;fill-rule:nonzero;stroke:#000;stroke-width:3px;"/><path d="M304.81,1508.97c0,-0 -15.204,-125.538 121.629,-125.973c136.832,-0.434 124.669,112.072 118.153,155.077c0,-0 -29.972,-13.032 -41.266,-14.335c0,-0 -0.869,-34.316 -4.344,-49.086l-6.951,45.177c0,-0 -35.619,-9.122 -61.683,-8.254c0,-0 -1.737,-38.662 -0.434,-51.041c0,-0 -9.557,35.403 -8.688,49.738c0,-0 -37.357,-6.95 -56.036,-5.213c0,-0 -6.081,-49.52 4.778,-67.33c0,-0 -18.244,16.507 -18.244,58.643c0,-0 -28.67,2.172 -46.914,12.597Z" style="fill:#e1750e;fill-rule:nonzero;stroke:#000;stroke-width:3px;"/><path d="M340.213,1802.83c0,0 18.027,17.05 57.774,16.507c39.746,-0.543 73.194,-8.254 73.194,-8.254c0,0 -0.08,3.522 -0.543,6.874c0,0 -46.626,13.108 -86.59,8.547c-39.964,-4.561 -48.622,-16.407 -48.622,-16.407l4.787,-7.267Z" style="fill:#2d367a;fill-rule:nonzero;"/><path d="M361.498,1907.19c0,0 -9.448,-21.719 -3.91,-32.253c6.781,-12.896 28.996,-47.24 40.399,-57.014" style="fill:none;fill-rule:nonzero;stroke:#000;stroke-width:3px;"/><path d="M543.833,1598.12c-0,-0 -5.482,2.172 -16.207,-0c-0,-0 -10.182,18.679 -25.494,29.864c-15.313,11.186 -17.81,11.729 -17.81,11.729l-0,5.864c-0,-0 34.859,-17.484 45.393,-39.855c-0,-0 8.145,0.651 16.019,-2.172l-1.901,-5.43Z" style="fill:#d16327;fill-rule:nonzero;"/><path d="M475.285,1710.31l3.68,4.252c-0,0 20.75,-11.802 24.741,-17.748c-0,0 -4.438,-2.253 -5.946,-3.801c-0,0 -7.244,8.479 -22.475,17.297" style="fill:#ddac8f;fill-rule:nonzero;"/><path d="M310.838,1682.88l-3.177,3.584c-0,-0 7.738,18.162 18.774,25.615l3.584,-3.502c-0,-0 -4.398,-3.095 -9.652,-9.652c-7.564,-9.441 -9.529,-16.045 -9.529,-16.045" style="fill:#ddac8f;fill-rule:nonzero;"/><path d="M500.086,1574.07c0,0 -6.751,5.809 -13.919,3.203c-7.167,-2.606 -13.031,-10.745 -19.764,-10.839c-9.231,-0.129 -13.796,-0.057 -18.029,1.699c-4.234,1.756 7.495,-11.412 17.377,-9.932c9.882,1.479 15.745,8.078 19.818,11.566c4.074,3.488 7.259,5.878 14.517,4.303" style="fill:#ddac8f;fill-rule:nonzero;"/><path d="M322.145,1557.6c0,0 5.923,6.818 13.582,5.391c7.659,-1.427 14.864,-8.528 21.691,-7.543c9.359,1.35 13.967,2.151 17.976,4.563c4.008,2.412 -5.801,-12.471 -16.031,-12.591c-10.23,-0.12 -17.192,5.459 -21.858,8.253c-4.666,2.793 -8.263,4.644 -15.36,1.927" style="fill:#ddac8f;fill-rule:nonzero;"/><path d="M377.288,1559.63c0,0 -8.306,-14.838 -22.945,-11.976c-14.639,2.862 -14.92,10.104 -23.971,10.374c-8.433,0.251 -10.468,-4.633 -10.468,-4.633" style="fill:none;fill-rule:nonzero;stroke:#000;stroke-width:3px;"/><path d="M340.195,1553.68c-0,0 -8.376,2.155 -14.329,-2.716" style="fill:none;fill-rule:nonzero;stroke:#000;stroke-width:3px;"/><path d="M448.048,1567.07c-0,0 10.536,-13.032 23.893,-7.493c13.358,5.538 12.323,12.706 20.851,14.656c7.946,1.817 10.751,-2.602 10.751,-2.602" style="fill:none;fill-rule:nonzero;stroke:#000;stroke-width:3px;"/><path d="M484.264,1568.13c0,-0 7.55,3.677 14.066,-0" style="fill:none;fill-rule:nonzero;stroke:#000;stroke-width:3px;"/><path d="M409.475,1593.58c-0,0 -12.733,1.136 -14.837,-5.835c-0,0 0.502,12.233 14.837,5.835" style="fill:#ddac8f;fill-rule:nonzero;"/><path d="M412.539,1555.88c-0,-0 -0,14.769 -13.9,23.023c-9.545,5.667 1.303,15.203 10.425,13.466" style="fill:none;fill-rule:nonzero;stroke:#000;stroke-width:3px;"/><path d="M449.788,345.349c-0,0 -16.615,-17.593 -0,-38.117c16.615,-20.525 42.027,-8.797 42.027,-8.797c-0,0 -11.729,-50.823 19.547,-81.122c31.276,-30.298 93.828,-10.751 93.828,-10.751c-0,0 -7.493,-11.403 -2.932,-45.611" style="fill:none;fill-rule:nonzero;stroke:#224e2f;stroke-width:5px;"/><path d="M368.34,1437.08c-0,-0.001 -11.071,11.37 -15.475,32.904c-2.932,14.335 -2.65,25.005 -2.65,25.005l-3.717,0.434c-0,0 1.969,-43.683 21.842,-58.344" style="fill:#d16327;fill-rule:nonzero;"/><path d="M428.558,1459.93c0,-0 -5.351,20.497 -6.866,30.392c-1.515,9.896 -2.221,15.752 -1.919,18.175c0,-0 -2.625,-0.606 -4.341,-0.807c0,-0 6.462,-37.966 13.126,-47.76" style="fill:#d16327;fill-rule:nonzero;"/><path d="M497.315,1475.11c0,0 -5.64,37.733 -6.604,42.695l-5.682,-1.229c0,0 7.218,-26.876 12.286,-41.466" style="fill:#d16327;fill-rule:nonzero;"/><path d="M261.48,1652.42c0,0 18.57,-2.136 21.176,-40.815c2.607,-38.678 15.324,-44.268 15.324,-44.268" style="fill:none;fill-rule:nonzero;stroke:#000;stroke-width:3px;"/></svg>